<?xml version="1.0" standalone="no"?>
<!DOCTYPE svg PUBLIC "-//W3C//DTD SVG 20010904//EN"
 "http://www.w3.org/TR/2001/REC-SVG-20010904/DTD/svg10.dtd">
<svg version="1.0" xmlns="http://www.w3.org/2000/svg"
 width="460.000000pt" height="460.000000pt" viewBox="0 0 460.000000 460.000000"
 preserveAspectRatio="xMidYMid meet">
<metadata>
Created by potrace 1.14, written by Peter Selinger 2001-2017
</metadata>
<g transform="translate(0.000000,460.000000) scale(0.100000,-0.100000)"
fill="#000000" stroke="none">
<path d="M660 4086 c-19 -6 -37 -12 -40 -12 -20 -3 -59 -20 -82 -37 -21 -16
-31 -18 -39 -10 -9 9 -15 8 -26 -3 -8 -7 -12 -18 -9 -23 3 -4 -10 -24 -29 -44
-19 -20 -35 -41 -35 -47 0 -6 -4 -9 -9 -6 -10 7 -65 -102 -77 -154 -7 -29 -6
-125 2 -150 4 -14 8 -42 8 -62 1 -21 4 -38 9 -38 4 0 7 -7 7 -15 0 -9 7 -18
15 -21 8 -4 15 -12 15 -20 0 -8 4 -14 8 -14 4 0 15 -12 24 -27 9 -16 28 -41
42 -58 17 -19 25 -39 24 -55 -2 -20 1 -24 18 -22 15 2 25 -5 33 -26 14 -32 60
-54 85 -40 20 11 42 -3 51 -32 7 -21 67 -44 108 -42 26 2 109 31 154 54 13 6
26 8 30 5 3 -4 1 -7 -5 -7 -7 0 -12 -7 -12 -15 0 -9 -6 -18 -13 -21 -8 -3 -14
-10 -15 -17 -4 -48 -2 -150 4 -192 4 -27 7 -61 8 -75 1 -14 6 -32 10 -39 8
-12 -6 -35 -22 -37 -21 -2 -62 -25 -62 -34 0 -6 -4 -9 -9 -6 -11 7 -57 -52
-76 -98 -9 -20 -13 -57 -11 -89 3 -51 2 -56 -20 -60 -13 -2 -24 -1 -24 4 0 4
-13 4 -29 -1 -19 -5 -33 -4 -40 3 -8 8 -11 8 -11 -2 0 -7 -5 -9 -10 -6 -18 11
-48 -5 -44 -23 2 -9 6 -71 8 -137 7 -170 14 -236 27 -251 9 -11 8 -14 -2 -14
-9 0 -10 -3 -4 -8 6 -4 12 -20 13 -35 1 -16 5 -34 9 -40 3 -6 7 -22 8 -36 2
-14 6 -37 10 -51 4 -14 8 -32 9 -40 1 -9 5 -21 10 -28 4 -6 5 -12 2 -12 -3 0
3 -24 15 -52 11 -29 22 -63 25 -76 9 -46 95 -245 143 -332 4 -8 13 -25 19 -37
25 -49 37 -68 47 -75 6 -4 7 -8 3 -8 -5 0 0 -8 10 -18 15 -15 18 -34 17 -112
l0 -95 40 -5 c31 -4 46 -1 65 15 14 11 22 17 19 12 -10 -12 190 -227 210 -227
6 0 11 -4 11 -9 0 -4 34 -35 76 -67 42 -33 82 -65 90 -72 8 -7 14 -11 14 -8 0
3 12 -4 26 -17 14 -12 30 -22 35 -22 5 0 13 -6 18 -13 5 -8 11 -12 14 -10 3 1
18 -8 33 -21 18 -16 24 -26 16 -29 -10 -3 -10 -7 -1 -18 9 -11 9 -14 -1 -14
-9 0 -9 -4 -2 -13 7 -8 7 -18 2 -27 -5 -8 -5 -21 1 -32 6 -11 6 -18 0 -18 -12
0 -9 -33 4 -42 6 -5 5 -8 -4 -8 -11 0 -11 -3 -1 -15 10 -12 10 -15 0 -15 -9 0
-8 -5 3 -18 18 -19 47 -25 47 -10 0 5 5 6 11 3 13 -9 1428 -9 1437 -1 3 4 6
62 6 129 1 104 4 126 19 141 9 10 17 15 17 12 0 -7 92 47 119 70 12 11 24 18
26 17 3 -2 13 5 23 15 10 9 38 33 62 52 24 19 63 54 88 78 24 23 48 42 53 42
5 0 9 4 9 8 0 5 26 36 58 70 42 44 64 61 75 56 25 -9 100 32 121 67 20 34 24
103 6 124 -7 8 -7 15 -1 19 16 10 155 266 144 266 -3 0 2 9 12 20 10 11 15 20
10 20 -4 0 -2 6 4 13 6 8 8 17 4 20 -3 4 -1 7 5 7 7 0 11 3 11 8 -4 21 2 43
10 38 8 -5 38 81 33 97 -1 4 2 7 7 7 7 0 19 49 23 98 1 6 5 12 10 12 4 0 7 3
7 8 -1 4 -1 9 1 12 1 3 4 16 7 30 7 39 11 55 13 55 1 0 3 9 4 20 2 11 6 38 11
60 26 141 32 200 41 374 5 89 3 115 -7 122 -7 4 -19 3 -25 -2 -8 -7 -14 -6
-19 1 -3 6 -11 7 -18 3 -17 -11 -57 -10 -57 2 0 5 -4 4 -9 -4 -5 -8 -11 -9
-15 -3 -4 6 -17 7 -34 3 -15 -5 -35 -3 -47 3 -11 6 -21 11 -23 12 -1 0 5 18
13 38 12 29 13 45 5 75 -13 49 -71 127 -84 114 -10 -11 -47 30 -41 46 15 50 4
120 -27 161 -18 25 -19 31 -7 46 19 23 22 200 3 218 -28 29 2 24 65 -10 89
-48 124 -48 176 -1 20 18 38 26 53 24 15 -3 33 5 53 24 17 16 34 29 38 29 15
0 107 97 127 134 19 34 27 39 61 41 52 3 76 20 96 65 17 39 16 64 -4 112 -14
35 -59 54 -133 57 -11 1 -16 4 -13 7 10 10 -30 63 -87 117 -80 75 -82 77 -94
77 -7 0 -12 3 -12 8 0 4 -15 13 -32 20 -18 8 -42 17 -53 22 -32 13 -58 21 -84
26 -33 7 -41 12 -41 31 0 27 -33 72 -59 79 -96 28 -172 -25 -167 -116 3 -37
-2 -51 -26 -79 -24 -27 -42 -58 -53 -91 -1 -3 -7 -18 -13 -33 -7 -16 -12 -34
-12 -42 0 -7 -7 -20 -15 -28 -17 -17 -27 -64 -16 -72 10 -6 2 -55 -9 -55 -4 0
-7 -20 -5 -45 3 -47 29 -92 91 -152 35 -34 35 -47 -1 -33 -13 5 -25 7 -28 4
-2 -3 -13 -6 -23 -8 -11 -3 -40 -9 -65 -15 -27 -6 -58 -7 -75 -2 -16 4 -35 6
-41 4 -7 -3 -13 0 -13 7 0 6 -4 9 -9 6 -10 -7 -37 22 -28 30 8 9 -29 80 -54
105 -11 11 -42 31 -67 44 -45 22 -79 25 -170 13 -20 -3 -26 5 -42 51 -23 69
-89 130 -120 111 -8 -5 -19 -6 -25 -2 -13 9 -65 10 -65 2 0 -3 -9 -6 -21 -7
-11 -1 -39 -11 -61 -23 -33 -17 -43 -19 -56 -8 -13 11 -14 11 -7 -2 5 -9 0 -8
-13 4 -12 11 -22 23 -22 28 0 12 -43 52 -60 56 -8 2 -17 7 -20 11 -13 18 -154
18 -200 1 -3 -2 -8 -2 -12 -1 -5 0 -8 -3 -8 -8 0 -5 -11 -12 -25 -15 -14 -4
-23 -11 -20 -16 3 -5 -4 -11 -15 -15 -11 -3 -20 -10 -20 -14 0 -5 -11 -6 -25
-3 -14 2 -25 8 -25 12 0 4 -28 6 -62 5 -63 -2 -135 -27 -151 -52 -4 -7 -14
-13 -20 -13 -7 0 -24 -13 -38 -29 -25 -28 -26 -28 -65 -15 -21 7 -52 11 -69 8
-16 -3 -34 -7 -40 -8 -5 -1 -16 -5 -22 -9 -7 -5 -13 -5 -13 -2 0 10 -62 -36
-87 -64 -12 -14 -20 -27 -18 -30 3 -2 -2 -9 -10 -15 -8 -6 -16 -20 -18 -31 -4
-30 -17 -47 -32 -41 -7 2 -18 -1 -24 -7 -7 -7 -11 -8 -11 0 0 14 -92 -3 -145
-27 -40 -17 -105 -74 -105 -91 0 -13 -24 -11 -38 3 -7 7 -29 11 -50 9 l-37 -3
23 19 c13 10 34 27 45 38 12 11 35 30 51 43 16 12 25 22 21 22 -5 0 1 8 11 18
10 9 21 24 23 32 9 38 -1 116 -18 133 -7 7 -5 17 6 29 23 26 26 54 8 88 -9 17
-15 32 -15 35 1 25 -1 27 -14 16 -10 -9 -17 -7 -27 5 -8 10 -13 19 -12 20 2 2
-31 56 -73 119 -53 80 -83 117 -100 121 -13 3 -24 10 -24 14 0 10 -97 57 -135
65 -59 13 -161 13 -195 1z m3109 -2951 c-3 -49 -36 -92 -77 -100 -12 -2 -27
-7 -32 -10 -6 -3 -10 1 -10 9 0 9 4 16 8 16 5 0 24 21 43 48 37 52 62 82 67
82 1 0 2 -20 1 -45z m-2789 -6 c8 -12 20 -27 25 -33 6 -6 11 -23 13 -38 3 -25
0 -28 -26 -28 -33 0 -47 20 -29 40 7 7 7 10 2 7 -7 -3 -11 9 -11 34 0 44 5 48
26 18z"/>
</g>
</svg>
