<?xml version="1.0" standalone="no"?>
<!DOCTYPE svg PUBLIC "-//W3C//DTD SVG 20010904//EN"
 "http://www.w3.org/TR/2001/REC-SVG-20010904/DTD/svg10.dtd">
<svg version="1.0" xmlns="http://www.w3.org/2000/svg"
 width="460.000000pt" height="460.000000pt" viewBox="0 0 460.000000 460.000000"
 preserveAspectRatio="xMidYMid meet">
<metadata>
Created by potrace 1.14, written by Peter Selinger 2001-2017
</metadata>
<g transform="translate(0.000000,460.000000) scale(0.100000,-0.100000)"
fill="#000000" stroke="none">
<path d="M2060 3523 c-623 -64 -1153 -351 -1390 -754 -173 -294 -173 -644 0
-938 113 -193 335 -397 551 -506 l46 -24 20 58 21 58 -91 61 c-287 188 -458
424 -506 696 -41 228 37 486 209 692 195 234 536 423 913 505 351 77 753 62
1089 -41 90 -28 107 -30 250 -29 l153 1 -70 33 c-170 81 -420 150 -648 180
-108 14 -443 19 -547 8z"/>
<path d="M2359 3213 c-35 -90 -49 -128 -49 -130 0 -2 23 -3 50 -3 28 0 50 -3
50 -7 0 -15 -113 -334 -117 -330 -2 2 21 75 52 162 30 87 54 159 53 160 -5 4
-1029 -13 -1033 -17 -4 -3 -165 -458 -165 -465 0 -1 131 -3 290 -3 225 0 290
-3 290 -12 0 -7 -99 -293 -219 -635 l-218 -623 221 0 221 0 59 170 c32 94 60
169 62 167 2 -2 -9 -43 -25 -91 l-30 -86 170 2 171 3 221 625 222 625 305 3
305 3 84 242 c46 133 86 248 88 255 4 9 -104 12 -521 12 l-526 0 -11 -27z
m-160 -752 c-51 -144 -94 -260 -96 -258 -2 2 38 122 88 266 51 144 94 260 96
258 2 -2 -38 -122 -88 -266z m-190 -540 c-51 -144 -94 -260 -96 -258 -2 2 38
122 88 266 51 144 94 260 96 258 2 -2 -38 -122 -88 -266z"/>
<path d="M3471 3143 l-23 -64 21 -16 c12 -8 52 -41 89 -73 252 -218 381 -536
331 -816 -57 -326 -296 -605 -674 -790 -218 -106 -444 -168 -710 -195 -146
-14 -411 -6 -540 17 -60 11 -164 18 -315 20 l-225 4 50 -20 c77 -31 245 -77
358 -99 176 -34 315 -44 540 -38 230 5 362 24 563 77 590 157 1025 541 1108
980 73 385 -109 769 -492 1038 l-58 40 -23 -65z"/>
</g>
</svg>
