<?xml version="1.0" standalone="no"?>
<!DOCTYPE svg PUBLIC "-//W3C//DTD SVG 20010904//EN"
 "http://www.w3.org/TR/2001/REC-SVG-20010904/DTD/svg10.dtd">
<svg version="1.0" xmlns="http://www.w3.org/2000/svg"
 width="530.000000pt" height="530.000000pt" viewBox="0 0 530.000000 530.000000"
 preserveAspectRatio="xMidYMid meet">
<metadata>
Created by potrace 1.14, written by Peter Selinger 2001-2017
</metadata>
<g transform="translate(0.000000,530.000000) scale(0.100000,-0.100000)"
fill="#000000" stroke="none">
<path d="M2603 5045 c-102 -31 -188 -108 -265 -237 -22 -37 -41 -68 -43 -68
-1 0 -20 7 -41 16 -51 21 -68 25 -144 29 -337 17 -515 -367 -272 -587 49 -44
89 -66 161 -87 l53 -16 27 -80 c35 -105 69 -160 140 -232 115 -115 259 -177
411 -176 126 0 244 45 305 115 l33 40 49 -29 c42 -24 58 -28 128 -28 70 0 87
4 135 30 77 42 160 131 204 218 72 141 56 255 -45 323 l-45 30 25 40 c95 150
65 325 -72 425 -54 39 -98 50 -213 51 -133 1 -151 9 -184 84 -32 69 -84 119
-145 135 -60 17 -155 19 -202 4z"/>
<path d="M1394 4891 c-86 -98 -129 -171 -162 -271 -25 -77 -32 -112 -34 -161
l-1 -36 -56 12 c-125 29 -228 39 -411 39 -227 0 -355 -18 -363 -53 -4 -20 32
-120 74 -204 112 -223 324 -427 554 -533 84 -39 196 -77 278 -94 64 -13 61 -6
41 -80 -11 -42 -44 -200 -49 -235 -3 -22 -10 -67 -15 -100 -29 -179 -31 -591
-5 -737 3 -13 7 -43 9 -68 3 -25 7 -54 9 -65 3 -11 7 -36 11 -55 3 -19 9 -46
12 -60 3 -14 7 -36 10 -50 3 -14 12 -51 20 -83 l15 -57 -29 -43 c-65 -95 -119
-216 -146 -327 -24 -100 -28 -127 -30 -231 -8 -288 99 -554 302 -758 176 -176
381 -266 767 -336 44 -8 91 -17 104 -20 14 -2 45 -7 70 -10 25 -3 57 -7 71
-10 89 -18 418 -26 535 -13 165 19 311 64 490 153 223 111 408 262 491 401 38
65 81 164 90 209 30 156 33 181 30 330 -4 218 -38 367 -123 540 -46 93 -68
128 -125 203 -35 45 -47 68 -43 85 48 213 55 596 15 772 -20 84 -24 80 108 81
64 0 137 3 162 7 322 43 609 203 796 443 88 112 87 118 -28 176 -191 97 -387
148 -577 150 -33 1 -61 2 -61 3 0 1 9 22 20 47 72 164 68 348 -11 514 -22 47
-35 63 -55 68 -15 4 -30 3 -34 -1 -5 -4 -18 -46 -29 -92 -55 -212 -178 -373
-397 -519 -55 -37 -128 -80 -162 -97 -59 -29 -62 -32 -62 -67 0 -56 55 -209
84 -234 l25 -22 70 19 c39 11 94 28 122 39 45 17 71 18 211 15 89 -2 184 -7
212 -11 28 -4 56 -7 63 -7 20 -1 6 -13 -54 -49 -56 -33 -226 -110 -281 -129
-152 -49 -167 -56 -170 -79 -4 -22 -2 -23 44 -16 73 10 247 72 349 125 101 53
245 147 245 160 0 22 -31 31 -155 47 -55 7 -216 17 -257 16 -27 -1 -48 0 -48
2 0 1 24 19 54 40 30 20 84 68 120 107 l67 70 67 -1 c37 -1 86 -4 109 -7 l42
-5 -19 -27 c-18 -26 -23 -46 -21 -87 0 -11 24 -45 52 -74 55 -57 58 -75 29
-146 -25 -60 23 -121 99 -127 16 -1 27 -5 24 -10 -7 -11 -159 -87 -230 -113
-58 -22 -140 -43 -228 -60 -22 -4 -114 -8 -205 -8 -185 -1 -170 6 -157 -81 23
-142 27 -504 8 -680 -7 -60 -14 -111 -16 -113 -2 -2 -32 19 -67 46 -115 90
-269 156 -423 181 -56 9 -266 8 -310 -2 -128 -29 -451 -29 -590 -1 -11 2 -63
6 -115 9 -75 4 -121 -1 -215 -20 -276 -56 -455 -147 -563 -287 -25 -32 -48
-58 -52 -58 -4 0 -13 35 -20 78 -8 42 -14 79 -15 82 -3 13 -15 78 -19 105 -3
17 -10 52 -15 78 l-9 48 26 -17 c33 -21 89 -21 130 0 32 16 55 47 103 136 59
111 101 141 202 146 33 1 63 6 68 11 4 4 12 28 18 52 18 80 -27 169 -129 255
-19 16 -77 72 -128 124 -52 51 -108 99 -125 107 -32 13 -85 10 -102 -6 -18
-18 -36 -10 -30 14 8 36 14 77 25 167 6 47 12 99 14 116 2 17 1 36 -3 42 -3 6
-41 18 -82 27 -231 47 -442 160 -605 323 -89 88 -122 133 -86 113 11 -6 36 -9
57 -7 50 4 76 34 66 78 -10 48 -4 65 35 89 40 24 67 69 58 96 -4 10 -25 38
-48 61 l-41 44 96 -6 c53 -3 128 -13 165 -22 38 -9 78 -18 89 -20 11 -2 41 -8
66 -14 l47 -11 6 -52 c4 -29 16 -83 27 -120 11 -38 19 -71 17 -73 -2 -2 -25 3
-50 11 -26 7 -59 16 -75 19 -266 48 -278 49 -292 32 -39 -47 381 -414 528
-461 21 -6 40 6 41 26 0 4 -37 31 -82 60 -141 92 -378 287 -378 312 0 3 10 4
22 2 12 -3 40 -7 63 -10 22 -3 48 -8 57 -11 9 -3 27 -7 40 -9 53 -10 154 -37
163 -43 6 -4 26 -32 46 -62 52 -80 131 -163 223 -234 69 -54 169 -116 186
-116 11 0 71 58 104 102 38 50 82 132 88 160 2 9 -24 45 -62 85 -173 180 -267
324 -324 495 -37 110 -40 131 -40 293 0 91 -5 153 -11 157 -26 19 -61 5 -101
-41z m738 -2600 c12 -2 56 -87 78 -151 45 -136 14 -319 -78 -458 -78 -119
-174 -134 -229 -35 -80 144 -61 382 44 541 43 64 114 114 153 108 14 -2 28 -5
32 -5z m1008 -37 c42 -36 85 -125 105 -221 14 -62 17 -211 6 -263 -40 -191
-159 -284 -256 -198 -20 17 -45 48 -56 69 -66 130 -63 354 7 510 28 61 50 87
99 112 42 23 59 21 95 -9z m254 -904 c57 -36 101 -82 123 -129 16 -32 15 -34
-2 -47 -21 -15 -55 -2 -55 21 0 34 -20 19 -68 -49 -111 -158 -282 -280 -482
-343 -133 -42 -174 -48 -325 -48 -163 0 -240 11 -330 45 -171 65 -290 152
-393 286 -35 45 -39 63 -20 83 19 18 -19 3 -61 -25 -36 -24 -56 -22 -72 8 -9
16 -5 25 24 52 57 53 167 71 205 32 22 -22 6 -49 -33 -56 -28 -5 -28 -6 44
-70 40 -35 94 -80 119 -98 109 -78 269 -151 362 -167 25 -4 54 -9 65 -11 30
-6 206 -5 240 1 26 5 72 16 125 29 113 29 274 129 371 232 55 59 139 173 139
190 0 6 -14 17 -30 24 -37 15 -54 42 -38 58 19 19 41 14 92 -18z"/>
<path d="M2153 3580 c-60 -27 -156 -129 -195 -207 -28 -57 -32 -76 -31 -137 1
-84 19 -131 68 -179 102 -99 271 -67 374 71 117 155 111 346 -13 432 -58 39
-141 48 -203 20z"/>
<path d="M3320 3213 c-8 -3 -43 -18 -76 -34 -113 -52 -223 -63 -340 -32 -60
16 -65 16 -81 0 -64 -64 129 -159 290 -143 117 11 253 105 243 167 -4 26 -21
46 -36 42z"/>
<path d="M3225 2855 c-16 -9 -38 -23 -47 -32 -24 -21 -33 -78 -19 -110 11 -24
9 -29 -18 -54 -17 -15 -32 -34 -32 -41 -7 -77 53 -119 176 -123 78 -2 98 -9
173 -62 34 -24 78 -51 97 -59 62 -26 139 -4 166 48 17 32 18 107 1 156 -14 42
-14 60 4 184 6 44 4 49 -25 79 -32 32 -33 32 -104 25 -93 -9 -73 -9 -217 -1
-106 5 -130 4 -155 -10z"/>
</g>
</svg>
