<svg xmlns="http://www.w3.org/2000/svg" viewBox="0 0 780 500"><title>ws</title><rect width="780" height="500" fill="#fff"/><path d="M495.7,241.79h18.4l15.9,40.3h3.4l13.4-40.3h21.8l13.5,40.3h3.4l16-40.3h19.1l-23,53.8H569.8l-11.9-39.4-12,39.4H518Z" fill="#1a171b"/><path d="M648.7,277.79h23.8q0,4.05,2.4,5.1a13.87,13.87,0,0,0,4.6.9c1.9.1,7.8.2,17.7.2,10.4,0,16.6-.1,18.7-.1a27.24,27.24,0,0,0,5-.6c1.8-.5,2.7-1.8,2.7-4.1a3.06,3.06,0,0,0-1.9-3.2q-2-.75-7.8-.9c-3,0-9.5-.2-19.3-.5-10.1-.3-16.6-.5-19.6-.5a85,85,0,0,1-13.6-1.1,16.37,16.37,0,0,1-7.4-3c-3-2.3-4.5-6.2-4.5-11.6,0-6.1,1.7-10.4,5.2-12.8,2.6-1.9,6.7-3.2,12.2-3.7s16.6-.8,33.4-.8c11.9,0,20.2.2,25,.7,7.4.7,12.5,2.1,15.2,4.1s4.1,5.5,4.1,10.4c0,.4,0,1.3-.1,2.5H720.7a8.76,8.76,0,0,0-.6-3.1,3.35,3.35,0,0,0-1.8-1.4,19.64,19.64,0,0,0-5.6-.8c-2.7-.1-8.3-.2-17-.2-10.4,0-16.8.2-19.1.6s-3.4,1.7-3.4,3.6,1.1,3,3.4,3.5c1.9.4,10.6.7,26.1,1,13,.3,21.7.6,26.2.9a40.74,40.74,0,0,1,10.5,2,12.37,12.37,0,0,1,6.3,4.9c1.2,2.1,1.8,5,1.8,8.9,0,5.1-1,8.8-3.1,11.3a13.93,13.93,0,0,1-6.4,4.1,47.82,47.82,0,0,1-11.6,1.8c-5.3.3-15.2.5-29.7.5-12.1,0-21.1-.2-26.9-.6a54.67,54.67,0,0,1-13.1-2.2c-3-1.2-5.1-2.7-6.3-4.6s-1.7-4.8-1.7-8.6v-2.6Z" fill="#1a171b"/><path d="M500,358.19v-53.8h36.8a137.07,137.07,0,0,1,14.1.4q8,1.05,10.8,5.1c1.9,2.7,2.8,7.6,2.8,14.6,0,6.6-.8,11.3-2.3,14a10.24,10.24,0,0,1-4.4,4.1,23.15,23.15,0,0,1-7.8,2,127.44,127.44,0,0,1-13.1.4H516.3v13.2Zm16.4-26.6h20.5c3.7,0,6-.1,6.8-.1a7.09,7.09,0,0,0,2.2-.6,3.39,3.39,0,0,0,1.7-2,14,14,0,0,0,.5-4.2,11,11,0,0,0-.6-4.2,3.6,3.6,0,0,0-2.1-1.9c-.7-.3-3.6-.5-8.6-.5H516.3l.1,13.5Z" fill="#ffd200"/><path d="M646.5,358.19l-4.6-9.1H606.3l-4.6,9.1H583l28.5-53.8H637l28.1,53.8Zm-10.3-20.9-10.4-20.4h-3.3l-10.4,20.4Z" fill="#ffd200"/><path d="M673.9,304.39h21.6L713,326l16.8-21.6h21.4l-29.4,34.8v19h-17v-19Z" fill="#ffd200"/><path d="M620.4,124.69c-38.5,0-69.9,31.2-71.5,70.1H691.8C690.3,155.79,658.9,124.69,620.4,124.69Z" fill="none"/><path d="M748.4,369l-1.2,6-250.6,3.6a24.54,24.54,0,0,0,24.5,24.5h207a24.54,24.54,0,0,0,24.5-24.5v-5.5Z" fill="#4c504d"/><path d="M728.1,198.89h-3.4c-1.6-54.8-45.7-98.7-100.1-98.7s-98.5,43.9-100.1,98.7h-3.4c-13.5,0-28.7,12.2-28.7,25.8l4.2,4.2H752.5v-5.4A24.41,24.41,0,0,0,728.1,198.89Zm-175,0c1.6-38.9,33-70.1,71.5-70.1s69.9,31.2,71.5,70.1Z" fill="#4c504d"/><path d="M492.4,369v5.4a24.54,24.54,0,0,0,24.5,24.5h207a24.54,24.54,0,0,0,24.5-24.5V369Z" fill="#858c8b"/><path d="M723.9,194.79h-3.4c-1.6-54.8-45.7-98.7-100.1-98.7S522,140,520.3,194.79h-3.4a24.54,24.54,0,0,0-24.5,24.5v5.5H748.3v-5.5A24.33,24.33,0,0,0,723.9,194.79Zm-175,0c1.6-38.9,33-70.1,71.5-70.1s69.9,31.2,71.5,70.1Z" fill="#858c8b"/><path d="M28,237.29h4.4l12.2,27.1h1.3l11.8-27.1h5l11.4,27.1h1.2l12.5-27.1h4.4L78,267.79H71.2l-11-26.1-11.5,26.1H41.8Z" fill="#1a171b"/><path d="M99.4,267.79v-30.5H129v3.6H103.5v9.3H128v3.6H103.5v10.5h25.6v3.6H99.4Z" fill="#1a171b"/><path d="M136.9,267.79v-30.5h20c3.7.1,5.9.1,6.8.2,2.9.2,4.8,1.4,5.9,3.4a8.69,8.69,0,0,1,.8,4.3,9.55,9.55,0,0,1-.8,4.4,4.83,4.83,0,0,1-2.9,2.2,5.28,5.28,0,0,1,3.8,2.1,10.22,10.22,0,0,1,1.1,5.3c0,3-.5,5.1-1.7,6.3a5.45,5.45,0,0,1-2.4,1.5,18.24,18.24,0,0,1-4.4.7c-1.7.1-3.8.2-6.3.2l-19.9-.1Zm4-17.4h16c2.7,0,4.5,0,5.5-.1a5.84,5.84,0,0,0,2.3-.6c1.1-.7,1.7-2,1.7-4s-.4-3.2-1.2-3.8a3.61,3.61,0,0,0-1.9-.7c-.7-.1-2.9-.2-6.4-.3h-16v9.5Zm0,13.9h16a51.4,51.4,0,0,0,6.7-.3,6.55,6.55,0,0,0,2.9-1c.8-.7,1.2-1.9,1.2-3.9s-.4-3.4-1.3-4.1a3.87,3.87,0,0,0-2.1-.8c-.8-.1-3.2-.2-7.3-.2H141C140.9,254,140.9,264.29,140.9,264.29Z" fill="#1a171b"/><path d="M193.5,258.29h3.9v.6a9.37,9.37,0,0,0,.4,3.5,2.72,2.72,0,0,0,1.4,1.4c1.1.5,4.8.7,11,.7a44.92,44.92,0,0,0,9.7-.7c1.9-.4,2.9-2,2.9-4.5a6.24,6.24,0,0,0-.5-3,2.81,2.81,0,0,0-1.6-1.4,11.23,11.23,0,0,0-3.2-.5c-1.4,0-5.8-.1-13.2-.1a19.71,19.71,0,0,1-6-.7,7.28,7.28,0,0,1-3.5-2.2c-1-1.2-1.4-3.1-1.4-5.6,0-2.8.8-4.7,2.3-6a6.77,6.77,0,0,1,2.5-1.4,15.2,15.2,0,0,1,3.8-.7,85.22,85.22,0,0,1,9.5-.5,52,52,0,0,1,7.9.5,10.13,10.13,0,0,1,4.3,1.8,5.55,5.55,0,0,1,1.8,2.5,14.77,14.77,0,0,1,.5,4.3h-4v-.5a6.44,6.44,0,0,0-.5-3,4.4,4.4,0,0,0-3.1-1.7,40,40,0,0,0-7.1-.5,65.37,65.37,0,0,0-8.8.4,7.57,7.57,0,0,0-4,1.5,4.5,4.5,0,0,0-1,3.3,6.54,6.54,0,0,0,.5,2.9,3.09,3.09,0,0,0,1.9,1.3,32.17,32.17,0,0,0,7.9.7h9.8a16.15,16.15,0,0,1,5,.6,5.38,5.38,0,0,1,2.8,2.1,8.93,8.93,0,0,1,1.4,5.4,10.58,10.58,0,0,1-1.1,5.2c-.9,1.5-2.6,2.5-5,3a74.28,74.28,0,0,1-13.1.8,66.1,66.1,0,0,1-7.4-.3,11.45,11.45,0,0,1-3.8-1.1,5.28,5.28,0,0,1-2.3-2.4,12.54,12.54,0,0,1-.6-4.4C193.4,259.59,193.5,259.09,193.5,258.29Z" fill="#1a171b"/><path d="M235.1,267.79v-30.5h29.6v3.6H239.2v9.3h24.4v3.6H239.2v10.5h25.6v3.6H235.1Z" fill="#1a171b"/><path d="M303.1,257.39H307a40.21,40.21,0,0,1-.5,5.7,5.21,5.21,0,0,1-4.5,4.2,64.45,64.45,0,0,1-10.8.6c-6.7,0-11.3-.2-13.7-.7a6,6,0,0,1-4.6-3.6c-.8-1.9-1.2-5.5-1.2-10.6a44.24,44.24,0,0,1,.9-10.6c.7-2.6,2.5-4.1,5.5-4.6a95.55,95.55,0,0,1,12.4-.6,57.56,57.56,0,0,1,11.2.8,7.3,7.3,0,0,1,2.9,1.5,5.44,5.44,0,0,1,1.6,2.6,39.47,39.47,0,0,1,.4,5.4h-3.7v-1.1a7.64,7.64,0,0,0-.4-3.1,2.81,2.81,0,0,0-1.6-1.4c-1.5-.6-5-.9-10.4-.9-4,0-6.9.1-8.9.3a9.5,9.5,0,0,0-3.9,1,4.9,4.9,0,0,0-1.3,2.9,34.24,34.24,0,0,0-.4,6.2,47.25,47.25,0,0,0,.2,4.9c.1,2,.2,3.3.3,4.1a4.48,4.48,0,0,0,1.1,2.6,4.79,4.79,0,0,0,2.7,1,82.23,82.23,0,0,0,9.8.4c1.3,0,3-.1,5.1-.1s3.4-.2,4-.2a6.26,6.26,0,0,0,2.5-.7,2.21,2.21,0,0,0,1.1-1.4C302.9,261.29,303,259.79,303.1,257.39Z" fill="#1a171b"/><path d="M314.9,237.29h4v15c0,4.4,0,7.1.1,8a3.42,3.42,0,0,0,1,2.5,4.25,4.25,0,0,0,2.7,1,69.76,69.76,0,0,0,9,.4,86.26,86.26,0,0,0,11.1-.5,4.17,4.17,0,0,0,2.5-1.1,4.79,4.79,0,0,0,.9-2.7c.1-1.1.1-3.7.2-7.6v-15h4v15c0,4.1-.1,6.9-.2,8.4-.3,2.7-1.2,4.5-2.9,5.5a10.08,10.08,0,0,1-3.7,1.2c-1.5.2-5.1.3-10.9.4-5.1-.1-8.1-.1-9.1-.2a22.11,22.11,0,0,1-3.3-.5,6.32,6.32,0,0,1-4.4-3.4,10,10,0,0,1-.8-3.2c-.1-1.2-.2-4-.2-8.4v-14.8Z" fill="#1a171b"/><path d="M359.6,267.79v-30.5h18.8c5.1.1,8.3.2,9.8.4a6.35,6.35,0,0,1,5.2,3.4,13.16,13.16,0,0,1,.9,5.4,19.61,19.61,0,0,1-.3,4,5,5,0,0,1-1,2.2,6.83,6.83,0,0,1-3.7,1.9,5.35,5.35,0,0,1,3.1,1.5,4.59,4.59,0,0,1,1.1,2.2,31.32,31.32,0,0,1,.2,5.1v4.3h-4v-2.9c0-2.5,0-4.2-.1-5.2a3.73,3.73,0,0,0-3.2-3.4,15,15,0,0,0-2-.2H363.6v11.7l-4,.1Zm4-15.3h14.8a63.07,63.07,0,0,0,7.5-.2,6.62,6.62,0,0,0,2.7-.8q1.5-1.05,1.5-5.1c0-2.3-.5-3.8-1.4-4.5a7.62,7.62,0,0,0-2.9-.9,66,66,0,0,0-7.4-.2H363.6v11.7Z" fill="#1a171b"/><path d="M402.9,267.79v-30.5h29.6v3.6H407v9.3h24.5v3.6H407v10.5h25.6v3.6H402.9Z" fill="#1a171b"/><path d="M155.5,317.19v-30.7h19.1c5,.1,8,.2,9.1.4a5.89,5.89,0,0,1,2.6,1,6,6,0,0,1,1.8,2.1,13.25,13.25,0,0,1,1,6,20.46,20.46,0,0,1-.5,4.9,5.33,5.33,0,0,1-1.7,2.8,6.33,6.33,0,0,1-2.5,1.4,25,25,0,0,1-4.1.5H159.6v11.5h-4.1Zm4-15.2h15.1c3.7,0,6-.1,6.9-.2a4.3,4.3,0,0,0,2.3-.9,2.94,2.94,0,0,0,1-1.6,12.75,12.75,0,0,0,.3-3.2,24.38,24.38,0,0,0-.2-3.4,2.28,2.28,0,0,0-.9-1.5,4.81,4.81,0,0,0-2.2-.8c-.9-.1-3.2-.2-7-.3H159.7l-.2,11.9Z" fill="#1a171b"/><path d="M224.3,317.19l-3.6-6.5H196.3l-3.6,6.5h-4.6l17.1-30.7h6.4l17.1,30.7Zm-5.5-10.1-9.4-17h-1.6l-9.5,17Z" fill="#1a171b"/><path d="M223.8,286.39h5.4l14.6,14.7,14.1-14.7h5.6l-17.7,18.2v12.5h-4v-12.5Z" fill="#1a171b"/><path d="M267.5,286.39h8l16.4,26,16.1-26h8.1v30.7h-4v-26.9h-1.7l-16.8,26.9h-3.3l-17-26.9h-1.8v26.9h-4Z" fill="#1a171b"/><path d="M322.2,317.19v-30.7h29.5v3.6H326.2v9.4h24.5v3.6H326.2v10.5h25.6v3.6Z" fill="#1a171b"/><path d="M356.4,286.39h6.7l26.4,26.9h.9v-26.9h4v30.7h-6.8l-26.3-26.8h-.9v26.9h-4Z" fill="#1a171b"/><path d="M398.8,286.39h34.3V290H418v27.1h-4V290H398.8v-3.6Z" fill="#1a171b"/><path d="M169.2,350.69H189a55,55,0,0,1-.5,9.2,6.72,6.72,0,0,1-1.5,3.5,7.15,7.15,0,0,1-3.1,1.9c-1.9.6-6,.9-12.5.9a96.71,96.71,0,0,1-13-.6,6.65,6.65,0,0,1-4.8-2.9c-1.1-1.8-1.7-5.7-1.7-11.8a42.72,42.72,0,0,1,.9-9.9,5.91,5.91,0,0,1,4.1-4.4c2.2-.7,6.4-1,12.7-1,2.1,0,4.4.1,7,.1s4.3.3,5.3.4a7.79,7.79,0,0,1,4.7,2.3,6.81,6.81,0,0,1,1.5,2.6,15,15,0,0,1,.5,4.2h-4.2c0-2.4-.4-3.9-1-4.5a3.93,3.93,0,0,0-1.7-.9,19.84,19.84,0,0,0-3.5-.4c-2.2-.1-4.9-.2-8.1-.2-4.2,0-7.3.1-9.1.3s-3.1.6-3.7,1.2a5.25,5.25,0,0,0-1.2,2.9,52.47,52.47,0,0,0-.3,6.7q0,6.9.6,9a3.22,3.22,0,0,0,1.1,1.9,5.61,5.61,0,0,0,2.2.9,108.09,108.09,0,0,0,12.9.5,50.29,50.29,0,0,0,8.1-.5c1.6-.3,2.6-.8,3-1.8s.7-2.9.7-6.1H168.7l.5-3.5Z" fill="#1a171b"/><path d="M227.2,366.19l-3.6-6.4H199.2l-3.6,6.4H191l17.1-30.5h6.4l17.1,30.5Zm-5.5-10-9.4-16.9h-1.6l-9.5,16.9Z" fill="#1a171b"/><path d="M227.7,335.69H262v3.6H246.9v26.9h-4v-26.9H227.7v-3.6Z" fill="#1a171b"/><path d="M266,366.19v-30.5h29.6v3.6H270.1v9.3h24.5v3.6H270.1v10.4h25.6v3.6Z" fill="#1a171b"/><path d="M298.5,335.69h4.3l12.2,27.1h1.2l11.8-27.1h5l11.4,27.1h1.2l12.5-27.1h4.4l-14.2,30.5h-6.8l-11-26.1L319,366.19h-6.7Z" fill="#1a171b"/><path d="M394.8,366.19l-3.6-6.4H366.8l-3.6,6.4h-4.6l17.1-30.5h6.4l17,30.5Zm-5.5-10-9.4-16.9h-1.6l-9.5,16.9Z" fill="#1a171b"/><path d="M394,335.69h5.4l14.6,14.7,14.1-14.7h5.6L416,353.79v12.5h-4v-12.5Z" fill="#1a171b"/></svg>