<?xml version="1.0" encoding="utf-8"?>
<!-- Generator: Adobe Illustrator 24.0.2, SVG Export Plug-In . SVG Version: 6.00 Build 0)  -->
<svg version="1.1" id="Layer_1" xmlns="http://www.w3.org/2000/svg" xmlns:xlink="http://www.w3.org/1999/xlink" x="0px" y="0px"
	 width="22.9px" height="20.4px" viewBox="0 0 22.9 20.4" style="enable-background:new 0 0 22.9 20.4;" xml:space="preserve">
<style type="text/css">
	.st0{display:none;}
	.st1{display:inline;}
	.st2{fill:#4B566B;}
	.st3{fill:#18326D;stroke:#18326D;stroke-width:0.25;stroke-miterlimit:10;}
</style>
<g id="Layer_1_1_" class="st0">
	<g class="st1">
		<g>
			<path class="st2" d="M7.9,13.9L7.9,13.9c-2.2-0.3-2.8-2.3-2.9-2.4c-0.1-0.2,0-0.3,0.2-0.4c0.2-0.1,0.3,0,0.4,0.2
				c0,0.1,0.5,1.7,2.3,1.9c0.2,0,0.3,0.2,0.3,0.4C8.2,13.8,8,13.9,7.9,13.9z"/>
		</g>
		<g>
			<path class="st2" d="M15.5,16.8h-8c-0.2,0-0.3-0.1-0.3-0.3v-1.1c-0.8-0.4-4.1-2-3.2-4.5v-0.1c0,0,0.4-0.6,0.2-1.3
				C4.1,8.8,3.6,8.2,2.6,7.7C2.5,7.6,2.5,7.5,2.5,7.4s0.1-0.2,0.1-0.3l0.7-0.4h0.1c0.1,0,2.2-0.2,3.7,1.5C7.3,8,7.5,7.5,7.5,6.7
				c0-0.2,0.1-0.3,0.3-0.3h0.3C8.4,6,9.2,5.3,10.7,5.2c0-0.2,0-0.5-0.1-0.8c-0.1-0.1-0.1-0.3,0-0.4c0.3-0.3,1.3-0.8,2.5-0.1
				c0.1,0.1,0.2,0.2,0.1,0.3c0,0.1-0.1,0.2-0.2,0.3c-0.1,0-0.2,0.2-0.2,0.6c0.7,0.1,2.2,0.4,2.6,1.3h0.2c0.2,0,0.3,0.1,0.3,0.3v0.7
				c0,0.2-0.1,0.3-0.3,0.3h-0.1c-0.2,0-0.3-0.1-0.3-0.3c0-0.1,0-0.2,0.1-0.3v0.1h-0.1c-0.2,0-0.3-0.1-0.3-0.3
				c-0.2-0.8-1.8-1.1-2.4-1.1c-0.2,0-0.3-0.1-0.3-0.3c0-0.6,0-0.9,0.2-1.2c-0.6-0.2-1-0.1-1.2,0c0.2,0.6,0,1.2,0,1.2
				c0,0.1-0.2,0.2-0.3,0.2c-1.6-0.1-2.4,1-2.4,1C8.5,6.9,8.4,7,8.3,7H8.1C8,8.5,7.2,8.9,7.2,8.9C7,9,6.9,9,6.8,8.8
				C5.7,7.3,3.9,7.3,3.6,7.3L3.4,7.4c0.8,0.6,1.3,1.2,1.5,2c0.2,0.9-0.2,1.6-0.3,1.8c-0.7,2.3,3.1,3.7,3.1,3.7
				c0.1,0,0.2,0.2,0.2,0.3v1h7.3v-1c0-0.2,0.1-0.3,0.3-0.3c0.1,0,0.2-0.1,0.3-0.2c0.4-0.2,1.2-0.6,1.3-0.7c0.3-0.2,0.5-0.4,0.7-0.7
				c0-0.1,0.1-0.1,0.2-0.2c0.2-0.2,0.7-0.6,0.7-1.4c0-0.2,0.1-0.3,0.3-0.3c0.2,0,0.3,0.1,0.3,0.3c0,1.1-0.6,1.7-0.9,1.9
				c0,0-0.1,0-0.1,0.1c-0.3,0.4-0.5,0.6-0.8,0.8c-0.1,0.1-0.5,0.3-1.4,0.7c-0.1,0-0.2,0.1-0.2,0.1v1.2
				C15.9,16.6,15.7,16.8,15.5,16.8z"/>
		</g>
		<g>
			<path class="st2" d="M18.1,11.3H18c-1.7-0.6-2.2-2.6-2.2-2.7c0-0.2,0.1-0.3,0.2-0.4c0.2,0,0.3,0.1,0.4,0.2l0,0
				c0,0,0.5,1.7,1.8,2.2c0.2,0.1,0.2,0.2,0.2,0.4C18.3,11.2,18.2,11.3,18.1,11.3z"/>
		</g>
		<g>
			<path class="st2" d="M19.1,12c-0.1,0-0.2,0-0.3-0.1c-0.1-0.1-0.1-0.3,0.1-0.4c0.6-0.4,1-1.2,1-1.9c0-1.3-1-2.4-2.3-2.4
				c-0.6,0-1.2,0.2-1.6,0.7c-0.1,0.1-0.3,0.1-0.5,0c-0.1-0.1-0.1-0.3,0-0.5c0.6-0.6,1.3-0.9,2.1-0.9c1.6,0,2.9,1.3,2.9,3
				c0,1-0.5,1.9-1.2,2.4C19.2,12,19.1,12,19.1,12z"/>
		</g>
		<g>
			<path class="st2" d="M18.2,11.3c-0.1,0-0.2-0.1-0.3-0.2c-0.1-0.2,0-0.3,0.1-0.4c0.5-0.2,0.8-0.7,0.8-1.2c0-0.7-0.6-1.3-1.4-1.3
				c-0.4,0-0.8,0.2-1.1,0.5c-0.1,0.1-0.3,0.2-0.4,0c-0.1-0.1-0.1-0.3,0-0.4c0.4-0.5,1-0.7,1.6-0.7c1.1,0,2,0.9,2,2
				c0,0.7-0.4,1.4-1.1,1.8C18.3,11.2,18.2,11.3,18.2,11.3z"/>
		</g>
		<g>
			<path class="st2" d="M15.7,7.2H7.9C7.7,7.2,7.6,7,7.6,6.9c0-0.2,0.1-0.3,0.3-0.3h7.8c0.2,0,0.3,0.1,0.3,0.3
				C16,7,15.8,7.2,15.7,7.2z"/>
		</g>
		<g>
			<path class="st2" d="M15.7,15.4H7.9c-0.2,0-0.3-0.1-0.3-0.3s0.1-0.3,0.3-0.3h7.8c0.2,0,0.3,0.1,0.3,0.3
				C16,15.3,15.8,15.4,15.7,15.4z"/>
		</g>
	</g>
</g>
<g id="Layer_2_1_">
	<path class="st3" d="M22,6.9c-0.7-0.8-1.8-1-2.2-1.1l-0.1-0.3c0-0.1-0.1-0.2-0.2-0.2s-0.2,0-0.3,0l-2.6,1.4c0-0.3,0-0.6,0.1-0.7
		l0,0c0.1-0.1,0.1-0.2,0.1-0.3c0-0.4-0.3-0.8-1-1c-0.3-1-1.5-1.7-3.1-2c0-0.2,0.1-0.5,0.2-0.6C13,2,13,1.9,13,1.7c0-0.6-0.7-1-1.6-1
		c-0.9,0-1.6,0.4-1.6,1c0,0.1,0,0.2,0.1,0.4c0,0.1,0.1,0.4,0.1,0.6C8.8,2.9,7.8,3.4,7.3,4.1C7.1,4.3,7,4.5,6.9,4.8
		c-0.6,0.3-1,0.6-1,1c0,0.1,0,0.3,0.1,0.4l0,0c0.1,0.3,0.2,1.3-0.8,3.2C4.5,8.9,4.1,8.2,4,7.7C3.7,6.9,3.5,6.1,3.2,5.4
		C3.1,4.9,2.5,4.5,1.7,4.5c-0.9,0-1.5,0.4-1.5,0.9c0,0.2,0.1,0.4,0.3,0.5C0.8,6.3,1.9,7.7,1.8,10c0,2.3,0.3,5.5,3.5,5.9
		c0.3,0.5,0.7,1,1.1,1.2v0.6c0,0.5,0.3,0.9,0.7,1.1c1.1,0.5,2.6,0.8,4.2,0.8s3.2-0.3,4.2-0.8c0.4-0.2,0.7-0.6,0.7-1.1v-0.6
		c0.5-0.3,0.9-0.9,1.3-1.6c1.1-0.5,2-1.1,2.6-1.5c1.1-0.8,1.9-1.8,2.3-3c0.1-0.4,0.2-0.8,0.3-1.2C22.9,8.6,22.6,7.6,22,6.9z
		 M11.3,1.4c0.6,0,0.9,0.2,0.9,0.4C12,2,12,2.4,11.9,2.6c-0.2,0-0.4,0-0.6,0c-0.2,0-0.4,0-0.6,0c0-0.3-0.1-0.6-0.2-0.9
		C10.4,1.6,10.7,1.4,11.3,1.4z M7.8,4.5L7.8,4.5c0.6-0.7,2-1.2,3.5-1.2c1.7,0,3.2,0.6,3.7,1.5c-1,0.2-2.2,0.3-3.6,0.3
		C10,5.1,8.7,5,7.7,4.7C7.7,4.7,7.8,4.6,7.8,4.5z M7.3,5.4L7.3,5.4c1.1,0.3,2.5,0.5,4.2,0.5c1.6,0,3-0.2,4-0.4
		C15.9,5.6,16,5.7,16,5.8c0,0.3-1.7,1-4.7,1s-4.7-0.7-4.7-1C6.7,5.7,6.8,5.6,7.3,5.4z M0.9,5.5L0.9,5.5c0-0.1,0.3-0.3,0.7-0.3
		s0.7,0.1,0.8,0.2c0,0.2-0.3,0.3-0.7,0.3S1.1,5.6,0.9,5.5C1,5.5,0.9,5.5,0.9,5.5z M4.6,14.4c0.1,0.3,0.2,0.5,0.3,0.8
		c-1.7-0.4-2.4-2-2.4-5.1c0-1.7-0.5-2.9-0.9-3.7h0.1c0.4,0,0.8-0.1,1-0.2c0.2,0.6,0.4,1.2,0.6,1.7C3.5,8.6,3.9,9.5,4.9,10
		C4,11.7,4.3,13.5,4.6,14.4z M17.4,14.2c-0.4,1.3-1.1,2.2-1.6,2.5c-0.1,0.1-0.2,0.2-0.2,0.3v0.8c0,0.2-0.1,0.4-0.3,0.5
		c-1,0.5-2.4,0.7-3.9,0.7s-3-0.3-3.9-0.7c-0.2-0.1-0.3-0.3-0.3-0.5V17c0-0.1-0.1-0.3-0.2-0.3c-0.3-0.2-0.7-0.6-1-1.1
		c0,0,0-0.1-0.1-0.1c-0.2-0.4-0.4-0.8-0.5-1.2c-0.3-0.9-0.5-2.5,0.4-4.1c0-0.1,0.1-0.1,0.1-0.2l0,0l0,0c0.8-1.4,1-2.5,1.1-3.2
		c1.2,0.5,3.2,0.7,4.5,0.7s3.4-0.2,4.5-0.7c0,0.2,0,0.4,0.1,0.6c0,0,0,0,0,0.1c0.1,0.5,0.3,1,0.6,1.6l0,0c0.1,0.3,0.3,0.6,0.5,1
		C18,11.7,17.7,13.3,17.4,14.2z M17.3,9c0.2-0.3,0.4-0.6,0.8-0.9c0.8-0.6,1.6-0.4,2.1,0c0.7,0.6,0.9,1.5,0.4,2.4
		c-0.6,1.1-1.5,1.8-2.2,2.3c0-0.9-0.1-2-0.7-3.1C17.5,9.5,17.4,9.2,17.3,9z M22,9.8c0,0.3-0.1,0.7-0.2,1c-0.3,1-1,2-2,2.7
		c-0.4,0.3-1,0.7-1.7,1.1v-0.1c0.1-0.2,0.1-0.5,0.2-0.8c0.7-0.4,2.2-1.2,3-2.8c0.6-1.2,0.4-2.5-0.6-3.3c-0.7-0.6-1.9-0.9-3,0
		c-0.3,0.2-0.5,0.5-0.7,0.7c-0.1-0.3-0.2-0.5-0.2-0.7l2.5-1.3l0.1,0.1c0.1,0.1,0.2,0.2,0.3,0.2c0,0,1.2,0,1.9,0.8
		C22,7.9,22.1,8.7,22,9.8z"/>
</g>
</svg>
