<?xml version="1.0" encoding="utf-8"?>
<!-- Generator: Adobe Illustrator 16.0.0, SVG Export Plug-In . SVG Version: 6.00 Build 0)  -->
<!DOCTYPE svg PUBLIC "-//W3C//DTD SVG 1.1//EN" "http://www.w3.org/Graphics/SVG/1.1/DTD/svg11.dtd">
<svg version="1.1" id="Layer_1" xmlns="http://www.w3.org/2000/svg" xmlns:xlink="http://www.w3.org/1999/xlink" x="0px" y="0px"
	 width="238.922px" height="58.479px" viewBox="0 0 238.922 58.479" enable-background="new 0 0 238.922 58.479"
	 xml:space="preserve">
<g>
	<g>
		<defs>
			<rect id="SVGID_1_" y="0" width="238.922" height="58.479"/>
		</defs>
		<clipPath id="SVGID_2_">
			<use xlink:href="#SVGID_1_"  overflow="visible"/>
		</clipPath>
		<path clip-path="url(#SVGID_2_)" fill="#88B13F" d="M231.129,7.368l-20.78-4.062c-1.716-0.336-3.404,0.738-3.749,2.384
			l-2.379,10.805c-0.164,0.778,0.002,1.396,0.398,2.301h11.88l-10.712-2.124l0.853-4.088l23.893,4.751l-0.272,1.461h1.626
			l1.723-7.718C233.959,9.429,232.838,7.704,231.129,7.368 M212.931,10.25c-0.094,0.484-0.595,0.793-1.123,0.692l-2.455-0.478
			c-0.525-0.102-0.875-0.577-0.783-1.062l0.44-2.263c0.094-0.484,0.596-0.794,1.123-0.692l2.454,0.477
			c0.527,0.102,0.877,0.577,0.782,1.062L212.931,10.25z M213.101,9.353l-4.354-0.89l0.094-0.461l4.354,0.889L213.101,9.353z
			 M210.377,10.66l0.815-4.001l0.462,0.093l-0.816,4.001L210.377,10.66z"/>
		<polygon clip-path="url(#SVGID_2_)" fill="#354554" points="42.116,54.859 39.6,54.859 39.6,54.388 40.428,54.388 40.428,50.718 
			39.6,50.718 39.6,50.249 42.116,50.249 42.116,50.718 41.289,50.718 41.289,54.388 42.116,54.388 		"/>
		<polygon clip-path="url(#SVGID_2_)" fill="#354554" points="49.596,54.859 48.63,54.859 45.766,50.884 45.766,54.859 
			44.961,54.859 44.961,50.249 46.184,50.249 48.792,53.9 48.792,50.249 49.596,50.249 		"/>
		<polygon clip-path="url(#SVGID_2_)" fill="#354554" points="54.208,54.859 54.208,50.794 52.032,50.794 52.032,50.249 
			57.246,50.249 57.246,50.794 55.07,50.794 55.07,54.859 		"/>
		<polygon clip-path="url(#SVGID_2_)" fill="#354554" points="59.681,54.859 59.681,50.249 63.733,50.249 63.733,50.794 
			60.543,50.794 60.543,52.056 63.516,52.056 63.516,52.601 60.543,52.601 60.543,54.314 63.733,54.314 63.733,54.859 		"/>
		<path clip-path="url(#SVGID_2_)" fill="#354554" d="M71.484,54.859h-1.119l-2.055-1.834h-0.983v1.834h-0.862v-4.609h1.672
			c0.371,0,0.683,0.014,0.933,0.043c0.251,0.027,0.49,0.096,0.716,0.199c0.227,0.105,0.406,0.238,0.538,0.4
			c0.132,0.164,0.198,0.365,0.198,0.607c0,0.338-0.121,0.621-0.361,0.848c-0.241,0.227-0.569,0.395-0.984,0.506L71.484,54.859z
			 M69.621,51.546c0-0.135-0.034-0.254-0.101-0.357c-0.066-0.104-0.169-0.189-0.308-0.256c-0.122-0.059-0.264-0.098-0.426-0.123
			c-0.164-0.023-0.365-0.035-0.605-0.035h-0.854v1.74h0.757c0.247,0,0.469-0.016,0.666-0.047c0.198-0.031,0.366-0.094,0.505-0.191
			c0.125-0.086,0.217-0.189,0.276-0.311C69.591,51.847,69.621,51.708,69.621,51.546"/>
		<polygon clip-path="url(#SVGID_2_)" fill="#354554" points="78.415,54.859 77.448,54.859 74.585,50.884 74.585,54.859 
			73.779,54.859 73.779,50.249 75.003,50.249 77.61,53.9 77.61,50.249 78.415,50.249 		"/>
		<polygon clip-path="url(#SVGID_2_)" fill="#354554" points="81.511,54.859 81.511,50.249 85.563,50.249 85.563,50.794 
			82.373,50.794 82.373,52.056 85.346,52.056 85.346,52.601 82.373,52.601 82.373,54.314 85.563,54.314 85.563,54.859 		"/>
		<polygon clip-path="url(#SVGID_2_)" fill="#354554" points="89.809,54.859 89.809,50.794 87.633,50.794 87.633,50.249 
			92.848,50.249 92.848,50.794 90.671,50.794 90.671,54.859 		"/>
		<path clip-path="url(#SVGID_2_)" fill="#354554" d="M103.942,51.638c0,0.201-0.049,0.391-0.149,0.568
			c-0.101,0.18-0.239,0.33-0.416,0.457c-0.223,0.156-0.486,0.275-0.788,0.355c-0.301,0.082-0.683,0.121-1.145,0.121h-0.731v1.719
			h-0.862v-4.611h1.628c0.383,0,0.71,0.023,0.979,0.068c0.27,0.047,0.508,0.119,0.714,0.221c0.241,0.117,0.429,0.268,0.566,0.447
			C103.875,51.163,103.942,51.382,103.942,51.638 M103.046,51.654c0-0.158-0.038-0.297-0.115-0.414
			c-0.077-0.117-0.194-0.215-0.351-0.289c-0.136-0.062-0.295-0.107-0.476-0.137c-0.182-0.025-0.407-0.039-0.677-0.039h-0.714v1.842
			h0.588c0.348,0,0.629-0.02,0.844-0.061c0.215-0.039,0.393-0.111,0.535-0.215c0.128-0.094,0.221-0.193,0.279-0.303
			S103.046,51.8,103.046,51.654"/>
		<path clip-path="url(#SVGID_2_)" fill="#354554" d="M105.643,54.859l2.185-4.611h1.062l2.184,4.611h-0.91l-0.587-1.289H107.1
			l-0.587,1.289H105.643z M109.338,53.048l-1.001-2.174l-0.997,2.174H109.338z"/>
		<polygon clip-path="url(#SVGID_2_)" fill="#354554" points="117.674,50.249 115.485,52.818 115.485,54.859 114.625,54.859 
			114.625,52.882 112.435,50.249 113.393,50.249 115.063,52.282 116.76,50.249 		"/>
		<polygon clip-path="url(#SVGID_2_)" fill="#354554" points="125.612,54.859 124.75,54.859 124.75,50.886 123.062,53.589 
			122.539,53.589 120.864,50.886 120.864,54.859 120.058,54.859 120.058,50.249 121.234,50.249 122.853,52.816 124.416,50.249 
			125.612,50.249 		"/>
		<polygon clip-path="url(#SVGID_2_)" fill="#354554" points="128.709,54.859 128.709,50.249 132.761,50.249 132.761,50.794 
			129.57,50.794 129.57,52.056 132.544,52.056 132.544,52.601 129.57,52.601 129.57,54.314 132.761,54.314 132.761,54.859 		"/>
		<polygon clip-path="url(#SVGID_2_)" fill="#354554" points="140.128,54.859 139.161,54.859 136.299,50.884 136.299,54.859 
			135.492,54.859 135.492,50.249 136.716,50.249 139.322,53.9 139.322,50.249 140.128,50.249 		"/>
		<polygon clip-path="url(#SVGID_2_)" fill="#354554" points="144.739,54.859 144.739,50.794 142.562,50.794 142.562,50.249 
			147.777,50.249 147.777,50.794 145.601,50.794 145.601,54.859 		"/>
		<path clip-path="url(#SVGID_2_)" fill="#354554" d="M157.492,54.948c-0.458,0-0.877-0.051-1.258-0.148
			c-0.38-0.1-0.707-0.25-0.979-0.453c-0.273-0.203-0.483-0.457-0.627-0.758c-0.146-0.301-0.218-0.648-0.218-1.039
			c0-0.373,0.072-0.705,0.22-1c0.146-0.293,0.355-0.545,0.629-0.752c0.264-0.203,0.589-0.359,0.975-0.469
			c0.387-0.109,0.809-0.164,1.267-0.164c0.218,0,0.428,0.012,0.627,0.033c0.2,0.023,0.391,0.053,0.575,0.092
			c0.144,0.033,0.307,0.074,0.484,0.129c0.179,0.057,0.323,0.104,0.434,0.143v0.74h-0.074c-0.108-0.068-0.218-0.135-0.332-0.193
			c-0.117-0.062-0.278-0.127-0.487-0.197c-0.174-0.062-0.374-0.113-0.6-0.154c-0.227-0.041-0.47-0.062-0.732-0.062
			c-0.623,0-1.127,0.166-1.511,0.502c-0.385,0.334-0.578,0.777-0.578,1.334c0,0.309,0.051,0.58,0.153,0.811
			c0.101,0.23,0.248,0.428,0.438,0.588c0.188,0.16,0.41,0.281,0.674,0.363c0.263,0.084,0.558,0.125,0.886,0.125
			c0.244,0,0.485-0.012,0.726-0.035c0.242-0.025,0.445-0.062,0.61-0.111v-1.193h-1.497v-0.539h2.35v2.014
			c-0.109,0.035-0.258,0.08-0.441,0.133c-0.186,0.053-0.356,0.096-0.517,0.127c-0.212,0.045-0.402,0.08-0.574,0.102
			C157.943,54.937,157.735,54.948,157.492,54.948"/>
		<path clip-path="url(#SVGID_2_)" fill="#354554" d="M161.812,54.859l2.185-4.611h1.062l2.184,4.611h-0.909l-0.588-1.289h-2.476
			l-0.587,1.289H161.812z M165.509,53.048l-1.002-2.174l-0.996,2.174H165.509z"/>
		<polygon clip-path="url(#SVGID_2_)" fill="#354554" points="170.655,54.859 170.655,50.794 168.479,50.794 168.479,50.249 
			173.692,50.249 173.692,50.794 171.516,50.794 171.516,54.859 		"/>
		<polygon clip-path="url(#SVGID_2_)" fill="#354554" points="176.128,54.859 176.128,50.249 180.18,50.249 180.18,50.794 
			176.989,50.794 176.989,52.056 179.963,52.056 179.963,52.601 176.989,52.601 176.989,54.314 180.18,54.314 180.18,54.859 		"/>
		<polygon clip-path="url(#SVGID_2_)" fill="#354554" points="190.18,50.249 188.553,54.859 187.581,54.859 186.264,51.031 
			184.976,54.859 184.026,54.859 182.367,50.249 183.25,50.249 184.558,54.081 185.854,50.249 186.729,50.249 188.038,54.118 
			189.335,50.249 		"/>
		<path clip-path="url(#SVGID_2_)" fill="#354554" d="M191.828,54.859l2.185-4.611h1.062l2.184,4.611h-0.909l-0.588-1.289h-2.476
			l-0.587,1.289H191.828z M195.523,53.048l-1.001-2.174l-0.996,2.174H195.523z"/>
		<polygon clip-path="url(#SVGID_2_)" fill="#354554" points="203.86,50.249 201.671,52.818 201.671,54.859 200.809,54.859 
			200.809,52.882 198.621,50.249 199.578,50.249 201.249,52.282 202.946,50.249 		"/>
		<path clip-path="url(#SVGID_2_)" fill="#88B13F" d="M182.856,23.395c0,1.438-0.242,2.807-0.727,4.104
			c-0.485,1.298-1.181,2.384-2.092,3.253c-0.56,0.539-1.173,1.037-1.841,1.494c-0.668,0.453-1.405,0.842-2.213,1.158
			c-0.809,0.318-1.687,0.566-2.633,0.746s-2.01,0.271-3.185,0.271h-4.317v10.09h-8.237V13.657h12.731
			c1.895,0,3.529,0.161,4.903,0.486c1.372,0.324,2.616,0.839,3.731,1.543c1.235,0.773,2.188,1.807,2.865,3.098
			C182.52,20.078,182.856,21.615,182.856,23.395 M174.396,23.582c0-0.871-0.22-1.619-0.659-2.249
			c-0.441-0.629-0.97-1.059-1.587-1.294c-0.777-0.318-1.524-0.501-2.235-0.549c-0.713-0.049-1.678-0.074-2.896-0.074h-1.169v9.242
			h0.574c0.778,0,1.511-0.006,2.201-0.021c0.692-0.013,1.292-0.061,1.807-0.146c0.441-0.067,0.907-0.202,1.401-0.403
			c0.489-0.2,0.867-0.426,1.131-0.672c0.561-0.513,0.939-1.045,1.138-1.598C174.298,25.266,174.396,24.522,174.396,23.582"/>
		<polygon clip-path="url(#SVGID_2_)" fill="#88B13F" points="231.438,21.24 218.947,53.048 210.665,53.048 214.41,43.952 
			205.334,21.24 213.44,21.24 218.638,35.829 223.506,21.24 		"/>
		<path clip-path="url(#SVGID_2_)" fill="#88B13F" d="M202.412,22.576c-1.944-1.331-5.048-1.999-9.307-1.999
			c-1.731,0-3.45,0.142-5.155,0.425c-1.702,0.285-2.007,0.53-2.77,0.736l-0.88,5.319h1.41c0.904-0.347,1.825-0.655,2.769-0.896
			c1.219-0.312,2.284-0.466,3.195-0.466c2.012,0,3.52,0.244,4.525,0.735c1.007,0.489,1.51,1.378,1.51,2.661v0.125
			c-2.232,0.139-4.317,0.332-6.255,0.582c-1.939,0.248-3.606,0.689-5.003,1.324c-1.38,0.621-2.437,1.465-3.171,2.529
			c-0.734,1.062-1.102,2.459-1.102,4.186c0,2.098,0.723,3.84,2.171,5.223c1.446,1.379,3.263,2.07,5.451,2.07
			c1.174,0,2.089-0.084,2.743-0.25c0.652-0.164,1.323-0.406,2.015-0.725c0.706-0.332,1.267-0.664,1.685-0.994
			c0.42-0.332,0.894-0.703,1.422-1.117v2.465h7.665V28.679C205.331,25.945,204.357,23.909,202.412,22.576 M197.666,38.441
			c-0.573,0.523-1.211,0.934-1.917,1.221c-0.704,0.289-1.396,0.436-2.07,0.436c-1.218,0-2.139-0.203-2.764-0.611
			s-0.938-1.158-0.938-2.248c0-0.746,0.189-1.344,0.563-1.793c0.374-0.447,0.896-0.783,1.574-1.006
			c0.779-0.26,1.571-0.436,2.377-0.525c0.811-0.092,1.866-0.199,3.174-0.324V38.441z"/>
		<path clip-path="url(#SVGID_2_)" fill="#354554" d="M58.236,32.73c0,3.826-1.112,6.842-3.338,9.043
			c-2.223,2.205-5.37,3.309-9.438,3.309c-4.038,0-7.179-1.104-9.417-3.309c-2.24-2.201-3.36-5.217-3.36-9.043
			c0-3.868,1.12-6.897,3.36-9.087c2.238-2.188,5.379-3.284,9.417-3.284c4.054,0,7.195,1.104,9.427,3.307
			C57.12,25.867,58.236,28.89,58.236,32.73 M50.329,32.771c0-1.381-0.122-2.531-0.364-3.45c-0.242-0.917-0.577-1.653-1.002-2.206
			c-0.456-0.58-0.969-0.985-1.541-1.212c-0.574-0.229-1.227-0.342-1.962-0.342c-0.691,0-1.314,0.101-1.873,0.301
			c-0.557,0.2-1.072,0.582-1.542,1.148c-0.441,0.539-0.792,1.28-1.056,2.216c-0.265,0.943-0.397,2.123-0.397,3.545
			c0,1.424,0.125,2.572,0.373,3.449c0.251,0.879,0.575,1.58,0.97,2.104c0.412,0.539,0.926,0.934,1.541,1.182
			c0.618,0.248,1.301,0.375,2.05,0.375c0.616,0,1.245-0.127,1.884-0.375s1.149-0.621,1.53-1.119
			c0.456-0.592,0.801-1.307,1.036-2.143C50.211,35.406,50.329,34.251,50.329,32.771"/>
		<polygon clip-path="url(#SVGID_2_)" fill="#354554" points="102.558,21.033 93.681,44.304 85.265,44.304 76.454,21.033 
			84.561,21.033 89.627,36.431 94.627,21.033 		"/>
		<path clip-path="url(#SVGID_2_)" fill="#354554" d="M127.699,44.304h-7.711v-2.568c-1.336,1.049-2.563,1.848-3.68,2.393
			c-1.116,0.545-2.444,0.82-3.986,0.82c-2.454,0-4.367-0.729-5.74-2.189c-1.371-1.455-2.058-3.648-2.058-6.578V21.033h7.753v11.542
			c0,1.203,0.033,2.184,0.099,2.941c0.067,0.762,0.225,1.404,0.474,1.93c0.235,0.482,0.598,0.848,1.09,1.098
			c0.493,0.248,1.178,0.373,2.059,0.373c0.544,0,1.186-0.125,1.928-0.373c0.743-0.25,1.428-0.588,2.061-1.016V21.033h7.711V44.304z"
			/>
		<path clip-path="url(#SVGID_2_)" fill="#354554" d="M149.924,32.876c-0.918-1.043-2.267-1.834-4.042-2.375
			c-0.793-0.246-1.62-0.445-2.479-0.59c-0.859-0.143-1.619-0.293-2.279-0.443c-1.277-0.291-2.106-0.589-2.488-0.894
			c-0.383-0.304-0.574-0.717-0.574-1.242c0-0.594,0.386-1.072,1.157-1.432c0.77-0.357,1.714-0.536,2.831-0.536
			c0.837,0,1.654,0.089,2.457,0.268c0.799,0.181,1.521,0.409,2.169,0.684c0.543,0.235,1.102,0.518,1.674,0.841
			c0.233,0.133,0.436,0.253,0.62,0.363h1.253v-5.472c-0.998-0.455-2.228-0.846-3.68-1.17c-1.453-0.325-3.048-0.487-4.781-0.487
			c-1.819,0-3.453,0.206-4.9,0.62c-1.446,0.416-2.663,0.976-3.646,1.678c-0.982,0.72-1.729,1.538-2.235,2.458
			c-0.507,0.917-0.759,1.896-0.759,2.932c0,1.812,0.486,3.271,1.464,4.384c0.976,1.109,2.433,1.949,4.372,2.516
			c0.689,0.209,1.482,0.393,2.379,0.549c0.896,0.162,1.636,0.311,2.225,0.447c1.101,0.248,1.842,0.51,2.226,0.787
			c0.382,0.275,0.572,0.684,0.572,1.221c0,0.691-0.416,1.195-1.244,1.514c-0.829,0.318-1.789,0.479-2.874,0.479
			c-1.059,0-2.039-0.117-2.941-0.344c-0.904-0.229-1.715-0.5-2.434-0.818c-0.839-0.346-1.491-0.676-1.963-0.996
			c-0.277-0.188-0.534-0.363-0.777-0.533h-1.115v5.799c1.056,0.496,2.397,0.934,4.02,1.305c1.623,0.373,3.346,0.559,5.165,0.559
			c1.998,0,3.713-0.197,5.145-0.6s2.675-0.967,3.734-1.699c0.997-0.676,1.77-1.508,2.312-2.498c0.543-0.988,0.815-2.025,0.815-3.119
			C151.301,35.302,150.841,33.919,149.924,32.876"/>
		<path clip-path="url(#SVGID_2_)" fill="#354554" d="M75.555,27.781h1.304l-2.624-6.696l-0.987,0.258
			c-0.742,0.228-1.391,0.501-1.949,0.819c-0.515,0.276-1.083,0.647-1.707,1.108c-0.624,0.463-1.113,0.848-1.465,1.15v-3.336h-7.71
			v23.269h7.71V28.774c0.838-0.306,1.699-0.569,2.589-0.788c0.887-0.223,1.737-0.332,2.544-0.332c0.674,0,1.293,0.022,1.849,0.071
			C75.278,27.74,75.41,27.761,75.555,27.781"/>
		<path clip-path="url(#SVGID_2_)" fill="#88B13F" d="M5.798,27.21c-0.386,1.843-0.451,3.715-0.193,5.564
			c1.046,7.473,6.89,13.328,14.212,14.238c5.005,0.623,9.498-0.74,13.35-4.057c0.011-0.01,0.021-0.02,0.031-0.029
			c-0.01-0.01-0.021-0.021-0.034-0.033c-1.921-1.965-3.786-3.91-5.544-5.787c-0.023-0.023-0.043-0.043-0.06-0.061
			c-0.023,0.02-0.051,0.039-0.084,0.066c-2.638,2.102-5.655,2.561-8.719,1.33c-1.711-0.689-3.115-1.961-4.061-3.682
			c-1.305-2.377-1.449-5.141-0.395-7.582c0.833-1.933,2.316-3.446,4.215-4.323c-0.625-0.084-1.218-0.132-1.793-0.145
			c-0.097-0.002-0.194-0.003-0.292-0.003c-0.313,0-0.623,0.012-0.928,0.032c-3.596,0.25-6.681,1.576-9.432,4.053
			C5.9,26.948,5.833,27.053,5.798,27.21"/>
		<path clip-path="url(#SVGID_2_)" fill="#354554" d="M19.663,14.392c-4.812,0.653-9.066,3.331-11.67,7.348
			c-0.462,0.712-0.841,1.382-1.147,2.031c2.919-1.871,6.146-2.897,9.373-2.973c0.129-0.003,0.258-0.005,0.387-0.005
			c3.703,0,7.388,1.234,10.683,3.58c0.008,0.006,0.016,0.011,0.022,0.016c0.017-0.017,0.036-0.036,0.058-0.059
			c1.75-1.854,3.618-3.824,5.537-5.786c0.032-0.033,0.059-0.061,0.078-0.084c-0.024-0.025-0.055-0.054-0.093-0.088
			C29.303,15.189,24.479,13.737,19.663,14.392"/>
	</g>
</g>
</svg>
