<?xml version="1.0" encoding="utf-8"?>
<!-- Generator: Adobe Illustrator 24.0.2, SVG Export Plug-In . SVG Version: 6.00 Build 0)  -->
<svg version="1.1" xmlns="http://www.w3.org/2000/svg" xmlns:xlink="http://www.w3.org/1999/xlink" x="0px" y="0px" width="837.6px"
	 height="754.5px" viewBox="0 0 837.6 754.5" style="enable-background:new 0 0 837.6 754.5;" xml:space="preserve">
<style type="text/css">
	.Drop_x0020_Shadow{fill:none;}
	.Outer_x0020_Glow_x0020_5_x0020_pt{fill:none;}
	.Jive_GS{fill:#A6D0E4;}
	.st0{fill:#18326D;}
	.st1{fill:#00004D;}
	.st2{fill:#FFFFFF;}
	.st3{display:none;fill:#000079;}
	.st4{display:none;fill:#18326D;}
	.st5{fill:#F9F9F9;}
</style>
<g id="Layer_1">
	<path class="st0" d="M307,421.1c10.1-50.5-8.6-110.3-66-127.6c-18.2-5.5-38.2-3.7-56.7-8.2c-16.9-4.1-33.1-13.2-50.4-14
		c-27.1-1.2-55.9,2-73.5,21.4c-0.2-2-0.9,0.1-3,1.7c-42.3,33.1-53.9,91.3-24.8,138.2c12.8,20.7,33.5,34.3,56.3,44.4
		c28.9,12.8,63.5,25.9,95.2,27.2c28.2,1.1,58.6-7.1,82.3-20.6C290.6,469.9,301.8,447,307,421.1z"/>
	<path class="st1" d="M56.6,291.7c-4.2-1.3-6.1,4.8-1.9,6.1C58.9,299.1,60.8,293,56.6,291.7z"/>
	<path class="st0" d="M151,122.9c-23.7-34.1-33.8-68.2-21.3-102.6c0.2-0.5,0.2-1,0.1-1.4c2.7-2.4-2.8-6.7-6.3-4.5
		c-48.1,29.5-46.8,90.6,1.8,131.8C129.3,149.4,153.5,126.6,151,122.9z"/>
	<path class="st2" d="M141.5,311.5c1-8.3-3.2-22.9-4.1-23.8c-8.9-8.4-27,5.5-35,27c-7.6,20.5-3,41.5,9.7,39.3
		C124,351.8,139.2,331,141.5,311.5z"/>
	<path class="st2" d="M239,349.1c3.6-18.5-0.8-45-12.6-41c-0.3,0.1-0.6,0.4-0.9,0.6c-9.5-0.3-20.2,18.1-23.7,35.4
		c-4.1,20,1.8,35.4,11.8,36.5C223.3,381.7,235,369.3,239,349.1z"/>
	<path class="st0" d="M301.2,116.5c9.2-7.5,15.6-17.8,14-30c-1-8-5.9-16-12.9-20.9c-7.8-5.5-16.4-4-24.5-7.6
		c-8.4-3.8-5-6.2-7.3-13.1c-0.9-2.9-2.3-5.4-4.4-7.7c-5-5.7-12.7-8.8-20.3-9.6c-18.4-1.8-31.3,11.3-41.6,23.9
		c-19.4-16.8-50.7-13-60.5,11.1c-8,19.7,4.5,39.3,23.6,46.1c-1.2,22.4,11.2,44.9,33.2,55.8c16.1,7.9,37.9,7.7,49-4.8
		c3.2,5.4,8.9,9.3,16,10.7c15.7,3,31.6-8.7,39.8-19.9c6.4-8.6,10.1-20.7,1.3-29.6C305,118.9,303.1,117.5,301.2,116.5z"/>
	<path class="st0" d="M186,168.8c-6.5-8.4-20.4-10.4-27.6-4.3c-13.4,6.5-25.2,20.3-22.9,35.1c2.7,18.4,22.6,23.7,37.2,14
		C186.5,204.4,197.9,184.2,186,168.8z M157.7,210.6"/>
	<path class="st2" d="M237.6,410.2c-19.7,22.1-48.1,35.5-79.9,30.7c-31.6-4.8-52.2-24.5-68.5-49.3c-2.4-3.6-7.7-0.3-6.3,3.3
		c24.6,65.2,123.4,72.2,162,20.8C248,411.2,241.3,406,237.6,410.2z"/>
	<path class="st2" d="M94.2,384.1c-7.2-3.3-16.9-3.2-22.3,2.6c-2.9,3.1,1,8,4.9,6c4.7-2.5,9-3.5,14.4-1.5
		C95.6,392.7,98.4,386,94.2,384.1z"/>
	<path class="st0" d="M270.2,221.7c-15.7,5.5-30.5,4.2-43.9-4.4c-4.2-2.7-8.4,3.5-4.9,7.3c14.2,15.2,37.6,17.6,50.9,5.9
		C276.3,227.1,275,220,270.2,221.7z"/>
	<path class="st0" d="M89.3,139.8c-36.1-13.6-64.2-43.5-72.8-79.5c-1.1-4.5-4-11.7,0.1-15.1c2.4-1.9,13,0.2,15.7,0.4
		C42.9,46.6,53,48.9,63,52.5c12.3,4.4,34.1,17.7,33.3,11.8S41.8,38,10.9,40.1c-1.6,0.1-2.8,1.3-2.7,2.8c3.1,44.8,34,84.9,78.5,101.6
		C90.1,145.8,92.7,141.1,89.3,139.8z"/>
	<path class="st0" d="M94.2,127c-14.7-14.1-27.2-28.4-37-45.3c15.1,5.7,29.5,12.5,43.6,20.3c-1.3-2.2-2.2-4.7-2.5-7.2
		C83.4,86.5,67.8,79.6,51.6,74c-2.1-0.7-4.3,1.6-3.3,3.4c10.4,19.6,24.3,38.5,42.4,53.1C93.4,132.7,96.7,129.4,94.2,127z"/>
	<path class="st0" d="M436.7,216.8c-20.9-20.1-47.7-32.5-75.9-35.8c-0.2,0.4-0.5,0.6-1,0.8c-0.2,0.6-0.9,1.2-1.7,1.1
		c-0.8,1-1.6,1.9-2.6,2.7c11.2,0.9,22.2,3.2,33.1,7.2c10,3.7,19.3,8.4,28,14.5c2.2,1.6,11.7,6.7,12.3,9.7c1,5.2-6,8.8-9.7,11.6
		c-30.1,22-71.1,26.8-107.6,14.1c-3.5-1.2-4.6,4.1-1.2,5.3c45,15.8,94.9,4.9,126.4-27.3C438,219.6,437.8,217.9,436.7,216.8z"/>
	<path class="st0" d="M380,215.8c-17.5-6.7-35.3-11.8-53.8-14.7c-3.4-0.5-4.5,4.3-1.1,4.9c15.7,2.9,31,6.8,46,12.2
		c-17.7,6.8-35.8,9.9-55.2,11.5c-3.3,0.3-3,4.9,0.3,4.9c22.3,0.2,44.1-5.6,63.9-14.2C382.1,219.7,381.9,216.5,380,215.8z"/>
	<path class="st0" d="M297.6,177.7c36.6-8.7,64.1-25.5,76-55.6c0.2-0.5,0.5-0.8,0.8-1c-0.5-3.2,5.9-2.8,7,0.6
		c15.3,47.7-22.1,87.5-80.1,86.4C296.5,208,293.6,178.6,297.6,177.7z"/>
	<path class="st0" d="M63.6,222.6c5.5-27.1,19.5-51.8,26.8-78.3c0.7-2.5-3.1-3.6-4.2-1.4c-27.5,51.2-38.7,110.5-32.9,167.9
		c0.3,2.6,4.2,2.8,4.4,0.3C60.6,281.9,57.8,251.5,63.6,222.6z"/>
	<path class="st0" d="M313.3,245.8c-0.1-2.9-4.3-2.5-4.5,0.3c-2.9,33.4-9.9,62.1-21.8,93.6c-1,2.8,2.7,4.9,4.2,2.1
		C306.3,312.9,314.1,277.9,313.3,245.8z"/>
	<path class="st0" d="M101.3,186.8c-6.9-13.7-14.5-16.8-27.9-7c-2.5,1.8-16.1,67.1-14.1,70.6c3.6,6.2,9.9,9,17.1,6.3
		c3.5-1.3,6-4.3,8.1-7c8.5-10.7,14.2-18,30.5-13c1.2,0.4,2.7-0.1,3.3-1.1C130.5,217.4,109.2,202.4,101.3,186.8z"/>
	<path class="st0" d="M297.7,300.9c1.2-4.9-0.4-9.9,0.1-14.9c0.5-5.4,5.2-9.9,5.3-15.1c0.2-9.4-9.9-10-17.2-10.2
		c-10.4-0.3-22.1-9.1-32.5-5.4c-6.2,2.2-9,7.8-6.8,13.8c0.9,2.6-6.4,2.1-7.9,7.5c-1.9,7,5.6,11.6,11.6,13.6c3.1,1,6.9,0.8,9.8,2.3
		c5.5,2.7,8.4,7.4,12.5,11.6c2.5,2.6,5.3,5,8.8,6.3C289.6,313.2,295.8,308.3,297.7,300.9z"/>
	<path class="st2" d="M250.3,422.2c-1.9-8.6-7.2-16-14.9-21c-3.7-2.4-7.2,2.9-3.6,5.3c6.2,4.1,10.4,10.1,11.9,17
		C244.6,427.5,251.2,426.2,250.3,422.2z"/>
	<path class="st0" d="M49.7,55.3c-3.6-4.1-3.9-9.4-8-8.6c-5.3,1-23.4-5.6-28.5-2.5c-3.7,2.3-3.9,7-1.4,10.2c0.1,0.1,1.2,4.8,1.3,4.8
		c0,0,0,0,0,0c-3.5,6.8,8.8,23.2,19.3,22.9c4.2-0.1,6.4-3.1,6-6.9c-0.3-3.6,0.1-5.7,3.8-7.1c2.4-0.9,5-1.7,6.8-3.6
		C51.4,62.2,52.2,58.2,49.7,55.3z"/>
	<path class="st0" d="M431.9,215.3c-7.2-6.5-21.9-14-30.5-18.7c-0.8-0.4-1.7-0.5-2.4-0.2c0.1-1.1-0.5-2.3-1.9-2.9
		c-11.3-4.4-20,6.3-13.5,15.8c3,4.5,6.2,6.9,3.7,13c-1.1,2.6-3.8,3.8-4.3,6.8c-0.8,4.2,2,8.3,5.9,10.4c5.7,3.1,11.8,1.3,17.1-1.1
		c6.8-3.1,17.7-6.7,22.6-12.3C432.1,222.1,435.7,218.7,431.9,215.3z"/>
	<path id="XMLID_1_" class="st3" d="M1103,304.7c-2.1-3.5-2.8-6.9-1.6-10.8c1-3.1,2.7-6,3.9-9c2.2-5.7,1.5-11.6-4.2-15.6
		c-14.9-10.4-33.3,2.8-49.3,3.1c-4.6,0.1-9.1-0.6-13.4-2.1c-4-1.4-7.3-3.8-11.2-5.3c-7.4-2.8-13.3,1.2-17.4,6.2
		c-2.5,3-4.7,6.2-8.6,8c-3.7,1.7-8,2.2-12.1,3c-6.7,1.3-14.3,4-15.5,10.5c-0.3,1.8-0.1,3.5,0.9,5c-0.5,0.3-0.8,0.9-0.4,1.5
		c5,7.3,9.5,15,4.6,23.2c-3.6,5.9-9.3,11-9.8,18c-0.4,6,4.2,9.9,10.4,12c3.3,1.1,6.7,1.8,9.9,3.1c3.9,1.5,6.7,4.1,9.1,7
		c4.2,5.2,7.2,11.2,13.6,14.9c6.1,3.5,13.4,2.7,18.8-1.5c6.2-4.8,7.9-12.1,12.2-18c2.3-3.1,5.6-6,9.9-6.9c4.1-0.8,8.3,0.7,12.4,0.4
		c7.7-0.4,9-6.2,11.9-11c3.8-6.3,12.3-6.5,19.5-7.8c6.2-1.2,13.2-3.8,14.6-9.7C1112.7,316,1106.5,310.4,1103,304.7z"/>
	<path class="st4" d="M90.6,187.3c0.2-2.9-0.6-5.9-2.3-8.4c-1.8-2.7-6.4-0.6-4.6,2.2c1.2,1.9,1.8,3.8,1.6,6
		C85.2,190.2,90.4,190.5,90.6,187.3z"/>
	<path class="st5" d="M-83,362.7c-4.4,0-4.4,6.9,0,6.9C-78.6,369.5-78.6,362.7-83,362.7z"/>
	<path id="XMLID_2_" class="st3" d="M335.8,418.7c-2.1-3.5-2.8-6.9-1.6-10.8c1-3.1,2.7-6,3.9-9c2.2-5.7,1.5-11.6-4.2-15.6
		c-14.9-10.4-33.3,2.8-49.3,3.1c-4.6,0.1-9.1-0.6-13.4-2.1c-4-1.4-7.3-3.8-11.2-5.3c-7.4-2.8-13.3,1.2-17.4,6.2
		c-2.5,3-4.7,6.2-8.6,8c-3.7,1.7-8,2.2-12.1,3c-6.7,1.3-14.3,4-15.5,10.5c-0.3,1.8-0.1,3.5,0.9,5c-0.5,0.3-0.8,0.9-0.4,1.5
		c5,7.3,9.5,15,4.6,23.2c-3.6,5.9-9.3,11-9.8,18c-0.4,6,4.2,9.9,10.4,12c3.3,1.1,6.7,1.8,9.9,3.1c3.9,1.5,6.7,4.1,9.1,7
		c4.2,5.2,7.2,11.2,13.6,14.9c6.1,3.5,13.4,2.7,18.8-1.5c6.2-4.8,25.2,8,29.5,2.1c2.3-3.1,15.1-10.5,19.4-11.4
		c4.1-0.8,12.6-16.5,16.7-16.7c7.7-0.4,5.1-5.2,8-10c3.8-6.3-14.8-5.9-7.6-7.3c6.2-1.2,13.2-3.8,14.6-9.7
		C345.5,430.1,339.3,424.5,335.8,418.7z"/>
	<path class="st3" d="M376.7,439.6c-3.1-9-11.3-14.3-20-17.1c-21.2-6.9-56.7-69.1-71.3-81.2c-16.9-14-60.7,7.8-54.9,3.8
		c2.1-1.4-6.2,10.4-10.9,15.3c-7.4,7.6-6.4,16.2-5.4,25.9c0.5,4.9,0.2,8.5-2.9,12.5c-2.9,3.8-6.2,7.1-8,11.7
		c-3.6,9.2-0.5,19.6,5.1,27.3c6,8.3,14.6,14.2,22,21.2c7.7,7.3,15.1,15.1,23.5,21.7c16.4,12.9,36,19.3,56.3,12
		c10.4-3.7,20.2-9.4,30-14.5c9.3-4.9,19.7-9.1,28.3-15.3C376.1,457.2,379.9,448.8,376.7,439.6z"/>
	<path class="st3" d="M1155.3,441.1c-1.7-2.5-6.8-5-7.6-7.8c-0.7-2.7,4.1-7.5,5.2-10c3.5-8.1-0.3-17.2-6.7-22.7
		c-7-6-18.2-8.1-24.8-0.2c-4.3,5.2-3.9,11.2-1.7,16.8c-1.9,2.4-4.4,4.2-7.5,4.9c-3.9,0.9-7.4-0.8-11.3-0.7c-3.9,0.2-7.4,2.3-8.7,6.1
		c-1.3,4,0.1,8.1,1.7,11.8c6.4,15.3,20.8,28,37.5,30.2c8.4,1.1,17.3-1,22.6-8.1C1158.4,455.6,1159.6,447.3,1155.3,441.1z"/>
	<path class="st3" d="M986.4,197.2c-5.7-4.5-12.4-7.5-19.6-8.6c-4.1-0.6-6.8,2.8-6.9,5.9c-11.3-6.1-25.9,0.7-26.5,14.2
		c-0.3,6.8,4.4,12.5,4.1,19.2c-0.3,6.4,0.8,11.3,6.1,15.4c9.3,7,26.2,9.4,33.9-1c1.8-2.5,2.8-5.3,3.3-8.3c0.5-3,0.1-6.6,1.5-9.4
		c1.4-2.8,4.7-2.7,7.3-4c2.6-1.3,4.8-3.3,5.8-6C998,207.5,991.4,201.1,986.4,197.2z"/>
	<path class="st3" d="M1056.6,494c-1.4-7.9-7.2-13.8-13.3-18.5c-3.5-2.7-7.2-4.9-7.3-9.8c-0.1-5.3,1.2-10.7,1.4-16
		c0.3-9.6-1.2-19.8-6.8-27.9c-5.1-7.4-12.5-11.2-21-13.4c-7.5-1.9-16.2-2.5-21.7-8.6c-1.7-1.9-3.8-2.1-5.6-1.3
		c-0.1-0.3-0.1-0.7-0.3-1.1c-2.4-6.7-8.7-10.4-15.8-9.6c-7.9,0.9-13.2,7.3-17.3,13.6c-2,3.1-3.8,6.5-6.7,9c-2.6,2.3-6,3.8-9.1,5.3
		c-5.7,2.7-11.7,5.7-15.2,11.2c-4.6,7.3-3,16.2,0.8,23.4c4.1,7.9,11.5,14,13,23.2c1.5,9-1.2,18.2-1.3,27.2c0,7.8,1.9,15.5,5.5,22.4
		c7,13.3,20.1,23.1,35.1,25.2c14.8,2.1,30.5-3.1,41.1-13.8c4.9-4.9,8.1-13.9,14.6-16.8c6.9-3.2,15-0.3,21.9-4.4
		C1055.3,509.4,1057.9,501.4,1056.6,494z"/>
</g>
<g id="Layer_3">
	<path class="st3" d="M419.3,216.8c-30.9-13-67-13.7-100-12.9c-36.3,0.9-72.5,6.2-107.5,15.8c-8.8,2.4-17.5,5.1-26.1,8
		c-2.7,0.9-1.6,5.3,1.2,4.4c33.2-11.1,67.5-18.6,102.4-21.8c33.2-3.1,68.1-3.6,101,2.8c15.4,3,30.6,8,43.7,16.7
		c12.8,8.5,23.2,20.3,30.9,33.5c17.1,29.1,21.5,63.8,22.4,96.9c0.9,32.2-2.6,65.3-15.9,94.9c-12.2,27.1-32.4,49.8-56.8,66.7
		c-53.7,37.3-123.1,45.7-186.9,42.2c-31.8-1.7-64.7-8.1-91.8-25.8c-23.7-15.4-42.8-40.2-47.5-68.4c-1.2-6.9-1.3-13.9-0.6-20.9
		c0.3-3.1-4.6-3.1-4.9,0c-2.9,29,10.3,57,30.5,77.3c22.5,22.6,53.1,34.4,84.2,39.5c33.8,5.5,69.2,4.9,103.1,0.9
		c33.4-3.9,66.5-12.4,96.3-28.4c26.2-14.1,49.7-33.8,66.3-58.6c18.4-27.6,26.5-60.4,28.4-93.2C495.3,324.4,484.2,244.1,419.3,216.8z
		"/>
	<path class="st3" d="M111,520c-0.3-2.8-4.7-2.9-4.5,0c2.6,30.5,2.8,60.7,2.5,91.3c0,2.9,4.3,2.8,4.5,0
		C115.6,581.1,114.2,550.1,111,520z"/>
	<path class="st0" d="M493.7,642.1c-8.8,0.8-14.5-0.3-20.4-5.5c-3-2.6-16.9-0.1-13.9,2.7c7.5,6.9,23.8,15.9,35.2,15
		C499.2,653.9,498.3,641.7,493.7,642.1z"/>
	<path class="st0" d="M528.8,636.8c-4.4,8.8,2.1,23-7.1,29.9c-5.7,4.2-13.6,1.4-17.4-3c-5.1-5.9-4-14.2-4-21.4c0-3.5-6.2-4-6.6-0.2
		c-1.7,13.4,1.7,34.1,22.7,32.7c22.1-1.5,14.5-25,18.8-36.2C536.6,634.9,530.6,633.2,528.8,636.8z"/>
	<path class="st0" d="M559.3,642.9c-8.7,4.4-17.2,5.7-26.5,3.5c-4-1-6.1,3.9-2.4,5.3c10.4,3.7,23.1,2,32.6-4
		C566.3,645.6,562.8,641.1,559.3,642.9z"/>
	<path class="st0" d="M589.3,608.9c-2.2-3.5-9.1-0.5-6.8,3c6.5,10,9.6,22,6.6,33.9c-3,11.6-15.2,5.1-20.4,0.3
		c-4.4-4.1-6.9-9.1-8.3-14.5c-0.9-3.3-6.5-2.2-6.2,1.2c0.9,8.3,5.5,15.6,12.9,20.8c5.8,4.1,15,7.7,22.6,3.2c7.2-4.2,7.8-13.6,7.9-20
		C597.7,626.8,594.8,617.4,589.3,608.9z"/>
	<path class="st0" d="M613.1,597.8c-2.8,2.8-4.7,6.2-7.5,9.1c-3,2.9-6.4,5.4-9.9,7.7c-3.3,2.2-3.7,13.4-0.2,11.4
		c7.5-4.4,21-18.2,23.5-25.8C619.9,597,615.6,595.2,613.1,597.8z"/>
	<path class="st0" d="M778.5,505.3c-29.3-29.8-36.6-68.1-25.5-104.9c5.5-18.1,13.2-36.4,12.3-55.3c-0.8-17.9-9.6-34.7-21-49.6
		c-10.2-13.3-26.1-32.3-48.1-24.3c-3.6,1.3-0.5,5.7,3.1,4.4c21.7-7.7,39.2,21.1,47.1,33.6c10.5,16.9,14.5,34.6,10.8,53.4
		c-3.6,18.1-11.8,35.3-15,53.5c-2.7,15.2-1.6,30.9,2.8,45.8c5.2,17.4,15.1,33.5,28.7,47.4C776.5,512.1,781.3,508.1,778.5,505.3z"/>
	<path class="st0" d="M771.4,509c-29.4-30-43.4-69.4-38.1-108c2.7-19.5,14.5-39.1,10.8-59.1c-2.7-14.4-15.1-28.3-33.6-29
		c-4.1-0.2-4.1,5.1,0,5.3c11.3,0.5,19.6,7.5,24.1,15.7c5,9.3,4.1,19.7,1.8,29.5c-4.4,18.3-10.7,35.3-10.6,54.2
		c0.1,34.5,14.7,68.6,41.1,95.2C769.5,515.7,774.1,511.7,771.4,509z"/>
	<path class="st0" d="M827.9,527.5c-6.6-21.5-31.9-25.6-55.1-25.4c-4.2,0,7.1,8.2,3.1,8.3c-8.3,0.3-14.3,6.2-13.9,13.1
		c0.4,8.2,8.6,13.9,16.2,18.1c10.6,5.9,18.8,11.6,23.3,21.9c3.9,8.8,4.8,18.3,4.8,27.6c0,3.1,5.7,3.9,6.6,0.7
		C818.6,570.6,834.8,550.1,827.9,527.5z"/>
	<path class="st3" d="M471.4,431c-1.6,2.4-6.4-3.5-4.8-5.8c17.8-26.3,24.5-48.4,27.8-78.6c2.8-26.3,3-48-5.8-73.4
		c-4.3-12.6-5.7-29.9-20-36.7c-12.5-6-29.9-6.9-43.9-5.7c-68.1,5.8-164.4,31.2-234.3,17.9c-3.1-0.6-1-5.3,2-4.8
		c42,7.9,115.2,3.2,155.5-6.5c17.6-4.3,35.2-8.6,53.2-11.7c15.1-2.6,30.8-4.6,46.2-3c13.4,1.4,26,6.1,34.3,15.3
		c9.2,10.1,13.2,23.5,16.6,35.7C513.1,326.6,503.4,383.7,471.4,431z"/>
	<path class="st3" d="M797.8,437.2c-0.7-2.5-10.4-2.8-9.7-0.3c9.4,33.9,11.4,68.8-1.3,102.1c-1.4,3.8-3.4,5.5-5.2,9.2
		c-2.1,4.4-0.2,7.8-3.9,11.5c-8.2,8.2-22,8.2-22-2.3c0-3.7,2.1-6.6,1.9-10.3c-0.1-3.4-1-6.6-2.6-9.7c-3.5-6.9-10.3-13.9-16.8-18.9
		c-8.1-6.3-16.9-11.6-22-20.1c-5.3-8.9-5.5-18.5-2.6-28.1c0.8-2.7-8.3-3.9-9.1-1.1c-5.5,17.9,2.3,34.5,17.9,46.9
		c8.1,6.5,17.3,12.3,22.7,20.7c2.9,4.6,4,9.3,3.2,14.4c-0.6,4.1-1.6,8.1-0.1,12.1c2.6,6.6,10.3,11.1,18.6,10.6
		c10.7-0.7,15.4-8,19.2-15.4c8.9-17.6,14.6-36.3,16.9-55.3C805.9,481,804.2,458.7,797.8,437.2z"/>
	<path class="st3" d="M1062.5,640.1c-0.5,5.4-3.4,8.3-2.2,13.4c-7.3,1.3-10.1,5.1-16.5,2.8c-6.2-2.2,0-7.1,1.7-11.6
		c1.7-4.5,2.8-8,4.8-12.4c1.2-2.6-6.6-4.6-6.9-1.9c-0.4,4.5-4.7,11.9-7.9,19.1c-1.8,4.1-2.7,8.8,0.5,12c7.6,7.7,20.9-1.8,30.4-1.6
		c2,0,3-1.8,2.6-3.2c-1.6-5.3-2.1-10.8-1.9-16.5C1067.2,637.5,1062.7,637.3,1062.5,640.1z"/>
	<path class="st3" d="M1102,650.3c-4.5-11.6-2.6-14.2-5.3-20.9c-1-2.5-8.7,0.6-7.9,3.1c1.6,5.2,3.6,8.1,4.7,13.4
		c0.9,4.5,3.3,10.6,1.3,15.1c-2.3,5.1-14.4,1.6-20,1.7c-7.2,0.1-11.5,3.2-18.6,2.6c-2.9-0.3-3.5,3.3-0.6,3.7
		c9,1.3,18.3,1.6,27.4,1.1c5.9-0.3,13.8-0.2,17.6-4.4C1104.3,661.5,1103.8,654.9,1102,650.3z"/>
	<path class="st3" d="M397,504.9c-29.5,9.5-65.3,16.7-96.8,17.8c-31.8,1-63-4.4-93.6-11.5c-2.9-0.7-4.6,7.8-1.7,8.6
		c60.6,16.3,138.8,10,198-9.1C405.8,509.7,400,503.9,397,504.9z"/>
	<path class="st3" d="M751,592.3c-11.9-8.5-21.4-17.2-29.1-28.7c-7.9-11.8-11.7-24.9-15.5-37.8c-0.6-2.1-8.6-1.5-8.4,0.6
		c1.1,13,7.7,26.5,15.1,37.9c7.9,12,18.4,22.7,30.9,31.6C746.5,597.7,753.5,594.1,751,592.3z"/>
	<path class="st0" d="M348.4,578.6c-1.3,23.1-2.7,46.3-3.4,69.4c-0.3,10.5,4.6,15.6,0,29.9c-2.5,7.7-9.8,6.3-16.8,6.7
		c-6,0.3-11.6,0.4-17.7,0.7c-6.3,0.3-11.6-1.2-11.8-8.2c-0.2-5.3,1-5.1,0.8-10.5c-0.2-9.3-0.8-16.2-2.5-25.4
		c-3.7-20-10.2-40.8-21-59c-1.8-3.1-12.1-0.6-10.4,2.4c9.5,17.6,16.7,35.7,20.4,54.8c1.9,9.7,2.9,19.5,3.1,29.3
		c0.1,4.5-0.1,9-0.2,13.5c-0.1,2.8-0.1,5.8,1.5,8.3c3.9,5.8,12.9,4.1,19.4,3.8c10.6-0.6,21.9-0.3,32.4-1.9
		c7.7-1.2,10.3-5.3,10.8-11.4c0.9-10.4,1.2-20.8,1.8-31.2c1.4-23.5,2.7-47,4.1-70.5C359.2,575.8,348.6,575.1,348.4,578.6z"/>
	<path class="st0" d="M307.1,713.2c-0.9,5.4-1,8-1.7,13.4c-10-0.7-11,0-21-0.7c4.5-11.5,7.2-19.2,14.3-29.9c1.8-2.8-5.1-4.7-7.2-2.2
		c-9.2,11-13.4,20-18,32.8c-0.6,1.8,3.9,7.3,5.9,7.5c12.3,0.9,19.6,1.7,31.9,2.6c1.9,0.1,3-1.3,3.2-2.7c0.9-6.4,1.8-12.8,2.5-19.2
		C317.4,711.5,307.7,710,307.1,713.2z"/>
	<path class="st0" d="M364,713.9c-3.3-9-6.3-18.1-10-27c-1.3-3.2-12.6-3.8-11.5-0.5c2,6.3,6.9,13.9,9.2,20.2
		c2,5.5,8.1,12.9,5.9,18.7c-2.6,6.8-9.2,4.6-16,4.5c-8.6-0.2-20-1.5-28.6-1.5c-3.9,0-3.4,8.6,0.4,8.8c11.5,0.6,23.1,1.1,34.6,1
		c6.1,0,13.1-0.8,16.9-5.3C369.7,727,366.1,719.8,364,713.9z"/>
	<path class="st0" d="M291.9,675.9c-7.2-1.1-14.9-1.7-19.3-7.5c-4.2-5.5-1.5-11-0.8-17.2c1.6-14.6,2.7-27.9,4.2-42.6
		c0.4-3.4-9-3.2-9.4,0.2c-1,9.4-2,18.7-3,28.1c-0.9,8.7-2.7,17.7-2.4,26.4c0.6,14.2,12.7,20.3,28.6,21
		C293.2,684.5,295.3,676.5,291.9,675.9z"/>
	<path class="st0" d="M275.2,718.5c-4.9-2.1-6.4-1.4-11.8-1.5c-2.7,0-3,1.8-5,0c-2.9-2.5-2.7-6.2-1.7-9c3.9-10.1,9.3-17.5,17.7-25.4
		c2.5-2.4-5.2-5.9-8.1-3.9c-11.4,8.3-20.9,21.8-23.2,34.4c-0.8,4.6,0.6,9,5.8,11.3c6.9,3.1,15,0.4,22.2,2.2
		C274.1,727.5,278.1,719.7,275.2,718.5z"/>
	<path class="st0" d="M692.6,584.5c-0.4,23.2,8.9,47.5,9.2,70.7c0.1,10.5,5.2,15.4,1.2,29.8c-2.2,7.8-9.5,6.7-16.5,7.4
		c-6,0.6-11.6,0.9-17.6,1.5c-6.3,0.6-11.6-0.7-12.1-7.7c-0.4-5.3,0.8-5.2,0.4-10.5c-0.6-9.2-1.5-16.2-3.6-25.3
		c-4.5-19.9-11.8-40.4-23.4-58.1c-2-3-12.1-0.1-10.3,2.8c10.2,17.2,18.1,35,22.6,53.9c2.3,9.6,3.7,19.3,4.3,29.1
		c0.3,4.5,0.3,9,0.3,13.5c0,2.8,0.1,5.8,1.9,8.3c4.1,5.7,13.1,3.6,19.6,3c10.6-1,21.9-1.2,32.2-3.2c7.6-1.5,10.1-5.7,10.3-11.8
		c0.4-10.4,0.4-20.9,0.5-31.3c0.4-23.6-4.2-45.8-3.8-69.3C708,583.7,692.7,581,692.6,584.5z"/>
	<path class="st0" d="M666.6,721.8c-0.6,5.5-0.6,8-1.1,13.5c-10-0.3-11,0.4-21,0.1c4.1-11.7,6.4-19.5,13.1-30.4
		c1.7-2.8-5.3-4.5-7.3-1.9c-8.7,11.4-12.5,20.5-16.7,33.5c-0.6,1.8,4.2,7.2,6.2,7.2c12.3,0.4,19.6,0.9,32,1.3c1.9,0.1,3-1.5,3.1-2.8
		c0.6-6.4,1.3-12.9,1.7-19.3C676.8,719.7,667,718.6,666.6,721.8z"/>
	<path class="st0" d="M723.4,720.2c-3.7-8.9-7-17.8-11.1-26.6c-1.4-3.1-12.8-3.3-11.5-0.1c2.3,6.2,7.5,13.6,10.1,19.8
		c2.3,5.4,8.6,12.6,6.6,18.4c-2.3,6.9-9,5-15.8,5.1c-8.6,0.1-20-0.7-28.6-0.3c-3.9,0.2-3.1,8.7,0.7,8.8c11.5,0.1,23.1,0.1,34.6-0.4
		c6.1-0.3,13.1-1.3,16.7-6C729.6,733,725.8,726,723.4,720.2z"/>
	<path class="st0" d="M649.9,685.2c-7.3-0.8-15-1.1-19.6-6.7c-4.5-5.3-2-11-1.5-17.1c1-14.7,1.5-28,2.5-42.7
		c0.2-3.4-9.2-2.8-9.4,0.6c-0.6,9.4-1.2,18.8-1.8,28.2c-0.5,8.7-2,17.8-1.3,26.4c1.2,14.1,13.6,19.8,29.4,19.8
		C651.5,693.7,653.3,685.6,649.9,685.2z"/>
	<path class="st0" d="M634.9,728.4c-5-1.8-6.5-1.2-11.8-1c-2.7,0.1-2.9,1.9-5,0.2c-3-2.4-3-6.1-2-8.9c3.5-10.3,8.6-17.9,16.6-26.1
		c2.4-2.5-5.5-5.7-8.2-3.5c-11.1,8.7-20,22.6-21.7,35.3c-0.6,4.6,0.9,8.9,6.2,11.1c7,2.8,15-0.3,22.3,1.3
		C634.2,737.4,637.9,729.5,634.9,728.4z"/>
</g>
<g id="Layer_4">
	<path class="st0" d="M335.3,431.8c-1.5-1.4-2.2-3.1-2.2-5.1l0.7-36.4c0.7-17.6,1-31.3,1-41c0-33.7-2.9-59.5-8.8-77.4
		c3.4-3.3,7.7-5,12.9-5c8.4,0,16,1.2,22.9,3.6c6.9,2.4,12.6,5.6,17.1,9.6c8.8,8.4,13.2,17.8,13.2,28.2c0,10.8-3.6,20.5-10.9,29.1
		c-7.2,8.5-17.8,15.2-31.5,19.9l0.7,21.9l0.7,11.5c0.2,2.5,0.3,6,0.3,10.6c0.7,9.7,1,17.6,1,23.6c0,2.7-0.9,4.9-2.7,6.5
		c-1.8,1.6-4.6,2.4-8.5,2.4C338.8,433.8,336.8,433.2,335.3,431.8z M368.6,330.1c4.2-5.9,6.3-12.5,6.3-19.8V310
		c0-3.3-0.6-7.5-1.7-12.6c-0.7-1.7-1.9-3.5-3.7-5.2c-1.8-1.7-2.8-2.7-3.1-3c-1.6-1.4-5.8-3.7-12.6-6.7l-8.8-4.1
		c0,7.4,0.7,18.8,2,34.3l2,34.3C357.9,341.5,364.4,335.9,368.6,330.1z"/>
	<path class="st0" d="M416,447.1c-3.2,1.8-6.6,2.7-10.2,2.7c-2.4,0-4.4-0.9-6.1-2.8c-1.7-1.9-2.5-3.9-2.5-6
		c0-14.9,0.7-34.9,2.1-59.8c1.2-26.5,1.8-46.3,1.8-59.5v-8.9c-1.2-11.2-1.8-12.5-1.8-18.1c0-16.9,3.5-25.4,10.5-25.4
		c2,0,3.7,0.7,5.2,2c1.5,1.3,2.2,2.9,2.2,4.7c0,2.1-0.3,5.5-0.9,10.1c-0.6,4.4-0.9,7.8-0.9,10.1c0,11.9,0.1,22.7,0.3,32.3
		c0.2,9.4,0.3,20.1,0.3,32c-1,2.7-1.5,6.4-1.5,11.2v3.2l-0.6,21.1c-0.4,6.2-0.6,13.3-0.6,21.3c0,12.3,3.3,18.4,9.9,18.4
		c0.4,0,1,0,1.9-0.1c0.9-0.1,2.1-0.1,3.7-0.1c1.8-0.2,4.1-0.3,6.9-0.3c10.8,0,16.2,2.7,16.2,8c0,1.8-0.9,3.3-2.7,4.5
		c-1.8,1.2-4,2-6.6,2.4C435.4,448.2,426.5,447.1,416,447.1z"/>
	<path class="st0" d="M536.1,432.3c-2.6-0.9-4.1-3.1-4.5-6.5c-0.7-5.3-2.9-14.3-6.7-26.8l-2-5.4l-33.2,0.1
		c-0.8,4.3-1.6,12.8-2.5,25.5c-0.2,8.9-1.6,14.9-4.1,18.1c-1.4,1.9-3.7,3-6.9,3.3c-1.9,0.2-3.8-0.1-5.6-0.6c-3.2-1.1-5-2.7-5.3-5
		l0.5-1.4l0.2-1.1c8.8-47.5,14.1-93.9,16-139.3c-0.1-0.7-0.1-1.9-0.1-3.6c0-1.7-0.1-4.2-0.3-7.4c-0.2-6.7-0.1-12,0.2-16
		c0.3-4,1.2-7.1,2.7-9.3l11.2-1.4c3.1-0.4,5.8-0.1,8.1,0.7c2.3,0.9,3.7,2.4,3.9,4.5c1.7,13.5,6.5,33.3,14.5,59.4
		c7.8,26.8,12.5,45.7,13.9,56.7c0.1,1.1,1,3.8,2.7,8.1c1.6,4,2.5,6.5,2.7,7.8c0.2,1.2,1.9,6.4,5.3,15.6c3.1,8.3,4.7,13.7,5.1,16.1
		l0,0.3c0.5,3.9-1,6.6-4.3,8.1C542.5,433.4,538.7,433.3,536.1,432.3z M517.1,374.6c-2-16-6.4-36.2-13-60.6l-6.8-27.3
		c-4.2,42.9-6.7,75.3-7.5,97.1c3.5,1.4,13.4,1.6,29.6,0.6C518.3,381.8,517.6,378.5,517.1,374.6z"/>
	<path class="st0" d="M586,418c-2.5-19.2-7.6-38.7-15.3-58.5c-7.7-19.8-18.8-43.9-33.3-72.2c-0.7-1.6-2.1-4.1-4.1-7.3
		c-5.4-8.8-8.3-14.4-8.6-16.9c-0.2-1.5,0.5-2.9,2.1-4.3c1.6-1.4,3.4-2.2,5.5-2.5c3.5-0.5,7,1.2,10.6,5c3.5,3.6,7,8.6,10.5,15
		c3.4,6.4,7.3,14.4,11.6,24c4,9.1,9.3,23.3,15.8,42.4l3.4,9.5l7.1,21.7c1.7,6,3.1,10.4,4.2,12.9c2.5-19,5.3-46.3,8.4-82
		c2.4-30.5,4.2-51.3,5.3-62.5l7.7-1c2.1-0.3,4,0,5.8,0.9c1.8,0.9,2.7,2.1,2.9,3.6c0.8,6,0.6,12.6-0.4,19.8c-1.1,7.2-3,15.9-5.6,26
		c-2.2,8.8-3.5,15.3-4,19.6c-0.5,4.3-0.6,11-0.4,20.1c0.8,20.4,0.2,38.9-1.6,55.4c-1.3,10-3.7,18-7.1,24.1c-3.5,6-7.9,9.4-13.2,10.1
		L586,418z"/>
	<path class="st0" d="M684.1,416.4c-2.2-1.2-3.2-3.4-3.2-6.7c0-5.1-1-13.8-2.9-26.1l-1.2-5.4l-29-3.8c-1.2,3.9-2.8,11.9-5,23.8
		c-1.2,8.4-3,13.9-5.6,16.6c-1.5,1.6-3.6,2.4-6.4,2.3c-1.7-0.1-3.3-0.5-4.8-1.3c-2.7-1.4-4-3.2-4-5.4l0.6-1.3l0.3-1
		c12.9-43.9,22.7-87.2,29.3-129.9c0-0.7,0.1-1.8,0.3-3.5c0.2-1.6,0.4-4,0.6-7c0.6-6.3,1.2-11.4,1.9-15.1c0.7-3.8,1.8-6.6,3.4-8.5h10
		c2.7,0,5.1,0.6,7,1.7c1.9,1.1,2.9,2.7,2.9,4.7c0,13,2.1,32.3,6.2,57.9c3.9,26.3,5.9,44.7,5.9,55.3c0,1,0.5,3.7,1.5,7.9
		c1,3.9,1.5,6.5,1.5,7.7c0,1.2,1,6.3,2.9,15.4c1.8,8.2,2.6,13.5,2.6,15.9v0.3c0,3.8-1.6,6.1-4.7,7.2
		C689.6,418.1,686.2,417.5,684.1,416.4z M673.8,359.5c0-15.4-1.6-35-4.7-58.9l-2.9-26.6c-8.4,40.1-14.2,70.4-17.3,90.9
		c2.9,1.7,11.5,3.1,25.8,4.1C674.1,366.4,673.8,363.3,673.8,359.5z"/>
	<path class="st0" d="M374.2,586c-7.9-10.8-15.8-28.7-23.5-53.6c-2.2-6.8-4.1-13.1-5.5-18.9c-7.3,10.4-11,23-11,37.7v40.1
		c0,3.3-2,5-6.1,5c-3.1,0-5.6-0.6-7.5-1.8c-1.9-1.2-2.9-2.9-2.9-5.1v-65.7c0-6.4,1-18.1,3.1-35.1c2-14.9,3.1-26.6,3.1-35.1
		c1.6-2.7,4.6-4.1,8.9-4.1c2.6,0,4.9,0.7,6.7,2c1.8,1.3,2.8,2.9,2.8,4.8v0.7c-2.7,3.2-4,16.3-4,39.5v7.8l11.3-15.8
		c6.9-10.3,13.4-19.1,19.6-26.5c5.7-7.2,9.9-10.8,12.5-10.8c3.3,0,6.1,0.5,8.4,1.5c2.3,1,3.5,2.5,3.5,4.3l-7.3,8.7
		c-15.3,17.5-23.8,27.6-25.7,30.4c0,2.5-0.1,4.6-0.3,6.5l-0.3,6.5c0,6.2,3.5,17.8,10.5,34.8c7,17,12.9,28.2,17.6,33.7l4,3.9
		c3.9,3.8,5.8,7.1,5.8,10c0,1.6-0.9,2.9-2.6,4c-1.7,1.1-3.7,1.6-6,1.6C384.5,596.8,379.5,593.2,374.2,586z"/>
	<path class="st0" d="M441.1,618.6c-4.3-7.9-7.6-16.1-9.6-24.5l-2.2-7.8c-6-21.8-9.8-34.2-11.5-37.3h-3.7c0,4.4-0.1,8.5-0.3,12.1
		v12.6c0,20.4,2,36.4,5.9,47.8l-3.4,6.2h-8.7l-4-3.4l0.3-15.3c0-13.7-0.9-34.5-2.8-62.4c-1.7-29.7-2.5-50.5-2.5-62.4
		c0-7.3,3.4-11,10.2-11c11.2,0,20.3,2.1,27.5,6.4c7.1,4.3,10.7,10.2,10.7,17.8v16c0,2.3-0.5,4.9-1.6,7.9c-1,3-2.2,5.4-3.4,7.2
		l-5.9,8.2l-5,6.9l1.6,5.5l4.3,16.2c2.9,11.7,5.7,21.3,8.4,28.6c2.7,7.3,6,13.9,9.9,19.9l1.9,2.7c2.1,3.1,3.1,5.5,3.1,7.3
		c0,1.5-0.6,2.9-1.9,4c-1.2,1.1-2.9,1.7-5,1.7C448.9,629.6,444.8,625.9,441.1,618.6z M426.9,524c3.2-7.5,4.8-14.5,4.8-20.9
		c0-4.9-0.8-9.4-2.5-13.7c-1-2.4-2.7-4.3-5.1-5.6c-2.4-1.3-5.3-1.9-8.8-1.9l-0.6,1.1l-0.6,2.1l0.6,27c0.4,7.9,0.6,16.5,0.6,25.8
		C419.8,536.2,423.7,531.6,426.9,524z"/>
	<path class="st0" d="M529.5,615.9c-2.3-0.9-3.8-3-4.3-6.3c-0.8-5.2-3.2-13.9-7.2-26.2l-2-5.3l-29.6,0.7c-0.5,4.2-0.9,12.6-1.1,25.1
		c0.2,8.7-0.7,14.7-2.8,17.9c-1.1,1.8-2.9,2.9-5.5,3.3c-2.3,0.4-4.6,0.1-6.7-0.9c-2.2-1-3.4-2.4-3.7-4.4l0.4-1.4l0.1-1.1
		c5.7-46.8,8.3-92.5,8-137.1c-0.1-0.7-0.2-1.9-0.3-3.6c-0.1-1.7-0.3-4.1-0.6-7.3c-0.4-6.5-0.6-11.8-0.6-15.7c0.1-3.9,0.7-7,2-9.2
		l9.9-1.6c2.7-0.4,5.2-0.2,7.3,0.6c2.1,0.8,3.4,2.3,3.7,4.4c2.1,13.2,7.3,32.6,15.6,58c8.2,26.2,13.2,44.7,14.9,55.5
		c0.2,1,1.1,3.7,2.8,7.9c1.6,3.8,2.5,6.4,2.7,7.6c0.2,1.2,2,6.3,5.4,15.2c3.1,8.1,4.8,13.3,5.2,15.8l0,0.3c0.6,3.8-0.6,6.5-3.5,8.1
		C535.2,616.9,531.8,616.8,529.5,615.9z M509.9,559.6c-2.5-15.7-7.3-35.4-14.3-59.3l-7.3-26.7c-1.8,42.2-2.6,74.1-2.4,95.4
		c3.2,1.3,12,1.3,26.4,0C511.3,566.6,510.5,563.4,509.9,559.6z"/>
	<path class="st0" d="M558.6,602.3c0-18.1-2-36.7-6-56.1c-4-19.3-10.3-42.9-18.8-70.9c-0.4-1.6-1.2-4-2.5-7.3
		c-3.3-8.8-5-14.4-5-16.7c0-1.4,0.7-2.7,2.1-3.8c1.4-1.1,2.9-1.6,4.6-1.6c2.8,0,5.4,2,7.8,5.9c2.4,3.8,4.6,8.8,6.7,15.2
		c2,6.4,4.3,14.3,6.7,23.7c2.2,9,4.9,22.7,8.1,41.2l1.7,9.2l3.3,21c0.7,5.8,1.4,10,2,12.5c3.9-17.3,8.9-42.2,15.1-74.9
		c5-27.9,8.5-47,10.6-57.2h6.1c1.7,0,3.2,0.5,4.5,1.5c1.3,1,2,2.2,2,3.6c0,5.7-0.8,11.7-2.4,18.3c-1.6,6.5-4,14.3-7.1,23.4
		c-2.6,7.9-4.3,13.7-5.2,17.7c-0.8,3.9-1.6,10.1-2.4,18.6c-1.5,19-3.8,36-7,51.1c-2,9.1-4.7,16.3-8.1,21.4
		c-3.3,5.2-7.2,7.8-11.4,7.8L558.6,602.3z"/>
	<path class="st0" d="M673.3,584c-2.6-1-3.9-3-3.9-5.8c0-4.5-1.2-12.1-3.5-22.9l-1.4-4.7l-34.9-3.4c-1.4,3.4-3.4,10.4-6,20.9
		c-1.4,7.3-11.1,23.2-14.1,25.6c-1.6,1.3-4.5,7-7.5,7c-2.8,0-6.6-1.2-8.9-2.3c-2.3-1.1-4.1-2.5-4.1-4.2l10.4-16.4l0.4-0.9
		c14.4-35.8,26.8-74.6,35.2-113.9c0-0.6,0.1-1.6,0.4-3c0.2-1.4,0.5-3.5,0.7-6.2c0.7-5.5,1.5-10,2.3-13.3c0.8-3.3,2.2-5.8,4.1-7.4h12
		c3.3,0,6.1,0.5,8.5,1.5c2.3,1,3.5,2.4,3.5,4.2c0,11.4,2.5,28.3,7.4,50.8c4.7,23.1,7,39.2,7,48.5c0,0.9,0.6,3.2,1.8,7
		c1.2,3.4,1.8,5.7,1.8,6.7c0,1,1.2,5.5,3.5,13.5c2.1,7.2,3.2,11.8,3.2,13.9v0.2c0,3.3-1.9,5.4-5.6,6.3
		C679.9,585.6,675.9,585.1,673.3,584z M661,534.2c0-13.5-1.9-30.7-5.6-51.7l-3.5-23.4c-10.1,35.2-17,61.8-20.8,79.7
		c3.5,1.5,13.8,2.7,31,3.6C661.4,540.2,661,537.4,661,534.2z"/>
	
		<image style="display:none;overflow:visible;" width="1000" height="1000" xlink:href="8480FCB2FADE0B75.jpg"  transform="matrix(0.2491 0 0 0.2388 -341.5968 287.4515)">
	</image>
</g>
</svg>
