<?xml version="1.0" encoding="utf-8"?>
<!-- Generator: Adobe Illustrator 24.0.2, SVG Export Plug-In . SVG Version: 6.00 Build 0)  -->
<svg version="1.1" xmlns="http://www.w3.org/2000/svg" xmlns:xlink="http://www.w3.org/1999/xlink" x="0px" y="0px"
	 width="1929.1px" height="800.8px" viewBox="0 0 1929.1 800.8" style="enable-background:new 0 0 1929.1 800.8;"
	 xml:space="preserve">
<style type="text/css">
	.st0{display:none;}
	.st1{display:inline;fill:#1A6FB0;stroke:#000000;stroke-width:0.9411;stroke-miterlimit:10;}
	.st2{display:inline;fill:#18326D;}
	.st3{display:none;fill:#000079;}
	.st4{display:none;fill:#18326D;}
	.st5{fill:#00004D;}
	.st6{fill:#FFFFFF;}
	.st7{display:inline;}
</style>
<g id="Layer_2" class="st0">
	<rect class="st1" width="1929.1" height="799.9"/>
</g>
<g id="Layer_1">
	<g id="Layer_2_1_" class="st0">
		<rect x="-12.5" y="-9.7" class="st2" width="1966" height="822.2"/>
	</g>
	<g id="Layer_1_2_">
		<g id="Layer_1_1_">
			<path id="XMLID_1_" class="st3" d="M1148.5,300.8c-2.1-3.5-2.8-6.9-1.6-10.8c1-3.1,2.7-6,3.9-9c2.2-5.7,1.5-11.6-4.2-15.6
				c-14.9-10.4-33.3,2.8-49.3,3.1c-4.6,0.1-9.1-0.6-13.4-2.1c-4-1.4-7.3-3.8-11.2-5.3c-7.4-2.8-13.3,1.2-17.4,6.2
				c-2.5,3-4.7,6.2-8.6,8c-3.7,1.7-8,2.2-12.1,3c-6.7,1.3-14.3,4-15.5,10.5c-0.3,1.8-0.1,3.5,0.9,5c-0.5,0.3-0.8,0.9-0.4,1.5
				c5,7.3,9.5,15,4.6,23.2c-3.6,5.9-9.3,11-9.8,18c-0.4,6,4.2,9.9,10.4,12c3.3,1.1,6.7,1.8,9.9,3.1c3.9,1.5,6.7,4.1,9.1,7
				c4.2,5.2,7.2,11.2,13.6,14.9c6.1,3.5,13.4,2.7,18.8-1.5c6.2-4.8,7.9-12.1,12.2-18c2.3-3.1,5.6-6,9.9-6.9
				c4.1-0.8,8.3,0.7,12.4,0.4c7.7-0.4,9-6.2,11.9-11c3.8-6.3,12.3-6.5,19.5-7.8c6.2-1.2,13.2-3.8,14.6-9.7
				C1158.2,312.2,1152,306.5,1148.5,300.8z"/>
			<path class="st4" d="M136.1,183.4c0.2-2.9-0.6-5.9-2.3-8.4c-1.8-2.7-6.4-0.6-4.6,2.2c1.2,1.9,1.8,3.8,1.6,6
				C130.7,186.3,135.9,186.6,136.1,183.4z"/>
			<path id="XMLID_2_" class="st3" d="M381.3,414.9c-2.1-3.5-2.8-6.9-1.6-10.8c1-3.1,2.7-6,3.9-9c2.2-5.7,1.5-11.6-4.2-15.6
				c-14.9-10.4-33.3,2.8-49.3,3.1c-4.6,0.1-9.1-0.6-13.4-2.1c-4-1.4-7.3-3.8-11.2-5.3c-7.4-2.8-13.3,1.2-17.4,6.2
				c-2.5,3-4.7,6.2-8.6,8c-3.7,1.7-8,2.2-12.1,3c-6.7,1.3-14.3,4-15.5,10.5c-0.3,1.8-0.1,3.5,0.9,5c-0.5,0.3-0.8,0.9-0.4,1.5
				c5,7.3,9.5,15,4.6,23.2c-3.6,5.9-9.3,11-9.8,18c-0.4,6,4.2,9.9,10.4,12c3.3,1.1,6.7,1.8,9.9,3.1c3.9,1.5,6.7,4.1,9.1,7
				c4.2,5.2,7.2,11.2,13.6,14.9c6.1,3.5,13.4,2.7,18.8-1.5c6.2-4.8,25.2,8,29.5,2.1c2.3-3.1,15.1-10.5,19.4-11.4
				c4.1-0.8,12.6-16.5,16.7-16.7c7.7-0.4,5.1-5.2,8-10c3.8-6.3-14.8-5.9-7.6-7.3c6.2-1.2,13.2-3.8,14.6-9.7
				C391,426.2,384.8,420.6,381.3,414.9z"/>
			<path class="st3" d="M422.2,435.7c-3.1-9-11.3-14.3-20-17.1c-21.2-6.9-56.7-69.1-71.3-81.2c-16.9-14-60.7,7.8-54.9,3.8
				c2.1-1.4-6.2,10.4-10.9,15.3c-7.4,7.6-6.4,16.2-5.4,25.9c0.5,4.9,0.2,8.5-2.9,12.5c-2.9,3.8-6.2,7.1-8,11.7
				c-3.6,9.2-0.5,19.6,5.1,27.3c6,8.3,14.6,14.2,22,21.2c7.7,7.3,15.1,15.1,23.5,21.7c16.4,12.9,36,19.3,56.3,12
				c10.4-3.7,20.2-9.4,30-14.5c9.3-4.9,19.7-9.1,28.3-15.3C421.6,453.3,425.4,444.9,422.2,435.7z"/>
			<path class="st3" d="M1200.8,437.2c-1.7-2.5-6.8-5-7.6-7.8c-0.7-2.7,4.1-7.5,5.2-10c3.5-8.1-0.3-17.2-6.7-22.7
				c-7-6-18.2-8.1-24.8-0.2c-4.3,5.2-3.9,11.2-1.7,16.8c-1.9,2.4-4.4,4.2-7.5,4.9c-3.9,0.9-7.4-0.8-11.3-0.7
				c-3.9,0.2-7.4,2.3-8.7,6.1c-1.3,4,0.1,8.1,1.7,11.8c6.4,15.3,20.8,28,37.5,30.2c8.4,1.1,17.3-1,22.6-8.1
				C1203.9,451.7,1205.1,443.4,1200.8,437.2z"/>
			<path class="st3" d="M1031.9,193.3c-5.7-4.5-12.4-7.5-19.6-8.6c-4.1-0.6-6.8,2.8-6.9,5.9c-11.3-6.1-25.9,0.7-26.5,14.2
				c-0.3,6.8,4.4,12.5,4.1,19.2c-0.3,6.4,0.8,11.3,6.1,15.4c9.3,7,26.2,9.4,33.9-1c1.8-2.5,2.8-5.3,3.3-8.3c0.5-3,0.1-6.6,1.5-9.4
				c1.4-2.8,4.7-2.7,7.3-4c2.6-1.3,4.8-3.3,5.8-6C1043.5,203.6,1036.9,197.2,1031.9,193.3z"/>
			<path class="st3" d="M1102.1,490.2c-1.4-7.9-7.2-13.8-13.3-18.5c-3.5-2.7-7.2-4.9-7.3-9.8c-0.1-5.3,1.2-10.7,1.4-16
				c0.3-9.6-1.2-19.8-6.8-27.9c-5.1-7.4-12.5-11.2-21-13.4c-7.5-1.9-16.2-2.5-21.7-8.6c-1.7-1.9-3.8-2.1-5.6-1.3
				c-0.1-0.3-0.1-0.7-0.3-1.1c-2.4-6.7-8.7-10.4-15.8-9.6c-7.9,0.9-13.2,7.3-17.3,13.6c-2,3.1-3.8,6.5-6.7,9c-2.6,2.3-6,3.8-9.1,5.3
				c-5.7,2.7-11.7,5.7-15.2,11.2c-4.6,7.3-3,16.2,0.8,23.4c4.1,7.9,11.5,14,13,23.2c1.5,9-1.2,18.2-1.3,27.2
				c0,7.8,1.9,15.5,5.5,22.4c7,13.3,20.1,23.1,35.1,25.2c14.8,2.1,30.5-3.1,41.1-13.8c4.9-4.9,8.1-13.9,14.6-16.8
				c6.9-3.2,15-0.3,21.9-4.4C1100.8,505.5,1103.4,497.5,1102.1,490.2z"/>
		</g>
		<g id="Layer_3">
			<path class="st3" d="M464.8,212.9c-30.9-13-67-13.7-100-12.9c-36.3,0.9-72.5,6.2-107.5,15.8c-8.8,2.4-17.5,5.1-26.1,8
				c-2.7,0.9-1.6,5.3,1.2,4.4c33.2-11.1,67.5-18.6,102.4-21.8c33.2-3.1,68.1-3.6,101,2.8c15.4,3,30.6,8,43.7,16.7
				c12.8,8.5,23.2,20.3,30.9,33.5c17.1,29.1,21.5,63.8,22.4,96.9c0.9,32.2-2.6,65.3-15.9,94.9c-12.2,27.1-32.4,49.8-56.8,66.7
				c-53.7,37.3-123.1,45.7-186.9,42.2c-31.8-1.7-64.7-8.1-91.8-25.8c-23.7-15.4-42.8-40.2-47.5-68.4c-1.2-6.9-1.3-13.9-0.6-20.9
				c0.3-3.1-4.6-3.1-4.9,0c-2.9,29,10.3,57,30.5,77.3c22.5,22.6,53.1,34.4,84.2,39.5c33.8,5.5,69.2,4.9,103.1,0.9
				c33.4-3.9,66.5-12.4,96.3-28.4c26.2-14.1,49.7-33.8,66.3-58.6c18.4-27.6,26.5-60.4,28.4-93.2
				C540.8,320.5,529.7,240.2,464.8,212.9z"/>
			<path class="st3" d="M156.5,516.1c-0.3-2.8-4.7-2.9-4.5,0c2.6,30.5,2.8,60.7,2.5,91.3c0,2.9,4.3,2.8,4.5,0
				C161.1,577.2,159.7,546.2,156.5,516.1z"/>
			<path class="st3" d="M516.9,427.1c-1.6,2.4-6.4-3.5-4.8-5.8c17.8-26.3,24.5-48.4,27.8-78.6c2.8-26.3,3-48-5.8-73.4
				c-4.3-12.6-5.7-29.9-20-36.7c-12.5-6-29.9-6.9-43.9-5.7c-68.1,5.8-164.4,31.2-234.3,17.9c-3.1-0.6-1-5.3,2-4.8
				c42,7.9,115.2,3.2,155.5-6.5c17.6-4.3,35.2-8.6,53.2-11.7c15.1-2.6,30.8-4.6,46.2-3c13.4,1.4,26,6.1,34.3,15.3
				c9.2,10.1,13.2,23.5,16.6,35.7C558.6,322.8,548.8,379.9,516.9,427.1z"/>
			<path class="st3" d="M843.3,433.4c-0.7-2.5-10.4-2.8-9.7-0.3c9.4,33.9,11.4,68.8-1.3,102.1c-1.4,3.8-3.4,5.5-5.2,9.2
				c-2.1,4.4-0.2,7.8-3.9,11.5c-8.2,8.2-22,8.2-22-2.3c0-3.7,2.1-6.6,1.9-10.3c-0.1-3.4-1-6.6-2.6-9.7c-3.5-6.9-10.3-13.9-16.8-18.9
				c-8.1-6.3-16.9-11.6-22-20.1c-5.3-8.9-5.5-18.5-2.6-28.1c0.8-2.7-8.3-3.9-9.1-1.1c-5.5,17.9,2.3,34.5,17.9,46.9
				c8.1,6.5,17.3,12.3,22.7,20.7c2.9,4.6,4,9.3,3.2,14.4c-0.6,4.1-1.6,8.1-0.1,12.1c2.6,6.6,10.3,11.1,18.6,10.6
				c10.7-0.7,15.4-8,19.2-15.4c8.9-17.6,14.6-36.3,16.9-55.3C851.4,477.2,849.6,454.8,843.3,433.4z"/>
			<path class="st3" d="M1108,636.2c-0.5,5.4-3.4,8.3-2.2,13.4c-7.3,1.3-10.1,5.1-16.5,2.8c-6.2-2.2,0-7.1,1.7-11.6s2.8-8,4.8-12.4
				c1.2-2.6-6.6-4.6-6.9-1.9c-0.4,4.5-4.7,11.9-7.9,19.1c-1.8,4.1-2.7,8.8,0.5,12c7.6,7.7,20.9-1.8,30.4-1.6c2,0,3-1.8,2.6-3.2
				c-1.6-5.3-2.1-10.8-1.9-16.5C1112.7,633.6,1108.2,633.5,1108,636.2z"/>
			<path class="st3" d="M1147.5,646.4c-4.5-11.6-2.6-14.2-5.3-20.9c-1-2.5-8.7,0.6-7.9,3.1c1.6,5.2,3.6,8.1,4.7,13.4
				c0.9,4.5,3.3,10.6,1.3,15.1c-2.3,5.1-14.4,1.6-20,1.7c-7.2,0.1-11.5,3.2-18.6,2.6c-2.9-0.3-3.5,3.3-0.6,3.7
				c9,1.3,18.3,1.6,27.4,1.1c5.9-0.3,13.8-0.2,17.6-4.4C1149.8,657.6,1149.3,651,1147.5,646.4z"/>
			<path class="st3" d="M442.4,501c-29.5,9.5-65.3,16.7-96.8,17.8c-31.8,1-63-4.4-93.6-11.5c-2.9-0.7-4.6,7.8-1.7,8.6
				c60.6,16.3,138.8,10,198-9.1C451.2,505.8,445.5,500.1,442.4,501z"/>
			<path class="st3" d="M796.5,588.4c-11.9-8.5-21.4-17.2-29.1-28.7c-7.9-11.8-11.7-24.9-15.5-37.8c-0.6-2.1-8.6-1.5-8.4,0.6
				c1.1,13,7.7,26.5,15.1,37.9c7.9,12,18.4,22.7,30.9,31.6C792,593.8,799,590.2,796.5,588.4z"/>
		</g>
		<g id="Layer_4">
		</g>
		<g>
			<path class="st5" d="M87.1,286.6c-4.2-1.3-6.1,4.8-1.9,6.1C89.4,294,91.3,288,87.1,286.6z"/>
			<path class="st6" d="M181.4,117.8c-23.7-34.1-33.8-68.2-21.3-102.6c0.2-0.5,0.2-1,0.1-1.4c2.7-2.4-2.8-6.7-6.3-4.5
				c-48.1,29.5-46.8,90.6,1.8,131.8C159.8,144.4,184,121.5,181.4,117.8z"/>
			<path class="st6" d="M331.6,111.5c9.2-7.5,15.6-17.8,14-30c-1-8-5.9-16-12.9-20.9c-7.8-5.5-16.4-4-24.5-7.6
				c-8.4-3.8-5-6.2-7.3-13.1c-0.9-2.9-2.3-5.4-4.4-7.7c-5-5.7-12.7-8.8-20.3-9.6c-18.4-1.8-31.3,11.3-41.6,23.9
				c-19.4-16.8-50.7-13-60.5,11.1c-8,19.7,4.5,39.3,23.6,46.1c-1.2,22.4,11.2,44.9,33.2,55.8c16.1,7.9,37.9,7.7,49-4.8
				c3.2,5.4,8.9,9.3,16,10.7c15.7,3,31.6-8.7,39.8-19.9c6.4-8.6,10.1-20.7,1.3-29.6C335.5,113.9,333.6,112.5,331.6,111.5z"/>
			<path class="st6" d="M216.5,163.7c-6.5-8.4-20.4-10.4-27.6-4.3c-13.4,6.5-25.2,20.3-22.9,35.1c2.7,18.4,22.6,23.7,37.2,14
				C217,199.4,228.4,179.2,216.5,163.7z"/>
			<path class="st6" d="M300.7,216.7c-15.7,5.5-30.5,4.2-43.9-4.4c-4.2-2.7-8.4,3.5-4.9,7.3c14.2,15.2,37.6,17.6,50.9,5.9
				C306.8,222,305.5,215,300.7,216.7z"/>
			<path class="st6" d="M119.8,134.7C83.7,121.2,55.6,91.3,47,55.3c-1.1-4.5-4-11.7,0.1-15.1c2.4-1.9,13,0.2,15.7,0.4
				c10.6,0.9,20.7,3.2,30.7,6.8c12.3,4.4,34.1,17.7,33.3,11.8S72.3,33,41.4,35.1c-1.6,0.1-2.8,1.3-2.7,2.8
				c3.1,44.8,34,84.9,78.5,101.6C120.6,140.8,123.2,136,119.8,134.7z"/>
			<path class="st6" d="M124.7,121.9c-14.7-14.1-27.2-28.4-37-45.3c15.1,5.7,29.5,12.5,43.6,20.3c-1.3-2.2-2.2-4.7-2.5-7.2
				c-14.9-8.3-30.5-15.2-46.7-20.9c-2.1-0.7-4.3,1.6-3.3,3.4c10.4,19.6,24.3,38.5,42.4,53.1C123.9,127.7,127.2,124.3,124.7,121.9z"
				/>
			<path class="st6" d="M467.2,211.8c-20.9-20.1-47.7-32.5-75.9-35.8c-0.2,0.4-0.5,0.6-1,0.8c-0.2,0.6-0.9,1.2-1.7,1.1
				c-0.8,1-1.6,1.9-2.6,2.7c11.2,0.9,22.2,3.2,33.1,7.2c10,3.7,19.3,8.4,28,14.5c2.2,1.6,11.7,6.7,12.3,9.7c1,5.2-6,8.8-9.7,11.6
				c-30.1,22-71.1,26.8-107.6,14.1c-3.5-1.2-4.6,4.1-1.2,5.3c45,15.8,94.9,4.9,126.4-27.3C468.5,214.6,468.3,212.9,467.2,211.8z"/>
			<path class="st6" d="M410.5,210.7c-17.5-6.7-35.3-11.8-53.8-14.7c-3.4-0.5-4.5,4.3-1.1,4.9c15.7,2.9,31,6.8,46,12.2
				c-17.7,6.8-35.8,9.9-55.2,11.5c-3.3,0.3-3,4.9,0.3,4.9c22.3,0.2,44.1-5.6,63.9-14.2C412.6,214.7,412.4,211.5,410.5,210.7z"/>
			<path class="st6" d="M328.1,172.7c36.6-8.7,64.1-25.5,76-55.6c0.2-0.5,0.5-0.8,0.8-1c-0.5-3.2,5.9-2.8,7,0.6
				c15.3,47.7-22.1,87.5-80.1,86.4C327,203,324.1,173.6,328.1,172.7z"/>
			<path class="st6" d="M94.1,217.6c5.5-27.1,19.5-51.8,26.8-78.3c0.7-2.5-3.1-3.6-4.2-1.4c-27.5,51.2-38.7,110.5-33,167.9
				c0.3,2.6,4.2,2.8,4.4,0.3C91.1,276.8,88.3,246.4,94.1,217.6z"/>
			<path class="st6" d="M343.8,240.7c-0.1-2.9-4.3-2.5-4.5,0.3c-2.9,33.4-9.9,62.1-21.8,93.6c-1,2.8,2.7,4.9,4.2,2.1
				C336.8,307.8,344.6,272.9,343.8,240.7z"/>
			<path class="st6" d="M131.8,181.7c-6.9-13.7-14.5-16.8-27.9-7c-2.5,1.8-16.1,67.1-14.1,70.6c3.6,6.2,9.9,9,17.1,6.3
				c3.5-1.3,6-4.3,8.1-7c8.5-10.7,14.2-18,30.5-13c1.2,0.4,2.7-0.1,3.3-1.1C161,212.3,139.7,197.4,131.8,181.7z"/>
			<path class="st6" d="M328.1,295.9c1.2-4.9-0.4-9.9,0.1-14.9c0.5-5.4,5.2-9.9,5.3-15.1c0.2-9.4-9.9-10-17.2-10.2
				c-10.4-0.3-22.1-9.1-32.5-5.4c-6.2,2.2-9,7.8-6.8,13.8c0.9,2.6-6.4,2.1-7.9,7.5c-1.9,7,5.6,11.6,11.6,13.6c3.1,1,6.9,0.8,9.8,2.3
				c5.5,2.7,8.4,7.4,12.5,11.6c2.5,2.6,5.3,5,8.8,6.3C320.1,308.2,326.3,303.2,328.1,295.9z"/>
			<path class="st6" d="M271.5,288.5c-18.2-5.5-38.2-3.7-56.7-8.2c-16.9-4.1-33.1-13.2-50.4-14c-27.1-1.2-55.9,2-73.5,21.4
				c-0.2-2-0.9,0.1-3,1.7C45.6,322.6,34,380.8,63.1,427.7c12.8,20.7,33.5,34.3,56.3,44.4c28.9,12.8,63.5,25.9,95.2,27.2
				c28.2,1.1,58.6-7.1,82.3-20.6c24.2-13.8,35.4-36.7,40.6-62.6C347.6,365.6,328.9,305.8,271.5,288.5z M232.2,339.1
				c3.5-17.3,14.2-35.7,23.7-35.4c0.3-0.2,0.6-0.5,0.9-0.6c11.8-4,16.2,22.5,12.6,41c-3.9,20.1-15.6,32.5-25.4,31.5
				C234,374.5,228.1,359.1,232.2,339.1z M132.9,309.6c8-21.5,26.1-35.4,35-27c0.9,0.9,5.1,15.5,4.1,23.8
				c-2.3,19.5-17.6,40.4-29.4,42.5C129.9,351.1,125.3,330.1,132.9,309.6z M274.2,418.4c-0.3-1.6-0.8-3.1-1.4-4.5
				c-40.3,47.8-135.3,39.7-159.4-24.1c-0.9-2.2,0.8-4.3,2.8-4.8c-3.1,0-5.9,1-8.9,2.6c-3.9,2-7.8-2.9-4.9-6
				c5.4-5.8,15.1-5.9,22.3-2.6c4.2,2,1.4,8.7-3,7.1c-1.2-0.5-2.4-0.7-3.5-0.9c0.6,0.2,1.1,0.7,1.5,1.3
				c16.3,24.8,36.9,44.5,68.5,49.3c31.5,4.8,59.6-8.3,79.3-30c-1.5-1.6-3.3-3.1-5.2-4.4c-3.6-2.4-0.1-7.7,3.6-5.3
				c7.7,5,13,12.4,14.9,21C281.7,421.2,275.1,422.5,274.2,418.4z"/>
			<path class="st6" d="M80.2,50.3c-3.6-4.1-3.9-9.4-8-8.6c-5.3,1-23.4-5.6-28.5-2.5c-3.7,2.3-3.9,7-1.4,10.2
				c0.1,0.1,1.2,4.8,1.3,4.8l0,0c-3.5,6.8,8.8,23.2,19.3,22.9c4.2-0.1,6.4-3.1,6-6.9c-0.3-3.6,0.1-5.7,3.8-7.1
				c2.4-0.9,5-1.7,6.8-3.6C81.9,57.1,82.7,53.1,80.2,50.3z"/>
			<path class="st6" d="M462.4,210.3c-7.2-6.5-21.9-14-30.5-18.7c-0.8-0.4-1.7-0.5-2.4-0.2c0.1-1.1-0.5-2.3-1.9-2.9
				c-11.3-4.4-20,6.3-13.5,15.8c3,4.5,6.2,6.9,3.7,13c-1.1,2.6-3.8,3.8-4.3,6.8c-0.8,4.2,2,8.3,5.9,10.4c5.7,3.1,11.8,1.3,17.1-1.1
				c6.8-3.1,17.7-6.7,22.6-12.3C462.5,217.1,466.1,213.7,462.4,210.3z"/>
			<path class="st6" d="M524.2,637.1c-8.8,0.8-14.5-0.3-20.4-5.5c-3-2.6-16.9-0.1-13.9,2.7c7.5,6.9,23.8,15.9,35.2,15
				C529.7,648.8,528.8,636.7,524.2,637.1z"/>
			<path class="st6" d="M559.3,631.7c-4.4,8.8,2.1,23-7.1,29.9c-5.7,4.2-13.6,1.4-17.4-3c-5.1-5.9-4-14.2-4-21.4
				c0-3.5-6.2-4-6.6-0.2c-1.7,13.4,1.7,34.1,22.7,32.7c22.1-1.5,14.5-25,18.8-36.2C567.1,629.8,561,628.2,559.3,631.7z"/>
			<path class="st6" d="M589.8,637.8c-8.7,4.4-17.2,5.7-26.5,3.5c-4-1-6.1,3.9-2.4,5.3c10.4,3.7,23.1,2,32.6-4
				C596.8,640.5,593.3,636,589.8,637.8z"/>
			<path class="st6" d="M619.8,603.9c-2.2-3.5-9.1-0.5-6.8,3c6.5,10,9.6,22,6.6,33.9c-3,11.6-15.2,5.1-20.4,0.3
				c-4.4-4.1-6.9-9.1-8.3-14.5c-0.9-3.3-6.5-2.2-6.2,1.2c0.9,8.3,5.5,15.6,12.9,20.8c5.8,4.1,15,7.7,22.6,3.2
				c7.2-4.2,7.8-13.6,7.9-20C628.2,621.8,625.3,612.3,619.8,603.9z"/>
			<path class="st6" d="M643.5,592.7c-2.8,2.8-4.7,6.2-7.5,9.1c-3,2.9-6.4,5.4-9.9,7.7c-3.3,2.2-3.7,13.4-0.2,11.4
				c7.5-4.4,21-18.2,23.5-25.8C650.4,591.9,646.1,590.1,643.5,592.7z"/>
			<path class="st6" d="M809,500.2c-29.3-29.8-36.6-68.1-25.5-104.9c5.5-18.1,13.2-36.4,12.3-55.3c-0.8-17.9-9.6-34.7-21-49.6
				c-10.2-13.3-26.1-32.3-48.1-24.3c-3.6,1.3-0.5,5.7,3.1,4.4c21.7-7.7,39.2,21.1,47.1,33.6c10.5,16.9,14.5,34.6,10.8,53.4
				c-3.6,18.1-11.8,35.3-15,53.5c-2.7,15.2-1.6,30.9,2.8,45.8c5.2,17.4,15.1,33.5,28.7,47.4C807,507,811.8,503,809,500.2z"/>
			<path class="st6" d="M801.9,504c-29.4-30-43.4-69.4-38.1-108c2.7-19.5,14.5-39.1,10.8-59.1c-2.7-14.4-15.1-28.3-33.6-29
				c-4.1-0.2-4.1,5.1,0,5.3c11.3,0.5,19.6,7.5,24.1,15.7c5,9.3,4.1,19.7,1.8,29.5c-4.4,18.3-10.7,35.3-10.6,54.2
				c0.1,34.5,14.7,68.6,41.1,95.2C800,510.6,804.6,506.7,801.9,504z"/>
			<path class="st6" d="M858.4,522.5c-6.6-21.5-31.9-25.6-55.1-25.4c-4.2,0,7.1,8.2,3.1,8.3c-8.3,0.3-14.3,6.2-13.9,13.1
				c0.4,8.2,8.6,13.9,16.2,18.1c10.6,5.9,18.8,11.6,23.3,21.9c3.9,8.8,4.8,18.3,4.8,27.6c0,3.1,5.7,3.9,6.6,0.7
				C849,565.5,865.3,545,858.4,522.5z"/>
			<path class="st6" d="M378.9,573.6c-1.3,23.1-2.7,46.3-3.4,69.4c-0.3,10.5,4.6,15.6,0,29.9c-2.5,7.7-9.8,6.3-16.8,6.7
				c-6,0.3-11.6,0.4-17.7,0.7c-6.3,0.3-11.6-1.2-11.8-8.2c-0.2-5.3,1-5.1,0.8-10.5c-0.2-9.3-0.8-16.2-2.5-25.4
				c-3.7-20-10.2-40.8-21-59c-1.8-3.1-12.1-0.6-10.4,2.4c9.5,17.6,16.7,35.7,20.4,54.8c1.9,9.7,2.9,19.5,3.1,29.3
				c0.1,4.5-0.1,9-0.2,13.5c-0.1,2.8-0.1,5.8,1.5,8.3c3.9,5.8,12.9,4.1,19.4,3.8c10.6-0.6,21.9-0.3,32.4-1.9
				c7.7-1.2,10.3-5.3,10.8-11.4c0.9-10.4,1.2-20.8,1.8-31.2c1.4-23.5,2.7-47,4.1-70.5C389.7,570.8,379.1,570.1,378.9,573.6z"/>
			<path class="st6" d="M337.6,708.2c-0.9,5.4-1,8-1.7,13.4c-10-0.7-11,0-21-0.7c4.5-11.5,7.2-19.2,14.3-29.9
				c1.8-2.8-5.1-4.7-7.2-2.2c-9.2,11-13.4,20-18,32.8c-0.6,1.8,3.9,7.3,5.9,7.5c12.3,0.9,19.6,1.7,31.9,2.6c1.9,0.1,3-1.3,3.2-2.7
				c0.9-6.4,1.8-12.8,2.5-19.2C347.9,706.5,338.1,705,337.6,708.2z"/>
			<path class="st6" d="M394.4,708.9c-3.3-9-6.3-18.1-10-27c-1.3-3.2-12.6-3.8-11.5-0.5c2,6.3,6.9,13.9,9.2,20.2
				c2,5.5,8.1,12.9,5.9,18.7c-2.6,6.8-9.2,4.6-16,4.5c-8.6-0.2-20-1.5-28.6-1.5c-3.9,0-3.4,8.6,0.4,8.8c11.5,0.6,23.1,1.1,34.6,1
				c6.1,0,13.1-0.8,16.9-5.3C400.1,721.9,396.6,714.8,394.4,708.9z"/>
			<path class="st6" d="M322.4,670.9c-7.2-1.1-14.9-1.7-19.3-7.5c-4.2-5.5-1.5-11-0.8-17.2c1.6-14.6,2.7-27.9,4.2-42.6
				c0.4-3.4-9-3.2-9.4,0.2c-1,9.4-2,18.7-3,28.1c-0.9,8.7-2.7,17.7-2.4,26.4c0.6,14.2,12.7,20.3,28.6,21
				C323.7,679.5,325.8,671.4,322.4,670.9z"/>
			<path class="st6" d="M305.7,713.4c-4.9-2.1-6.4-1.4-11.8-1.5c-2.7,0-3,1.8-5,0c-2.9-2.5-2.7-6.2-1.7-9
				c3.9-10.1,9.3-17.5,17.7-25.4c2.5-2.4-5.2-5.9-8.1-3.9c-11.4,8.3-20.9,21.8-23.2,34.4c-0.8,4.6,0.6,9,5.8,11.3
				c6.9,3.1,15,0.4,22.2,2.2C304.6,722.4,308.6,714.7,305.7,713.4z"/>
			<path class="st6" d="M723.1,579.5c-0.4,23.2,8.9,47.5,9.2,70.7c0.1,10.5,5.2,15.4,1.2,29.8c-2.2,7.8-9.5,6.7-16.5,7.4
				c-6,0.6-11.6,0.9-17.6,1.5c-6.3,0.6-11.6-0.7-12.1-7.7c-0.4-5.3,0.8-5.2,0.4-10.5c-0.6-9.2-1.5-16.2-3.6-25.3
				c-4.5-19.9-11.8-40.4-23.4-58.1c-2-3-12.1-0.1-10.3,2.8c10.2,17.2,18.1,35,22.6,53.9c2.3,9.6,3.7,19.3,4.3,29.1
				c0.3,4.5,0.3,9,0.3,13.5c0,2.8,0.1,5.8,1.9,8.3c4.1,5.7,13.1,3.6,19.6,3c10.6-1,21.9-1.2,32.2-3.2c7.6-1.5,10.1-5.7,10.3-11.8
				c0.4-10.4,0.4-20.9,0.5-31.3c0.4-23.6-4.2-45.8-3.8-69.3C738.5,578.7,723.2,575.9,723.1,579.5z"/>
			<path class="st6" d="M697.1,716.8c-0.6,5.5-0.6,8-1.1,13.5c-10-0.3-11,0.4-21,0.1c4.1-11.7,6.4-19.5,13.1-30.4
				c1.7-2.8-5.3-4.5-7.3-1.9c-8.7,11.4-12.5,20.5-16.7,33.5c-0.6,1.8,4.2,7.2,6.2,7.2c12.3,0.4,19.6,0.9,32,1.3
				c1.9,0.1,3-1.5,3.1-2.8c0.6-6.4,1.3-12.9,1.7-19.3C707.3,714.7,697.5,713.5,697.1,716.8z"/>
			<path class="st6" d="M753.9,715.1c-3.7-8.9-7-17.8-11.1-26.6c-1.4-3.1-12.8-3.3-11.5-0.1c2.3,6.2,7.5,13.6,10.1,19.8
				c2.3,5.4,8.6,12.6,6.6,18.4c-2.3,6.9-9,5-15.8,5.1c-8.6,0.1-20-0.7-28.6-0.3c-3.9,0.2-3.1,8.7,0.7,8.8
				c11.5,0.1,23.1,0.1,34.6-0.4c6.1-0.3,13.1-1.3,16.7-6C760.1,728,756.3,721,753.9,715.1z"/>
			<path class="st6" d="M680.4,680.1c-7.3-0.8-15-1.1-19.6-6.7c-4.5-5.3-2-11-1.5-17.1c1-14.7,1.5-28,2.5-42.7
				c0.2-3.4-9.2-2.8-9.4,0.6c-0.6,9.4-1.2,18.8-1.8,28.2c-0.5,8.7-2,17.8-1.3,26.4c1.2,14.1,13.6,19.8,29.4,19.8
				C682,688.7,683.8,680.5,680.4,680.1z"/>
			<path class="st6" d="M665.4,723.3c-5-1.8-6.5-1.2-11.8-1c-2.7,0.1-2.9,1.9-5,0.2c-3-2.4-3-6.1-2-8.9c3.5-10.3,8.6-17.9,16.6-26.1
				c2.4-2.5-5.5-5.7-8.2-3.5c-11.1,8.7-20,22.6-21.7,35.3c-0.6,4.6,0.9,8.9,6.2,11.1c7,2.8,15-0.3,22.3,1.3
				C664.7,732.4,668.4,724.4,665.4,723.3z"/>
			<path class="st6" d="M365.8,425.8c-1.5-1.4-2.2-3.1-2.2-5.1l0.7-36.4c0.7-17.6,1-31.3,1-41c0-33.7-2.9-59.5-8.8-77.4
				c3.4-3.3,7.7-5,12.9-5c8.4,0,16,1.2,22.9,3.6s12.6,5.6,17.1,9.6c8.8,8.4,13.2,17.8,13.2,28.2c0,10.8-3.6,20.5-10.9,29.1
				c-7.2,8.5-17.8,15.2-31.5,19.9l0.7,21.9l0.7,11.5c0.2,2.5,0.3,6,0.3,10.6c0.7,9.7,1,17.6,1,23.6c0,2.7-0.9,4.9-2.7,6.5
				c-1.8,1.6-4.6,2.4-8.5,2.4C369.3,427.9,367.3,427.2,365.8,425.8z M399.1,324.1c4.2-5.9,6.3-12.5,6.3-19.8v-0.2
				c0-3.3-0.6-7.5-1.7-12.6c-0.7-1.7-1.9-3.5-3.7-5.2c-1.8-1.7-2.8-2.7-3.1-3c-1.6-1.4-5.8-3.7-12.6-6.7l-8.8-4.1
				c0,7.4,0.7,18.8,2,34.3l2,34.3C388.4,335.6,394.9,330,399.1,324.1z"/>
			<path class="st6" d="M446.4,441.2c-3.2,1.8-6.6,2.7-10.2,2.7c-2.4,0-4.4-0.9-6.1-2.8s-2.5-3.9-2.5-6c0-14.9,0.7-34.9,2.1-59.8
				c1.2-26.5,1.8-46.3,1.8-59.5v-8.9c-1.2-11.2-1.8-12.5-1.8-18.1c0-16.9,3.5-25.4,10.5-25.4c2,0,3.7,0.7,5.2,2s2.2,2.9,2.2,4.7
				c0,2.1-0.3,5.5-0.9,10.1c-0.6,4.4-0.9,7.8-0.9,10.1c0,11.9,0.1,22.7,0.3,32.3c0.2,9.4,0.3,20.1,0.3,32c-1,2.7-1.5,6.4-1.5,11.2
				v3.2l-0.6,21.1c-0.4,6.2-0.6,13.3-0.6,21.3c0,12.3,3.3,18.4,9.9,18.4c0.4,0,1,0,1.9-0.1s2.1-0.1,3.7-0.1c1.8-0.2,4.1-0.3,6.9-0.3
				c10.8,0,16.2,2.7,16.2,8c0,1.8-0.9,3.3-2.7,4.5c-1.8,1.2-4,2-6.6,2.4C465.9,442.2,457,441.2,446.4,441.2z"/>
			<path class="st6" d="M566.6,426.4c-2.6-0.9-4.1-3.1-4.5-6.5c-0.7-5.3-2.9-14.3-6.7-26.8l-2-5.4l-33.2,0.1
				c-0.8,4.3-1.6,12.8-2.5,25.5c-0.2,8.9-1.6,14.9-4.1,18.1c-1.4,1.9-3.7,3-6.9,3.3c-1.9,0.2-3.8-0.1-5.6-0.6c-3.2-1.1-5-2.7-5.3-5
				l0.5-1.4l0.2-1.1c8.8-47.5,14.1-93.9,16-139.3c-0.1-0.7-0.1-1.9-0.1-3.6s-0.1-4.2-0.3-7.4c-0.2-6.7-0.1-12,0.2-16
				s1.2-7.1,2.7-9.3l11.2-1.4c3.1-0.4,5.8-0.1,8.1,0.7c2.3,0.9,3.7,2.4,3.9,4.5c1.7,13.5,6.5,33.3,14.5,59.4
				c7.8,26.8,12.5,45.7,13.9,56.7c0.1,1.1,1,3.8,2.7,8.1c1.6,4,2.5,6.5,2.7,7.8c0.2,1.2,1.9,6.4,5.3,15.6c3.1,8.3,4.7,13.7,5.1,16.1
				v0.3c0.5,3.9-1,6.6-4.3,8.1C573,427.5,569.2,427.3,566.6,426.4z M547.6,368.7c-2-16-6.4-36.2-13-60.6l-6.8-27.3
				c-4.2,42.9-6.7,75.3-7.5,97.1c3.5,1.4,13.4,1.6,29.6,0.6C548.8,375.8,548.1,372.6,547.6,368.7z"/>
			<path class="st6" d="M616.5,412c-2.5-19.2-7.6-38.7-15.3-58.5s-18.8-43.9-33.3-72.2c-0.7-1.6-2.1-4.1-4.1-7.3
				c-5.4-8.8-8.3-14.4-8.6-16.9c-0.2-1.5,0.5-2.9,2.1-4.3s3.4-2.2,5.5-2.5c3.5-0.5,7,1.2,10.6,5c3.5,3.6,7,8.6,10.5,15
				c3.4,6.4,7.3,14.4,11.6,24c4,9.1,9.3,23.3,15.8,42.4l3.4,9.5l7.1,21.7c1.7,6,3.1,10.4,4.2,12.9c2.5-19,5.3-46.3,8.4-82
				c2.4-30.5,4.2-51.3,5.3-62.5l7.7-1c2.1-0.3,4,0,5.8,0.9s2.7,2.1,2.9,3.6c0.8,6,0.6,12.6-0.4,19.8c-1.1,7.2-3,15.9-5.6,26
				c-2.2,8.8-3.5,15.3-4,19.6c-0.5,4.3-0.6,11-0.4,20.1c0.8,20.4,0.2,38.9-1.6,55.4c-1.3,10-3.7,18-7.1,24.1
				c-3.5,6-7.9,9.4-13.2,10.1L616.5,412z"/>
			<path class="st6" d="M714.6,410.4c-2.2-1.2-3.2-3.4-3.2-6.7c0-5.1-1-13.8-2.9-26.1l-1.2-5.4l-29-3.8c-1.2,3.9-2.8,11.9-5,23.8
				c-1.2,8.4-3,13.9-5.6,16.6c-1.5,1.6-3.6,2.4-6.4,2.3c-1.7-0.1-3.3-0.5-4.8-1.3c-2.7-1.4-4-3.2-4-5.4l0.6-1.3l0.3-1
				c12.9-43.9,22.7-87.2,29.3-129.9c0-0.7,0.1-1.8,0.3-3.5c0.2-1.6,0.4-4,0.6-7c0.6-6.3,1.2-11.4,1.9-15.1c0.7-3.8,1.8-6.6,3.4-8.5
				h10c2.7,0,5.1,0.6,7,1.7s2.9,2.7,2.9,4.7c0,13,2.1,32.3,6.2,57.9c3.9,26.3,5.9,44.7,5.9,55.3c0,1,0.5,3.7,1.5,7.9
				c1,3.9,1.5,6.5,1.5,7.7s1,6.3,2.9,15.4c1.8,8.2,2.6,13.5,2.6,15.9v0.3c0,3.8-1.6,6.1-4.7,7.2C720,412.2,716.7,411.6,714.6,410.4z
				 M704.3,353.6c0-15.4-1.6-35-4.7-58.9l-2.9-26.6c-8.4,40.1-14.2,70.4-17.3,90.9c2.9,1.7,11.5,3.1,25.8,4.1
				C704.6,360.5,704.3,357.3,704.3,353.6z"/>
			<path class="st6" d="M404.7,580.9c-7.9-10.8-15.8-28.7-23.5-53.6c-2.2-6.8-4.1-13.1-5.5-18.9c-7.3,10.4-11,23-11,37.7v40.1
				c0,3.3-2,5-6.1,5c-3.1,0-5.6-0.6-7.5-1.8s-2.9-2.9-2.9-5.1v-65.7c0-6.4,1-18.1,3.1-35.1c2-14.9,3.1-26.6,3.1-35.1
				c1.6-2.7,4.6-4.1,8.9-4.1c2.6,0,4.9,0.7,6.7,2c1.8,1.3,2.8,2.9,2.8,4.8v0.7c-2.7,3.2-4,16.3-4,39.5v7.8l11.3-15.8
				c6.9-10.3,13.4-19.1,19.6-26.5c5.7-7.2,9.9-10.8,12.5-10.8c3.3,0,6.1,0.5,8.4,1.5s3.5,2.5,3.5,4.3l-7.3,8.7
				c-15.3,17.5-23.8,27.6-25.7,30.4c0,2.5-0.1,4.6-0.3,6.5l-0.3,6.5c0,6.2,3.5,17.8,10.5,34.8s12.9,28.2,17.6,33.7l4,3.9
				c3.9,3.8,5.8,7.1,5.8,10c0,1.6-0.9,2.9-2.6,4s-3.7,1.6-6,1.6C415,591.8,410,588.2,404.7,580.9z"/>
			<path class="st6" d="M471.5,612.6c-4.3-7.9-7.6-16.1-9.6-24.5l-2.2-7.8c-6-21.8-9.8-34.2-11.5-37.3h-3.7c0,4.4-0.1,8.5-0.3,12.1
				v12.6c0,20.4,2,36.4,5.9,47.8l-3.4,6.2H438l-4-3.4l0.3-15.3c0-13.7-0.9-34.5-2.8-62.4c-1.7-29.7-2.5-50.5-2.5-62.4
				c0-7.3,3.4-11,10.2-11c11.2,0,20.3,2.1,27.5,6.4c7.1,4.3,10.7,10.2,10.7,17.8v16c0,2.3-0.5,4.9-1.6,7.9c-1,3-2.2,5.4-3.4,7.2
				l-5.9,8.2l-5,6.9l1.6,5.5l4.3,16.2c2.9,11.7,5.7,21.3,8.4,28.6c2.7,7.3,6,13.9,9.9,19.9l1.9,2.7c2.1,3.1,3.1,5.5,3.1,7.3
				c0,1.5-0.6,2.9-1.9,4c-1.2,1.1-2.9,1.7-5,1.7C479.4,623.6,475.3,619.9,471.5,612.6z M457.4,518.1c3.2-7.5,4.8-14.5,4.8-20.9
				c0-4.9-0.8-9.4-2.5-13.7c-1-2.4-2.7-4.3-5.1-5.6c-2.4-1.3-5.3-1.9-8.8-1.9l-0.6,1.1l-0.6,2.1l0.6,27c0.4,7.9,0.6,16.5,0.6,25.8
				C450.3,530.2,454.2,525.6,457.4,518.1z"/>
			<path class="st6" d="M559.9,610c-2.3-0.9-3.8-3-4.3-6.3c-0.8-5.2-3.2-13.9-7.2-26.2l-2-5.3l-29.6,0.7c-0.5,4.2-0.9,12.6-1.1,25.1
				c0.2,8.7-0.7,14.7-2.8,17.9c-1.1,1.8-2.9,2.9-5.5,3.3c-2.3,0.4-4.6,0.1-6.7-0.9c-2.2-1-3.4-2.4-3.7-4.4l0.4-1.4l0.1-1.1
				c5.7-46.8,8.3-92.5,8-137.1c-0.1-0.7-0.2-1.9-0.3-3.6c-0.1-1.7-0.3-4.1-0.6-7.3c-0.4-6.5-0.6-11.8-0.6-15.7c0.1-3.9,0.7-7,2-9.2
				l9.9-1.6c2.7-0.4,5.2-0.2,7.3,0.6c2.1,0.8,3.4,2.3,3.7,4.4c2.1,13.2,7.3,32.6,15.6,58c8.2,26.2,13.2,44.7,14.9,55.5
				c0.2,1,1.1,3.7,2.8,7.9c1.6,3.8,2.5,6.4,2.7,7.6c0.2,1.2,2,6.3,5.4,15.2c3.1,8.1,4.8,13.3,5.2,15.8v0.3c0.6,3.8-0.6,6.5-3.5,8.1
				C565.7,610.9,562.3,610.9,559.9,610z M540.4,553.7c-2.5-15.7-7.3-35.4-14.3-59.3l-7.3-26.7c-1.8,42.2-2.6,74.1-2.4,95.4
				c3.2,1.3,12,1.3,26.4,0C541.8,560.7,541,557.5,540.4,553.7z"/>
			<path class="st6" d="M589.1,596.4c0-18.1-2-36.7-6-56.1c-4-19.3-10.3-42.9-18.8-70.9c-0.4-1.6-1.2-4-2.5-7.3
				c-3.3-8.8-5-14.4-5-16.7c0-1.4,0.7-2.7,2.1-3.8c1.4-1.1,2.9-1.6,4.6-1.6c2.8,0,5.4,2,7.8,5.9c2.4,3.8,4.6,8.8,6.7,15.2
				c2,6.4,4.3,14.3,6.7,23.7c2.2,9,4.9,22.7,8.1,41.2l1.7,9.2l3.3,21c0.7,5.8,1.4,10,2,12.5c3.9-17.3,8.9-42.2,15.1-74.9
				c5-27.9,8.5-47,10.6-57.2h6.1c1.7,0,3.2,0.5,4.5,1.5s2,2.2,2,3.6c0,5.7-0.8,11.7-2.4,18.3c-1.6,6.5-4,14.3-7.1,23.4
				c-2.6,7.9-4.3,13.7-5.2,17.7c-0.8,3.9-1.6,10.1-2.4,18.6c-1.5,19-3.8,36-7,51.1c-2,9.1-4.7,16.3-8.1,21.4
				c-3.3,5.2-7.2,7.8-11.4,7.8L589.1,596.4z"/>
			<path class="st6" d="M703.8,578.1c-2.6-1-3.9-3-3.9-5.8c0-4.5-1.2-12.1-3.5-22.9l-1.4-4.7l-34.9-3.4c-1.4,3.4-3.4,10.4-6,20.9
				c-1.4,7.3-11.1,23.2-14.1,25.6c-1.6,1.3-4.5,7-7.5,7c-2.8,0-6.6-1.2-8.9-2.3c-2.3-1.1-4.1-2.5-4.1-4.2l10.4-16.4l0.4-0.9
				c14.4-35.8,26.8-74.6,35.2-113.9c0-0.6,0.1-1.6,0.4-3c0.2-1.4,0.5-3.5,0.7-6.2c0.7-5.5,1.5-10,2.3-13.3s2.2-5.8,4.1-7.4h12
				c3.3,0,6.1,0.5,8.5,1.5c2.3,1,3.5,2.4,3.5,4.2c0,11.4,2.5,28.3,7.4,50.8c4.7,23.1,7,39.2,7,48.5c0,0.9,0.6,3.2,1.8,7
				c1.2,3.4,1.8,5.7,1.8,6.7s1.2,5.5,3.5,13.5c2.1,7.2,3.2,11.8,3.2,13.9v0.2c0,3.3-1.9,5.4-5.6,6.3
				C710.4,579.6,706.4,579.1,703.8,578.1z M691.5,528.2c0-13.5-1.9-30.7-5.6-51.7l-3.5-23.4c-10.1,35.2-17,61.8-20.8,79.7
				c3.5,1.5,13.8,2.7,31,3.6C691.9,534.3,691.5,531.5,691.5,528.2z"/>
		</g>
	</g>
	<g id="Layer_3_1_" class="st0">
		<g class="st7">
			<path class="st6" d="M1059.2,305.2c10.5-48.3,17-82,19.4-100.9v-1.1c0.4-1.7,1.4-3,3-3.9c1.6-1,3.3-1.4,4.9-1.4s2.9,0.2,3.7,0.7
				c1.8,1,2.7,2.4,2.7,4.1c0,15,0.5,37.4,1.5,67.2c1,29.9,1.5,52.3,1.5,67.2c0,3.8-1.6,6.7-4.7,8.9c-1.7,0.9-2.7,1.1-3.1,0.6
				c-3.1,0.7-4.9,0.2-5.2-1.6c-0.2-0.7-0.2-1.7-0.2-2.8l0.1-3c-0.3-9.6-0.5-17.1-0.5-22.5s0.1-12.9,0.2-22.4s0.1-27.6-0.1-54.3
				c-0.8,3.9-2.6,11.4-5.3,22.3c-2.7,10.9-4.5,18.9-5.5,23.8c-1,5-1.8,9.1-2.4,12.4s-1.2,6.3-1.8,8.9c-0.6,2.6-1.3,5.3-2.1,8
				c-1.8,5.7-4.3,8.6-7.5,8.6c-4.9,0-7.3-5.9-7.3-17.6c-0.9-6-3.4-18.1-7.5-36.2s-6.8-30.6-8.2-37.4c-0.2,11.7-0.2,20.5-0.2,26.3
				l1.9,78.7c0,2.7-1.2,5.1-3.5,7.1c-3.9,0-6.5-1-7.9-3.1s-2.1-4.9-2.1-8.5l0.8-31.6l-0.8-73.2c0-8.2,0.1-16.3,0.3-24.5l6.5-3
				c4.3,0.4,9.2,11.5,14.5,33.2c4.3,17.2,7.7,33.1,10.4,47.7C1057.5,296.3,1059,304.1,1059.2,305.2z"/>
			<path class="st6" d="M1181.9,290.2l0.7,11.6v2.9l-0.6,2l0.1,11c0,11.1-1.9,18.9-5.8,23.5c-3.6,4.3-9.3,6.5-17,6.5
				c-9.4,0-16.5-2.7-21.3-8.2c-4.3-4.7-7.4-11-9.4-18.8c-2.5-9.5-4.5-16.2-6-20.1c-0.2-0.3-1-14.4-2.6-42.3s-2.3-43.4-2.3-46.5
				c-1.1-1-1.7-2.3-1.7-3.9c0-1.5,0.7-2.9,2-4.1c1.3-1.2,2.9-1.8,4.7-1.8c5.6,0,8.4,4.5,8.4,13.5l2.2,65.8c0.9,1.7,1.7,5,2.3,10.1
				c0.6,5,1,9,1,11.8s0.6,6.2,1.7,10.3c1.1,4.1,2.6,8.2,4.5,12.4c1.9,4.2,4.5,7.8,7.7,10.7c3.2,3,6.7,4.4,10.3,4.4
				c5.9,0,9-4.3,9.4-13c0.1-1.1,0.1-2.4,0.1-4v-84.9c0-3.6-0.8-9-2.5-16.2s-2.5-12.1-2.5-14.7c0-2.6,0.8-4.3,2.3-5.3
				c1.6-1,3.3-1.4,5.3-1.4l7.1,4.4v3.1l-2.1,11.5c0,7.3,0.6,18.1,1.7,32.2c1.1,14.1,1.7,24.6,1.8,31.4v0.3L1181.9,290.2z"/>
			<path class="st6" d="M1216.9,204.7l2.4,68.1c0,2.2-0.2,4.2-0.5,6v0.8c0.2,3.6,0.6,8.8,1,15.5c1.1,15,1.7,26.2,1.7,33.8v6h16.6
				c2.6,1.2,4.1,2.1,4.4,2.7c0.4,0.6,0.6,1.3,0.6,2.4s-0.6,2.1-1.7,3.1c-1.1,1.1-2.3,1.6-3.5,1.6s-2.6-0.2-4.2-0.6
				c-1.3,0.2-2.8,0.4-4.4,0.4l-7.5-0.3c-1.6,1.5-3.6,2.3-6,2.3s-4.4-0.6-6-1.8c-1.6-1.2-2.5-2.6-2.5-4.2l1.5-8.3
				c0-14.3-0.8-35.8-2.3-64.5c-1.6-28.7-2.3-50.2-2.3-64.5c0-1.2,0.6-2.1,1.7-2.8s2.6-1.1,4.3-1.1c1.7,0,3.3,0.5,4.7,1.6
				C1216.2,201.9,1216.9,203.2,1216.9,204.7z"/>
			<path class="st6" d="M1289,234.6l-0.5,24.4c0,11.5,1.2,21.2,3.6,29v0.1c-1.1,4-1.6,8.8-1.6,14.4l1.9,34c0,6.2-2.2,9.2-6.7,9.2
				c-2.6,0-4.5-1-5.7-3s-1.8-4.2-1.8-6.6l1.8-30.2c0-6.5-0.5-16.3-1.6-29.5c-1.1-13.1-1.6-22.9-1.6-29.5l0.3-16.5
				c0-9-0.7-14.9-2.2-17.6l-12.7,1c-2,0-3.7-0.5-5.3-1.4c-1.6-1-2.3-2.2-2.3-3.7s1.9-2.8,5.6-3.9c3.7-1.1,8.3-1.9,13.7-2.4
				c9.4-0.9,17.2-1.3,23.6-1.3c1.9,0,3.6,0.5,5.2,1.5s2.3,2.3,2.3,3.8s-0.7,2.8-2.1,3.6c-1.4,0.9-3,1.3-5,1.3l-8.3-0.4
				c-1.1,0-1.9,0-2.4,0.1C1288.4,218.6,1289,226.3,1289,234.6z"/>
			<path class="st6" d="M1346,333.7l4.8-0.1c6.3,0,9.5,1,9.5,3.1c0.6,2.1,0.3,3.6-0.9,4.5c-1.2,0.9-2.8,1.3-5,1.3h-29.3
				c-4.5,0-6.7-1.4-6.7-4.3s2.4-4.3,7.1-4.3l7.2,0.1c0.8,0,1.1-3.1,1.1-9.4s-0.7-19.1-2.2-38.6c-1.4-19.4-2.2-34-2.2-43.7l0.5-19.3
				c0-4.1-0.2-7.6-0.6-10.5c-2.1,0.6-3.9,0.8-5.5,0.8c-3.6,0-5.5-1.5-5.5-4.5c0-1.5,1.2-2.9,3.5-4c2.4-1.1,5.3-2,8.8-2.4
				c6.5-0.9,11.4-1.4,14.5-1.4c3.2,0,5.4,0.5,6.8,1.5s2.1,2.2,2.1,3.6c0,1.4-0.5,2.6-1.5,3.6s-2.3,1.5-3.9,1.5l-4.1-0.1
				c-1.5,0-2.6,0.3-3.4,0.8c-0.7,0.5-1.1,1.6-1.1,3.1c0,12.3,1,30.8,3,55.3c2,24.6,3,43,3,55.3L1346,333.7L1346,333.7z"/>
			<path class="st6" d="M1412,214.8c0-8.2,2.9-12.4,8.8-12.4c7.1,0,13.3,1.4,18.6,4.2c10.6,5.5,16,14.4,16,26.9
				c0,9.6-4.8,19.8-14.3,30.7c6.6,7.6,10.6,12,12,13.4s2.6,2.8,3.7,4.2c1.1,1.4,1.7,2.3,1.8,2.7c0.2,0.3,0.4,1.3,0.8,2.9
				s0.6,3,0.7,4.2c0.1,3,0.4,6.6,1.1,10.7c0.6,4.1,1.1,6.4,1.3,6.9c0.2,0.5-0.1,2.1-0.9,4.8s-1.4,4.5-1.7,5.4
				c-0.3,0.9-0.7,2.1-1.3,3.7c-0.5,1.6-1,2.7-1.4,3.5s-0.9,1.8-1.6,3c-0.7,1.3-1.4,2.2-2.1,2.9c-0.7,0.6-1.5,1.5-2.5,2.5
				s-2.1,1.8-3.2,2.5c-1.1,0.6-2.4,1.4-3.9,2.3c-4.8,2.7-9.1,4.4-12.8,5.2c-3.8,0.8-5.9,1.2-6.3,1.2h-1.1c-4.3,0-7-0.2-8.1-0.7
				c-2.2-1-3.3-2.3-3.3-4l1.1-46.5l-1.6-76.8v-3.4H1412z M1427.9,213.1c-2.1,0-3.2,2.3-3.2,6.8s0.2,11.6,0.5,21.3s0.5,16.7,0.5,21.1
				c5.5-1,10.3-6.6,14.3-16.6c2.1-5.4,3.5-8.6,4.1-9.7v-6.7c0-3.7-1.6-7.3-4.8-10.9C1435.9,214.9,1432.1,213.1,1427.9,213.1z
				 M1433.4,271.9L1433.4,271.9l-8-0.1c0.7,15.6,1,37.1,1,64.3c7.5-1,13.5-3.9,17.8-8.7c4.3-4.8,6.5-10.5,6.5-17
				C1450.8,289,1445,276.2,1433.4,271.9z"/>
			<path class="st6" d="M1532.4,340.1c0,4.1-1.9,6.2-5.6,6.2c-2.9,0-5.7-1.7-8.4-5.1v-0.6c-0.4-5-2.3-12-5.8-20.8
				s-5.6-14.7-6.4-17.8c-0.8-3.1-2.2-8.9-4-17.4c-1.9-8.5-3.5-15-4.8-19.5v74.5c0,4-2.5,6-7.6,6c-1.8,0-3.4-0.5-4.7-1.5
				c-1.3-1-1.9-2.3-1.9-3.7v-1.5l1.6-110.9v-23.3c0-1.5,0.4-2.5,1.1-3.1c0.8-0.6,3-0.9,6.6-0.9s7.4,1,11.2,2.9
				c3.8,1.9,6.8,4.4,9.1,7.5c4.7,6.3,7.1,13.3,7.1,21c0,6.2-1.9,13.2-5.7,21.1c-0.5,0.9-1.4,2.7-2.7,5.4c-1.4,2.8-2.2,4.4-2.4,4.9
				c0.1,4.9,1.1,11.1,3,18.4c1.9,7.4,3.7,13.3,5.4,17.8c1.7,4.5,4.5,11.6,8.4,21.2s6.1,15.1,6.7,16.4v2.8H1532.4z M1496.6,209.3
				l-1.3,38.6c0,3.9,0.1,6.8,0.2,8.7c2.6-2,5.1-4.5,7.5-7.3l3.4-16.3c0-6.5-1.1-12-3.2-16.4C1501.2,212,1499,209.6,1496.6,209.3z"/>
			<path class="st6" d="M1595.8,203.2c3,17.7,6.2,40.7,9.6,69c3.3,28.3,5,50.2,5,65.8c0,4.2-2.5,6.4-7.6,6.4s-7.6-1.6-7.6-4.9v-24.7
				c-2.2-1.2-6.1-2.3-11.8-3.1c-5.7-0.9-10.7-1.4-15.1-1.7c-1.9,2.6-3.4,7.9-4.4,15.8c-1,8-2.7,13.5-5,16.5
				c-7.5,0-11.7-1.3-12.4-3.8c3.5-4.1,10.6-30.4,21.3-78.9c4.2-19.1,6.7-30.3,7.5-33.3c4.2-16.3,8.7-24.4,13.6-24.4
				c2.9,0,5.2,0.6,7,1.7L1595.8,203.2L1595.8,203.2z M1594.9,303.1c-0.2-2.3-1-9.1-2.3-20.4c-3.4-28.9-5.1-45.1-5.1-48.5
				s0-5.3,0.1-5.6c-0.9,0.9-3.1,9.8-6.6,26.8s-5.4,26.2-5.9,27.7s-1.2,3.5-2.2,6.1c-2.1,5.4-3.2,9.5-3.3,12.4
				c6.5,1.4,11.8,2.1,16.1,2.1C1590,303.6,1593.1,303.5,1594.9,303.1z"/>
			<path class="st6" d="M1694.6,211l-0.9,69.9v57.8c0,3-1.5,5.2-4.6,6.6c-1.6,0.7-3.2,1-5,1c-1.7,0-3-0.2-3.9-0.6s-1.5-1-2-1.6
				s-0.9-1.4-1.2-2.3c-0.3-0.9-0.6-1.8-0.7-2.6c-0.8-4.5-3.7-13.9-8.7-28.3c-9.6-27.6-15.7-48.4-18.4-62.3c-0.2-0.4-0.2-1-0.3-1.8
				c0-0.7-0.1-1.4-0.2-1.8c-0.1-1.4-0.5-2.5-1.3-3.3c0.1-2.6-0.6-5.9-2-9.9s-2.2-6.4-2.3-7.2v119.7h-8.2v-3.5
				c0.3-0.9,0.3-2.9-0.1-5.8c-0.4-3-0.6-6.5-0.6-10.5s-0.5-13.4-1.5-28.1s-1.5-23.6-1.5-26.9v-24.1l1.6-34.7c0-4.7,0.4-7.3,1.3-7.8
				c2-1.2,4-1.8,6.2-1.8c2.1,0,3.8,0.2,4.9,0.7c2.7,1.2,4,2.8,4,4.9c0,2.1,0.3,4.2,0.9,6.2c0.6,2.1,1.5,4.4,2.6,6.9
				c1.1,2.6,1.9,4.5,2.4,5.9s0.9,2.9,1.2,4.7c0.3,1.8,0.6,3.4,0.7,4.8c0.5,4.7,1.2,8.8,2,12.3c0.8,3.4,2.3,8.6,4.6,15.4
				c2.3,6.8,4.4,12.8,6.5,18.1c5.2,13.4,8.1,25.5,8.8,36.1c1.2,1.8,2,4.1,2.3,6.7l0.7-65.9v-56c0.9-3.1,3.5-4.7,7.7-4.7
				s6.3,2.5,6.3,7.4v1.1C1695.1,207.1,1694.6,209,1694.6,211z"/>
			<path class="st6" d="M1719.7,253.7l0.7-20.7c0-5.8-0.3-10.1-1-12.6c-0.7-2.6-1.5-5-2.6-7.3s-1.5-4.1-1.5-5.3s0.3-2.2,0.9-3
				s1.5-1.4,2.7-1.9s2.4-0.8,3.5-1.1s2.6-0.5,4.3-0.6c2.9-0.1,5-0.2,6.3-0.2h2.3c6.4,0,13.2,2.8,20.4,8.3c8.7,6.7,14.1,13.8,16,21.2
				c1.1,4.4,1.9,9.2,2.3,14.6c0.4,5.4,0.6,8.9,0.8,10.7c0.5,4.1,1.1,6.8,1.8,8.3v8.8c-0.8,1.2-1.3,3.1-1.3,5.7
				c0,9.5-2.7,20-8.1,31.3s-12.1,19.9-20.1,25.9c-5.9,4.4-9.9,7-12,7.8s-4.1,1.2-6.2,1.2c-2,0-4.2-0.5-6.6-1.6s-3.5-2.7-3.5-4.8
				c3.4-2.9,5.1-10.3,5.1-22.3c0-7-0.7-17.5-2.2-31.3C1720.4,270.9,1719.7,260.6,1719.7,253.7z M1735.2,315.7v18.1
				c12.1-6.9,20.6-19.7,25.4-38.5c2.4-9.6,3.6-19.5,3.6-29.8c0-35.4-10.8-53.1-32.4-53.1v0.2c0,11.7,0.5,29,1.6,51.9
				C1734.5,287.5,1735.1,304.5,1735.2,315.7z"/>
			<path class="st6" d="M1079.3,514.2l-2.1,23.9v0.8c-1,3.5-1.5,7.3-1.5,11.4s-0.9,8-2.6,11.8s-4.3,7.1-7.9,10.1
				c-3.5,2.9-7.4,4.4-11.6,4.4s-8-1.2-11.5-3.5s-6.3-5.3-8.6-9c-2.2-3.7-4.2-8-6-13.1s-3.1-10-4-14.9c-0.9-4.8-1.7-9.9-2.3-15.3
				c-0.8-8.2-1.3-14.9-1.3-20.2s0.1-9.6,0.3-13c0.3-6.2,0.6-11.7,1-16.6c0.4-4.8,0.6-8.5,0.7-11.1c0.1-2.6,0.2-4.8,0.2-6.6
				c0.1-1.8,0.3-4,0.7-6.6s0.8-4.8,1.4-6.7c0.5-1.8,1.3-3.8,2.5-5.8c1.1-2,2.4-3.7,3.9-5c3.5-2.9,7.4-4.3,11.7-4.3s7.8,0.3,10.4,1
				s4.8,1.6,6.6,2.6c1.8,1.1,3.4,2.5,4.9,4.2s2.7,3.5,3.6,5.1c0.9,1.7,1.8,3.7,2.6,6c1,3,2,7.2,3,12.7
				C1077.4,478.2,1079.3,497.4,1079.3,514.2z M1058.7,445c-1.5-3.2-3.4-5.7-5.6-7.5s-4.4-2.6-6.5-2.6s-3.8,0.4-5.1,1.3
				c-1.3,0.9-2.4,2.2-3.3,3.9c-0.9,1.7-1.8,3.6-2.5,5.5c-0.8,1.9-1.4,4.3-1.9,7.1c-0.5,2.8-0.9,5.3-1.3,7.6c-0.4,2.3-0.7,5-0.9,8.1
				c-0.2,3.1-0.4,5.7-0.6,7.7s-0.2,4.3-0.3,7.1c0,2.8-0.1,4.6-0.1,5.5v3.9c0,10.2,1.2,21.8,3.5,34.9c4.7,25.8,11.4,38.7,20,38.7
				c3,0,5.6-2.4,7.8-7.1c2.1-4.7,3.6-10.6,4.4-17.7c1.5-12,2.3-20.7,2.3-26.1c0-5.4,0-9.2-0.1-11.6c0-2.3-0.2-5.7-0.3-10.2
				c-0.2-4.5-0.5-8.6-1-12.6c-0.5-3.9-1-8.2-1.7-13c-0.7-4.7-1.6-9-2.8-12.7C1061.6,451.7,1060.3,448.3,1058.7,445z"/>
			<path class="st6" d="M1163.9,438l-0.9,69.9v57.8c0,3-1.5,5.2-4.6,6.6c-1.6,0.7-3.2,1-5,1c-1.7,0-3-0.2-3.9-0.6
				c-0.9-0.4-1.5-1-2-1.6s-0.9-1.4-1.2-2.3c-0.3-0.9-0.6-1.8-0.7-2.6c-0.8-4.5-3.7-13.9-8.7-28.3c-9.6-27.6-15.7-48.4-18.4-62.3
				c-0.2-0.4-0.2-1-0.3-1.8c0-0.7-0.1-1.4-0.2-1.8c-0.1-1.4-0.5-2.5-1.3-3.3c0.1-2.6-0.6-5.9-2-9.9s-2.2-6.4-2.3-7.2v119.7h-8.2
				v-3.5c0.3-0.9,0.3-2.9-0.1-5.8c-0.4-3-0.6-6.5-0.6-10.5s-0.5-13.4-1.5-28.1c-1-14.7-1.5-23.6-1.5-26.9v-24.1l1.6-34.7
				c0-4.7,0.4-7.3,1.3-7.8c2-1.2,4-1.8,6.2-1.8c2.1,0,3.8,0.2,4.9,0.7c2.7,1.2,4,2.8,4,4.9s0.3,4.2,0.9,6.2c0.6,2.1,1.5,4.4,2.6,6.9
				c1.1,2.6,1.9,4.5,2.4,5.9s0.9,2.9,1.2,4.7c0.3,1.8,0.6,3.4,0.7,4.8c0.5,4.7,1.2,8.8,2,12.3c0.8,3.4,2.3,8.6,4.6,15.4
				c2.3,6.8,4.4,12.8,6.5,18.1c5.2,13.4,8.1,25.5,8.8,36.1c1.2,1.8,2,4.1,2.3,6.7l0.7-65.9v-56c0.9-3.1,3.5-4.7,7.7-4.7
				s6.3,2.5,6.3,7.4v1.1C1164.4,434.1,1163.9,435.9,1163.9,438z"/>
			<path class="st6" d="M1200,431.7l2.4,68.1c0,2.2-0.2,4.2-0.5,6v0.8c0.2,3.6,0.6,8.8,1,15.5c1.1,15,1.7,26.2,1.7,33.8v6h16.6
				c2.6,1.2,4.1,2.1,4.4,2.7c0.4,0.6,0.6,1.3,0.6,2.4s-0.6,2.1-1.7,3.1c-1.1,1.1-2.3,1.6-3.5,1.6s-2.6-0.2-4.2-0.6
				c-1.3,0.2-2.8,0.4-4.4,0.4l-7.5-0.3c-1.6,1.5-3.6,2.3-6,2.3s-4.4-0.6-6-1.8s-2.5-2.6-2.5-4.2l1.5-8.3c0-14.3-0.8-35.8-2.3-64.5
				c-1.6-28.7-2.3-50.2-2.3-64.5c0-1.2,0.6-2.1,1.7-2.8c1.1-0.7,2.6-1.1,4.3-1.1c1.7,0,3.3,0.5,4.7,1.6
				C1199.3,428.9,1200,430.1,1200,431.7z"/>
			<path class="st6" d="M1267.2,560.7l4.8-0.1c6.3,0,9.5,1,9.5,3.1c0.6,2.1,0.3,3.6-0.9,4.5c-1.2,0.9-2.8,1.3-5,1.3h-29.3
				c-4.5,0-6.7-1.4-6.7-4.3c0-2.9,2.4-4.3,7.1-4.3l7.2,0.1c0.8,0,1.1-3.1,1.1-9.4c0-6.3-0.7-19.1-2.2-38.6
				c-1.4-19.4-2.2-34-2.2-43.7l0.5-19.3c0-4.1-0.2-7.6-0.6-10.5c-2.1,0.6-3.9,0.8-5.5,0.8c-3.6,0-5.5-1.5-5.5-4.5
				c0-1.5,1.2-2.9,3.5-4c2.4-1.1,5.3-2,8.8-2.4c6.5-0.9,11.4-1.4,14.5-1.4c3.2,0,5.4,0.5,6.8,1.5s2.1,2.2,2.1,3.6s-0.5,2.6-1.5,3.6
				s-2.3,1.5-3.9,1.5l-4.1-0.1c-1.5,0-2.6,0.3-3.4,0.8c-0.7,0.5-1.1,1.6-1.1,3.1c0,12.3,1,30.8,3,55.3c2,24.6,3,43,3,55.3
				L1267.2,560.7L1267.2,560.7z"/>
			<path class="st6" d="M1362.1,438l-0.9,69.9v57.8c0,3-1.5,5.2-4.6,6.6c-1.6,0.7-3.2,1-5,1c-1.7,0-3-0.2-3.9-0.6
				c-0.9-0.4-1.5-1-2-1.6s-0.9-1.4-1.2-2.3c-0.3-0.9-0.6-1.8-0.7-2.6c-0.8-4.5-3.7-13.9-8.7-28.3c-9.6-27.6-15.7-48.4-18.4-62.3
				c-0.2-0.4-0.2-1-0.3-1.8c0-0.7-0.1-1.4-0.2-1.8c-0.1-1.4-0.5-2.5-1.3-3.3c0.1-2.6-0.6-5.9-2-9.9s-2.2-6.4-2.3-7.2v119.7h-8.2
				v-3.5c0.3-0.9,0.3-2.9-0.1-5.8c-0.4-3-0.6-6.5-0.6-10.5s-0.5-13.4-1.5-28.1c-1-14.7-1.5-23.6-1.5-26.9v-24.1l1.6-34.7
				c0-4.7,0.4-7.3,1.3-7.8c2-1.2,4-1.8,6.2-1.8c2.1,0,3.8,0.2,4.9,0.7c2.7,1.2,4,2.8,4,4.9s0.3,4.2,0.9,6.2c0.6,2.1,1.5,4.4,2.6,6.9
				c1.1,2.6,1.9,4.5,2.4,5.9s0.9,2.9,1.2,4.7c0.3,1.8,0.6,3.4,0.7,4.8c0.5,4.7,1.2,8.8,2,12.3c0.8,3.4,2.3,8.6,4.6,15.4
				c2.3,6.8,4.4,12.8,6.5,18.1c5.2,13.4,8.1,25.5,8.8,36.1c1.2,1.8,2,4.1,2.3,6.7l0.7-65.9v-56c0.9-3.1,3.5-4.7,7.7-4.7
				s6.3,2.5,6.3,7.4v1.1C1362.6,434.1,1362.1,435.9,1362.1,438z"/>
			<path class="st6" d="M1411.3,502.1l-5.8-0.2c-1.8,0-3.2,0.5-4.1,1.4v58.4c8-0.4,12.1-0.6,12.3-0.6c8.7,0,13,1.7,13,5v0.6
				c-1.1,1.7-2.9,3-5.4,4c-2.5,0.9-4.8,1.4-6.7,1.6c-1.9,0.1-4.4,0.2-7.5,0.2h-7.3c-5.9,0-9.6-0.9-10.9-2.8c-0.6-0.9-0.9-2-0.9-3.4
				V429.7l20.2-1.7c2.4,0,4.7,0.6,7.1,1.7s3.6,2.6,3.6,4.5c0,3.8-3.5,5.6-10.6,5.6l-6.7-0.2c-1.1,0-2,0-2.5,0.1l1.8,31.2
				c0,2.5-0.2,6.2-0.6,11s-0.6,8.4-0.6,10.6c0.8-0.1,2-0.3,3.4-0.6c3.2-0.7,5.7-1,7.5-1s3.4,0.5,4.8,1.6c1.4,1,2.1,2.3,2.1,3.8
				s-0.6,2.8-1.7,4C1414.6,501.5,1413.1,502.1,1411.3,502.1z"/>
			<path class="st6" d="M1473.4,569.1c0-3.4,1.7-5.1,5.2-5.1c1.7,0,4,0.5,6.9,1.4c2.9,1,5.3,1.4,7.4,1.4s4.4-1.1,6.8-3.2
				c2.4-2.2,4.3-4.8,5.7-8c2.8-6.5,4.2-12.3,4.2-17.6s-1.1-11-3.4-17s-5.1-11.7-8.4-17s-6.6-10.6-9.9-15.9
				c-7.8-12.7-11.7-24.2-11.7-34.5c0-9.8,3.8-17.6,11.5-23.2c4.1-3,8.9-4.4,14.5-4.4c2.8,0,5.5,0.6,8.2,1.9s4.5,2.9,5.6,4.9v4.1
				c-6.5,0-10.9-0.6-13.1-1.8c-2.9,0.2-5.4,1.4-7.5,3.3c-3.9,3.7-5.8,8-5.8,12.8s0.9,9.8,2.6,15c1.7,5.1,3.8,10,6.3,14.5
				c2.4,4.5,4.9,8.7,7.4,12.6s4.6,7,6.3,9.5c1.7,2.5,2.6,3.8,2.6,3.9v1.5c0.5,1.6,1.4,4.1,2.7,7.6c1.3,3.4,2.3,6.2,3.1,8.2
				c1.9,5.5,2.9,10.6,2.9,15.1s-0.7,8.8-2,12.8c-1.3,4.1-3.2,7.9-5.7,11.5s-5.8,6.5-10,8.8s-8.2,3.4-11.8,3.4
				c-3.6,0-6.7-0.2-9.2-0.5s-5-1-7.5-2C1474.6,571.9,1473.4,570.6,1473.4,569.1z"/>
			<path class="st6" d="M1571.9,461.5l-0.5,24.4c0,11.5,1.2,21.2,3.6,29v0.1c-1.1,4-1.6,8.8-1.6,14.4l1.9,34c0,6.2-2.2,9.2-6.7,9.2
				c-2.6,0-4.5-1-5.7-3s-1.8-4.2-1.8-6.6l1.8-30.2c0-6.5-0.5-16.3-1.6-29.5c-1.1-13.1-1.6-22.9-1.6-29.5l0.3-16.5
				c0-9-0.7-14.9-2.2-17.6l-12.7,1c-2,0-3.7-0.5-5.3-1.4c-1.6-1-2.3-2.2-2.3-3.7s1.9-2.8,5.6-3.9s8.3-1.9,13.7-2.4
				c9.4-0.9,17.2-1.3,23.6-1.3c1.9,0,3.6,0.5,5.2,1.5s2.3,2.3,2.3,3.8s-0.7,2.8-2.1,3.6c-1.4,0.9-3,1.3-5,1.3l-8.3-0.4
				c-1.1,0-1.9,0-2.4,0.1C1571.3,445.5,1571.9,453.3,1571.9,461.5z"/>
			<path class="st6" d="M1662.5,514.2l-2.1,23.9v0.8c-1,3.5-1.5,7.3-1.5,11.4s-0.9,8-2.6,11.8s-4.3,7.1-7.9,10.1
				c-3.5,2.9-7.4,4.4-11.6,4.4s-8-1.2-11.5-3.5s-6.3-5.3-8.6-9c-2.2-3.7-4.2-8-6-13.1s-3.1-10-4-14.9c-0.9-4.8-1.7-9.9-2.3-15.3
				c-0.8-8.2-1.3-14.9-1.3-20.2s0.1-9.6,0.3-13c0.3-6.2,0.6-11.7,1-16.6c0.4-4.8,0.6-8.5,0.7-11.1s0.2-4.8,0.2-6.6
				c0.1-1.8,0.3-4,0.7-6.6c0.4-2.6,0.8-4.8,1.4-6.7c0.5-1.8,1.3-3.8,2.5-5.8c1.1-2,2.4-3.7,3.9-5c3.5-2.9,7.4-4.3,11.7-4.3
				s7.8,0.3,10.4,1s4.8,1.6,6.6,2.6c1.8,1.1,3.4,2.5,4.9,4.2s2.7,3.5,3.6,5.1c0.9,1.7,1.8,3.7,2.6,6c1,3,2,7.2,3,12.7
				C1660.7,478.2,1662.5,497.4,1662.5,514.2z M1642,445c-1.5-3.2-3.4-5.7-5.6-7.5s-4.4-2.6-6.5-2.6s-3.8,0.4-5.1,1.3
				c-1.3,0.9-2.4,2.2-3.3,3.9c-0.9,1.7-1.8,3.6-2.5,5.5c-0.8,1.9-1.4,4.3-1.9,7.1c-0.5,2.8-0.9,5.3-1.3,7.6c-0.4,2.3-0.7,5-0.9,8.1
				c-0.2,3.1-0.4,5.7-0.6,7.7s-0.2,4.3-0.3,7.1c0,2.8-0.1,4.6-0.1,5.5v3.9c0,10.2,1.2,21.8,3.5,34.9c4.7,25.8,11.4,38.7,20,38.7
				c3,0,5.6-2.4,7.8-7.1c2.1-4.7,3.6-10.6,4.4-17.7c1.5-12,2.3-20.7,2.3-26.1c0-5.4,0-9.2-0.1-11.6c0-2.3-0.2-5.7-0.3-10.2
				c-0.2-4.5-0.5-8.6-1-12.6c-0.5-3.9-1-8.2-1.7-13c-0.7-4.7-1.6-9-2.8-12.7C1644.9,451.7,1643.5,448.3,1642,445z"/>
			<path class="st6" d="M1734.4,567.1c0,4.1-1.9,6.2-5.6,6.2c-2.9,0-5.7-1.7-8.4-5.1v-0.6c-0.4-5-2.3-12-5.8-20.8
				s-5.6-14.7-6.4-17.8s-2.2-8.9-4-17.4c-1.9-8.5-3.5-15-4.8-19.5v74.5c0,4-2.5,6-7.6,6c-1.8,0-3.4-0.5-4.7-1.5
				c-1.3-1-1.9-2.3-1.9-3.7v-1.5l1.6-110.9v-23.3c0-1.5,0.4-2.5,1.1-3.1c0.8-0.6,3-0.9,6.6-0.9s7.4,1,11.2,2.9
				c3.8,1.9,6.8,4.4,9.1,7.5c4.7,6.3,7.1,13.3,7.1,21c0,6.2-1.9,13.2-5.7,21.1c-0.5,0.9-1.4,2.7-2.7,5.4s-2.2,4.4-2.4,4.9
				c0.1,4.9,1.1,11.1,3,18.4c1.9,7.4,3.7,13.3,5.4,17.8c1.7,4.5,4.5,11.6,8.4,21.2c3.9,9.6,6.1,15.1,6.7,16.4v2.8H1734.4z
				 M1698.6,436.2l-1.3,38.6c0,3.9,0.1,6.8,0.2,8.7c2.6-2,5.1-4.5,7.5-7.3l3.4-16.3c0-6.5-1.1-12-3.2-16.4
				C1703.2,439,1700.9,436.6,1698.6,436.2z"/>
			<path class="st6" d="M1777.8,502.1l-5.8-0.2c-1.8,0-3.2,0.5-4.1,1.4v58.4c8-0.4,12.1-0.6,12.3-0.6c8.7,0,13,1.7,13,5v0.6
				c-1.1,1.7-2.9,3-5.4,4c-2.5,0.9-4.8,1.4-6.7,1.6c-1.9,0.1-4.4,0.2-7.5,0.2h-7.3c-5.9,0-9.6-0.9-10.9-2.8c-0.6-0.9-0.9-2-0.9-3.4
				V429.7l20.2-1.7c2.4,0,4.7,0.6,7.1,1.7s3.6,2.6,3.6,4.5c0,3.8-3.5,5.6-10.6,5.6l-6.7-0.2c-1.1,0-2,0-2.5,0.1l1.8,31.2
				c0,2.5-0.2,6.2-0.6,11s-0.6,8.4-0.6,10.6c0.8-0.1,2-0.3,3.4-0.6c3.2-0.7,5.7-1,7.5-1s3.4,0.5,4.8,1.6c1.4,1,2.1,2.3,2.1,3.8
				s-0.6,2.8-1.7,4C1781.1,501.5,1779.6,502.1,1777.8,502.1z"/>
		</g>
	</g>
</g>
<g id="Layer_3_2_">
	<g>
		<g>
			<path class="st6" d="M1047.2,209.8c0-10.8,3.2-16.2,9.7-16.2c7.9,0,14.7,1.8,20.5,5.4c11.8,7.2,17.6,18.9,17.6,35.1
				c0,12.6-5.2,25.9-15.7,40.1c7.3,9.9,11.7,15.7,13.3,17.5c1.6,1.8,2.9,3.6,4.1,5.5c1.2,1.9,1.8,3.1,2,3.5c0.2,0.4,0.5,1.7,0.9,3.8
				c0.4,2.1,0.7,3.9,0.8,5.4c0.1,3.9,0.5,8.6,1.2,14c0.7,5.4,1.2,8.4,1.4,9.1c0.3,0.6-0.1,2.7-0.9,6.2c-0.9,3.5-1.5,5.8-1.8,7
				c-0.3,1.2-0.8,2.8-1.4,4.8c-0.6,2.1-1.1,3.6-1.5,4.6c-0.4,1-1,2.3-1.8,4c-0.8,1.7-1.5,2.9-2.3,3.7c-0.8,0.8-1.7,1.9-2.8,3.3
				c-1.1,1.3-2.3,2.4-3.5,3.3s-2.7,1.8-4.3,3c-5.3,3.5-10,5.8-14.2,6.8c-4.2,1-6.5,1.5-7,1.5h-1.3c-4.7,0-7.7-0.3-8.9-1
				c-2.4-1.3-3.7-3-3.7-5.2l1.3-60.9l-1.8-100.5V209.8z M1064.7,207.7c-2.4,0-3.5,3-3.5,8.9c0,5.9,0.2,15.2,0.5,27.9
				c0.3,12.7,0.5,21.9,0.5,27.6c6.1-1.4,11.4-8.6,15.7-21.7c2.3-7,3.9-11.2,4.5-12.7v-8.8c0-4.8-1.8-9.6-5.4-14.2
				C1073.5,210,1069.4,207.7,1064.7,207.7z M1070.8,284.5v-0.1h-8.8c0.8,20.4,1.1,48.5,1.1,84c8.3-1.3,14.9-5.1,19.6-11.4
				c4.8-6.3,7.2-13.7,7.2-22.3C1090,306.8,1083.6,290.1,1070.8,284.5z"/>
			<path class="st6" d="M1149.2,370l10.2-0.6c6.5,0,9.8,2,9.8,6c0,2.5-1.1,4.3-3.4,5.4c-2.3,1.1-4.8,1.7-7.7,1.7h-24.3
				c-2.2,0-4.1-0.7-5.6-2.2c-1.6-1.4-2.4-3.3-2.5-5.6c-0.1-2.3,0-5.1,0.5-8.5c0.5-3.4,0.7-6.1,0.7-8.1l-1.3-31.6l1.8-72.2l-1.4-20.9
				c0-11.7,3.6-17.5,10.8-17.5c2,0,3.9,0.6,5.7,1.8c0.7,0.1,2.3,0.2,4.8,0.4c2.6,0.2,4.8,0.5,6.7,0.8c1.9,0.3,4,0.8,6.3,1.3
				c4.9,1.3,7.3,3.5,7.3,6.6c0,3.4-2.5,6-7.6,7.7c-7.9-2.6-14.4-4.1-19.5-4.7c0.3,3.5,0.4,7.1,0.4,10.6l-1.1,35.5
				c0,0.2,0.3,1.4,0.8,3.9l9.2-0.4c8.3,0,12.5,2.3,12.5,6.8c0,2.4-0.7,4.5-2.2,6.4c-1.5,1.9-3.5,2.8-6.2,2.8c-2.7,0-5-0.7-7.1-2.2
				h-6.5c0.5,6.3,0.8,12.2,0.8,17.9l-1.1,44.8C1139.9,365.3,1143,370,1149.2,370z"/>
			<path class="st6" d="M1187.3,368.9l13.6,1.8c3.3,0,6.1-1.4,8.6-4.1c2.4-2.7,4.2-6.2,5.4-10.3c2.3-7.9,3.4-14.9,3.4-21
				c0-6.1-1.1-12.1-3.1-18.1c-2.1-6-4.7-11.5-7.7-16.6c-3-5.1-6.1-10.3-9.2-15.6c-7.2-12.5-10.8-24.8-10.8-37c0-7.4,1.3-14,3.9-19.7
				c4.9-10.6,11.3-15.9,19.4-15.9c3,0,5.9,0.9,8.6,2.8c2.7,1.9,4.1,3.9,4.1,6c0,3.8-2.1,5.7-6.3,5.7c-1.8,0-3.7-0.5-5.4-1.4
				c-5.5,0.2-9.2,6.1-11.1,17.5c-0.4,2.5-0.6,5.4-0.6,8.8c0,3.3,0.8,7.5,2.3,12.4c1.5,4.9,3.4,9.3,5.7,13.1
				c2.3,3.8,4.8,8.1,7.4,12.7c2.6,4.6,5.1,9.1,7.5,13.5c5.3,10.1,7.9,21.6,7.9,34.5c0,10.3-2.1,19.8-6.4,28.6
				c-2.3,4.5-5.5,8.2-9.6,11c-4.2,2.9-9,4.3-14.4,4.4v0.6c-3.2-0.4-6.1-1.4-8.7-3.1c-2.6-1.6-4.1-3.8-4.4-6.5V368.9z"/>
			<path class="st6" d="M1276,356.3l0.5-8.5c-0.7-2.1-2.1-20.7-4.2-55.8c-2.1-35.1-3.2-56.6-3.4-64.3c-9.9-0.2-16-1.1-18.4-2.6
				c-2.4-1.5-3.5-3-3.5-4.6c0-1.6,0.9-2.9,2.8-3.9c1.8-1,3.7-1.5,5.4-1.5l35,2.3l4.2-0.1c5.4,0,8.1,2,8.1,5.9c0,2-0.9,3.6-2.6,4.9
				c-1.8,1.2-3.7,1.9-5.9,1.9l-11.8-1.7l-0.5,2.5c0,15.6,1.4,39,4.3,70.2c2.9,31.2,4.3,54.6,4.3,70.3c0,2-0.8,3.7-2.3,5.2
				c-1.6,1.4-3.4,2.2-5.5,2.2h-5.8L1276,356.3z"/>
			<path class="st6" d="M1319.8,368.9l13.6,1.8c3.3,0,6.1-1.4,8.6-4.1c2.4-2.7,4.2-6.2,5.4-10.3c2.3-7.9,3.4-14.9,3.4-21
				c0-6.1-1.1-12.1-3.1-18.1c-2.1-6-4.7-11.5-7.7-16.6c-3-5.1-6.1-10.3-9.2-15.6c-7.2-12.5-10.8-24.8-10.8-37c0-7.4,1.3-14,3.9-19.7
				c4.9-10.6,11.3-15.9,19.4-15.9c3,0,5.9,0.9,8.6,2.8c2.7,1.9,4.1,3.9,4.1,6c0,3.8-2.1,5.7-6.3,5.7c-1.8,0-3.7-0.5-5.4-1.4
				c-5.5,0.2-9.2,6.1-11.1,17.5c-0.4,2.5-0.6,5.4-0.6,8.8c0,3.3,0.8,7.5,2.3,12.4c1.5,4.9,3.4,9.3,5.7,13.1
				c2.3,3.8,4.8,8.1,7.4,12.7c2.6,4.6,5.1,9.1,7.5,13.5c5.3,10.1,7.9,21.6,7.9,34.5c0,10.3-2.1,19.8-6.4,28.6
				c-2.3,4.5-5.5,8.2-9.6,11c-4.2,2.9-9,4.3-14.4,4.4v0.6c-3.2-0.4-6.1-1.4-8.7-3.1c-2.6-1.6-4.1-3.8-4.4-6.5V368.9z"/>
			<path class="st6" d="M1409.7,370l10.2-0.6c6.5,0,9.8,2,9.8,6c0,2.5-1.1,4.3-3.4,5.4c-2.3,1.1-4.8,1.7-7.7,1.7h-24.3
				c-2.2,0-4.1-0.7-5.6-2.2c-1.6-1.4-2.4-3.3-2.5-5.6c-0.1-2.3,0-5.1,0.5-8.5c0.5-3.4,0.7-6.1,0.7-8.1l-1.3-31.6l1.8-72.2l-1.4-20.9
				c0-11.7,3.6-17.5,10.8-17.5c2,0,3.9,0.6,5.7,1.8c0.7,0.1,2.3,0.2,4.8,0.4c2.6,0.2,4.8,0.5,6.7,0.8c1.9,0.3,4,0.8,6.3,1.3
				c4.9,1.3,7.3,3.5,7.3,6.6c0,3.4-2.5,6-7.6,7.7c-7.9-2.6-14.4-4.1-19.5-4.7c0.3,3.5,0.4,7.1,0.4,10.6l-1.1,35.5
				c0,0.2,0.3,1.4,0.8,3.9l9.2-0.4c8.3,0,12.5,2.3,12.5,6.8c0,2.4-0.7,4.5-2.2,6.4c-1.5,1.9-3.5,2.8-6.2,2.8c-2.7,0-5-0.7-7.1-2.2
				h-6.5c0.5,6.3,0.8,12.2,0.8,17.9l-1.1,44.8C1400.4,365.3,1403.5,370,1409.7,370z"/>
			<path class="st6" d="M1466,240.6l0.8,59.4c-1,2.3-1.5,6.8-1.5,13.4l-1,39.4c0,11.4,2.9,17,8.7,17l10.7-0.4
				c9.2,0,13.9,2.4,13.9,7.2c0,1.8-0.8,3.2-2.4,4.4c-1.6,1.2-3.4,1.9-5.4,2.1c-6.3-1.9-14-2.9-23-2.9c-2.8,1.5-5.4,2.3-8,2.3
				c-2.6,0-4.6-0.8-6-2.5c-1.4-1.7-2.1-3.5-2.1-5.6l2.5-110.5v-1.8c-0.5-5.2-0.8-12.9-0.8-23.2c0-15.6,3-23.4,8.9-23.4
				c1.8,0,3.3,0.6,4.6,1.8c1.3,1.2,2,2.7,2,4.3L1466,240.6z"/>
			<path class="st6" d="M1531.7,240.6l0.8,59.4c-1,2.3-1.5,6.8-1.5,13.4l-1,39.4c0,11.4,2.9,17,8.7,17l10.7-0.4
				c9.2,0,13.9,2.4,13.9,7.2c0,1.8-0.8,3.2-2.4,4.4c-1.6,1.2-3.4,1.9-5.4,2.1c-6.3-1.9-14-2.9-23-2.9c-2.8,1.5-5.4,2.3-8,2.3
				c-2.6,0-4.6-0.8-6-2.5c-1.4-1.7-2.1-3.5-2.1-5.6l2.5-110.5v-1.8c-0.5-5.2-0.8-12.9-0.8-23.2c0-15.6,3-23.4,8.9-23.4
				c1.8,0,3.3,0.6,4.6,1.8c1.3,1.2,2,2.7,2,4.3L1531.7,240.6z"/>
			<path class="st6" d="M1606.3,370l10.2-0.6c6.5,0,9.8,2,9.8,6c0,2.5-1.1,4.3-3.4,5.4c-2.3,1.1-4.8,1.7-7.7,1.7h-24.3
				c-2.2,0-4.1-0.7-5.6-2.2c-1.6-1.4-2.4-3.3-2.5-5.6c-0.1-2.3,0-5.1,0.5-8.5c0.5-3.4,0.7-6.1,0.7-8.1l-1.3-31.6l1.8-72.2l-1.4-20.9
				c0-11.7,3.6-17.5,10.8-17.5c2,0,3.9,0.6,5.7,1.8c0.7,0.1,2.3,0.2,4.8,0.4c2.6,0.2,4.8,0.5,6.7,0.8c1.9,0.3,4,0.8,6.3,1.3
				c4.9,1.3,7.3,3.5,7.3,6.6c0,3.4-2.5,6-7.6,7.7c-7.9-2.6-14.4-4.1-19.5-4.7c0.3,3.5,0.4,7.1,0.4,10.6l-1.1,35.5
				c0,0.2,0.3,1.4,0.8,3.9l9.2-0.4c8.3,0,12.5,2.3,12.5,6.8c0,2.4-0.7,4.5-2.2,6.4c-1.5,1.9-3.5,2.8-6.2,2.8c-2.7,0-5-0.7-7.1-2.2
				h-6.5c0.5,6.3,0.8,12.2,0.8,17.9l-1.1,44.8C1597,365.3,1600.1,370,1606.3,370z"/>
			<path class="st6" d="M1660.3,306.1c-1.2,4.6-1.8,8.8-1.8,12.7c0,3.9,0.5,12.2,1.6,25c1,12.8,1.6,21,1.6,24.7
				c0,3.7-0.7,6.5-2.1,8.5c-1.4,1.9-3,2.9-4.7,2.9c-2.5,0-4.1-1.6-4.8-5c0.2-6.1,0.3-13.6,0.3-22.5c0-8.9-0.7-28.4-2.2-58.6
				c-1.5-30.2-2.2-52.7-2.2-67.6c0-7.8,2.9-11.7,8.6-11.7c9,0,16.5,2.3,22.7,6.8c6.1,4.5,9.2,10.9,9.2,19.3c0,11.3-0.9,20-2.8,26.3
				c-1.8,6.3-5.3,14.1-10.5,23.5c0.9,3.9,2.6,11.8,4.9,23.7c5,25.6,10.5,44.1,16.7,55.4c1.8,3.2,2.6,5.7,2.6,7.5
				c0,1.8-0.5,3.3-1.6,4.6c-1.1,1.2-2.5,1.9-4.2,1.9c-5.6,0-10.8-9-15.5-26.9c-2-7.8-3.8-15.7-5.4-23.7c-4.5-21.8-7.4-34.1-8.7-36.8
				C1662.1,298.2,1661.5,301.5,1660.3,306.1z M1659.9,223.6l-0.9,3.5c0,6.8,0.2,16.5,0.5,29.3c0.3,12.8,0.5,22,0.5,27.8
				c4-2,7.3-7.3,9.8-15.8c2.5-8.5,3.7-15,3.7-19.5c0-4.5-0.1-7.8-0.4-10c-0.3-2.1-0.8-4.5-1.6-7.1
				C1669.9,226.5,1666,223.8,1659.9,223.6z"/>
			<path class="st6" d="M1714.6,368.9l13.6,1.8c3.3,0,6.1-1.4,8.6-4.1c2.4-2.7,4.2-6.2,5.4-10.3c2.3-7.9,3.4-14.9,3.4-21
				c0-6.1-1.1-12.1-3.1-18.1c-2.1-6-4.7-11.5-7.7-16.6c-3-5.1-6.1-10.3-9.2-15.6c-7.2-12.5-10.8-24.8-10.8-37c0-7.4,1.3-14,3.9-19.7
				c4.9-10.6,11.3-15.9,19.4-15.9c3,0,5.9,0.9,8.6,2.8c2.7,1.9,4.1,3.9,4.1,6c0,3.8-2.1,5.7-6.3,5.7c-1.8,0-3.7-0.5-5.4-1.4
				c-5.5,0.2-9.2,6.1-11.1,17.5c-0.4,2.5-0.6,5.4-0.6,8.8c0,3.3,0.8,7.5,2.3,12.4c1.5,4.9,3.4,9.3,5.7,13.1
				c2.3,3.8,4.8,8.1,7.4,12.7c2.6,4.6,5.1,9.1,7.5,13.5c5.3,10.1,7.9,21.6,7.9,34.5c0,10.3-2.1,19.8-6.4,28.6
				c-2.3,4.5-5.5,8.2-9.6,11c-4.2,2.9-9,4.3-14.4,4.4v0.6c-3.2-0.4-6.1-1.4-8.7-3.1c-2.6-1.6-4.1-3.8-4.4-6.5V368.9z"/>
		</g>
		<g>
			<path class="st6" d="M1047.2,445.3c0-10.8,3.2-16.2,9.7-16.2c7.9,0,14.7,1.8,20.5,5.4c11.8,7.2,17.6,18.9,17.6,35.1
				c0,12.6-5.2,25.9-15.7,40.1c7.3,9.9,11.7,15.7,13.3,17.5c1.6,1.8,2.9,3.6,4.1,5.5c1.2,1.9,1.8,3.1,2,3.5c0.2,0.4,0.5,1.7,0.9,3.8
				c0.4,2.1,0.7,3.9,0.8,5.4c0.1,3.9,0.5,8.6,1.2,14c0.7,5.4,1.2,8.4,1.4,9.1s-0.1,2.7-0.9,6.2c-0.9,3.5-1.5,5.8-1.8,7
				c-0.3,1.2-0.8,2.8-1.4,4.8c-0.6,2.1-1.1,3.6-1.5,4.6c-0.4,1-1,2.3-1.8,4c-0.8,1.7-1.5,2.9-2.3,3.7c-0.8,0.8-1.7,1.9-2.8,3.3
				c-1.1,1.3-2.3,2.4-3.5,3.3s-2.7,1.8-4.3,3c-5.3,3.5-10,5.8-14.2,6.8c-4.2,1-6.5,1.5-7,1.5h-1.3c-4.7,0-7.7-0.3-8.9-1
				c-2.4-1.3-3.7-3-3.7-5.2l1.3-60.9l-1.8-100.5V445.3z M1064.7,443.1c-2.4,0-3.5,3-3.5,8.9c0,5.9,0.2,15.2,0.5,27.9
				c0.3,12.7,0.5,21.9,0.5,27.6c6.1-1.4,11.4-8.6,15.7-21.7c2.3-7,3.9-11.2,4.5-12.7v-8.8c0-4.8-1.8-9.6-5.4-14.2
				C1073.5,445.4,1069.4,443.1,1064.7,443.1z M1070.8,519.9v-0.1h-8.8c0.8,20.4,1.1,48.5,1.1,84c8.3-1.3,14.9-5.1,19.6-11.4
				c4.8-6.3,7.2-13.7,7.2-22.3C1090,542.3,1083.6,525.5,1070.8,519.9z"/>
			<path class="st6" d="M1184.6,548.2c0,47.4-10.1,71.1-30.3,71.1c-18.6,0-29.1-22.5-31.4-67.4c-0.2-4.3-0.3-8.5-0.3-12.8l-0.1-15.1
				v-4.8c0-34.9,5.3-56.4,16-64.6c2.6-2,5.5-3.1,8.7-3.3c2.4,0.8,5.4,1.6,8.9,2.2c3.5,0.7,6.1,1.4,7.8,2.1
				c3.1,1.4,6.5,4.9,10.1,10.7c3.6,5.8,6.3,13.4,8,23.1c1.7,9.6,2.6,19.3,2.6,28.9V548.2z M1136.7,489.9l0.4,14.5l-0.1,23.7
				c0,2,0,4.4,0.1,7.1c0.1,2.7,0.2,6.3,0.3,10.8c0.1,4.5,0.4,8.9,0.8,13.3c0.4,4.4,0.8,9,1.3,13.9c0.5,4.9,1.2,9.4,2,13.5
				c0.8,4.1,1.8,7.9,2.8,11.3c2.3,7.3,5.2,11,8.9,11c5,0,8.7-4.5,11.3-13.4c3.9-13.3,5.8-29.6,5.8-49l0.4-25.5
				c0-17.9-0.8-29.9-2.5-36.1c-1.6-6.2-3.2-10.9-4.6-14c-2.9-6.4-7.2-9.5-13-9.5c-0.2,0-0.3,0-0.5,0
				C1141.2,461.4,1136.7,470.9,1136.7,489.9z"/>
			<path class="st6" d="M1268.8,548.2c0,47.4-10.1,71.1-30.3,71.1c-18.6,0-29.1-22.5-31.4-67.4c-0.2-4.3-0.3-8.5-0.3-12.8l-0.1-15.1
				v-4.8c0-34.9,5.3-56.4,16-64.6c2.6-2,5.5-3.1,8.7-3.3c2.4,0.8,5.4,1.6,8.9,2.2c3.5,0.7,6.1,1.4,7.8,2.1
				c3.1,1.4,6.5,4.9,10.1,10.7c3.6,5.8,6.3,13.4,8,23.1c1.7,9.6,2.6,19.3,2.6,28.9V548.2z M1220.9,489.9l0.4,14.5l-0.1,23.7
				c0,2,0,4.4,0.1,7.1c0.1,2.7,0.2,6.3,0.3,10.8c0.1,4.5,0.4,8.9,0.8,13.3c0.4,4.4,0.8,9,1.3,13.9c0.5,4.9,1.2,9.4,2,13.5
				c0.8,4.1,1.8,7.9,2.8,11.3c2.3,7.3,5.2,11,8.9,11c5,0,8.7-4.5,11.3-13.4c3.9-13.3,5.8-29.6,5.8-49l0.4-25.5
				c0-17.9-0.8-29.9-2.5-36.1c-1.6-6.2-3.2-10.9-4.6-14c-2.9-6.4-7.2-9.5-13-9.5c-0.2,0-0.3,0-0.5,0
				C1225.4,461.4,1220.9,470.9,1220.9,489.9z"/>
			<path class="st6" d="M1312.7,459.2l-2.1,45v12.9c0.5-0.9,3.7-7.4,9.4-19.6c14.5-30.1,23.6-45.2,27.2-45.2c2.5,0,4.8,0.6,6.9,1.7
				c2.1,1.1,3.1,2.8,3.1,5c0,0.2-4.4,7.1-13.1,21c-8.7,13.8-13.6,21.7-14.6,23.7l-0.5,14.7c0,7.1,3,20.3,8.9,39.7
				c5.9,19.4,10.8,32.2,14.8,38.5c0.5,0.7,1.6,2.2,3.3,4.5c1.7,2.3,3,4.2,3.8,5.9c0.8,1.7,1.2,3.5,1.2,5.3c0,1.9-0.7,3.4-2.2,4.6
				c-1.5,1.2-3.2,1.9-5.1,1.9c-4,0-8.2-4.1-12.6-12.3c-4.4-8.2-8.3-18.2-11.7-30c-5.8-20.2-10-37.8-12.7-52.8
				c-2.9,2.8-5.1,6.6-6.6,11.3c-1.6,4.7-2.3,8-2.3,9.7v67.7c0,3.9-1.9,5.8-5.7,5.8c-2.6,0-4.7-0.7-6.2-2.1c-1.6-1.4-2.3-3.3-2.3-5.7
				v-75.1c0-8.9,0.8-22.3,2.5-40c1.6-17.8,2.5-31.1,2.5-39.9c1.5-3.1,3.7-4.7,6.5-4.7C1310.1,450.8,1312.7,453.6,1312.7,459.2z"/>
			<path class="st6" d="M1378.3,604.3l13.6,1.8c3.3,0,6.1-1.4,8.6-4.1c2.4-2.7,4.2-6.2,5.4-10.3c2.3-7.9,3.4-14.9,3.4-21
				c0-6.1-1.1-12.1-3.1-18.1c-2.1-6-4.7-11.5-7.7-16.6c-3-5.1-6.1-10.3-9.2-15.6c-7.2-12.5-10.8-24.8-10.8-37c0-7.4,1.3-14,3.9-19.7
				c4.9-10.6,11.3-15.9,19.4-15.9c3,0,5.9,0.9,8.6,2.8c2.7,1.9,4.1,3.9,4.1,6c0,3.8-2.1,5.7-6.3,5.7c-1.8,0-3.7-0.5-5.4-1.4
				c-5.5,0.2-9.2,6.1-11.1,17.5c-0.4,2.5-0.6,5.4-0.6,8.8c0,3.3,0.8,7.5,2.3,12.4c1.5,4.9,3.4,9.3,5.7,13.1
				c2.3,3.8,4.8,8.1,7.4,12.7c2.6,4.6,5.1,9.1,7.5,13.5c5.3,10.1,7.9,21.6,7.9,34.5c0,10.3-2.1,19.8-6.4,28.6
				c-2.3,4.5-5.5,8.2-9.6,11c-4.2,2.9-9,4.3-14.4,4.4v0.6c-3.2-0.4-6.1-1.4-8.7-3.1c-2.6-1.6-4.1-3.8-4.4-6.5V604.3z"/>
			<path class="st6" d="M1467,591.7l0.5-8.5c-0.7-2.1-2.1-20.7-4.2-55.8c-2.1-35.1-3.2-56.6-3.4-64.3c-9.9-0.2-16-1.1-18.4-2.6
				c-2.4-1.5-3.5-3-3.5-4.6c0-1.6,0.9-2.9,2.8-3.9c1.8-1,3.7-1.5,5.4-1.5l35,2.3l4.2-0.1c5.4,0,8.1,2,8.1,5.9c0,2-0.9,3.6-2.6,4.9
				c-1.8,1.2-3.7,1.9-5.9,1.9l-11.8-1.7l-0.5,2.5c0,15.6,1.4,39,4.3,70.2c2.9,31.2,4.3,54.6,4.3,70.3c0,2-0.8,3.7-2.3,5.2
				c-1.6,1.4-3.4,2.2-5.5,2.2h-5.8L1467,591.7z"/>
			<path class="st6" d="M1573.2,548.2c0,47.4-10.1,71.1-30.3,71.1c-18.6,0-29.1-22.5-31.4-67.4c-0.2-4.3-0.3-8.5-0.3-12.8l-0.1-15.1
				v-4.8c0-34.9,5.3-56.4,16-64.6c2.6-2,5.5-3.1,8.7-3.3c2.4,0.8,5.4,1.6,8.9,2.2c3.5,0.7,6.1,1.4,7.8,2.1
				c3.1,1.4,6.5,4.9,10.1,10.7c3.6,5.8,6.3,13.4,8,23.1c1.7,9.6,2.6,19.3,2.6,28.9V548.2z M1525.3,489.9l0.4,14.5l-0.1,23.7
				c0,2,0,4.4,0.1,7.1c0.1,2.7,0.2,6.3,0.3,10.8c0.1,4.5,0.4,8.9,0.8,13.3c0.4,4.4,0.8,9,1.3,13.9c0.5,4.9,1.2,9.4,2,13.5
				c0.8,4.1,1.8,7.9,2.8,11.3c2.3,7.3,5.2,11,8.9,11c5,0,8.7-4.5,11.3-13.4c3.9-13.3,5.8-29.6,5.8-49l0.4-25.5
				c0-17.9-0.8-29.9-2.5-36.1c-1.6-6.2-3.2-10.9-4.6-14c-2.9-6.4-7.2-9.5-13-9.5c-0.2,0-0.3,0-0.5,0
				C1529.8,461.4,1525.3,470.9,1525.3,489.9z"/>
			<path class="st6" d="M1610.9,541.5c-1.2,4.6-1.8,8.8-1.8,12.7c0,3.9,0.5,12.2,1.6,25c1,12.8,1.6,21,1.6,24.7
				c0,3.7-0.7,6.5-2.1,8.5c-1.4,1.9-3,2.9-4.7,2.9c-2.5,0-4.1-1.6-4.8-5c0.2-6.1,0.3-13.6,0.3-22.5c0-8.9-0.7-28.4-2.2-58.6
				c-1.5-30.2-2.2-52.7-2.2-67.6c0-7.8,2.9-11.7,8.6-11.7c9,0,16.5,2.3,22.7,6.8c6.1,4.5,9.2,10.9,9.2,19.3c0,11.3-0.9,20-2.8,26.3
				c-1.8,6.3-5.3,14.1-10.5,23.5c0.9,3.9,2.6,11.8,4.9,23.7c5,25.6,10.5,44.1,16.7,55.4c1.8,3.2,2.6,5.7,2.6,7.5s-0.5,3.3-1.6,4.6
				c-1.1,1.2-2.5,1.9-4.2,1.9c-5.6,0-10.8-9-15.5-26.9c-2-7.8-3.8-15.7-5.4-23.7c-4.5-21.8-7.4-34.1-8.7-36.8
				C1612.7,533.6,1612.1,536.9,1610.9,541.5z M1610.6,459l-0.9,3.5c0,6.8,0.2,16.5,0.5,29.3c0.3,12.8,0.5,22,0.5,27.8
				c4-2,7.3-7.3,9.8-15.8c2.5-8.5,3.7-15,3.7-19.5c0-4.5-0.1-7.8-0.4-10c-0.3-2.1-0.8-4.5-1.6-7.1
				C1620.5,462,1616.7,459.2,1610.6,459z"/>
			<path class="st6" d="M1692.1,605.4l10.2-0.6c6.5,0,9.8,2,9.8,6c0,2.5-1.1,4.3-3.4,5.4c-2.3,1.1-4.8,1.7-7.7,1.7h-24.3
				c-2.2,0-4.1-0.7-5.6-2.2c-1.6-1.4-2.4-3.3-2.5-5.6c-0.1-2.3,0-5.1,0.5-8.5c0.5-3.4,0.7-6.1,0.7-8.1l-1.3-31.6l1.8-72.2l-1.4-20.9
				c0-11.7,3.6-17.5,10.8-17.5c2,0,3.9,0.6,5.7,1.8c0.7,0.1,2.3,0.2,4.8,0.4c2.6,0.2,4.8,0.5,6.7,0.8c1.9,0.3,4,0.8,6.3,1.3
				c4.9,1.3,7.3,3.5,7.3,6.6c0,3.4-2.5,6-7.6,7.7c-7.9-2.6-14.4-4.1-19.5-4.7c0.3,3.5,0.4,7.1,0.4,10.6l-1.1,35.5
				c0,0.2,0.3,1.4,0.8,3.9l9.2-0.4c8.3,0,12.5,2.3,12.5,6.8c0,2.4-0.7,4.5-2.2,6.4c-1.5,1.9-3.5,2.8-6.2,2.8c-2.7,0-5-0.7-7.1-2.2
				h-6.5c0.5,6.3,0.8,12.2,0.8,17.9l-1.1,44.8C1682.8,600.8,1685.9,605.4,1692.1,605.4z"/>
		</g>
	</g>
</g>
</svg>
