<?xml version="1.0" encoding="utf-8"?>
<!-- Generator: Adobe Illustrator 24.0.2, SVG Export Plug-In . SVG Version: 6.00 Build 0)  -->
<svg version="1.1" id="Layer_1" xmlns="http://www.w3.org/2000/svg" xmlns:xlink="http://www.w3.org/1999/xlink" x="0px" y="0px"
	 width="530px" height="530px" viewBox="0 0 530 530" style="enable-background:new 0 0 530 530;" xml:space="preserve">
<style type="text/css">
	.st0{display:none;fill:#000079;}
	.st1{display:none;fill:#18326D;}
	.st2{fill:#00004D;}
	.st3{fill:#18326D;}
</style>
<g id="Layer_1_1_">
	<path id="XMLID_1_" class="st0" d="M1128.9,217.3c-2.1-3.5-2.8-6.9-1.6-10.8c1-3.1,2.7-6,3.9-9c2.2-5.7,1.5-11.6-4.2-15.6
		c-14.9-10.4-33.3,2.8-49.3,3.1c-4.6,0.1-9.1-0.6-13.4-2.1c-4-1.4-7.3-3.8-11.2-5.3c-7.4-2.8-13.3,1.2-17.4,6.2
		c-2.5,3-4.7,6.2-8.6,8c-3.7,1.7-8,2.2-12.1,3c-6.7,1.3-14.3,4-15.5,10.5c-0.3,1.8-0.1,3.5,0.9,5c-0.5,0.3-0.8,0.9-0.4,1.5
		c5,7.3,9.5,15,4.6,23.2c-3.6,5.9-9.3,11-9.8,18c-0.4,6,4.2,9.9,10.4,12c3.3,1.1,6.7,1.8,9.9,3.1c3.9,1.5,6.7,4.1,9.1,7
		c4.2,5.2,7.2,11.2,13.6,14.9c6.1,3.5,13.4,2.7,18.8-1.5c6.2-4.8,7.9-12.1,12.2-18c2.3-3.1,5.6-6,9.9-6.9c4.1-0.8,8.3,0.7,12.4,0.4
		c7.7-0.4,9-6.2,11.9-11c3.8-6.3,12.3-6.5,19.5-7.8c6.2-1.2,13.2-3.8,14.6-9.7C1138.6,228.7,1132.4,223,1128.9,217.3z"/>
	<path class="st1" d="M116.5,99.9c0.2-2.9-0.6-5.9-2.3-8.4c-1.8-2.7-6.4-0.6-4.6,2.2c1.2,1.9,1.8,3.8,1.6,6
		C111.1,102.8,116.3,103.1,116.5,99.9z"/>
	<path id="XMLID_2_" class="st0" d="M361.7,331.4c-2.1-3.5-2.8-6.9-1.6-10.8c1-3.1,2.7-6,3.9-9c2.2-5.7,1.5-11.6-4.2-15.6
		c-14.9-10.4-33.3,2.8-49.3,3.1c-4.6,0.1-9.1-0.6-13.4-2.1c-4-1.4-7.3-3.8-11.2-5.3c-7.4-2.8-13.3,1.2-17.4,6.2
		c-2.5,3-4.7,6.2-8.6,8c-3.7,1.7-8,2.2-12.1,3c-6.7,1.3-14.3,4-15.5,10.5c-0.3,1.8-0.1,3.5,0.9,5c-0.5,0.3-0.8,0.9-0.4,1.5
		c5,7.3,9.5,15,4.6,23.2c-3.6,5.9-9.3,11-9.8,18c-0.4,6,4.2,9.9,10.4,12c3.3,1.1,6.7,1.8,9.9,3.1c3.9,1.5,6.7,4.1,9.1,7
		c4.2,5.2,7.2,11.2,13.6,14.9c6.1,3.5,13.4,2.7,18.8-1.5c6.2-4.8,25.2,8,29.5,2.1c2.3-3.1,15.1-10.5,19.4-11.4
		c4.1-0.8,12.6-16.5,16.7-16.7c7.7-0.4,5.1-5.2,8-10c3.8-6.3-14.8-5.9-7.6-7.3c6.2-1.2,13.2-3.8,14.6-9.7
		C371.4,342.7,365.2,337.1,361.7,331.4z"/>
	<path class="st0" d="M402.6,352.2c-3.1-9-11.3-14.3-20-17.1c-21.2-6.9-56.7-69.1-71.3-81.2c-16.9-14-60.7,7.8-54.9,3.8
		c2.1-1.4-6.2,10.4-10.9,15.3c-7.4,7.6-6.4,16.2-5.4,25.9c0.5,4.9,0.2,8.5-2.9,12.5c-2.9,3.8-6.2,7.1-8,11.7
		c-3.6,9.2-0.5,19.6,5.1,27.3c6,8.3,14.6,14.2,22,21.2c7.7,7.3,15.1,15.1,23.5,21.7c16.4,12.9,36,19.3,56.3,12
		c10.4-3.7,20.2-9.4,30-14.5c9.3-4.9,19.7-9.1,28.3-15.3C402,369.8,405.8,361.4,402.6,352.2z"/>
	<path class="st0" d="M1181.2,353.7c-1.7-2.5-6.8-5-7.6-7.8c-0.7-2.7,4.1-7.5,5.2-10c3.5-8.1-0.3-17.2-6.7-22.7
		c-7-6-18.2-8.1-24.8-0.2c-4.3,5.2-3.9,11.2-1.7,16.8c-1.9,2.4-4.4,4.2-7.5,4.9c-3.9,0.9-7.4-0.8-11.3-0.7c-3.9,0.2-7.4,2.3-8.7,6.1
		c-1.3,4,0.1,8.1,1.7,11.8c6.4,15.3,20.8,28,37.5,30.2c8.4,1.1,17.3-1,22.6-8.1C1184.3,368.2,1185.5,359.9,1181.2,353.7z"/>
	<path class="st0" d="M1012.3,109.8c-5.7-4.5-12.4-7.5-19.6-8.6c-4.1-0.6-6.8,2.8-6.9,5.9c-11.3-6.1-25.9,0.7-26.5,14.2
		c-0.3,6.8,4.4,12.5,4.1,19.2c-0.3,6.4,0.8,11.3,6.1,15.4c9.3,7,26.2,9.4,33.9-1c1.8-2.5,2.8-5.3,3.3-8.3s0.1-6.6,1.5-9.4
		c1.4-2.8,4.7-2.7,7.3-4s4.8-3.3,5.8-6C1023.9,120.1,1017.3,113.7,1012.3,109.8z"/>
	<path class="st0" d="M1082.5,406.7c-1.4-7.9-7.2-13.8-13.3-18.5c-3.5-2.7-7.2-4.9-7.3-9.8c-0.1-5.3,1.2-10.7,1.4-16
		c0.3-9.6-1.2-19.8-6.8-27.9c-5.1-7.4-12.5-11.2-21-13.4c-7.5-1.9-16.2-2.5-21.7-8.6c-1.7-1.9-3.8-2.1-5.6-1.3
		c-0.1-0.3-0.1-0.7-0.3-1.1c-2.4-6.7-8.7-10.4-15.8-9.6c-7.9,0.9-13.2,7.3-17.3,13.6c-2,3.1-3.8,6.5-6.7,9c-2.6,2.3-6,3.8-9.1,5.3
		c-5.7,2.7-11.7,5.7-15.2,11.2c-4.6,7.3-3,16.2,0.8,23.4c4.1,7.9,11.5,14,13,23.2c1.5,9-1.2,18.2-1.3,27.2c0,7.8,1.9,15.5,5.5,22.4
		c7,13.3,20.1,23.1,35.1,25.2c14.8,2.1,30.5-3.1,41.1-13.8c4.9-4.9,8.1-13.9,14.6-16.8c6.9-3.2,15-0.3,21.9-4.4
		C1081.2,422,1083.8,414,1082.5,406.7z"/>
</g>
<g id="Layer_3">
	<path class="st0" d="M445.2,129.4c-30.9-13-67-13.7-100-12.9c-36.3,0.9-72.5,6.2-107.5,15.8c-8.8,2.4-17.5,5.1-26.1,8
		c-2.7,0.9-1.6,5.3,1.2,4.4c33.2-11.1,67.5-18.6,102.4-21.8c33.2-3.1,68.1-3.6,101,2.8c15.4,3,30.6,8,43.7,16.7
		c12.8,8.5,23.2,20.3,30.9,33.5c17.1,29.1,21.5,63.8,22.4,96.9c0.9,32.2-2.6,65.3-15.9,94.9c-12.2,27.1-32.4,49.8-56.8,66.7
		c-53.7,37.3-123.1,45.7-186.9,42.2c-31.8-1.7-64.7-8.1-91.8-25.8c-23.7-15.4-42.8-40.2-47.5-68.4c-1.2-6.9-1.3-13.9-0.6-20.9
		c0.3-3.1-4.6-3.1-4.9,0c-2.9,29,10.3,57,30.5,77.3c22.5,22.6,53.1,34.4,84.2,39.5c33.8,5.5,69.2,4.9,103.1,0.9
		c33.4-3.9,66.5-12.4,96.3-28.4c26.2-14.1,49.7-33.8,66.3-58.6c18.4-27.6,26.5-60.4,28.4-93.2C521.2,237,510.1,156.7,445.2,129.4z"
		/>
	<path class="st0" d="M136.9,432.6c-0.3-2.8-4.7-2.9-4.5,0c2.6,30.5,2.8,60.7,2.5,91.3c0,2.9,4.3,2.8,4.5,0
		C141.5,493.7,140.1,462.7,136.9,432.6z"/>
	<path class="st0" d="M497.3,343.6c-1.6,2.4-6.4-3.5-4.8-5.8c17.8-26.3,24.5-48.4,27.8-78.6c2.8-26.3,3-48-5.8-73.4
		c-4.3-12.6-5.7-29.9-20-36.7c-12.5-6-29.9-6.9-43.9-5.7c-68.1,5.8-164.4,31.2-234.3,17.9c-3.1-0.6-1-5.3,2-4.8
		c42,7.9,115.2,3.2,155.5-6.5c17.6-4.3,35.2-8.6,53.2-11.7c15.1-2.6,30.8-4.6,46.2-3c13.4,1.4,26,6.1,34.3,15.3
		c9.2,10.1,13.2,23.5,16.6,35.7C539,239.3,529.2,296.4,497.3,343.6z"/>
	<path class="st0" d="M823.7,349.9c-0.7-2.5-10.4-2.8-9.7-0.3c9.4,33.9,11.4,68.8-1.3,102.1c-1.4,3.8-3.4,5.5-5.2,9.2
		c-2.1,4.4-0.2,7.8-3.9,11.5c-8.2,8.2-22,8.2-22-2.3c0-3.7,2.1-6.6,1.9-10.3c-0.1-3.4-1-6.6-2.6-9.7c-3.5-6.9-10.3-13.9-16.8-18.9
		c-8.1-6.3-16.9-11.6-22-20.1c-5.3-8.9-5.5-18.5-2.6-28.1c0.8-2.7-8.3-3.9-9.1-1.1c-5.5,17.9,2.3,34.5,17.9,46.9
		c8.1,6.5,17.3,12.3,22.7,20.7c2.9,4.6,4,9.3,3.2,14.4c-0.6,4.1-1.6,8.1-0.1,12.1c2.6,6.6,10.3,11.1,18.6,10.6
		c10.7-0.7,15.4-8,19.2-15.4c8.9-17.6,14.6-36.3,16.9-55.3C831.8,393.7,830,371.3,823.7,349.9z"/>
	<path class="st0" d="M1088.4,552.7c-0.5,5.4-3.4,8.3-2.2,13.4c-7.3,1.3-10.1,5.1-16.5,2.8c-6.2-2.2,0-7.1,1.7-11.6s2.8-8,4.8-12.4
		c1.2-2.6-6.6-4.6-6.9-1.9c-0.4,4.5-4.7,11.9-7.9,19.1c-1.8,4.1-2.7,8.8,0.5,12c7.6,7.7,20.9-1.8,30.4-1.6c2,0,3-1.8,2.6-3.2
		c-1.6-5.3-2.1-10.8-1.9-16.5C1093.1,550.1,1088.6,550,1088.4,552.7z"/>
	<path class="st0" d="M1127.9,562.9c-4.5-11.6-2.6-14.2-5.3-20.9c-1-2.5-8.7,0.6-7.9,3.1c1.6,5.2,3.6,8.1,4.7,13.4
		c0.9,4.5,3.3,10.6,1.3,15.1c-2.3,5.1-14.4,1.6-20,1.7c-7.2,0.1-11.5,3.2-18.6,2.6c-2.9-0.3-3.5,3.3-0.6,3.7
		c9,1.3,18.3,1.6,27.4,1.1c5.9-0.3,13.8-0.2,17.6-4.4C1130.2,574.1,1129.7,567.5,1127.9,562.9z"/>
	<path class="st0" d="M422.8,417.5c-29.5,9.5-65.3,16.7-96.8,17.8c-31.8,1-63-4.4-93.6-11.5c-2.9-0.7-4.6,7.8-1.7,8.6
		c60.6,16.3,138.8,10,198-9.1C431.6,422.3,425.9,416.6,422.8,417.5z"/>
	<path class="st0" d="M776.9,504.9c-11.9-8.5-21.4-17.2-29.1-28.7c-7.9-11.8-11.7-24.9-15.5-37.8c-0.6-2.1-8.6-1.5-8.4,0.6
		c1.1,13,7.7,26.5,15.1,37.9c7.9,12,18.4,22.7,30.9,31.6C772.4,510.3,779.4,506.7,776.9,504.9z"/>
</g>
<g id="Layer_4">
</g>
<g>
	<path class="st2" d="M98.7,297.6c-4.2-1.3-6.1,4.8-1.9,6.1C101,305,102.9,299,98.7,297.6z"/>
	<path class="st3" d="M193,128.8c-23.7-34.1-33.8-68.2-21.3-102.6c0.2-0.5,0.2-1,0.1-1.4c2.7-2.4-2.8-6.7-6.3-4.5
		c-48.1,29.5-46.8,90.6,1.8,131.8C171.4,155.4,195.6,132.5,193,128.8z"/>
	<path class="st3" d="M343.2,122.5c9.2-7.5,15.6-17.8,14-30c-1-8-5.9-16-12.9-20.9c-7.8-5.5-16.4-4-24.5-7.6
		c-8.4-3.8-5-6.2-7.3-13.1c-0.9-2.9-2.3-5.4-4.4-7.7c-5-5.7-12.7-8.8-20.3-9.6c-18.4-1.8-31.3,11.3-41.6,23.9
		c-19.4-16.8-50.7-13-60.5,11.1c-8,19.7,4.5,39.3,23.6,46.1c-1.2,22.4,11.2,44.9,33.2,55.8c16.1,7.9,37.9,7.7,49-4.8
		c3.2,5.4,8.9,9.3,16,10.7c15.7,3,31.6-8.7,39.8-19.9c6.4-8.6,10.1-20.7,1.3-29.6C347.1,124.9,345.2,123.5,343.2,122.5z"/>
	<path class="st3" d="M228.1,174.7c-6.5-8.4-20.4-10.4-27.6-4.3c-13.4,6.5-25.2,20.3-22.9,35.1c2.7,18.4,22.6,23.7,37.2,14
		C228.6,210.4,240,190.2,228.1,174.7z"/>
	<path class="st3" d="M312.3,227.7c-15.7,5.5-30.5,4.2-43.9-4.4c-4.2-2.7-8.4,3.5-4.9,7.3c14.2,15.2,37.6,17.6,50.9,5.9
		C318.4,233,317.1,226,312.3,227.7z"/>
	<path class="st3" d="M131.4,145.7c-36.1-13.5-64.2-43.4-72.8-79.4c-1.1-4.5-4-11.7,0.1-15.1c2.4-1.9,13,0.2,15.7,0.4
		c10.6,0.9,20.7,3.2,30.7,6.8c12.3,4.4,34.1,17.7,33.3,11.8C137.6,64.3,83.9,44,53,46.1c-1.6,0.1-2.8,1.3-2.7,2.8
		c3.1,44.8,34,84.9,78.5,101.6C132.2,151.8,134.8,147,131.4,145.7z"/>
	<path class="st3" d="M136.3,132.9c-14.7-14.1-27.2-28.4-37-45.3c15.1,5.7,29.5,12.5,43.6,20.3c-1.3-2.2-2.2-4.7-2.5-7.2
		c-14.9-8.3-30.5-15.2-46.7-20.9c-2.1-0.7-4.3,1.6-3.3,3.4c10.4,19.6,24.3,38.5,42.4,53.1C135.5,138.7,138.8,135.3,136.3,132.9z"/>
	<path class="st3" d="M478.8,222.8c-20.9-20.1-47.7-32.5-75.9-35.8c-0.2,0.4-0.5,0.6-1,0.8c-0.2,0.6-0.9,1.2-1.7,1.1
		c-0.8,1-1.6,1.9-2.6,2.7c11.2,0.9,22.2,3.2,33.1,7.2c10,3.7,19.3,8.4,28,14.5c2.2,1.6,11.7,6.7,12.3,9.7c1,5.2-6,8.8-9.7,11.6
		c-30.1,22-71.1,26.8-107.6,14.1c-3.5-1.2-4.6,4.1-1.2,5.3c45,15.8,94.9,4.9,126.4-27.3C480.1,225.6,479.9,223.9,478.8,222.8z"/>
	<path class="st3" d="M422.1,221.7c-17.5-6.7-35.3-11.8-53.8-14.7c-3.4-0.5-4.5,4.3-1.1,4.9c15.7,2.9,31,6.8,46,12.2
		c-17.7,6.8-35.8,9.9-55.2,11.5c-3.3,0.3-3,4.9,0.3,4.9c22.3,0.2,44.1-5.6,63.9-14.2C424.2,225.7,424,222.5,422.1,221.7z"/>
	<path class="st3" d="M339.7,183.7c36.6-8.7,64.1-25.5,76-55.6c0.2-0.5,0.5-0.8,0.8-1c-0.5-3.2,5.9-2.8,7,0.6
		c15.3,47.7-22.1,87.5-80.1,86.4C338.6,214,335.7,184.6,339.7,183.7z"/>
	<path class="st3" d="M105.7,228.6c5.5-27.1,19.5-51.8,26.8-78.3c0.7-2.5-3.1-3.6-4.2-1.4c-27.5,51.2-38.7,110.5-33,167.9
		c0.3,2.6,4.2,2.8,4.4,0.3C102.7,287.8,99.9,257.4,105.7,228.6z"/>
	<path class="st3" d="M355.4,251.7c-0.1-2.9-4.3-2.5-4.5,0.3c-2.9,33.4-9.9,62.1-21.8,93.6c-1,2.8,2.7,4.9,4.2,2.1
		C348.4,318.8,356.2,283.9,355.4,251.7z"/>
	<path class="st3" d="M143.4,192.7c-6.9-13.7-14.5-16.8-27.9-7c-2.5,1.8-16.1,67.1-14.1,70.6c3.6,6.2,9.9,9,17.1,6.3
		c3.5-1.3,6-4.3,8.1-7c8.5-10.7,14.2-18,30.5-13c1.2,0.4,2.7-0.1,3.3-1.1C172.6,223.3,151.3,208.4,143.4,192.7z"/>
	<path class="st3" d="M339.7,306.9c1.2-4.9-0.4-9.9,0.1-14.9c0.5-5.4,5.2-9.9,5.3-15.1c0.2-9.4-9.9-10-17.2-10.2
		c-10.4-0.3-22.1-9.1-32.5-5.4c-6.2,2.2-9,7.8-6.8,13.8c0.9,2.6-6.4,2.1-7.9,7.5c-1.9,7,5.6,11.6,11.6,13.6c3.1,1,6.9,0.8,9.8,2.3
		c5.5,2.7,8.4,7.4,12.5,11.6c2.5,2.6,5.3,5,8.8,6.3C331.7,319.2,337.9,314.2,339.7,306.9z"/>
	<path class="st3" d="M283.1,299.5c-18.2-5.5-38.2-3.7-56.7-8.2c-16.9-4.1-33.1-13.2-50.4-14c-27.1-1.2-55.9,2-73.5,21.4
		c-0.2-2-0.9,0.1-3,1.7c-42.3,33.2-53.9,91.4-24.8,138.3c12.8,20.7,33.5,34.3,56.3,44.4c28.9,12.8,63.5,25.9,95.2,27.2
		c28.2,1.1,58.6-7.1,82.3-20.6c24.2-13.8,35.4-36.7,40.6-62.6C359.2,376.6,340.5,316.8,283.1,299.5z M243.8,350.1
		c3.5-17.3,14.2-35.7,23.7-35.4c0.3-0.2,0.6-0.5,0.9-0.6c11.8-4,16.2,22.5,12.6,41c-3.9,20.1-15.6,32.5-25.4,31.5
		C245.6,385.5,239.7,370.1,243.8,350.1z M144.5,320.6c8-21.5,26.1-35.4,35-27c0.9,0.9,5.1,15.5,4.1,23.8
		c-2.3,19.5-17.6,40.4-29.4,42.5C141.5,362.1,136.9,341.1,144.5,320.6z M285.8,429.4c-0.3-1.6-0.8-3.1-1.4-4.5
		c-40.3,47.8-135.3,39.7-159.4-24.1c-0.9-2.2,0.8-4.3,2.8-4.8c-3.1,0-5.9,1-8.9,2.6c-3.9,2-7.8-2.9-4.9-6c5.4-5.8,15.1-5.9,22.3-2.6
		c4.2,2,1.4,8.7-3,7.1c-1.2-0.5-2.4-0.7-3.5-0.9c0.6,0.2,1.1,0.7,1.5,1.3c16.3,24.8,36.9,44.5,68.5,49.3c31.5,4.8,59.6-8.3,79.3-30
		c-1.5-1.6-3.3-3.1-5.2-4.4c-3.6-2.4-0.1-7.7,3.6-5.3c7.7,5,13,12.4,14.9,21C293.3,432.2,286.7,433.5,285.8,429.4z"/>
	<path class="st3" d="M91.8,61.3c-3.6-4.1-3.9-9.4-8-8.6c-5.3,1-23.4-5.6-28.5-2.5c-3.7,2.3-3.9,7-1.4,10.2c0.1,0.1,1.2,4.8,1.3,4.8
		l0,0C51.7,72,64,88.4,74.5,88.1c4.2-0.1,6.4-3.1,6-6.9c-0.3-3.6,0.1-5.7,3.8-7.1c2.4-0.9,5-1.7,6.8-3.6
		C93.5,68.1,94.3,64.1,91.8,61.3z"/>
	<path class="st3" d="M474,221.3c-7.2-6.5-21.9-14-30.5-18.7c-0.8-0.4-1.7-0.5-2.4-0.2c0.1-1.1-0.5-2.3-1.9-2.9
		c-11.3-4.4-20,6.3-13.5,15.8c3,4.5,6.2,6.9,3.7,13c-1.1,2.6-3.8,3.8-4.3,6.8c-0.8,4.2,2,8.3,5.9,10.4c5.7,3.1,11.8,1.3,17.1-1.1
		c6.8-3.1,17.7-6.7,22.6-12.3C474.1,228.1,477.7,224.7,474,221.3z"/>
</g>
</svg>
