<?xml version="1.0" encoding="utf-8"?>
<!-- Generator: Adobe Illustrator 24.0.2, SVG Export Plug-In . SVG Version: 6.00 Build 0)  -->
<svg version="1.1" id="Layer_1" xmlns="http://www.w3.org/2000/svg" xmlns:xlink="http://www.w3.org/1999/xlink" x="0px" y="0px"
	 width="898.7px" height="800.8px" viewBox="0 0 898.7 800.8" style="enable-background:new 0 0 898.7 800.8;" xml:space="preserve"
	>
<style type="text/css">
	.st0{display:none;fill:#000079;}
	.st1{display:none;fill:#18326D;}
	.st2{fill:#1A6FB0;}
	.st3{fill:#00004D;}
	.st4{fill:#FFFFFF;}
</style>
<g id="Layer_1_1_">
	<path id="XMLID_1_" class="st0" d="M1148.5,326.7c-2.1-3.5-2.8-6.9-1.6-10.8c1-3.1,2.7-6,3.9-9c2.2-5.7,1.5-11.6-4.2-15.6
		c-14.9-10.4-33.3,2.8-49.3,3.1c-4.6,0.1-9.1-0.6-13.4-2.1c-4-1.4-7.3-3.8-11.2-5.3c-7.4-2.8-13.3,1.2-17.4,6.2
		c-2.5,3-4.7,6.2-8.6,8c-3.7,1.7-8,2.2-12.1,3c-6.7,1.3-14.3,4-15.5,10.5c-0.3,1.8-0.1,3.5,0.9,5c-0.5,0.3-0.8,0.9-0.4,1.5
		c5,7.3,9.5,15,4.6,23.2c-3.6,5.9-9.3,11-9.8,18c-0.4,6,4.2,9.9,10.4,12c3.3,1.1,6.7,1.8,9.9,3.1c3.9,1.5,6.7,4.1,9.1,7
		c4.2,5.2,7.2,11.2,13.6,14.9c6.1,3.5,13.4,2.7,18.8-1.5c6.2-4.8,7.9-12.1,12.2-18c2.3-3.1,5.6-6,9.9-6.9c4.1-0.8,8.3,0.7,12.4,0.4
		c7.7-0.4,9-6.2,11.9-11c3.8-6.3,12.3-6.5,19.5-7.8c6.2-1.2,13.2-3.8,14.6-9.7C1158.2,338.1,1152,332.4,1148.5,326.7z"/>
	<path class="st1" d="M136.1,209.3c0.2-2.9-0.6-5.9-2.3-8.4c-1.8-2.7-6.4-0.6-4.6,2.2c1.2,1.9,1.8,3.8,1.6,6
		C130.7,212.2,135.9,212.5,136.1,209.3z"/>
	<path id="XMLID_2_" class="st0" d="M381.3,440.8c-2.1-3.5-2.8-6.9-1.6-10.8c1-3.1,2.7-6,3.9-9c2.2-5.7,1.5-11.6-4.2-15.6
		c-14.9-10.4-33.3,2.8-49.3,3.1c-4.6,0.1-9.1-0.6-13.4-2.1c-4-1.4-7.3-3.8-11.2-5.3c-7.4-2.8-13.3,1.2-17.4,6.2
		c-2.5,3-4.7,6.2-8.6,8c-3.7,1.7-8,2.2-12.1,3c-6.7,1.3-14.3,4-15.5,10.5c-0.3,1.8-0.1,3.5,0.9,5c-0.5,0.3-0.8,0.9-0.4,1.5
		c5,7.3,9.5,15,4.6,23.2c-3.6,5.9-9.3,11-9.8,18c-0.4,6,4.2,9.9,10.4,12c3.3,1.1,6.7,1.8,9.9,3.1c3.9,1.5,6.7,4.1,9.1,7
		c4.2,5.2,7.2,11.2,13.6,14.9c6.1,3.5,13.4,2.7,18.8-1.5c6.2-4.8,25.2,8,29.5,2.1c2.3-3.1,15.1-10.5,19.4-11.4
		c4.1-0.8,12.6-16.5,16.7-16.7c7.7-0.4,5.1-5.2,8-10c3.8-6.3-14.8-5.9-7.6-7.3c6.2-1.2,13.2-3.8,14.6-9.7
		C391,452.1,384.8,446.5,381.3,440.8z"/>
	<path class="st0" d="M422.2,461.6c-3.1-9-11.3-14.3-20-17.1c-21.2-6.9-56.7-69.1-71.3-81.2c-16.9-14-60.7,7.8-54.9,3.8
		c2.1-1.4-6.2,10.4-10.9,15.3c-7.4,7.6-6.4,16.2-5.4,25.9c0.5,4.9,0.2,8.5-2.9,12.5c-2.9,3.8-6.2,7.1-8,11.7
		c-3.6,9.2-0.5,19.6,5.1,27.3c6,8.3,14.6,14.2,22,21.2c7.7,7.3,15.1,15.1,23.5,21.7c16.4,12.9,36,19.3,56.3,12
		c10.4-3.7,20.2-9.4,30-14.5c9.3-4.9,19.7-9.1,28.3-15.3C421.6,479.2,425.4,470.8,422.2,461.6z"/>
	<path class="st0" d="M1200.8,463.1c-1.7-2.5-6.8-5-7.6-7.8c-0.7-2.7,4.1-7.5,5.2-10c3.5-8.1-0.3-17.2-6.7-22.7
		c-7-6-18.2-8.1-24.8-0.2c-4.3,5.2-3.9,11.2-1.7,16.8c-1.9,2.4-4.4,4.2-7.5,4.9c-3.9,0.9-7.4-0.8-11.3-0.7c-3.9,0.2-7.4,2.3-8.7,6.1
		c-1.3,4,0.1,8.1,1.7,11.8c6.4,15.3,20.8,28,37.5,30.2c8.4,1.1,17.3-1,22.6-8.1C1203.9,477.6,1205.1,469.3,1200.8,463.1z"/>
	<path class="st0" d="M1031.9,219.2c-5.7-4.5-12.4-7.5-19.6-8.6c-4.1-0.6-6.8,2.8-6.9,5.9c-11.3-6.1-25.9,0.7-26.5,14.2
		c-0.3,6.8,4.4,12.5,4.1,19.2c-0.3,6.4,0.8,11.3,6.1,15.4c9.3,7,26.2,9.4,33.9-1c1.8-2.5,2.8-5.3,3.3-8.3c0.5-3,0.1-6.6,1.5-9.4
		c1.4-2.8,4.7-2.7,7.3-4c2.6-1.3,4.8-3.3,5.8-6C1043.5,229.5,1036.9,223.1,1031.9,219.2z"/>
	<path class="st0" d="M1102.1,516.1c-1.4-7.9-7.2-13.8-13.3-18.5c-3.5-2.7-7.2-4.9-7.3-9.8c-0.1-5.3,1.2-10.7,1.4-16
		c0.3-9.6-1.2-19.8-6.8-27.9c-5.1-7.4-12.5-11.2-21-13.4c-7.5-1.9-16.2-2.5-21.7-8.6c-1.7-1.9-3.8-2.1-5.6-1.3
		c-0.1-0.3-0.1-0.7-0.3-1.1c-2.4-6.7-8.7-10.4-15.8-9.6c-7.9,0.9-13.2,7.3-17.3,13.6c-2,3.1-3.8,6.5-6.7,9c-2.6,2.3-6,3.8-9.1,5.3
		c-5.7,2.7-11.7,5.7-15.2,11.2c-4.6,7.3-3,16.2,0.8,23.4c4.1,7.9,11.5,14,13,23.2c1.5,9-1.2,18.2-1.3,27.2c0,7.8,1.9,15.5,5.5,22.4
		c7,13.3,20.1,23.1,35.1,25.2c14.8,2.1,30.5-3.1,41.1-13.8c4.9-4.9,8.1-13.9,14.6-16.8c6.9-3.2,15-0.3,21.9-4.4
		C1100.8,531.4,1103.4,523.4,1102.1,516.1z"/>
</g>
<g id="Layer_3">
	<path class="st0" d="M464.8,238.8c-30.9-13-67-13.7-100-12.9c-36.3,0.9-72.5,6.2-107.5,15.8c-8.8,2.4-17.5,5.1-26.1,8
		c-2.7,0.9-1.6,5.3,1.2,4.4c33.2-11.1,67.5-18.6,102.4-21.8c33.2-3.1,68.1-3.6,101,2.8c15.4,3,30.6,8,43.7,16.7
		c12.8,8.5,23.2,20.3,30.9,33.5c17.1,29.1,21.5,63.8,22.4,96.9c0.9,32.2-2.6,65.3-15.9,94.9c-12.2,27.1-32.4,49.8-56.8,66.7
		C406.4,581.1,337,589.5,273.2,586c-31.8-1.7-64.7-8.1-91.8-25.8c-23.7-15.4-42.8-40.2-47.5-68.4c-1.2-6.9-1.3-13.9-0.6-20.9
		c0.3-3.1-4.6-3.1-4.9,0c-2.9,29,10.3,57,30.5,77.3c22.5,22.6,53.1,34.4,84.2,39.5c33.8,5.5,69.2,4.9,103.1,0.9
		c33.4-3.9,66.5-12.4,96.3-28.4c26.2-14.1,49.7-33.8,66.3-58.6c18.4-27.6,26.5-60.4,28.4-93.2C540.8,346.4,529.7,266.1,464.8,238.8z
		"/>
	<path class="st0" d="M156.5,542c-0.3-2.8-4.7-2.9-4.5,0c2.6,30.5,2.8,60.7,2.5,91.3c0,2.9,4.3,2.8,4.5,0
		C161.1,603.1,159.7,572.1,156.5,542z"/>
	<path class="st0" d="M516.9,453c-1.6,2.4-6.4-3.5-4.8-5.8c17.8-26.3,24.5-48.4,27.8-78.6c2.8-26.3,3-48-5.8-73.4
		c-4.3-12.6-5.7-29.9-20-36.7c-12.5-6-29.9-6.9-43.9-5.7c-68.1,5.8-164.4,31.2-234.3,17.9c-3.1-0.6-1-5.3,2-4.8
		c42,7.9,115.2,3.2,155.5-6.5c17.6-4.3,35.2-8.6,53.2-11.7c15.1-2.6,30.8-4.6,46.2-3c13.4,1.4,26,6.1,34.3,15.3
		c9.2,10.1,13.2,23.5,16.6,35.7C558.6,348.7,548.8,405.8,516.9,453z"/>
	<path class="st0" d="M843.3,459.3c-0.7-2.5-10.4-2.8-9.7-0.3c9.4,33.9,11.4,68.8-1.3,102.1c-1.4,3.8-3.4,5.5-5.2,9.2
		c-2.1,4.4-0.2,7.8-3.9,11.5c-8.2,8.2-22,8.2-22-2.3c0-3.7,2.1-6.6,1.9-10.3c-0.1-3.4-1-6.6-2.6-9.7c-3.5-6.9-10.3-13.9-16.8-18.9
		c-8.1-6.3-16.9-11.6-22-20.1c-5.3-8.9-5.5-18.5-2.6-28.1c0.8-2.7-8.3-3.9-9.1-1.1c-5.5,17.9,2.3,34.5,17.9,46.9
		c8.1,6.5,17.3,12.3,22.7,20.7c2.9,4.6,4,9.3,3.2,14.4c-0.6,4.1-1.6,8.1-0.1,12.1c2.6,6.6,10.3,11.1,18.6,10.6
		c10.7-0.7,15.4-8,19.2-15.4c8.9-17.6,14.6-36.3,16.9-55.3C851.4,503.1,849.6,480.7,843.3,459.3z"/>
	<path class="st0" d="M1108,662.1c-0.5,5.4-3.4,8.3-2.2,13.4c-7.3,1.3-10.1,5.1-16.5,2.8c-6.2-2.2,0-7.1,1.7-11.6s2.8-8,4.8-12.4
		c1.2-2.6-6.6-4.6-6.9-1.9c-0.4,4.5-4.7,11.9-7.9,19.1c-1.8,4.1-2.7,8.8,0.5,12c7.6,7.7,20.9-1.8,30.4-1.6c2,0,3-1.8,2.6-3.2
		c-1.6-5.3-2.1-10.8-1.9-16.5C1112.7,659.5,1108.2,659.4,1108,662.1z"/>
	<path class="st0" d="M1147.5,672.3c-4.5-11.6-2.6-14.2-5.3-20.9c-1-2.5-8.7,0.6-7.9,3.1c1.6,5.2,3.6,8.1,4.7,13.4
		c0.9,4.5,3.3,10.6,1.3,15.1c-2.3,5.1-14.4,1.6-20,1.7c-7.2,0.1-11.5,3.2-18.6,2.6c-2.9-0.3-3.5,3.3-0.6,3.7
		c9,1.3,18.3,1.6,27.4,1.1c5.9-0.3,13.8-0.2,17.6-4.4C1149.8,683.5,1149.3,676.9,1147.5,672.3z"/>
	<path class="st0" d="M442.4,526.9c-29.5,9.5-65.3,16.7-96.8,17.8c-31.8,1-63-4.4-93.6-11.5c-2.9-0.7-4.6,7.8-1.7,8.6
		c60.6,16.3,138.8,10,198-9.1C451.2,531.7,445.5,526,442.4,526.9z"/>
	<path class="st0" d="M796.5,614.3c-11.9-8.5-21.4-17.2-29.1-28.7c-7.9-11.8-11.7-24.9-15.5-37.8c-0.6-2.1-8.6-1.5-8.4,0.6
		c1.1,13,7.7,26.5,15.1,37.9c7.9,12,18.4,22.7,30.9,31.6C792,619.7,799,616.1,796.5,614.3z"/>
</g>
<g id="Layer_4">
	<g>
		<path class="st2" d="M337.5,442c10.1-50.5-8.6-110.3-66-127.6c-18.2-5.5-38.2-3.7-56.7-8.2c-16.9-4.1-33.1-13.2-50.4-14
			c-27.1-1.2-55.9,2-73.5,21.4c-0.2-2-0.9,0.1-3,1.7C45.6,348.5,34,406.7,63.1,453.6c12.8,20.7,33.5,34.3,56.3,44.4
			c28.9,12.8,63.5,25.9,95.2,27.2c28.2,1.1,58.6-7.1,82.3-20.6C321.1,490.8,332.3,467.9,337.5,442z"/>
		<path class="st3" d="M87.1,312.5c-4.2-1.3-6.1,4.8-1.9,6.1C89.4,319.9,91.3,313.9,87.1,312.5z"/>
		<path class="st2" d="M181.4,143.7c-23.7-34.1-33.8-68.2-21.3-102.6c0.2-0.5,0.2-1,0.1-1.4c2.7-2.4-2.8-6.7-6.3-4.5
			c-48.1,29.5-46.8,90.6,1.8,131.8C159.8,170.3,184,147.4,181.4,143.7z"/>
		<path class="st4" d="M172,332.3c1-8.3-3.2-22.9-4.1-23.8c-8.9-8.4-27,5.5-35,27c-7.6,20.5-3,41.5,9.7,39.3
			C154.4,372.7,169.7,351.8,172,332.3z"/>
		<path class="st4" d="M269.4,370c3.6-18.5-0.8-45-12.6-41c-0.3,0.1-0.6,0.4-0.9,0.6c-9.5-0.3-20.2,18.1-23.7,35.4
			c-4.1,20,1.8,35.4,11.8,36.5C253.8,402.5,265.5,390.1,269.4,370z"/>
		<path class="st2" d="M331.6,137.4c9.2-7.5,15.6-17.8,14-30c-1-8-5.9-16-12.9-20.9c-7.8-5.5-16.4-4-24.5-7.6
			c-8.4-3.8-5-6.2-7.3-13.1c-0.9-2.9-2.3-5.4-4.4-7.7c-5-5.7-12.7-8.8-20.3-9.6c-18.4-1.8-31.3,11.3-41.6,23.9
			c-19.4-16.8-50.7-13-60.5,11.1c-8,19.7,4.5,39.3,23.6,46.1c-1.2,22.4,11.2,44.9,33.2,55.8c16.1,7.9,37.9,7.7,49-4.8
			c3.2,5.4,8.9,9.3,16,10.7c15.7,3,31.6-8.7,39.8-19.9c6.4-8.6,10.1-20.7,1.3-29.6C335.5,139.8,333.6,138.4,331.6,137.4z"/>
		<path class="st2" d="M216.5,189.6c-6.5-8.4-20.4-10.4-27.6-4.3c-13.4,6.5-25.2,20.3-22.9,35.1c2.7,18.4,22.6,23.7,37.2,14
			C217,225.3,228.4,205.1,216.5,189.6z"/>
		<path class="st4" d="M268.1,431c-19.7,22.1-48.1,35.5-79.9,30.7c-31.6-4.8-52.2-24.5-68.5-49.3c-2.4-3.6-7.7-0.3-6.3,3.3
			c24.6,65.2,123.4,72.2,162,20.8C278.5,432.1,271.7,426.9,268.1,431z"/>
		<path class="st4" d="M124.7,404.9c-7.2-3.3-16.9-3.2-22.3,2.6c-2.9,3.1,1,8,4.9,6c4.7-2.5,9-3.5,14.4-1.5
			C126.1,413.6,128.9,406.9,124.7,404.9z"/>
		<path class="st2" d="M300.7,242.6c-15.7,5.5-30.5,4.2-43.9-4.4c-4.2-2.7-8.4,3.5-4.9,7.3c14.2,15.2,37.6,17.6,50.9,5.9
			C306.8,247.9,305.5,240.9,300.7,242.6z"/>
		<path class="st2" d="M119.8,160.6C83.7,147.1,55.6,117.2,47,81.2c-1.1-4.5-4-11.7,0.1-15.1c2.4-1.9,13,0.2,15.7,0.4
			c10.6,0.9,20.7,3.2,30.7,6.8c12.3,4.4,34.1,17.7,33.3,11.8S72.3,58.9,41.4,61c-1.6,0.1-2.8,1.3-2.7,2.8
			c3.1,44.8,34,84.9,78.5,101.6C120.6,166.7,123.2,161.9,119.8,160.6z"/>
		<path class="st2" d="M124.7,147.8c-14.7-14.1-27.2-28.4-37-45.3c15.1,5.7,29.5,12.5,43.6,20.3c-1.3-2.2-2.2-4.7-2.5-7.2
			c-14.9-8.3-30.5-15.2-46.7-20.9c-2.1-0.7-4.3,1.6-3.3,3.4c10.4,19.6,24.3,38.5,42.4,53.1C123.9,153.6,127.2,150.2,124.7,147.8z"/>
		<path class="st2" d="M467.2,237.7c-20.9-20.1-47.7-32.5-75.9-35.8c-0.2,0.4-0.5,0.6-1,0.8c-0.2,0.6-0.9,1.2-1.7,1.1
			c-0.8,1-1.6,1.9-2.6,2.7c11.2,0.9,22.2,3.2,33.1,7.2c10,3.7,19.3,8.4,28,14.5c2.2,1.6,11.7,6.7,12.3,9.7c1,5.2-6,8.8-9.7,11.6
			c-30.1,22-71.1,26.8-107.6,14.1c-3.5-1.2-4.6,4.1-1.2,5.3c45,15.8,94.9,4.9,126.4-27.3C468.5,240.5,468.3,238.8,467.2,237.7z"/>
		<path class="st2" d="M410.5,236.6c-17.5-6.7-35.3-11.8-53.8-14.7c-3.4-0.5-4.5,4.3-1.1,4.9c15.7,2.9,31,6.8,46,12.2
			c-17.7,6.8-35.8,9.9-55.2,11.5c-3.3,0.3-3,4.9,0.3,4.9c22.3,0.2,44.1-5.6,63.9-14.2C412.6,240.6,412.4,237.4,410.5,236.6z"/>
		<path class="st2" d="M328.1,198.6c36.6-8.7,64.1-25.5,76-55.6c0.2-0.5,0.5-0.8,0.8-1c-0.5-3.2,5.9-2.8,7,0.6
			c15.3,47.7-22.1,87.5-80.1,86.4C327,228.9,324.1,199.5,328.1,198.6z"/>
		<path class="st2" d="M94.1,243.5c5.5-27.1,19.5-51.8,26.8-78.3c0.7-2.5-3.1-3.6-4.2-1.4C89.2,215,78,274.3,83.7,331.7
			c0.3,2.6,4.2,2.8,4.4,0.3C91.1,302.7,88.3,272.3,94.1,243.5z"/>
		<path class="st2" d="M343.8,266.6c-0.1-2.9-4.3-2.5-4.5,0.3c-2.9,33.4-9.9,62.1-21.8,93.6c-1,2.8,2.7,4.9,4.2,2.1
			C336.8,333.7,344.6,298.8,343.8,266.6z"/>
		<path class="st2" d="M131.8,207.6c-6.9-13.7-14.5-16.8-27.9-7c-2.5,1.8-16.1,67.1-14.1,70.6c3.6,6.2,9.9,9,17.1,6.3
			c3.5-1.3,6-4.3,8.1-7c8.5-10.7,14.2-18,30.5-13c1.2,0.4,2.7-0.1,3.3-1.1C161,238.2,139.7,223.3,131.8,207.6z"/>
		<path class="st2" d="M328.1,321.8c1.2-4.9-0.4-9.9,0.1-14.9c0.5-5.4,5.2-9.9,5.3-15.1c0.2-9.4-9.9-10-17.2-10.2
			c-10.4-0.3-22.1-9.1-32.5-5.4c-6.2,2.2-9,7.8-6.8,13.8c0.9,2.6-6.4,2.1-7.9,7.5c-1.9,7,5.6,11.6,11.6,13.6c3.1,1,6.9,0.8,9.8,2.3
			c5.5,2.7,8.4,7.4,12.5,11.6c2.5,2.6,5.3,5,8.8,6.3C320.1,334.1,326.3,329.1,328.1,321.8z"/>
		<path class="st4" d="M280.8,443c-1.9-8.6-7.2-16-14.9-21c-3.7-2.4-7.2,2.9-3.6,5.3c6.2,4.1,10.4,10.1,11.9,17
			C275.1,448.4,281.7,447.1,280.8,443z"/>
		<path class="st2" d="M80.2,76.2c-3.6-4.1-3.9-9.4-8-8.6c-5.3,1-23.4-5.6-28.5-2.5c-3.7,2.3-3.9,7-1.4,10.2
			c0.1,0.1,1.2,4.8,1.3,4.8l0,0c-3.5,6.8,8.8,23.2,19.3,22.9c4.2-0.1,6.4-3.1,6-6.9c-0.3-3.6,0.1-5.7,3.8-7.1c2.4-0.9,5-1.7,6.8-3.6
			C81.9,83,82.7,79,80.2,76.2z"/>
		<path class="st2" d="M462.4,236.2c-7.2-6.5-21.9-14-30.5-18.7c-0.8-0.4-1.7-0.5-2.4-0.2c0.1-1.1-0.5-2.3-1.9-2.9
			c-11.3-4.4-20,6.3-13.5,15.8c3,4.5,6.2,6.9,3.7,13c-1.1,2.6-3.8,3.8-4.3,6.8c-0.8,4.2,2,8.3,5.9,10.4c5.7,3.1,11.8,1.3,17.1-1.1
			c6.8-3.1,17.7-6.7,22.6-12.3C462.5,243,466.1,239.6,462.4,236.2z"/>
		<path class="st2" d="M524.2,663c-8.8,0.8-14.5-0.3-20.4-5.5c-3-2.6-16.9-0.1-13.9,2.7c7.5,6.9,23.8,15.9,35.2,15
			C529.7,674.7,528.8,662.6,524.2,663z"/>
		<path class="st2" d="M559.3,657.6c-4.4,8.8,2.1,23-7.1,29.9c-5.7,4.2-13.6,1.4-17.4-3c-5.1-5.9-4-14.2-4-21.4c0-3.5-6.2-4-6.6-0.2
			c-1.7,13.4,1.7,34.1,22.7,32.7c22.1-1.5,14.5-25,18.8-36.2C567.1,655.7,561,654.1,559.3,657.6z"/>
		<path class="st2" d="M589.8,663.7c-8.7,4.4-17.2,5.7-26.5,3.5c-4-1-6.1,3.9-2.4,5.3c10.4,3.7,23.1,2,32.6-4
			C596.8,666.4,593.3,661.9,589.8,663.7z"/>
		<path class="st2" d="M619.8,629.8c-2.2-3.5-9.1-0.5-6.8,3c6.5,10,9.6,22,6.6,33.9c-3,11.6-15.2,5.1-20.4,0.3
			c-4.4-4.1-6.9-9.1-8.3-14.5c-0.9-3.3-6.5-2.2-6.2,1.2c0.9,8.3,5.5,15.6,12.9,20.8c5.8,4.1,15,7.7,22.6,3.2
			c7.2-4.2,7.8-13.6,7.9-20C628.2,647.7,625.3,638.2,619.8,629.8z"/>
		<path class="st2" d="M643.5,618.6c-2.8,2.8-4.7,6.2-7.5,9.1c-3,2.9-6.4,5.4-9.9,7.7c-3.3,2.2-3.7,13.4-0.2,11.4
			c7.5-4.4,21-18.2,23.5-25.8C650.4,617.8,646.1,616,643.5,618.6z"/>
		<path class="st2" d="M809,526.1c-29.3-29.8-36.6-68.1-25.5-104.9c5.5-18.1,13.2-36.4,12.3-55.3c-0.8-17.9-9.6-34.7-21-49.6
			C764.6,303,748.7,284,726.7,292c-3.6,1.3-0.5,5.7,3.1,4.4c21.7-7.7,39.2,21.1,47.1,33.6c10.5,16.9,14.5,34.6,10.8,53.4
			c-3.6,18.1-11.8,35.3-15,53.5c-2.7,15.2-1.6,30.9,2.8,45.8c5.2,17.4,15.1,33.5,28.7,47.4C807,532.9,811.8,528.9,809,526.1z"/>
		<path class="st2" d="M801.9,529.9c-29.4-30-43.4-69.4-38.1-108c2.7-19.5,14.5-39.1,10.8-59.1c-2.7-14.4-15.1-28.3-33.6-29
			c-4.1-0.2-4.1,5.1,0,5.3c11.3,0.5,19.6,7.5,24.1,15.7c5,9.3,4.1,19.7,1.8,29.5c-4.4,18.3-10.7,35.3-10.6,54.2
			c0.1,34.5,14.7,68.6,41.1,95.2C800,536.5,804.6,532.6,801.9,529.9z"/>
		<path class="st2" d="M858.4,548.4c-6.6-21.5-31.9-25.6-55.1-25.4c-4.2,0,7.1,8.2,3.1,8.3c-8.3,0.3-14.3,6.2-13.9,13.1
			c0.4,8.2,8.6,13.9,16.2,18.1c10.6,5.9,18.8,11.6,23.3,21.9c3.9,8.8,4.8,18.3,4.8,27.6c0,3.1,5.7,3.9,6.6,0.7
			C849,591.4,865.3,570.9,858.4,548.4z"/>
		<path class="st2" d="M378.9,599.5c-1.3,23.1-2.7,46.3-3.4,69.4c-0.3,10.5,4.6,15.6,0,29.9c-2.5,7.7-9.8,6.3-16.8,6.7
			c-6,0.3-11.6,0.4-17.7,0.7c-6.3,0.3-11.6-1.2-11.8-8.2c-0.2-5.3,1-5.1,0.8-10.5c-0.2-9.3-0.8-16.2-2.5-25.4
			c-3.7-20-10.2-40.8-21-59c-1.8-3.1-12.1-0.6-10.4,2.4c9.5,17.6,16.7,35.7,20.4,54.8c1.9,9.7,2.9,19.5,3.1,29.3
			c0.1,4.5-0.1,9-0.2,13.5c-0.1,2.8-0.1,5.8,1.5,8.3c3.9,5.8,12.9,4.1,19.4,3.8c10.6-0.6,21.9-0.3,32.4-1.9
			c7.7-1.2,10.3-5.3,10.8-11.4c0.9-10.4,1.2-20.8,1.8-31.2c1.4-23.5,2.7-47,4.1-70.5C389.7,596.7,379.1,596,378.9,599.5z"/>
		<path class="st2" d="M337.6,734.1c-0.9,5.4-1,8-1.7,13.4c-10-0.7-11,0-21-0.7c4.5-11.5,7.2-19.2,14.3-29.9
			c1.8-2.8-5.1-4.7-7.2-2.2c-9.2,11-13.4,20-18,32.8c-0.6,1.8,3.9,7.3,5.9,7.5c12.3,0.9,19.6,1.7,31.9,2.6c1.9,0.1,3-1.3,3.2-2.7
			c0.9-6.4,1.8-12.8,2.5-19.2C347.9,732.4,338.1,730.9,337.6,734.1z"/>
		<path class="st2" d="M394.4,734.8c-3.3-9-6.3-18.1-10-27c-1.3-3.2-12.6-3.8-11.5-0.5c2,6.3,6.9,13.9,9.2,20.2
			c2,5.5,8.1,12.9,5.9,18.7c-2.6,6.8-9.2,4.6-16,4.5c-8.6-0.2-20-1.5-28.6-1.5c-3.9,0-3.4,8.6,0.4,8.8c11.5,0.6,23.1,1.1,34.6,1
			c6.1,0,13.1-0.8,16.9-5.3C400.1,747.8,396.6,740.7,394.4,734.8z"/>
		<path class="st2" d="M322.4,696.8c-7.2-1.1-14.9-1.7-19.3-7.5c-4.2-5.5-1.5-11-0.8-17.2c1.6-14.6,2.7-27.9,4.2-42.6
			c0.4-3.4-9-3.2-9.4,0.2c-1,9.4-2,18.7-3,28.1c-0.9,8.7-2.7,17.7-2.4,26.4c0.6,14.2,12.7,20.3,28.6,21
			C323.7,705.4,325.8,697.3,322.4,696.8z"/>
		<path class="st2" d="M305.7,739.3c-4.9-2.1-6.4-1.4-11.8-1.5c-2.7,0-3,1.8-5,0c-2.9-2.5-2.7-6.2-1.7-9
			c3.9-10.1,9.3-17.5,17.7-25.4c2.5-2.4-5.2-5.9-8.1-3.9c-11.4,8.3-20.9,21.8-23.2,34.4c-0.8,4.6,0.6,9,5.8,11.3
			c6.9,3.1,15,0.4,22.2,2.2C304.6,748.3,308.6,740.6,305.7,739.3z"/>
		<path class="st2" d="M723.1,605.4c-0.4,23.2,8.9,47.5,9.2,70.7c0.1,10.5,5.2,15.4,1.2,29.8c-2.2,7.8-9.5,6.7-16.5,7.4
			c-6,0.6-11.6,0.9-17.6,1.5c-6.3,0.6-11.6-0.7-12.1-7.7c-0.4-5.3,0.8-5.2,0.4-10.5c-0.6-9.2-1.5-16.2-3.6-25.3
			c-4.5-19.9-11.8-40.4-23.4-58.1c-2-3-12.1-0.1-10.3,2.8c10.2,17.2,18.1,35,22.6,53.9c2.3,9.6,3.7,19.3,4.3,29.1
			c0.3,4.5,0.3,9,0.3,13.5c0,2.8,0.1,5.8,1.9,8.3c4.1,5.7,13.1,3.6,19.6,3c10.6-1,21.9-1.2,32.2-3.2c7.6-1.5,10.1-5.7,10.3-11.8
			c0.4-10.4,0.4-20.9,0.5-31.3c0.4-23.6-4.2-45.8-3.8-69.3C738.5,604.6,723.2,601.8,723.1,605.4z"/>
		<path class="st2" d="M697.1,742.7c-0.6,5.5-0.6,8-1.1,13.5c-10-0.3-11,0.4-21,0.1c4.1-11.7,6.4-19.5,13.1-30.4
			c1.7-2.8-5.3-4.5-7.3-1.9c-8.7,11.4-12.5,20.5-16.7,33.5c-0.6,1.8,4.2,7.2,6.2,7.2c12.3,0.4,19.6,0.9,32,1.3
			c1.9,0.1,3-1.5,3.1-2.8c0.6-6.4,1.3-12.9,1.7-19.3C707.3,740.6,697.5,739.4,697.1,742.7z"/>
		<path class="st2" d="M753.9,741c-3.7-8.9-7-17.8-11.1-26.6c-1.4-3.1-12.8-3.3-11.5-0.1c2.3,6.2,7.5,13.6,10.1,19.8
			c2.3,5.4,8.6,12.6,6.6,18.4c-2.3,6.9-9,5-15.8,5.1c-8.6,0.1-20-0.7-28.6-0.3c-3.9,0.2-3.1,8.7,0.7,8.8c11.5,0.1,23.1,0.1,34.6-0.4
			c6.1-0.3,13.1-1.3,16.7-6C760.1,753.9,756.3,746.9,753.9,741z"/>
		<path class="st2" d="M680.4,706c-7.3-0.8-15-1.1-19.6-6.7c-4.5-5.3-2-11-1.5-17.1c1-14.7,1.5-28,2.5-42.7c0.2-3.4-9.2-2.8-9.4,0.6
			c-0.6,9.4-1.2,18.8-1.8,28.2c-0.5,8.7-2,17.8-1.3,26.4c1.2,14.1,13.6,19.8,29.4,19.8C682,714.6,683.8,706.4,680.4,706z"/>
		<path class="st2" d="M665.4,749.2c-5-1.8-6.5-1.2-11.8-1c-2.7,0.1-2.9,1.9-5,0.2c-3-2.4-3-6.1-2-8.9c3.5-10.3,8.6-17.9,16.6-26.1
			c2.4-2.5-5.5-5.7-8.2-3.5c-11.1,8.7-20,22.6-21.7,35.3c-0.6,4.6,0.9,8.9,6.2,11.1c7,2.8,15-0.3,22.3,1.3
			C664.7,758.3,668.4,750.3,665.4,749.2z"/>
		<path class="st2" d="M365.8,452.6c-1.5-1.4-2.2-3.1-2.2-5.1l0.7-36.4c0.7-17.6,1-31.3,1-41c0-33.7-2.9-59.5-8.8-77.4
			c3.4-3.3,7.7-5,12.9-5c8.4,0,16,1.2,22.9,3.6s12.6,5.6,17.1,9.6c8.8,8.4,13.2,17.8,13.2,28.2c0,10.8-3.6,20.5-10.9,29.1
			c-7.2,8.5-17.8,15.2-31.5,19.9l0.7,21.9l0.7,11.5c0.2,2.5,0.3,6,0.3,10.6c0.7,9.7,1,17.6,1,23.6c0,2.7-0.9,4.9-2.7,6.5
			c-1.8,1.6-4.6,2.4-8.5,2.4C369.3,454.7,367.3,454,365.8,452.6z M399.1,350.9c4.2-5.9,6.3-12.5,6.3-19.8v-0.2
			c0-3.3-0.6-7.5-1.7-12.6c-0.7-1.7-1.9-3.5-3.7-5.2c-1.8-1.7-2.8-2.7-3.1-3c-1.6-1.4-5.8-3.7-12.6-6.7l-8.8-4.1
			c0,7.4,0.7,18.8,2,34.3l2,34.3C388.4,362.4,394.9,356.8,399.1,350.9z"/>
		<path class="st2" d="M446.4,468c-3.2,1.8-6.6,2.7-10.2,2.7c-2.4,0-4.4-0.9-6.1-2.8s-2.5-3.9-2.5-6c0-14.9,0.7-34.9,2.1-59.8
			c1.2-26.5,1.8-46.3,1.8-59.5v-8.9c-1.2-11.2-1.8-12.5-1.8-18.1c0-16.9,3.5-25.4,10.5-25.4c2,0,3.7,0.7,5.2,2s2.2,2.9,2.2,4.7
			c0,2.1-0.3,5.5-0.9,10.1c-0.6,4.4-0.9,7.8-0.9,10.1c0,11.9,0.1,22.7,0.3,32.3c0.2,9.4,0.3,20.1,0.3,32c-1,2.7-1.5,6.4-1.5,11.2
			v3.2l-0.6,21.1c-0.4,6.2-0.6,13.3-0.6,21.3c0,12.3,3.3,18.4,9.9,18.4c0.4,0,1,0,1.9-0.1s2.1-0.1,3.7-0.1c1.8-0.2,4.1-0.3,6.9-0.3
			c10.8,0,16.2,2.7,16.2,8c0,1.8-0.9,3.3-2.7,4.5c-1.8,1.2-4,2-6.6,2.4C465.9,469,457,468,446.4,468z"/>
		<path class="st2" d="M566.6,453.2c-2.6-0.9-4.1-3.1-4.5-6.5c-0.7-5.3-2.9-14.3-6.7-26.8l-2-5.4l-33.2,0.1
			c-0.8,4.3-1.6,12.8-2.5,25.5c-0.2,8.9-1.6,14.9-4.1,18.1c-1.4,1.9-3.7,3-6.9,3.3c-1.9,0.2-3.8-0.1-5.6-0.6c-3.2-1.1-5-2.7-5.3-5
			l0.5-1.4l0.2-1.1c8.8-47.5,14.1-93.9,16-139.3c-0.1-0.7-0.1-1.9-0.1-3.6s-0.1-4.2-0.3-7.4c-0.2-6.7-0.1-12,0.2-16s1.2-7.1,2.7-9.3
			l11.2-1.4c3.1-0.4,5.8-0.1,8.1,0.7c2.3,0.9,3.7,2.4,3.9,4.5c1.7,13.5,6.5,33.3,14.5,59.4c7.8,26.8,12.5,45.7,13.9,56.7
			c0.1,1.1,1,3.8,2.7,8.1c1.6,4,2.5,6.5,2.7,7.8c0.2,1.2,1.9,6.4,5.3,15.6c3.1,8.3,4.7,13.7,5.1,16.1v0.3c0.5,3.9-1,6.6-4.3,8.1
			C573,454.3,569.2,454.1,566.6,453.2z M547.6,395.5c-2-16-6.4-36.2-13-60.6l-6.8-27.3c-4.2,42.9-6.7,75.3-7.5,97.1
			c3.5,1.4,13.4,1.6,29.6,0.6C548.8,402.6,548.1,399.4,547.6,395.5z"/>
		<path class="st2" d="M616.5,438.8c-2.5-19.2-7.6-38.7-15.3-58.5s-18.8-43.9-33.3-72.2c-0.7-1.6-2.1-4.1-4.1-7.3
			c-5.4-8.8-8.3-14.4-8.6-16.9c-0.2-1.5,0.5-2.9,2.1-4.3s3.4-2.2,5.5-2.5c3.5-0.5,7,1.2,10.6,5c3.5,3.6,7,8.6,10.5,15
			c3.4,6.4,7.3,14.4,11.6,24c4,9.1,9.3,23.3,15.8,42.4l3.4,9.5l7.1,21.7c1.7,6,3.1,10.4,4.2,12.9c2.5-19,5.3-46.3,8.4-82
			c2.4-30.5,4.2-51.3,5.3-62.5l7.7-1c2.1-0.3,4,0,5.8,0.9s2.7,2.1,2.9,3.6c0.8,6,0.6,12.6-0.4,19.8c-1.1,7.2-3,15.9-5.6,26
			c-2.2,8.8-3.5,15.3-4,19.6c-0.5,4.3-0.6,11-0.4,20.1c0.8,20.4,0.2,38.9-1.6,55.4c-1.3,10-3.7,18-7.1,24.1
			c-3.5,6-7.9,9.4-13.2,10.1L616.5,438.8z"/>
		<path class="st2" d="M714.6,437.2c-2.2-1.2-3.2-3.4-3.2-6.7c0-5.1-1-13.8-2.9-26.1l-1.2-5.4l-29-3.8c-1.2,3.9-2.8,11.9-5,23.8
			c-1.2,8.4-3,13.9-5.6,16.6c-1.5,1.6-3.6,2.4-6.4,2.3c-1.7-0.1-3.3-0.5-4.8-1.3c-2.7-1.4-4-3.2-4-5.4l0.6-1.3l0.3-1
			c12.9-43.9,22.7-87.2,29.3-129.9c0-0.7,0.1-1.8,0.3-3.5c0.2-1.6,0.4-4,0.6-7c0.6-6.3,1.2-11.4,1.9-15.1c0.7-3.8,1.8-6.6,3.4-8.5
			h10c2.7,0,5.1,0.6,7,1.7s2.9,2.7,2.9,4.7c0,13,2.1,32.3,6.2,57.9c3.9,26.3,5.9,44.7,5.9,55.3c0,1,0.5,3.7,1.5,7.9
			c1,3.9,1.5,6.5,1.5,7.7s1,6.3,2.9,15.4c1.8,8.2,2.6,13.5,2.6,15.9v0.3c0,3.8-1.6,6.1-4.7,7.2C720,439,716.7,438.4,714.6,437.2z
			 M704.3,380.4c0-15.4-1.6-35-4.7-58.9l-2.9-26.6c-8.4,40.1-14.2,70.4-17.3,90.9c2.9,1.7,11.5,3.1,25.8,4.1
			C704.6,387.3,704.3,384.1,704.3,380.4z"/>
		<path class="st2" d="M404.7,606.8c-7.9-10.8-15.8-28.7-23.5-53.6c-2.2-6.8-4.1-13.1-5.5-18.9c-7.3,10.4-11,23-11,37.7v40.1
			c0,3.3-2,5-6.1,5c-3.1,0-5.6-0.6-7.5-1.8s-2.9-2.9-2.9-5.1v-65.7c0-6.4,1-18.1,3.1-35.1c2-14.9,3.1-26.6,3.1-35.1
			c1.6-2.7,4.6-4.1,8.9-4.1c2.6,0,4.9,0.7,6.7,2c1.8,1.3,2.8,2.9,2.8,4.8v0.7c-2.7,3.2-4,16.3-4,39.5v7.8l11.3-15.8
			c6.9-10.3,13.4-19.1,19.6-26.5c5.7-7.2,9.9-10.8,12.5-10.8c3.3,0,6.1,0.5,8.4,1.5s3.5,2.5,3.5,4.3l-7.3,8.7
			c-15.3,17.5-23.8,27.6-25.7,30.4c0,2.5-0.1,4.6-0.3,6.5l-0.3,6.5c0,6.2,3.5,17.8,10.5,34.8s12.9,28.2,17.6,33.7l4,3.9
			c3.9,3.8,5.8,7.1,5.8,10c0,1.6-0.9,2.9-2.6,4s-3.7,1.6-6,1.6C415,617.7,410,614.1,404.7,606.8z"/>
		<path class="st2" d="M471.5,639.4c-4.3-7.9-7.6-16.1-9.6-24.5l-2.2-7.8c-6-21.8-9.8-34.2-11.5-37.3h-3.7c0,4.4-0.1,8.5-0.3,12.1
			v12.6c0,20.4,2,36.4,5.9,47.8l-3.4,6.2H438l-4-3.4l0.3-15.3c0-13.7-0.9-34.5-2.8-62.4c-1.7-29.7-2.5-50.5-2.5-62.4
			c0-7.3,3.4-11,10.2-11c11.2,0,20.3,2.1,27.5,6.4c7.1,4.3,10.7,10.2,10.7,17.8v16c0,2.3-0.5,4.9-1.6,7.9c-1,3-2.2,5.4-3.4,7.2
			l-5.9,8.2l-5,6.9l1.6,5.5l4.3,16.2c2.9,11.7,5.7,21.3,8.4,28.6c2.7,7.3,6,13.9,9.9,19.9l1.9,2.7c2.1,3.1,3.1,5.5,3.1,7.3
			c0,1.5-0.6,2.9-1.9,4c-1.2,1.1-2.9,1.7-5,1.7C479.4,650.4,475.3,646.7,471.5,639.4z M457.4,544.9c3.2-7.5,4.8-14.5,4.8-20.9
			c0-4.9-0.8-9.4-2.5-13.7c-1-2.4-2.7-4.3-5.1-5.6c-2.4-1.3-5.3-1.9-8.8-1.9l-0.6,1.1l-0.6,2.1l0.6,27c0.4,7.9,0.6,16.5,0.6,25.8
			C450.3,557,454.2,552.4,457.4,544.9z"/>
		<path class="st2" d="M559.9,636.8c-2.3-0.9-3.8-3-4.3-6.3c-0.8-5.2-3.2-13.9-7.2-26.2l-2-5.3l-29.6,0.7
			c-0.5,4.2-0.9,12.6-1.1,25.1c0.2,8.7-0.7,14.7-2.8,17.9c-1.1,1.8-2.9,2.9-5.5,3.3c-2.3,0.4-4.6,0.1-6.7-0.9
			c-2.2-1-3.4-2.4-3.7-4.4l0.4-1.4l0.1-1.1c5.7-46.8,8.3-92.5,8-137.1c-0.1-0.7-0.2-1.9-0.3-3.6c-0.1-1.7-0.3-4.1-0.6-7.3
			c-0.4-6.5-0.6-11.8-0.6-15.7c0.1-3.9,0.7-7,2-9.2l9.9-1.6c2.7-0.4,5.2-0.2,7.3,0.6c2.1,0.8,3.4,2.3,3.7,4.4
			c2.1,13.2,7.3,32.6,15.6,58c8.2,26.2,13.2,44.7,14.9,55.5c0.2,1,1.1,3.7,2.8,7.9c1.6,3.8,2.5,6.4,2.7,7.6c0.2,1.2,2,6.3,5.4,15.2
			c3.1,8.1,4.8,13.3,5.2,15.8v0.3c0.6,3.8-0.6,6.5-3.5,8.1C565.7,637.7,562.3,637.7,559.9,636.8z M540.4,580.5
			c-2.5-15.7-7.3-35.4-14.3-59.3l-7.3-26.7c-1.8,42.2-2.6,74.1-2.4,95.4c3.2,1.3,12,1.3,26.4,0C541.8,587.5,541,584.3,540.4,580.5z"
			/>
		<path class="st2" d="M589.1,623.2c0-18.1-2-36.7-6-56.1c-4-19.3-10.3-42.9-18.8-70.9c-0.4-1.6-1.2-4-2.5-7.3
			c-3.3-8.8-5-14.4-5-16.7c0-1.4,0.7-2.7,2.1-3.8c1.4-1.1,2.9-1.6,4.6-1.6c2.8,0,5.4,2,7.8,5.9c2.4,3.8,4.6,8.8,6.7,15.2
			c2,6.4,4.3,14.3,6.7,23.7c2.2,9,4.9,22.7,8.1,41.2l1.7,9.2l3.3,21c0.7,5.8,1.4,10,2,12.5c3.9-17.3,8.9-42.2,15.1-74.9
			c5-27.9,8.5-47,10.6-57.2h6.1c1.7,0,3.2,0.5,4.5,1.5s2,2.2,2,3.6c0,5.7-0.8,11.7-2.4,18.3c-1.6,6.5-4,14.3-7.1,23.4
			c-2.6,7.9-4.3,13.7-5.2,17.7c-0.8,3.9-1.6,10.1-2.4,18.6c-1.5,19-3.8,36-7,51.1c-2,9.1-4.7,16.3-8.1,21.4
			c-3.3,5.2-7.2,7.8-11.4,7.8L589.1,623.2z"/>
		<path class="st2" d="M703.8,604.9c-2.6-1-3.9-3-3.9-5.8c0-4.5-1.2-12.1-3.5-22.9l-1.4-4.7l-34.9-3.4c-1.4,3.4-3.4,10.4-6,20.9
			c-1.4,7.3-11.1,23.2-14.1,25.6c-1.6,1.3-4.5,7-7.5,7c-2.8,0-6.6-1.2-8.9-2.3c-2.3-1.1-4.1-2.5-4.1-4.2l10.4-16.4l0.4-0.9
			c14.4-35.8,26.8-74.6,35.2-113.9c0-0.6,0.1-1.6,0.4-3c0.2-1.4,0.5-3.5,0.7-6.2c0.7-5.5,1.5-10,2.3-13.3s2.2-5.8,4.1-7.4h12
			c3.3,0,6.1,0.5,8.5,1.5c2.3,1,3.5,2.4,3.5,4.2c0,11.4,2.5,28.3,7.4,50.8c4.7,23.1,7,39.2,7,48.5c0,0.9,0.6,3.2,1.8,7
			c1.2,3.4,1.8,5.7,1.8,6.7s1.2,5.5,3.5,13.5c2.1,7.2,3.2,11.8,3.2,13.9v0.2c0,3.3-1.9,5.4-5.6,6.3
			C710.4,606.4,706.4,605.9,703.8,604.9z M691.5,555c0-13.5-1.9-30.7-5.6-51.7l-3.5-23.4c-10.1,35.2-17,61.8-20.8,79.7
			c3.5,1.5,13.8,2.7,31,3.6C691.9,561.1,691.5,558.3,691.5,555z"/>
	</g>
</g>
</svg>
