<svg xmlns="http://www.w3.org/2000/svg" viewBox="0 0 500 44.78"><title>meandar2</title><polygon points="500 39.88 500 44.78 452.5 44.78 452.5 9.85 478.53 9.85 478.53 26.02 467.85 26.02 467.85 30.38 482.89 30.38 482.89 4.89 448.14 4.89 448.14 44.78 391.38 44.78 391.38 9.85 417.4 9.85 417.4 26.02 406.72 26.02 406.72 30.38 421.76 30.38 421.76 4.89 387.01 4.89 387.01 44.78 330.25 44.78 330.25 9.85 356.27 9.85 356.27 26.02 345.59 26.02 345.59 30.38 360.63 30.38 360.63 4.89 325.88 4.89 325.88 44.78 269.12 44.78 269.12 9.85 295.14 9.85 295.14 26.02 284.46 26.02 284.46 30.38 299.5 30.38 299.5 4.89 264.76 4.89 264.76 44.78 207.99 44.78 207.99 9.85 234.01 9.85 234.01 26.02 223.33 26.02 223.33 30.38 238.37 30.38 238.37 4.89 203.63 4.89 203.63 44.78 146.86 44.78 146.86 9.85 172.88 9.85 172.88 26.02 162.2 26.02 162.2 30.38 177.25 30.38 177.25 4.89 142.5 4.89 142.5 44.78 85.73 44.78 85.73 9.85 111.75 9.85 111.75 26.02 101.07 26.02 101.07 30.38 116.12 30.38 116.12 4.89 81.37 4.89 81.37 44.78 24.6 44.78 24.6 9.85 50.62 9.85 50.62 26.02 39.94 26.02 39.94 30.38 54.99 30.38 54.99 4.89 20.24 4.89 20.24 44.78 0 44.78 0 39.88 15.34 39.88 15.34 0 59.88 0 59.88 35.28 35.05 35.28 35.05 21.12 45.73 21.12 45.73 14.74 29.5 14.74 29.5 39.88 76.47 39.88 76.47 0 121.01 0 121.01 35.28 96.17 35.28 96.17 21.12 106.86 21.12 106.86 14.74 90.63 14.74 90.63 39.88 137.6 39.88 137.6 0 182.14 0 182.14 35.28 157.3 35.28 157.3 21.12 167.99 21.12 167.99 14.74 151.76 14.74 151.76 39.88 198.73 39.88 198.73 0 243.27 0 243.27 35.28 218.43 35.28 218.43 21.12 229.12 21.12 229.12 14.74 212.88 14.74 212.88 39.88 259.86 39.88 259.86 0 304.4 0 304.4 35.28 279.56 35.28 279.56 21.12 290.25 21.12 290.25 14.74 274.01 14.74 274.01 39.88 320.99 39.88 320.99 0 365.53 0 365.53 35.28 340.69 35.28 340.69 21.12 351.37 21.12 351.37 14.74 335.14 14.74 335.14 39.88 382.12 39.88 382.12 0 426.66 0 426.66 35.28 401.82 35.28 401.82 21.12 412.5 21.12 412.5 14.74 396.27 14.74 396.27 39.88 443.25 39.88 443.25 0 487.79 0 487.79 35.28 462.95 35.28 462.95 21.12 473.63 21.12 473.63 14.74 457.4 14.74 457.4 39.88 500 39.88" fill="#fff"/></svg>