<svg xmlns="http://www.w3.org/2000/svg" viewBox="0 0 484.66 44.78"><title>meandar3</title><polyline points="0.1 44.78 4.9 44.78 4.9 4.89 39.65 4.89 39.65 30.38 24.6 30.38 24.6 26.02 35.28 26.02 35.28 9.85 9.26 9.85 9.26 44.78 66.03 44.78 66.03 4.89 100.78 4.89 100.78 30.38 85.73 30.38 85.73 26.02 96.41 26.02 96.41 9.85 70.39 9.85 70.39 44.78 127.16 44.78 127.16 4.89 161.91 4.89 161.91 30.38 146.86 30.38 146.86 26.02 157.54 26.02 157.54 9.85 131.52 9.85 131.52 44.78 188.29 44.78 188.29 4.89 223.03 4.89 223.03 30.38 207.99 30.38 207.99 26.02 218.67 26.02 218.67 9.85 192.65 9.85 192.65 44.78 249.42 44.78 249.42 4.89 284.16 4.89 284.16 30.38 269.12 30.38 269.12 26.02 279.8 26.02 279.8 9.85 253.78 9.85 253.78 44.78 310.54 44.78 310.54 4.89 345.29 4.89 345.29 30.38 330.25 30.38 330.25 26.02 340.93 26.02 340.93 9.85 314.91 9.85 314.91 44.78 371.67 44.78 371.67 4.89 406.42 4.89 406.42 30.38 391.38 30.38 391.38 26.02 402.06 26.02 402.06 9.85 376.04 9.85 376.04 44.78 432.8 44.78 432.8 4.89 467.55 4.89 467.55 30.38 452.51 30.38 452.51 26.02 463.19 26.02 463.19 9.85 437.16 9.85 437.16 44.78 484.66 44.78 484.66 39.88 442.06 39.88 442.06 14.74 458.29 14.74 458.29 21.12 447.61 21.12 447.61 35.28 472.45 35.28 472.45 0 427.91 0 427.91 39.88 380.93 39.88 380.93 14.74 397.16 14.74 397.16 21.12 386.48 21.12 386.48 35.28 411.32 35.28 411.32 0 366.78 0 366.78 39.88 319.8 39.88 319.8 14.74 336.03 14.74 336.03 21.12 325.35 21.12 325.35 35.28 350.19 35.28 350.19 0 305.65 0 305.65 39.88 258.67 39.88 258.67 14.74 274.91 14.74 274.91 21.12 264.22 21.12 264.22 35.28 289.06 35.28 289.06 0 244.52 0 244.52 39.88 197.54 39.88 197.54 14.74 213.78 14.74 213.78 21.12 203.09 21.12 203.09 35.28 227.93 35.28 227.93 0 183.39 0 183.39 39.88 136.42 39.88 136.42 14.74 152.65 14.74 152.65 21.12 141.96 21.12 141.96 35.28 166.8 35.28 166.8 0 122.26 0 122.26 39.88 75.29 39.88 75.29 14.74 91.52 14.74 91.52 21.12 80.83 21.12 80.83 35.28 105.67 35.28 105.67 0 61.13 0 61.13 39.88 14.16 39.88 14.16 14.74 30.39 14.74 30.39 21.12 19.71 21.12 19.71 35.28 44.54 35.28 44.54 0 0 0 0 39.88" fill="#77591d"/></svg>