<?xml version="1.0" encoding="utf-8"?>
<!-- Generator: Adobe Illustrator 24.0.2, SVG Export Plug-In . SVG Version: 6.00 Build 0)  -->
<svg version="1.1" xmlns="http://www.w3.org/2000/svg" xmlns:xlink="http://www.w3.org/1999/xlink" x="0px" y="0px" width="211.5px"
	 height="188px" viewBox="0 0 211.5 188" style="enable-background:new 0 0 211.5 188;" xml:space="preserve">
<style type="text/css">
	.st0{display:none;}
	.st1{display:inline;fill:#373F50;}
	.st2{display:inline;}
	.st3{display:inline;opacity:4.000000e-02;}
	.st4{opacity:4.000000e-02;}
	.st5{fill:#18326D;}
	.st6{fill:#00004D;}
	.st7{fill:#FFFFFF;}
	.st8{display:none;fill:#000079;}
	.st9{display:none;fill:#18326D;}
	.st10{fill:#F9F9F9;}
</style>
<g id="Layer_1" class="st0">
	<g>
		<rect x="-77" y="0.2" class="st1" width="359.5" height="187.5"/>
		<path class="st2" d="M282.3,0.5v187.1h-359V0.5H282.3 M282.8,0h-360v188h360V0L282.8,0z"/>
	</g>
	<g class="st3">
		<path d="M242.8,184.7c0,0.1,0,0.2,0,0.3c-0.5,0-1-0.1-1.5-0.1c-19.5,0-38.9,0-58.4,0c-0.6,0-1,0.1-1.3,0.2c0.2,0,0.5,0,0.7,0h83.6
			c-2-2.9-4.6-4-7.8-4.2c2.7-1.2,7.4,1.2,7.8,4.2h21c-0.2-0.1-0.4-0.2-0.7-0.2c-2.9,0-5.8,0-8.6,0.1c-2,0-3.9-0.2-5.5-1.7
			c-1.2-1.1-2.7-1.8-4.1-2.7c-0.4-0.2-0.6-0.6-1-0.9c0.3-0.3,0.6-0.5,0.9-0.9c0.4-0.5,0.8-1,0.9-1.5c0.1-0.2-0.6-0.8-0.8-0.8
			c-1.2,0.1-1.6-0.7-1.9-1.5c-0.3-0.7-0.7-1-1.5-0.9c-2.8,0.5-5.6,1-8.4,1.5c-1.4,0.3-2.8,0.6-4.2,0.8c-0.8,0.1-1.7,0.3-2.2-0.7
			c-0.4-0.7-0.9-0.4-1.4-0.3c-1.2,0.1-2.4,0.3-3.6,0.1c-1.4-0.3-2.7-0.9-4-1.4c-0.2-0.1-0.4-0.3-0.4-0.4c0-1.2-0.1-2.5,0.2-3.7
			c1.6-5.1,2.8-10.1,1.5-15.5c0-0.1,0.1-0.2,0.1-0.3c1.2,0.2,1.7,0.6,2,2.1c0.2,1,0.5,2.2,1.7,2.4c1,0.1,2.1-0.4,3.2,0.4
			c0.1,0.1,0.4-0.2,0.6-0.2c0.3-0.1,0.7-0.2,0.9-0.1c1,0.4,1.6,0.1,1.9-1.2c0.5,0.4,0.8,0.8,1.2,1c0.4,0.3,0.8,0.5,1.2,0.6
			c0.6,0.1,0.8-0.3,0.9-1c0.1-0.6,0.3-1.5,0.7-1.8c1.1-0.6,2.3-0.8,3.5-1.2c0.1,0.7,0.1,1.5,0.5,2c0.8,1.1,1.2-0.2,1.7-0.4
			c0.6,0.1,1.1,0,1.7,0c0.3,0,0.7,0,0.8,0.2c0.4,0.4,0.7,0.9,0.9,1.4c0.3,0.6,0.6,1.2,1.4,0.9s0.7-1,0.4-1.6
			c-0.4-1.1-0.8-2.1-1.2-3.2c0.1-0.1,0.1-0.2,0.2-0.3c0.6,0.3,1.3,0.6,1.9,0.9c0.4,0.2,0.7,0.5,1.1,0.6c0.3,0.1,0.7-0.2,0.8-0.4
			c0.1-0.1-0.1-0.7-0.3-0.8c-1.2-0.5-1.7-1.6-2.3-2.6c-0.4-0.8-1-1.3-2-1.3c-0.9,0-1.4-0.5-1.4-1.4c0.1-3.3-1.2-6.2-2.5-9.2
			c-0.6-1.3-1.5-2.1-3-2.2c-0.5,0-1.1-0.2-1.6-0.4c-2.1-1-2.6-2.6-1.5-4.6c0.2-0.3,0.4-0.6,0.5-1c0.1-0.4,0-1.1-0.2-1.1
			c-0.4-0.1-1-0.1-1.3,0.2c-0.4,0.3-0.7,0.8-1.1,1.2c-0.3,0.3-0.6,0.5-1,0.8c-0.1-0.4-0.2-0.7-0.3-1.1c-0.2-0.3-0.4-0.7-0.8-0.9
			c-0.1-0.1-0.7,0.3-0.8,0.6c-0.3,0.6-0.4,1.3-0.7,1.9c-0.1,0.3-0.5,0.7-0.8,0.7s-0.7-0.3-0.9-0.6c-0.2-0.4-0.3-1-0.4-1.5
			c-0.1-0.7-0.4-1.2-1.2-1.4c-0.4-0.1-0.6-0.7-0.9-1.1c-0.3-0.4-0.5-0.8-0.7-1.2c-0.4,0.4-0.9,0.7-1,1.1c-0.2,0.7-0.2,1.5-0.1,2.2
			c0.1,1.2,0.3,2.5,0.5,3.7c-2.4,0.3-3-1.6-3.9-3c-0.2,0.1-0.3,0.2-0.3,0.2c0,2.3-0.9,4.6,0.4,6.8c0.5,0.8,0.1,1.5-0.7,1.6
			c-1,0.1-1.9-0.2-2.4-1.2c-0.2-0.4-0.6-0.6-1-1c-0.3,0.5-0.7,0.9-0.7,1.3c0,0.7,0.2,1.5,0.6,2c1.1,1.2,2.3,2.2,3.5,3.4
			c0.4,0.4,0.7,0.9,0.7,1.4c0,0.3-0.4,0.8-0.8,0.9c-1.4,0.3-2.9,0.6-4.3-0.2c-1.7-1-3.5-1-5.1,0c-1.3,0.8-2.7,1.9-3.5,3.2
			c-2.3,3.8-5.7,6.4-9.2,8.8c-1,0.7-2,0.8-3.2,0.4c-0.7-0.3-1.6-0.9-2.1-0.6c-0.6,0.3-0.8,1.3-1.2,1.9c-0.1,0.1-0.1,0.3-0.2,0.4
			c-0.4,1.1-1.2,1.4-2.3,1.1c-0.5-0.1-0.9-0.3-1.4-0.5c-2.6-0.7-6.2,0.9-7.5,3.2c-0.5,0.9-1.3,1.6-2,2.4c-0.2,0.2-0.7,0.3-1,0.2
			c-0.2-0.1-0.4-0.6-0.4-0.9c0.1-0.7,0.2-1.3,0.4-2c0.7-1.7,1.4-3.5,2.2-5.2c0.5-1.2,1.1-2.4,1.8-3.5c0.8-1.3,0.9-1.2-0.4-2.2
			c-0.3-0.2-0.7-0.8-0.6-1.1s0.7-0.4,1.1-0.7c0.6-0.3,1.3-0.5,1.7-0.9c1.1-1.3,1.7-2.9,1.7-4.6c0-0.9-0.4-1.4-1.2-1.7
			c-0.9-0.3-1.8-0.4-2.6-0.8c-0.9-0.6-1.6-0.6-2.2,0.4c-0.8-0.6-1.4-1.2-2.2-1.6c-2.6-1.6-5-3.3-6.1-6.4c-0.5-1.4-2-0.9-3.1-0.9
			c-1,0-1,0.9-1,1.6c-0.1,3.8,0.1,7.5,3.6,10c0.6,0.4,1.2,0.9,1.7,1.5c0.4,0.4,1.1,1.1,1,1.3c-0.3,0.7-1,1.1-1.5,1.7
			c-0.3,0.3-0.7,0.6-1,1c-0.4,0.6-0.6,1.4-1,2c-1,1.3-1,2.7-0.5,4.2c0.2,0.7,0,1.4,0,2.1c-0.1,0-0.2,0-0.3,0c-0.1-0.5-0.2-1-0.3-1.5
			c-0.4-1.7,0.2-3.5-0.7-5.1c-0.4-0.8-0.7-1.2-1.7-1.1c-0.4,0-1.1-0.3-1.2-0.6c-0.2-1.3-0.8-2.5-1.4-3.7c-0.6-1.3-1.3-2.2-2.4-3
			c-0.9-0.8-1.7-0.7-2.7,0c-0.9,0.6-1.9,1.2-3,1.5c-1,0.3-1.5,0.8-1.4,2c0.2,1.4-0.6,2.2-1.8,2.8c-0.6,0.3-1,0.7-1.6,1.1
			c-1.5,1-3,2-4.6,3c-0.3,0.2-0.7,0.3-0.9,0.6c-0.7,1.1,0.6,4.4,1.8,4.5c1.7,0.1,3.5,0.3,5-0.2c1.8-0.7,3.2-2.1,4.8-3.2
			c0.2-0.2,0.6-0.3,0.8-0.3c0.2,0,0.4,0.4,0.4,0.6c0,0.2-0.3,0.5-0.5,0.7c-0.1,0.1-0.2,0.1-0.3,0.1c-0.9,0.3-1.4,0.8-0.9,1.9
			c0.6,1.1,1.3,2.2,1.7,3.4c0.8,2.7,1.6,5.4,1.1,8.3c-0.2,0.9-0.1,1.9,0,2.9c0,0.5,0.2,0.9,0.5,1.3c0.7,1,1.5,2,2.3,3.1h-29.7
			c2.2-1.4,3.2-3.3,3.1-5.9c0.8,0.4,1.3,0.7,1.8,1c1.2,0.5,2.4,0.8,3.6,1.4c2.2,1.1,4.6,1.1,7,1.1c0.5,0,1-0.3,1.4-0.6
			c1.1-1.1,2.2-2.1,3-3.4c0.4-0.6,0.6-1.7,0.4-2.5c-0.1-0.5-0.8-1.1-1.4-1.4c-0.3-0.1-1,0.3-1.4,0.7c-0.6,0.6-1,1.3-1.6,1.9
			c-0.9,0.7-1.9,1.2-3.2,1c0.3-1.5,0.1-2.8-0.9-3.7c-1.1-1-2.3-1.9-3.4-2.9c-1.7-1.5-3.8-2.3-5.9-3c-0.6-0.2-1.1-0.8-1.6-1.2
			c0.6-0.4,1.2-1,1.8-1.1c1.3-0.2,1.5-0.9,1.3-2c-0.3-2.1-0.2-4.1,1-5.9c0.3-0.5,0.7-0.9,1-1.4c0.9-1.5,1.6-3.1,2.5-4.5
			c1.2-1.8,2.6-3.6,4.1-5.1c3.4-3.4,5-7.4,4.2-12.1c-0.2-1.1-1-2.2-1.6-3.2c-0.3-0.7-0.7-1.3-1-1.9c-1.3-3.2-2.6-6.4-4-9.6
			c-0.9-2.1-2.2-4-3.3-6c-0.6-1-1.2-2.1-1.8-3.1c-0.2-0.4-0.4-0.9-0.5-1.4c0.9-0.2,1.7-0.1,2.3-0.5c0.7-0.4,1.4-1.1,2-1.7
			c1.5-1.5,1.5-2.1-0.1-3.5c-1.2-1.1-1.9-2.4-1.6-4c0.4-2.5,0.7-5,1.2-7.5c0.2-1.1,0.5-2.3,1.4-3c0,1.8,0,3.5,0,5.2
			c0,2.8,2.1,4.3,4.7,3.5c2.2-0.7,4.4-1.2,6.6-1.7c2.5-0.6,5-1.1,7.5-1.8c0.8-0.2,1.4-0.5,0.9-1.6c-0.5-1-0.2-1.4,1.1-1.4
			c1.4,0,2.9,0.2,4.3,0.3c1.7,0.1,3.4,0.4,4.4-1.6c0.1-0.2,0.3-0.2,0.5-0.3c2.3-1.3,4.6-2.6,6.8-4c2.7-1.8,5.3-3.9,8.5-4.9
			c0.4-0.1,1-0.8,1-1.1c0-0.6-0.4-1.5-0.9-1.6c-1.7-0.5-3.4-0.9-5.2-1.2c-0.7-0.1-0.9-0.2-0.7-0.9c0.6-2,1.1-4.1,1.6-6.1
			c0.1-0.7-0.1-1.5-0.2-2.3c-0.7,0.2-1.5,0.3-2.1,0.7c-3.5,2.7-7,5.4-10.5,8.1c-0.5,0.4-0.8,0.9-1.5,0.2c-0.4-0.4-1.1-0.7-1.5-0.7
			c-0.8,0.1-1.2,0.8-1.3,1.7c-0.2,1.6-0.4,1.7-2,1.9c-1.4,0.2-2.8,0.6-4.1,1.2c-1.2,0.6-2.2,1.5-1.7,3.2c0,0.2-0.4,0.6-0.7,0.8
			c-1,0.4-2,0.6-3.1,1c-1.3,0.4-2.5,0.9-3.7,1.2c-0.8,0.2-1.4-0.1-1.5-1c-0.2-3.2-0.1-6.4,0.6-9.5c0.2-0.6,0.2-1.4,0.1-2
			c-0.2-2.4-0.5-4.7-0.7-7.1c-0.1-1.1,0-2.3-0.3-3.4c-0.6-2.2,0.2-3.7,1.9-5c0.6-0.5,1.2-0.9,2-1.6c0.1,0.8,0.2,1.5,0.4,2.1
			c0.2,0.7,0.4,1.4,0.6,2.1c0.8-0.2,1.6-0.4,2.4-0.8c0.4-0.2,0.6-0.7,0.9-1.1c0.2-0.2,0.4-0.6,0.5-0.6c1.3,0,2.6-0.4,3.8-0.6
			c1.1-0.2,2,0.1,2.7-1c0.1-0.2,0.5-0.4,0.7-0.3c0.2,0,0.4,0.4,0.4,0.6c0.1,1.1,0.7,1.4,1.7,1.3c1-0.1,1.2-0.8,1.2-1.6
			c-0.1-1.3,0.3-2.4,1.2-3.4c0.6-0.8,1.1-1.7,1.7-2.5s1.2-1.5,1.8-2.2c1.1-1,2-0.8,2.7,0.5c0.1,0.1,0.1,0.3,0.2,0.4
			c0.2,0.3,0.5,0.5,0.7,0.8c0.2-0.3,0.6-0.6,0.7-1c0.2-0.5,0.2-1.1,0.3-1.5c0.7,0.2,1.4,0.4,2.2,0.7c-0.1-0.9-0.1-1.5-0.2-2.6
			c0.7,0.5,1.3,0.8,1.6,1.3c0.7,1,1.4,1,2.4,0.5c-0.5-2.8-1.1-5.4-4.1-6.7c-1.1-0.5-2.2-1-3.2-1.6c-0.6-0.3-1.1-0.8-1.5-1.3
			c-0.5-0.6-0.2-1.1,0.6-1.2c0.9,0,1.8,0,2.6,0c0.7,0,1.5,0.1,1.7-0.9s-0.4-1.5-1.3-1.7c-2-0.5-4-0.9-5.9-1.3
			c-0.4-0.1-0.8-0.2-1.1-0.2c0.4-0.2,0.8-0.3,1.2-0.4c0.4-0.2,0.9-0.6,0.9-0.8c0-0.5-0.4-1-0.7-1.4c-0.1-0.2-0.5-0.2-0.8-0.3
			c-2.6-0.5-5,0.1-7.4,1.3c-0.5,0.3-1.1,0.4-1.6,0.5c-0.1-0.2-0.2-0.3-0.3-0.5c0.4-0.4,0.8-0.8,1.3-1.1c0.7-0.4,1.6-0.8,1.1-1.8
			c-0.5-0.9-1.4-0.4-2-0.1c-1.3,0.6-2.6,1.3-3.9,1.9c-0.7,0.3-1.3,0.9-1.9-0.1c-0.1-0.2-0.7-0.1-1,0c-0.7,0.4-1.5,1-2.1,1.5
			c-1,0.8-1.6,2.4-3.4,1.3c-0.3,1.3-0.5,2.4-0.8,3.5c-0.3,1.2-0.5,1.3-1.7,1c-0.6-0.1-1.5,0.1-1.8,0.4c-0.3,0.4-0.2,1.3,0,1.8
			s0.8,0.9,1.2,1.4c0.3,0.3,0.5,0.6,0.7,0.9c-0.1,0.1-0.1,0.2-0.2,0.3c-0.5-0.1-0.9-0.2-1.4-0.4s-1.2-0.6-1.4,0.1
			c-0.1,0.4,0.3,1.1,0.7,1.4c0.5,0.4,1.2,0.5,1.8,0.7c0.7,0.2,0.9,0.6,0.6,1.3c-0.5,1.3-3,2.6-4.2,2.1c-1.6-0.6-3.3-1.3-4.7-2.2
			c-1.6-1-3.2-1.4-5-0.9c-1.5,0.4-2.8,1.1-4.3,1.5c-5.2,1.2-9.8,3.8-14.3,6.6c-0.6,0.4-1.2,0.8-1.9,1c-2.1,0.6-3.3,2-4.1,3.9
			c-0.6,1.4-1.4,2.7-2.2,4c-2.6,3.9-5.4,7.8-8,11.8c-0.2,0.3-0.4,0.7-0.6,1.1c-0.6,2-2.2,3.2-3.4,4.7c-1,1.3-1.1,1.6,0.1,2.7
			c0.8,0.8,0.8,1.5-0.2,1.9c-0.5,0.2-1,0.4-1.5,0.3c-4.1-0.2-7.9,0.8-11.5,2.5c-1.6,0.7-3.1,1.8-4.6,2.7c-0.3,0.2-0.4,0.8-0.6,1.2
			c0.4,0.1,0.7,0.4,1.1,0.4c1,0.1,1.9,0,2.9,0c0.3,0,0.7,0.3,0.8,0.5c0.6,1.5,0.8,1.6,2.2,0.8c1.1-0.7,2.4-0.7,3.4-0.1
			c1.1,0.7,2.1,0.6,3.1,0.2c1.1-0.5,2.1-1.1,3.2-1.7c0.8-0.4,1.6-0.9,2.5-1.1c1.8-0.4,2.9,0.8,4.1,1.8c0.8,0.6,1.4,1.5,2.1,2.2
			c0.6,0.6,1.1,0.4,1.3-0.4c0.8-2.2,0.1-3.7-2-4.7c-0.3-0.1-0.6-0.2-0.9-0.4c-0.3-0.2-0.5-0.5-0.7-0.7c0.3-0.2,0.5-0.6,0.8-0.7
			c0.4-0.2,0.9-0.2,1.4-0.2c0.7,0,1.4,0,2.1,0c0-1.9,0.2-3.4,1.3-4.7c0.9-1,1.8-2,2.6-3.2c0.9-1.4,1.9-2.7,3.2-3.7
			c0.3-0.2,0.5-0.8,0.4-1c-0.3-0.7,0-1.1,0.6-1.5c0.3-0.2,0.5-0.4,0.7-0.7c1.3-1.5,1.9-3.2,2.1-5.1c0-0.3,0.3-0.7,0.6-0.7
			c1.1-0.4,2.3-0.7,3.5-0.9c0.7-0.2,1.5-0.2,2.3-0.3c-0.6,1.3-1.2,2.5-1.8,3.6c-1.7,3.1-3.5,6.3-5.2,9.4c-0.6,1.1-1.2,2.3-1.8,3.4
			c-0.8,1.4-1.8,2.8-2.6,4.3c-1,1.9-1.7,3.9-2.7,5.7c-0.4,0.8-0.7,1.5-0.1,2.4c0.6,0.9,0.7,2,1.9,2.7c0.7,0.4,0.8,1.5,0.1,2.1
			c-0.8,0.7-1.8,1.4-2.8,1.7c-3.1,0.9-6.4,0.5-9.4,1.8c-1.3,0.5-2.7,0.5-4,0.9s-2.2,1.3-2.7,2.7c-0.3,0.8-0.7,1.6-1.2,2.3
			c-0.6,0.7-0.7,1.4-0.1,2.1c1.5,1.9,2.1,4.2,2.8,6.5c0.3,0.9,0.4,2,1.1,2.6c1.5,1.3,1.7,3.1,2.3,4.7c0.9,2.3,1.5,4.7,2,7.1
			c0.6,2.9,1,5.9,1.3,8.8c0.1,0.5-0.4,1-0.6,1.6c-0.2,0.7-0.6,1.5-0.4,2c0.6,1.4,0.3,2.2-1.1,2.7c-0.2,0.1-0.4,0.3-0.7,0.6
			c-1-0.6-2-1.2-3-1.8c-1.5-0.8-2.9-1.7-4.5-2.3c-2.4-1-4.7-1-6.3,1.5c-0.4,0.6-0.9,0.5-1.4,0c-1.4-1.3-2.8-2.7-4.3-4
			c-1.9-1.5-3.1-3.2-2.5-5.8c0.2-0.6,0.1-1.5-0.9-1.5s-2.1-0.5-2.6,0.9c-0.3,0.9-0.6,1.9-1.3,2.5c-1.1,1.1-0.6,1.9,0,2.9
			c2.4,4,5.6,7.2,9.5,9.7c1.5,0.9,2.7,2.2,4.4,3.6c-3.4,1.4-4.7,3.6-3.4,6.9c1,2.5,2.6,4.6,5.5,4.8c4.2,0.3,5.8-2.6,6.8-5.7
			c10.8,5.5,21.6,11,32.4,16.5c-0.7,1.1-1.6,2.2-2,3.4c-0.4,1.1-0.4,2.4-0.3,3.6c0,1,0.7,1.4,1.6,1.6c0.3,0.1,0.6,0.5,0.9,0.9h-39.7
			c0.8-1.3,0.6-1.9-0.7-2.5c-0.5-0.2-1-0.3-1.5-0.4c-1.1,0-2.2,0.1-3.3,0c-0.9,0-1.7-0.2-2.5-0.3c-0.6-0.1-1.4-0.5-1.7-0.2
			c-1.2,0.8-2.5,0.3-3.7,0.4c-0.2,0-0.5-0.2-0.7-0.4c-1.4-1.5-2.8-2.9-4.9-3.5c-0.5-0.2-1-0.9-1.2-1.4c-0.4-1-0.5-2.2-0.7-3.3
			c-0.5-1.9-1.1-3.7-1.5-5.6c-0.4-2.4-0.6-2.3,2.1-2.8c0.9-0.2,1.2-0.6,1.1-1.5c-0.3-2-0.7-4-1-5.9c-0.5-2.4-1.1-4.7-1.5-7.1
			c-0.3-1.7-0.4-3.5-0.4-5.2c0-1.1,0.5-2.3,0.5-3.4c0-1-0.4-1.9-0.5-2.9c-0.6-2.9-1.2-5.9-1.8-8.8c-0.7-3.2-0.7-6.6-1.9-9.8
			c-1.3-3.6-2.3-7.3-3.4-10.9c-0.1-0.2-0.1-0.5-0.2-0.7c-0.9-0.9-0.8-1.9-0.7-3c0.2-3,0.6-6.1-0.4-9.1c-0.4-1.2-0.1-2.2,0.9-2.8
			c2.1-1.4,4.2-2.8,6.4-4.1c1.7-1.1,3.5-2,5.2-3c1.1-0.7,2.2-1.5,3.3-2.1c1.3-0.7,2.6-0.5,3.8,0.3c1.3,0.9,2.2,0.6,2.8-0.9
			c0.3-0.8,0.8-1.6,1.2-2.4c0.7-1.2,1.5-2.3,2-3.5c0.4-0.9,0.9-1.5,1.9-1.8c2.3-0.9,4.4-2.1,6.1-3.7c0-0.6-0.1-1.2,0.2-1.5
			c2.1-1.6,4.3-3.2,6.5-4.8c1-0.7,2-1.3,2.9-2c0.7-0.5,0.6-1.1-0.2-1.4c-0.7-0.3-1.4-0.7-2.1-0.7c-2.3,0-4.6,0-6.9,0.1
			c-1.6,0.1-1.7,0-2.1-1.5c-0.1-0.4-0.4-0.7-0.6-1.1c-0.4,0.3-0.8,0.5-1.1,0.8c-1.3,1.5-2.4,3.2-3.9,4.6c-1.1,1.1-2.1,2.4-4,2.4
			c-0.2,0-0.3,0.2-0.5,0.4c-1.9,2.1-4.1,3.8-6.9,4.7c-1.4,0.4-1.9,1.7-1.6,3.1c0.1,0.5,0.4,1,0.3,1.4c-0.1,0.9-0.2,2.1-0.7,2.5
			c-1.3,1-2.9,1.9-4.4,2.5c-2.2,0.9-4.4,1.6-6.6,2.4c-0.7,0.2-1.3,0.4-2,0.6c-0.7-1.9-0.7-3.6,0.8-4.9c1.5-1.4,3.1-2.7,4.1-4.6
			c0.5-0.8,0.7-1.5,0.3-2.4c-1.5-3.8-4.2-7-6.3-10.4c-0.4-0.7-0.6-1.6-0.6-2.4c0.1-1.1,0.4-2.2,0.7-3.3c0.5-1.8,1-3.6,1.7-5.3
			c0.5-1.2,2-1.5,2.6-0.6c1.1,1.5,2.6,1.3,4.1,1.5c0.2-0.4,0.3-0.7,0.4-1c0.3-1,0.7-1.6,1.9-1c0.3,0.1,0.9,0,1-0.1
			c0.6-1.3,2.9-1.4,2.4-3.4c2.1,0.5,2.1,0.5,2.4-1.6c0.3-1.8,0.7-3.6,2.2-4.9c0.8-0.7,1.2-0.7,1.8,0.2c0.4,0.5,0.9,0.9,1.5,1.5
			c0.3-1.1,0.5-1.8,0.7-2.6s0.6-0.7,1.1-0.3c0.4,0.3,0.8,0.6,1.3,0.8c0.3,0.1,0.8,0.1,1,0s0.1-0.7,0-1c-0.1-0.5-0.4-1-0.6-1.8
			c0.7,0.1,1.2,0.2,1.7,0.1c0.6,0,1.1-0.2,1.7-0.2c-0.3-0.5-0.5-1.2-0.9-1.5c-1.4-1-2.8-2.1-4.7-2.3c-0.3,0-0.7-0.4-0.9-0.7
			c-1.4-2.3-3.6-3.8-5.7-5.4c-0.4-0.3-0.9-0.5-1.4-0.6c-1.5-0.2-2.7-1-3.5-2.2c-1-1.5-2.4-2.4-4.2-2.8c-3.2-0.7-6.4-0.6-9.4,0.3
			c-4,1.1-7.9,2.1-12,2.3c-0.9,0-1.5,0.5-1.3,1.5c0.1,0.4,0,0.9-0.1,1.3c-0.1,0.7-0.7,1.6,0.6,1.9c0.1,0,0.2,0.3,0.2,0.5
			c0.1,0.7,0.1,1.4,0.2,2.1c0.2,1.3,0.1,1.5-1.2,1.7c-0.3,0.1-0.6,0.1-1.2,0.3c0.7,0.6,1.2,0.9,1.9,1.4c-0.9,0.2-1.4,0.3-2,0.5
			c0,0.1,0,0.3,0,0.4c0.8,0.1,1.6,0.2,2.4,0.4c0.4,0.1,0.9,0.2,1.1,0.5c0.1,0.2-0.2,0.7-0.3,1.1c-0.1,0.4-0.3,0.8-0.4,1.2
			c0.4,0.1,0.9,0.4,1.3,0.4c0.4,0,0.9-0.2,1.4-0.3c0.7-0.1,1.5-0.2,2.2-0.3c0.1,0.1,0.1,0.3,0.2,0.4c-0.9,0.7-1.7,1.5-2.4,2.1
			c0.5,0.7,0.8,1.2,1.2,1.5c0.3,0.3,0.7,0.5,1.1,0.5c0.8-0.1,1.6-0.4,2.5-0.7c-0.4,1.1-0.8,2.1,0.7,2.4c1.7,0.4,2,1.2,0.7,2.4
			c-1.1,1-2.4,1.9-3.6,2.8c-0.7,0.5-1.4,0.9-2-0.3c-0.2,0.2-0.4,0.3-0.5,0.4c-1.5,2.2-3.5,4.2-4,7.1c-0.1,0.5-0.5,1-0.8,1.5
			c-0.2,0.4-0.4,0.8-0.5,1.2c-0.5,1.4-0.8,2.7-1.3,4.1c-0.6,1.6-1.1,3.2-1.1,5c0.1,2.3,0,4.6-0.2,6.8c-0.4,4.5,0.5,8.8,1.3,13.2
			c0.3,1.7,1,3.3-0.3,4.8c-0.1,0.2-0.1,0.5-0.1,0.7c0.2,1.5-0.2,2.9-1.1,4c-1.8,2.2-2,4.7-2.1,7.4c-0.1,2.9-0.4,5.7-0.6,8.6
			c-0.2,3.1-0.8,6.1-0.6,9.2c0.2,2.8,0.3,5.6,0.1,8.4c-0.1,1.5,0,3,0.8,4.4c0.5,0.8,0.5,1.6-0.1,2.4c-0.4,0.5-0.3,0.9,0.1,1.4
			c0.5,0.7,1,1.6,0.9,2.3c-0.1,2.1-0.4,4.1-0.8,6.1c-1.4,5.9-2.8,11.7-3,17.8c0,1.4,0.2,1.6,1.5,1.4c0.3-0.1,0.6-0.2,0.9-0.2
			c0.7,0,1,0.3,1,1c0.1,1.8,0,3.6,0.4,5.3c0.5,2.6,0.3,5-0.8,7.4c-0.5,1.2-0.7,2.3,0.8,3.4c-5.1,0-9.9,0-14.7,0
			c-0.3,0-0.9-0.6-0.9-0.9c-0.1-2.5-1.2-4.3-3.5-5.4c-0.4-0.2-0.6-1.2-0.6-1.8c0-0.3,0.6-0.7,1-0.9c0.8-0.3,1.7-0.5,2.5-0.7
			c0.6-0.2,0.9-0.4,0.8-1.2c-0.2-1-0.3-2.1-0.5-3.1c-0.7-3.7-1.3-7.5-0.6-11.3c0.2-1-0.3-2-0.5-3s-0.5-2.1-0.5-3.1
			c-0.1-2.7-0.1-5.4-0.2-8.1c0-0.1,0-0.2-0.1-0.3c-0.4-0.9-0.2-1.6,0.4-2.3c0.3-0.4,0.5-0.8,0.7-1.2c0.5-1.1,1-2.3,0.1-3.5
			c-0.2-0.3,0-1,0.1-1.5c1-3.3,2.3-6.5,2.9-9.9c0.7-3.7,1.6-7.4,3.2-10.8c0.3-0.6,0.9-1.3,1.5-1.5c1-0.4,2.2-0.7,3.3-0.7
			c1,0,1.3-0.5,1.5-1.3c0.1-0.4,0.2-0.8,0.3-1.2c0.6-4.7,1.3-9.5,1.9-14.2c0.2-1.6,0.3-3.2,0.2-4.8c0-1.8-0.1-3.5-0.2-5.3
			c-0.1-1.5-0.2-3-0.3-4.5c-0.1-1.2-0.4-2.5-0.2-3.6c0.6-3.5,1-6.9,0.3-10.5c-0.3-1.3-0.6-2.7-0.6-4c0-1.5,0.5-3,0.6-4.5
			c0.1-2.1,0.7-4.3-0.5-6.2c-1.4-2.1-2.2-4.5-2.6-6.9c-0.4-1.9-0.6-4-0.4-5.9c0.2-2.8-0.3-3.4-3-2.5c-0.9,0.3-1.2,0-1.3-0.9
			c-0.1-1.4-0.3-2.9-0.5-4.3c-0.2-1.1-0.5-2.2-1.7-2.7c-0.3-0.1-0.5-0.4-0.8-0.7c1.6-1.2,3.3-1.3,5-1.2c0-1-0.3-1.7-1.3-1.6
			c-0.9,0.1-1.8,0.4-2.8,0.6c-1.3,0.4-2.6,0.8-4,1.1c0-0.1-0.1-0.3-0.1-0.4c1.1-1.1,2.5-1.4,4-1.6c1.5-0.1,3-0.3,4.1-1.5
			c-0.8-1-1.1-1.1-2.3-0.4c-1.3,0.8-2.7,1.2-4.6,0.6c0.9-0.6,1.6-1,2.2-1.5c0.3-0.2,0.5-0.6,0.7-0.9c-0.3-0.2-0.6-0.4-0.9-0.6
			c-0.3-0.1-0.6-0.2-1-0.3c1.9-1.7,3.7-3.2,5.6-4.9c-1.8-0.9-2-1-2.9,0.4c-1.7,2.5-4.5,2.7-7.1,3.4c0.4-0.5,0.8-1,1.2-1.4
			c0.4-0.4,1-0.6,1.2-1.1c0.2-0.4,0-1.1,0-1.6c-0.6,0.1-1.2,0.2-1.7,0.4c-0.2,0.1-0.2,0.4-0.3,0.6c-0.9,2-3.3,3.2-5.7,2.7
			c0.3-0.4,0.6-0.7,0.9-1c2-1.9,4.1-3.8,6.1-5.7c0.2-0.2,0.3-1,0.1-1.3c-0.5-0.5-0.9-0.3-1.4,0.3c-1.1,1.2-2.3,2.4-3.6,3.5
			c-0.6,0.5-1.4,0.6-2.2,1c0.1-2.5,3.2-3,3.1-5.3c-0.5-0.3-1.2-0.5-1.4-0.8C29.1,6,28.2,6.4,27.3,7c-0.5,0.3-0.9,0.7-1.3,1
			c-0.6,0.5-1.2,1.1-1.9,1.6c-0.2,0.2-0.9,0.1-1-0.2c-0.8-1.1-1.1-1.1-2,0c-0.8,1-1.6,2.1-2.4,3.1c-0.6,0.8-1.2,1.6-1.7,2.4
			c-0.6,0.9-1.1,1.7-1.6,2.6c-1,1.8-2.1,3.5-2.9,5.3c-0.3,0.7-0.3,1.7-0.2,2.6c0.3,1.6,0.7,3.1,1.1,4.6c0.2,0.9,0.5,1.8,0.9,3.1
			c-1.4-1.2-2.6-2.2-4.3-1.6c0,1.4,1.1,1.7,1.9,2.2c2,1.1,2.1,1.1,1.5,3.3c-0.3,1.2-0.4,2.4-0.6,3.6c0.1,0.1,0.3,0.2,0.4,0.3
			c0.6-0.3,1.1-0.7,1.7-0.9c0.3-0.1,0.7-0.2,1-0.1c0.2,0.1,0.3,0.6,0.2,0.8c-0.4,1.4,0.1,2.1,1.5,2.3c0.1,0,0.2,0.1,0.3,0.2
			c-0.4,1.4-0.1,1.9,1.2,2c1.7,0.2,2.8,0.8,3,2.5c2.3,0.7,3.6-1.7,5.7-1.7c0,0.8-0.1,1.6,0,2.3c0.5,3,0.1,5.9-1,8.8
			c-1,2.6-1.4,5.4-1.4,8.2c0,1.7,0.2,3.5-1.3,4.9c-0.4-0.3-0.7-0.8-1.1-0.9c-3.2-1.2-5.9-3.3-8.7-5.2c-0.9-0.6-1.6-1.1-2.4,0.1
			c-0.3-0.7-0.3-1.6-0.7-1.8c-1.5-0.9-1.4-2.4-1.5-3.8c0-1.4-0.7-1.6-1.8-1.8c-0.8-0.2-1.7-0.6-2.3-1.2c-0.9-0.9-1.6-2-2.4-2.9
			c-0.2-0.2-0.4-0.4-0.7-0.6c-0.2,0.5-0.4,0.8-0.6,1.5C-1,50-3.7,46.5-6.5,43c-0.2,1-0.4,2.1-0.7,3.1c-0.1,0.4-0.6,1.1-1,1.1
			c-2.2,0-4.4-0.1-6.5-0.2c-0.3,0-0.5,0-1,0c0.2,0.4,0.3,0.5,0.4,0.6c0.9,0.9,1.9,1.7,2.7,2.7c0.4,0.6,0.7,1.5,0.6,2.2
			c-0.1,0.9,0.1,1.4,1,1.8c0.5,0.2,1,0.7,1.2,1.2c1,1.8,1.8,3.6,2.7,5.5c0.1,0.3,0.2,0.8,0.1,1.1c-0.7,1.2-0.3,2.2,0.1,3.4
			c0.3,1,0,2.2-0.1,3.3c0,0.5-0.2,1.2,0.1,1.6c1,1.5,2.5,2.5,4.2,3c0.8,0.2,1.7,0.4,2.5,0.7c1.1,0.4,1.2,0.8,0.3,1.6
			c-0.7,0.6-0.7,1.2-0.1,1.8c0.7,0.8,1.4,1.7,2.2,2.6c1.7,1.9,3.6,3.6,5.2,5.6c2,2.6,3.9,5.4,5.7,8.1c1.8,2.6,1.8,2.6,4.8,1.7
			c0.4-0.1,1.1,0,1.4,0.2c0.2,0.1,0.1,0.9-0.1,1.3c-0.8,1.7-1.8,3.4-2.5,5.1c-0.9,2.2-1.5,4.4-2.2,6.7c-0.2,0.6-0.2,1.2-0.3,1.8
			c2,0.4,2.1,0.5,1.9,2.1c-0.6,4.7-1.2,9.3-1.7,14c-0.4,4.4-0.6,8.7-0.9,13.1c-0.1,1.3,0.2,2,1.6,2.1c1,0.1,1.5,0.7,1.3,1.7
			c-0.1,0.4-0.1,0.8-0.1,1.2c-0.2,3.6-1,7.1-0.4,10.7c0.2,1.6,0.2,3.2,0,4.8c-0.3,2.7-0.4,5.4,0.2,8.1c0.3,1.6,0.3,1.6,2,1.4
			c0.5-0.1,1.4,0,1.7,0.4c0.6,1,1.2,2.2,0.4,3.4c-0.7,1.2-2,1.6-3.3,1.4c-0.8-0.1-1.5-0.3-2.2-0.3c-3.9,0.1-7.7,0.3-11.6,0.4
			c-0.8,0-1.1,0.4-1.6,0.9c-0.9,1-1.6,2.1-3.2,2.3c-1.5,0.2-2.9,1-3.8,2.3c-0.2,0.2-0.5,0.5-0.8,0.5c-3.1,0-6.2-0.1-9.3-0.1
			c0.6-0.4,1.2-0.5,1.8-0.5c1.8-0.3,2.9-1.3,3.2-2.9c-5.4,3.6-11.5,3.5-17.5,3.6c-0.5,0-0.9-0.2-1.4-0.4c-1.1-0.5-2.1-1.1-3.4-1.8
			c1-0.6,1.9-1.1,2.8-1.7c1.5-1.1,1.6,1.3,2.8,0.9c0,1.6,0.5,1.9,1.9,1.5c0.6-0.2,1.1-0.4,1.7-0.7c0.7-0.4,1.5-0.2,2.2-0.3
			c2-0.4,3.8,0.8,5.8,0.3c2.6-0.6,4.3-2.2,6.2-4c-0.2,0.6-0.3,1.2-0.5,1.8c1.3-0.8,1.7-2.6,3.3-3c0.1,0,0.2-0.3,0.3-0.5
			c0.3-0.9,1-1.1,1.8-1.1c2.4,0,4.5-1.1,6.5-2.2c0.6-0.4,0.7-0.8,0.3-1.2c-0.3-0.4-0.7-0.7-1.1-1.1c-0.5-0.7-1.3-1.4-1.5-2.2
			c-0.5-1.6-0.7-3.4-1-5.1c-0.1-0.6,0.1-1.3,0.1-2c0-0.6,0.2-1.2,0.2-1.8c-0.1-1.7-0.4-3.5-0.5-5.2c-0.2-2.5-0.2-4.9-0.4-7.4
			c0-0.1,0-0.2-0.1-0.2c-0.5-1.7-1-3.4-1.4-5c-0.5-1.8-0.7-3.7-1.4-5.4c-1.5-3.6-4.4-5.9-7.9-7.5c-0.8-0.4-1.3-1.3-1.9-2
			c-0.4-0.5-0.6-1-0.8-1.3c-0.7,0.2-1.2,0.3-1.7,0.4c-0.1-0.6-0.4-1.2-0.3-1.7c0.1-0.4,0.7-0.6,1.2-0.8c1.2-0.5,1.2-0.7,0.2-1.6
			c0.6-0.2,1.1-0.4,1.7-0.6c-0.1-1.3,0.2-1.5,1.5-1.7c1-0.1,2.1-0.5,3-0.9s1.8-1.1,2.7-1.5c1.9-1,2.9-2.5,2.8-4.9
			c-0.6,0.3-1.1,0.7-1.6,0.8c-0.4,0.1-1.1,0.1-1.4-0.1c-0.2-0.2-0.2-0.8-0.2-1.2c0-0.3,0.2-0.7,0.1-1c-0.4-0.9,0.1-1.1,0.7-1.4
			c1-0.5,1.9-1.2,2.8-1.8c-0.1-0.2-0.2-0.3-0.3-0.5c-0.6,0.3-1.3,0.7-1.9,1c-1.2,0.6-2.5,1.3-3.8,1.8c-0.8,0.3-1.6,0.3-2.3-0.5
			c-0.3-0.4-1.1-0.4-1.6-0.5s-1-0.1-1.4-0.1c0.3-0.4,0.7-0.8,1-1.1c0,0,0.1,0,0.1-0.1c1.5-0.6,2.8-1.7,4.6-0.7
			c0.8,0.4,1.5-0.2,1.5-1.3c-0.2-1.9,0.7-3.2,2-4.4c0.3-0.3,0.7-0.6,1-1c0.9-1,0.9-1.7,0-2.6c-1.3,1-2.6,1.9-3.8,2.9
			c-1,0.9-2.1,1.8-2.8,2.9c-0.7,1.2-1.7,1.3-2.7,1.6c1.4-1,2.5-2.1,2.7-3.9c0-0.5,0.6-1,0.9-1.5c0.2-0.3,0.6-0.8,0.5-0.9
			c-0.9-1.2,0.6-1.8,0.5-2.8c0.1,0,0.3,0,0.4,0v1.8c0.1,0,0.2,0,0.3,0C-8.2,93.2-9,91.5-9,90c-0.7-0.3-1.4-0.6-2.4-1.1
			c0.1,0.6,0.1,1,0.3,1.4c0.6,1.4,0,2.3-1.7,2.4c0.3-2,0.5-3.9,0.8-5.8c-0.1,0-0.2,0-0.4-0.1c-0.7,1.6-1.5,3.1-2.1,4.7
			c-0.8,2.1-1.8,3.8-3.8,5c0.9-2,2.3-3.8,3-5.9c0.7-2.1,0.6-4.3,0.9-6.5c-0.1,0-0.2-0.1-0.4-0.1c-1,2.9-1.8,5.8-5.1,7.1
			c0.1-0.7,0.4-1.2,0.7-1.8c0.4-0.7,0.9-1.3,1.1-2.1c0.1-0.5-0.1-1-0.2-1.6c-0.2-0.9-0.5-1.8-0.8-2.7c0,0-0.2,0.1-0.3,0.2
			c-0.5,1.5-1,3.1-1.5,4.6c-0.2,0.5-0.5,0.9-0.8,1.4c-0.1-0.1-0.3-0.1-0.4-0.2c0.8-2.8,1.6-5.6,0.7-8.7c-0.7,2.9-1.3,5.6-1.9,8.2
			c-0.3,1.5-1.1,2.5-3,2.8c-0.6-1.8-1.3-3.6-2.1-5.8c0,1.1-0.1,1.9,0,2.6c0.4,1.8,0.1,3.5-0.5,5.2c-0.4,1.3-0.9,2.6-1.3,3.8
			c-0.4,1.3-1,2.2-2.5,2.1V88.3c-1,0.1-1.4,0.5-0.8,1.2c0.7,1.1,0.6,2-0.1,3.1c-0.5,0.7-0.6,1.5-0.9,2.3c-0.4,1-0.8,2.1-1.3,3
			c-0.1,0.2-0.6,0.3-0.9,0.5c-0.1-0.3-0.3-0.6-0.2-0.9c0.1-1,0.2-2.1,0.4-3.1c-0.3,0.1-0.5,0.2-0.5,0.4c-0.3,2.3-1.7,4-2.6,6
			c-0.3,0.6-0.5,1.4-0.4,2.1c0.3,1.7-0.2,2.7-1.9,3c-0.8,0.1-1.5,0.1-2.5,0.2c0.7,1.3,2.3,0.6,3.2,1.6c-0.4,0.1-0.7,0.3-0.9,0.3
			c-0.7,0.1-1.5,0.1-2.2,0.3c-1.7,0.6-3.2,0.7-4.6-0.6c0.1,1.3,0.8,2.2,1.9,2.5c1.2,0.3,2.6,0.2,3.9,0.4c0.5,0.1,1.4,0.3,1.4,0.4
			c-0.3,1.6,0.9,2.4,1.6,3.5c0.9,1.3,0.8,2.4,0,3.6c-0.3,0.5-0.4,1.1-0.3,1.6c0,0.2,0.9,0.3,1.3,0.4c0.9,0.2,2.4-0.3,2.1,1.6
			c0.7-0.1,1.3-0.1,1.9-0.2c0.1,0.6,0.2,1,0.2,1.5c1.4-0.2,2.1,0.5,2.7,1.7c0.6,1.3,1.5,1.5,2.7,0.7c0.4-0.2,0.6-0.6,1-0.8
			c0.6-0.4,1.4-1,1.8-0.9c0.6,0.2,1,1.1,1.2,1.7s0.1,1.4-0.1,1.9c-0.5,1-0.3,1.8,0.5,2.6c0.9,1,0.9,2,0.4,3.1
			c-0.6,1.2-1,2.6-1.4,3.9c-0.6,2,0,4.2-2.8,5.4c-2.7,1.1-4.8,3.5-7.1,5.4c-1.2,1-1.9,1.2-3.2,0.3c-1-0.6-2.1-1.2-3-1.9
			c-1.7-1.2-4.1-1.7-4.6-4.2c0-0.1-0.2-0.2-0.3-0.2c-0.9-0.5-1.3-1.3-1.3-2.3c0.1-2.2-0.7-3.9-2.8-4.8c-0.1,0-0.1-0.1-0.2-0.1
			c-2-1.4-3.4-3.2-3.5-5.8c0-0.9-0.7-1.8-1-2.7c-1.4,2.4-2.7,4.5-3.8,6.6c-0.5,1-1.2,1.3-2.2,1.1c-0.5-0.1-1.1-0.3-1.6-0.4
			c-3-0.5-6.1-1.1-9.1-1.5c-1.4-0.2-1.7,0.1-1.5,1.5c0.1,0.5,0.3,1.1,0.7,1.5c0.9,1,2.1,1.8,2.6,3c0.7,1.5,1,3.3,1.2,4.9
			c0.2,1.5-0.1,3.1,0,4.7c0.1,0.8,0.4,1.7,0.8,2.5c0.2,0.4,0.6,0.9,1,0.9c1.1,0.2,2.3,0.1,3.5,0.2c1.9,0.2,3.9,0.2,5.5,1.6
			c-1.2,0.6-1.2,1.4-0.8,2.4c3.2,0.1,6.4,0.5,9,2.7c-2.1-0.2-4.2-0.5-6.3-0.8c-1.4-0.3-3.2,0.3-3.7,1.6c-1.7,4.2-3.4,8.4-5,12.7
			c-0.3,0.7-0.2,1.4,1,1.7c1.1,0.2,2.1,0.8,3.2,1.2c0.7,0.3,0.7,0.7,0.3,1.3s-0.9,1.2-0.9,1.9c-0.1,1.1-0.2,2.6,0.4,3.1
			c1,0.8,1,1.6,1,2.7c-0.1,1.8,0,1.8,1.8,1.8c35.7,0,71.5,0,107.2,0c12.8,0,25.7,0,38.5,0h155.9V184.7z M249.4,177.8
			c0.4,0.4,0.4,1.3,0.5,2c0,0.2-0.4,0.6-0.5,0.6c-0.3-0.1-0.8-0.3-0.9-0.5c-0.3-0.6-0.5-1.2-0.8-2.1
			C248.1,177.7,249,177.5,249.4,177.8z M187.9,141.5c0.6,1.4,1.3,3,1.8,4.3C188.4,145.2,187.5,143.2,187.9,141.5z M155.4,166
			c1,0.4,2,0.8,2.9,1.2c-0.1,0.1-0.1,0.3-0.2,0.4c-1-0.4-1.9-0.8-2.9-1.2L155.4,166z M200.6,66.3c0.2-0.1,0.6-0.1,0.9-0.1
			c0,0,0.2,0.4,0.1,0.5c-0.2,0.3-0.5,0.6-0.8,0.7c-0.4,0.1-0.9,0-1.3,0c-0.1-0.1-0.1-0.1-0.2-0.2C199.7,66.8,200.1,66.5,200.6,66.3z
			 M197.1,68.7c0.1,0.1,0.2,0.3,0.4,0.4c-1.7,1.4-3.3,2.8-5,4.2l-0.4-0.4C193.7,71.4,195.4,70.1,197.1,68.7z M179.1,86.6
			c1,0.4,0.8,1.3,0.9,1.9c0,0.2-0.4,0.4-0.9,0.7V86.6z M200.5,41.5c0.4,0.3,0.8,0.6,1.2,0.9c-0.1,0.2-0.3,0.3-0.4,0.5
			c-0.4-0.3-0.8-0.6-1.2-0.9C200.2,42,200.4,41.6,200.5,41.5z M192.4,31.3c1.3,0.1,2.6,0.2,3.9,0.3c0,0.1,0,0.2,0,0.4
			c-1.2,0.2-2.4,0.4-3.6,0.6c-0.2,0-0.4-0.6-0.6-0.9C192.3,31.5,192.3,31.4,192.4,31.3z M193.1,36.5c-0.6-0.3-1.3-0.6-2.1-1
			C192.4,35.1,192.8,35.2,193.1,36.5z M189.2,28c0,0.2,0.1,0.4,0.1,0.6c-0.7,0.2-1.4,0.3-2.1,0.5c0-0.2-0.1-0.5-0.1-0.7
			C187.7,28.2,188.4,28.1,189.2,28z M185.7,46.3c0.2,0,0.4,0,0.6,0c0,0.6,0,1.1,0,1.7c0,0.1-0.6,0-0.8,0.1
			C185.6,47.5,185.6,46.9,185.7,46.3z M166,57.6c0.1-0.2,0.4-0.4,0.7-0.5c0.1,0.2,0.3,0.4,0.4,0.6c0.2,1.1-0.1,1.4-1.3,1.5
			C165.8,58.6,165.8,58.1,166,57.6z M100.8,85.7c-0.1-0.2-0.1-0.4-0.2-0.6c1-0.3,1.9-0.6,2.9-1c0.1,0.1,0.1,0.3,0.2,0.4
			C102.7,84.9,101.7,85.3,100.8,85.7z M106.6,83.3c2.4-1.3,5.1-1.4,7.7-1C111.8,82.6,109.2,83,106.6,83.3z M121,85.6
			c1,0.4,1.7,0.9,1.7,2.2c-1.9-1.2-3.7-2.4-5.6-3.6c0-0.1,0-0.2,0-0.3c0.5,0.2,1.1,0.4,1.6,0.6C119.5,84.9,120.2,85.3,121,85.6z
			 M130.2,70.3c-1.5,2-3.1,3.9-4.4,6c-0.8,1.3-1.5,2.7-2,4.1c-0.3,0.9-0.7,1.2-1.4,0.9c-1-0.4-1.5,0-2.1,0.8
			c-0.3,0.4-0.9,0.5-1.5,0.9c0.6-1.7,1.4-2.4,2.9-2.4c1.1,0,1.5-0.2,1.3-1.5c-0.1-0.7,0.3-1.6,0.8-2.1c1.7-1.7,2.7-3.6,3.2-5.9
			c0.4-1.9,2.1-2.2,4-2.8C130.6,69.3,130.5,69.8,130.2,70.3z M132.3,67.1c-0.3,0.2-0.7,0-1.1,0c0-0.2-0.1-0.3-0.1-0.5
			c0.5-0.3,1-0.5,1.5-0.8c0.1,0.1,0.2,0.2,0.3,0.3C132.7,66.5,132.6,66.9,132.3,67.1z M133.3,65c-0.2-0.3-0.5-0.5-0.7-0.8
			c0.5-0.3,1-0.5,1.4-0.8c0.1,0.2,0.3,0.4,0.4,0.5C134,64.3,133.6,64.6,133.3,65z M137.8,54.2c-0.1-0.1-0.1-0.3-0.2-0.4
			c1.2-0.5,2.3-0.9,3.5-1.4c0,0.1,0.1,0.2,0.1,0.4C140.1,53.2,138.9,53.7,137.8,54.2z M129.7,89.8c-0.1,0.1-0.2,0.1-0.3,0.2
			c-0.2-0.3-0.7-0.6-0.7-0.9c0-0.5-0.1-1.3,1-1V89.8z M112.6,110.3c-0.4-1.1-0.7-2.1-1.1-3.2l0.5-0.2c0.4,1.1,0.8,2.1,1.1,3.2
			C113,110.2,112.8,110.2,112.6,110.3z M118.3,124.8c-0.1,0-0.2,0.1-0.4,0.1c-0.7-2.6-1.4-5.1-2.2-7.8c1.5,0.1,1.9,0.7,1.5,1.8
			c-0.3,0.8-0.2,1.6,0.4,2.3C118.5,122.3,118.8,123.6,118.3,124.8z M101.3,142.8c0.9-0.4,1.4-0.1,1.9,0.4c1.6,1.8,3.3,3.6,4.9,5.4
			c0.1,0.1,0.2,0.2,0.2,0.4C105.2,147.8,103.6,145,101.3,142.8z M107.5,157.9c0.8-0.6,1.8-1,1.1-2.3c0.9-0.8,0.5-1.8,0.4-2.7
			c0-0.1,0.8-0.6,0.8-0.5c0.4,0.4,1,0.8,1.1,1.3C111.1,155.4,109.3,157.6,107.5,157.9z M109.8,150.5c1.3-0.5,1.7-0.3,2.8,1.5
			C111.5,151.4,110.7,150.9,109.8,150.5z M113.3,143.2c-0.8-0.4-1.7-0.9-2.5-1.3l0.3-0.5c0.8,0.4,1.7,0.9,2.5,1.3
			C113.5,142.8,113.4,143,113.3,143.2z M117,58.9c-0.9,2.2-2.6,2.6-4.2,3.1C113.9,60.8,114.8,59.2,117,58.9z M78,80.1
			c0,0.2,0.1,0.3,0.1,0.5c-1,0.4-2,0.8-3,1.2c-0.1-0.1-0.1-0.3-0.2-0.4C76,80.9,77,80.5,78,80.1z M59.8,25.2c0-0.2,0-0.4-0.1-0.6
			c0.7-0.1,1.5-0.1,2.2-0.2c0,0.2,0.1,0.4,0.1,0.6C61.3,25.1,60.6,25.1,59.8,25.2z M64.1,33.4c1.2-1.7,2.9-2,3.8-0.4
			C66.5,33.2,65.4,33.3,64.1,33.4z M18.9,31.4c-0.4,0.3-0.9,0.2-1.4,0.4l-0.2-0.4l1.7-1.3c0.1,0.1,0.3,0.2,0.4,0.2
			C19.3,30.6,19.3,31.1,18.9,31.4z M20.5,14.6c0.2-1.2,2.2-4.1,2.9-4.2C23.5,12.2,22.4,13.9,20.5,14.6z M-11.7,50.2
			c2.4-0.4,5.4,2.2,5.8,4.7C-8.2,53.7-8.8,50.7-11.7,50.2z M-0.2,60.3c-0.4,0-0.8-0.1-1.1-0.2c-1.4-0.7-2.3-1.8-2.9-3.2
			c0.1-0.1,0.2-0.2,0.3-0.3c0.4,0.5,0.8,1.1,1.3,1.5s1.1,0.7,1.7,1c0.3,0.2,0.7,0.4,0.9,0.7C0.1,59.8-0.1,60.3-0.2,60.3z M3.4,80
			c-0.4-0.6-0.8-1.2-1.3-2c1.2,0.1,1.2,0.1,1.6,1.8C3.6,79.9,3.5,80,3.4,80z M-1.8,156.8c0,2.1,0,4.2,0.1,6.3c0,1.6,0.5,3,1.7,4.2
			c-0.1,0.1-0.2,0.2-0.4,0.3c-0.4-0.5-1-0.9-1.1-1.4c-0.6-2.5-1.2-4.9-1.7-7.4c-0.2-1.3,0.3-2.4,1.3-3.4
			C-1.8,155.9-1.8,156.3-1.8,156.8z M-3.2,153c0.2-0.4,0.4-0.9,0.6-1.3l0.6,0.2c-0.1,0.5-0.3,1-0.4,1.4C-2.7,153.3-3,153.1-3.2,153z
			 M-8,141.2c-0.5-1.1,0.1-1.7,0.8-2.4c0.3-0.3,0.6-0.5,0.9-0.8c0.8-0.9,0.8-1.7-0.1-2.6c-0.8-0.9-1.5-0.6-2.3,0
			c-1.2,1-2.4,1.8-3.8,2.9c0.2-0.4,0.2-0.8,0.4-1c1-1.1,2-2.1,3.1-3.2c0.4-0.4,0.9-0.9,1.1-1.4c0.2-0.4,0.1-0.9,0.1-1.3
			c-0.4,0.1-0.9,0.1-1.3,0.2c-0.3,0.1-0.6,0.4-1,0.6c-0.1-0.1-0.2-0.2-0.2-0.3c0.5-0.5,1.1-1,1.6-1.5c-0.1-0.1-0.2-0.2-0.3-0.3
			c-0.2,0.1-0.5,0.2-0.6,0.3c-0.8-1.7-1.6-3.3-4.1-2c0.3-0.5,0.4-1.1,0.8-1.4c0.3-0.2,1-0.1,1.4,0.1c4.1,2.3,6.6,5.7,7.3,10.5
			c0.4,3.1,1.3,6.1,1.9,9.1c0.2,1.1,0.2,2.2,0.2,3.4h-2.1c0.1-0.4,0.3-0.8,0.2-1.1c-0.1-0.5-0.2-1.1-0.5-1.3c-0.6-0.4-1,0.1-1.2,0.7
			c-0.3,0.6-0.6,1.3-1,1.8c-0.1,0.2-0.5,0.2-0.8,0.3c0-0.3,0-0.6,0-0.8c0-0.4-0.1-0.8-0.1-1.3c-0.5,0-1.1,0-1.6,0.2
			c-0.5,0.3-0.9,0.8-1.4,1.2c-0.1-0.1-0.2-0.2-0.2-0.3c0.6-0.5,1.2-1.1,1.8-1.6c0.9-0.8,2.1-1.4,1.6-3c-0.1-0.2,0.5-0.7,0.8-1
			c0.4-0.4,1.3-0.4,0.9-1.2c-0.5-0.9-1.1-0.3-1.6,0c-2.2,1.4-4.3,2.9-6.7,4.3c0.3-0.3,0.5-0.7,0.8-0.9c1.6-1.3,3.3-2.5,4.9-3.9
			C-8.1,142.2-7.9,141.5-8,141.2z M-8.2,108.5c-0.1,1.6-0.6,1.9-1.7,1.3c-0.4-0.2-0.9-0.4-1.6-0.7C-10.3,108.9-9.3,108.7-8.2,108.5z
			 M-6.5,112.5c-0.4,0.3-0.6,0.6-0.9,0.6c-1.2,0.2-2.1,0.7-2.9,1.8c-0.3,0.4-1.4,0.3-2.1,0.3C-11.1,113.4-8.5,112.2-6.5,112.5z
			 M-10.1,101.9c0.4-0.5,0.9-1,1.3-1.4l0.5,0.2c-0.1,0.7-0.1,1.3-0.4,1.9c0,0.1-0.9-0.1-1.4-0.2C-10.1,102.2-10.1,102.1-10.1,101.9z
			 M-11.9,94.3c-1,1.9-2.4,3-3.7,4.6C-15.4,96.6-14.2,95.1-11.9,94.3z M-18.6,173.3c0.1,0.1,0.1,0.2,0.2,0.3c-1.5,1.1-2.7,2.5-4.6,3
			c-0.1-0.1-0.1-0.2-0.2-0.3C-21.6,175.3-20.1,174.3-18.6,173.3z M-36.3,114.8c-0.3,0-0.8-0.6-0.7-0.7c0.2-0.4,0.6-0.7,0.9-1
			c0.2,0.2,0.4,0.5,0.8,0.9C-35.7,114.4-36,114.8-36.3,114.8z M-67.4,140.9c1.6,0.4,3.4,2.4,3.4,4.1
			C-66.1,144.7-67.3,143.2-67.4,140.9z M-59.2,138.3c1-0.4,2.6,1.7,3,4.2C-57.4,140.9-58.3,139.6-59.2,138.3z M-53.4,161.5
			c0.4-0.3,0.9-0.7,1.1-1.2c0.3-0.9,0.7-0.7,1.4-0.2c-2.2,1.8-4,4-6.6,5.1c-0.1-0.1-0.2-0.2-0.2-0.3
			C-56.2,163.8-54.8,162.7-53.4,161.5z M-58.5,173.4c-1.9,0.3-3.2-0.7-4.8-1.8C-58.5,171.9-58.4,171.9-58.5,173.4z M-58.1,180.7
			c0-0.1,0-0.2,0-0.3h3.9c0,0.1,0,0.2,0,0.3H-58.1z M-55.6,173.7c0-0.2,0-0.3,0-0.5c1,0,1.9-0.1,2.9,0c0.3,0,0.7,0.2,1,0.2
			c1-0.1,1.5,0.4,1.7,1.4C-51.9,174.4-53.8,174.1-55.6,173.7z M-52.7,136.1c1.5,1.1,2.8,4.1,2.7,6.5
			C-50.8,140.5-51.7,138.5-52.7,136.1z M-40,162.3c3.8-1.6,7.6-3.2,11.2-4.8c-0.5,2.2-1,4.4-1.5,6.6c-0.2,1.1-1.1,1.6-2.2,1.3
			c-2.5-0.9-5-1.8-7.6-2.8C-40,162.6-40,162.5-40,162.3z M-47.5,151c1.2,0.4,2.4,0.9,3.7,1.3c-1.6,0.7-2.5-0.8-3.8-1
			C-47.6,151.2-47.5,151.1-47.5,151z M-38.8,165.1c-0.5,1.3-7.4,6.1-8.5,5.9C-45.7,168.8-40.1,164.9-38.8,165.1z M-45.5,176.3
			c0.9-0.8,1.8-0.5,2.7-0.1c1.1,0.5,1.9,0.3,2.7-0.5c1.1-1,1.4-0.9,2.4,0.1s1.7,2.2,3.5,1.9c0.1,0,0.3,0.3,0.4,0.5
			C-36.5,179.5-44.2,178.2-45.5,176.3z M-44.2,180.5c0.2-0.9,0.7-1.4,1.6-1.3c2.9,0.1,5.8,0.3,8.7,0.5c0.9,0.1,1.7,0.4,2.6,0.9
			L-44.2,180.5L-44.2,180.5z M5.7,176.8c1.2-0.9,5.7-1.1,8.3,0H5.7z M16.7,180.8c0.8-0.8,2.1-0.8,3.7,0H16.7z M7.8,61.9
			c1.5,1.3,1.9,3.4,3.9,4.3c-0.3,0.1-0.8,0.3-0.9,0.2C9.6,65.1,8.2,63.9,7.8,61.9z M13.4,91.6c-1-1.1-2-2.2-3-3.3
			c0.1-0.1,0.2-0.2,0.3-0.3c1.5,0.6,2.5,1.7,3,3.3C13.6,91.5,13.5,91.6,13.4,91.6z M12.6,69.1c0.1-0.1,0.2-0.2,0.3-0.3
			c3.1,2.1,6.1,4.5,8.3,7.6c-0.1,0.1-0.2,0.2-0.3,0.3C18.1,74.1,15.3,71.6,12.6,69.1z M22.6,81.8c-1.3-0.7-2.7-1.4-3.9-2.3
			c-0.6-0.5-0.8-1.5-1.2-2.2c0.1-0.1,0.2-0.1,0.2-0.2c1.8,1.3,3.6,2.6,5.4,4c0.2,0.1,0.1,0.5,0.2,0.7C23.1,81.7,22.8,81.9,22.6,81.8
			z M24.7,172.2c0.8-1.7,1.5-3.2,2.4-4.9c0.2,0.4,0.4,0.6,0.3,0.8C26.7,170.1,25.6,171.8,24.7,172.2z M27.3,63.3
			c-0.8-1.6-0.5-3,0.9-4.3C27.9,60.4,27.6,61.8,27.3,63.3z M24.5,17.7c0.6-0.5,1.2-1.1,1.9-1.6C26.4,17.3,26,17.7,24.5,17.7z
			 M26.9,13c-0.2,0.3-0.6,0.6-0.9,0.6c-0.4,0-1-0.3-1.1-0.6c-0.1-0.5-0.1-1.3,0.2-1.7c1-1.1,2.1-2,3.2-3c0.4-0.3,0.9-0.4,1.3-0.6
			c0.1,0.1,0.2,0.2,0.3,0.3c-0.3,0.5-0.5,1-0.9,1.5C28.5,10.8,27.7,11.9,26.9,13z M41.7,109.8c-0.3,1-0.6,2-1,3
			c-0.1,0.2-0.6,0.4-0.8,0.3c-0.5-0.2-1.4-0.5-1.5-0.9c-0.2-1.3-1.1-1.4-2.1-1.4c-1.4,0-2.8,0-4.3,0c0.2-0.4,0.4-0.7,0.6-1
			c-0.3-0.3-0.5-0.6-0.9-1c0.2-0.2,0.4-0.4,0.7-0.5c0.2,0.1,0.3,0.2,0.3,0.3c0.6,1.4,0.7,1.4,1.9,0.5c1-0.8,2-1.5,3.1-2.3
			c0.1,0.1,0.2,0.2,0.3,0.3c-0.3,0.3-0.8,0.5-1,0.8s-0.3,0.8-0.5,1.1c0.4,0,1,0.2,1.3,0c1-0.6,3-0.7,3.8,0
			C41.7,109.1,41.7,109.6,41.7,109.8z M35.4,100.5c-0.1-0.1-0.2-0.2-0.3-0.3c2.2-1.9,4.4-3.7,6.6-5.6c0.1,0.1,0.2,0.3,0.3,0.4
			C40,97.1,37.8,99,35.4,100.5z M32.8,99.5l-0.4-0.4c3.9-3.4,7.7-6.8,11.6-10.2c0.1,0.1,0.2,0.3,0.3,0.4
			C40.9,93.2,37.1,96.6,32.8,99.5z M41.2,88.3l0.3,0.3c-2.5,3-5.4,5.4-8.4,7.8c-0.1-0.1-0.2-0.2-0.2-0.3
			C35.6,93.4,38.4,90.8,41.2,88.3z M33.1,91.4c1.8-2,3.6-4,5.7-6.3C38.2,87.3,35.4,90.4,33.1,91.4z M49.9,92.2
			c-0.6,4.2-1.3,8.3-1.9,12.5c-0.1,0.7-0.2,1.5-0.3,2.2c-0.2,1.5-0.3,1.6-2.2,1.3c1.2-1.2,1.4-2.5,0.9-4c-0.1-0.3-0.4-0.8-0.6-0.9
			c-1.3-0.2-1.2-1.1-1-1.9c0.2-0.6,0.6-1.2,0.9-1.7s0.4-1.1,0.7-1.6c0.2-0.5,0.5-0.9,0.9-1.3c0.7-0.7,1.5-1.2,0.6-2.2
			c-0.1-0.1-0.1-0.3-0.1-0.3c0.5-1-0.2-1.4-0.9-1.8c0.5-0.6,1.1-1.2,1.5-1.8c0.2-0.2,0.3-0.8,0.2-0.9c-0.3-0.2-0.8-0.4-1.1-0.3
			c-0.7,0.2-1.4,0.6-2.2,0.7c1.2-1.1,2.2-2.3,3.5-3.3c0.9-0.7,1.1,0.2,1.2,0.8C50,89.2,50.1,90.7,49.9,92.2z M49.4,73.5
			c-0.6,2.1-0.9,4.2,0.1,6.3c0.3,0.7,0.4,1.6,0.4,2.5c0.1,1.9-1.1,3-3.6,3.1c0.3-0.3,0.5-0.5,0.7-0.8c0.2-0.4,0.3-0.8,0.5-1.2
			c-0.4-0.1-0.9-0.4-1.3-0.4c-0.5,0-1,0.3-1.7,0.5c1-1.2,1.8-2.1,2.6-3.2c-1.2-1.2-2,0.3-3.1,0.3c-0.1-1.1,0.3-1.9,1.1-2.6
			c0.7-0.7,1.2-1.5,2-2.3c-0.7-0.3-1.1-0.5-1.5-0.7c-0.3-1,2.4-2.2-0.4-3.2c1.5-1.5,2.8-2.9,4.3-4.5C50.4,69.6,50,71.6,49.4,73.5z
			 M41.5,70.3c-0.1,0.1-0.3,0.2-0.4,0.3c-0.1,0-0.1,0-0.6,0c2.7-3.2,5.3-6.2,8-9.3c0.4,1.5,0.7,2.8,1,4.1c0,0.2-0.3,0.8-0.5,0.8
			C45.7,66.1,43.8,68.5,41.5,70.3z M47.8,48c1.9,3.7,2.4,7.6,1,11.7c-0.1,0.3-0.5,0.4-0.8,0.6c-0.8,0.4-1.7,0.6-2.4,1.2
			c-1.3,1.1-2.4,2.4-3.6,3.7c-0.1-0.1-0.2-0.1-0.3-0.2c0.1-0.2,0.2-0.4,0.3-0.6c1.5-1.8,3.1-3.7,4.7-5.5c1-1.1,1-1.1-0.5-1.6
			c-0.1,0-0.2-0.1-0.1,0c0-0.7,0.2-1.5,0-1.7c-0.8-0.7-1.3,0.1-1.7,0.6c-1.5,1.6-3,3.3-4.5,4.9c-0.2,0.2-0.5,0.3-0.8,0.5
			c-0.1-0.1-0.2-0.2-0.2-0.3c1.5-1.8,3-3.5,4.6-5.3c0.6-0.6,1.2-1.2,1.7-1.8c1.1-1.2,1.1-1.8-0.5-2.6c0.5-0.5,1-0.9,1.3-1.4
			c0.2-0.4,0.4-0.9,0.2-1.3c-0.3-0.6-0.3-1.2,0.3-1.4C46.9,47.2,47.6,47.6,47.8,48z M40.1,73c0.1,0.1,0.2,0.3,0.4,0.4
			c-0.7,0.7-1.4,1.4-2.1,2.1c-0.1-0.1-0.3-0.3-0.4-0.4C38.6,74.4,39.3,73.7,40.1,73z M36.6,72.8c-0.1-0.1-0.2-0.1-0.2-0.2
			s0-0.2,0.1-0.3c0.8-0.8,1.6-1.6,2.4-2.4c0.1,0.1,0.2,0.2,0.3,0.2C38.3,71,37.5,71.9,36.6,72.8z M42.9,35.8
			c0.8-0.3,1.4-0.8,2.5-1.4c0.4,4,0.8,7.7,1.1,11.3c-0.8,0.4-1.6,0.8-2.3,1.2c-0.7,0.5-1.4,1.1-2.1,1.7l-0.4-0.3
			c0.7-1,1.3-2.1,2.1-3.1c0.6-0.8,1.1-1.4,0.1-2.2c-0.2-0.2-0.3-0.7-0.2-1c0.1-0.9,0.3-1.9,0.4-2.8c0.1-0.4,0.3-0.8,0.4-1.2
			c0-0.4-0.1-0.8-0.1-1.2c-0.4,0.1-0.9,0-1.2,0.2c-0.5,0.4-0.9,1-1.3,1.5C41.2,36.4,41.2,36.5,42.9,35.8z M40.9,31.2
			c-0.6-1.4-1.2-2.8-1.8-4.2C40.2,26.8,40.9,28.3,40.9,31.2z M39.6,43.1l0.4,0.3c0,1.2-0.9,1.6-1.7,2.2c-0.1-0.1-0.2-0.2-0.3-0.3
			C38.5,44.5,39,43.8,39.6,43.1z M40.7,51.6c0.2,0.1,0.3,0.3,0.5,0.4c-1.4,1.7-2.8,3.4-4.3,5.1c-0.2-0.2-0.4-0.4-0.6-0.5
			C37.8,54.9,39.3,53.3,40.7,51.6z M37.5,18.2c-0.4,1.2-2,1.6-3.4,1C34.9,17.6,36.4,18.5,37.5,18.2z M42.6,75.9
			c-3.1,3.9-6.3,7.7-10.2,10.9C33.6,84.1,39.9,77.4,42.6,75.9z M42.1,79.7c0.1,0.1,0.2,0.2,0.3,0.3c-4.4,4.3-8.7,8.7-13.1,13
			C30.4,90.5,40.5,80.2,42.1,79.7z M30.3,173c-0.1-0.1-0.2-0.1-0.3-0.2c0.2-0.5,0.4-1,0.7-1.4c0.5-0.9,1.1-1.7,1.6-2.7
			c0.4-0.7,0.9-1.3,0.1-2.1c-0.3-0.3,0.1-1.2,0.2-1.9c-0.4-0.2-0.8-0.3-1.2-0.5c0.3-0.6,0.6-1.2,0.9-1.8c0.3-0.7,0.9-1.4,0-2.1
			c-0.2-0.1-0.1-0.6,0-0.9c0.2-1.2,0.5-2.3,0.6-3.5c0.1-0.6,0.1-1.4-0.3-1.9c-0.9-1.2-0.5-2.3-0.3-3.5c0.1-0.3,0.2-0.9,0-1
			c-1.3-1.4-0.3-2.8-0.3-4.2c0-0.7,0.2-1.4,0.4-2.1c0.1-0.9,0.4-1.7-0.9-2.2c-0.8-0.3-0.5-1.2-0.3-1.9c1.7-4.7,3.3-9.5,4.9-14.2
			c0.2-0.6,0.3-1.2,0.3-1.8c0-0.4-0.1-1-0.3-1.1c-0.3-0.1-0.8,0.1-1.2,0.2c-0.2,0.1-0.4,0.3-0.6,0.3c1.2-3,3.1-5.4,5.5-7.5
			c-0.3,1.3-0.6,2.6-0.9,3.9c-0.7,3.2-1.4,6.4-2.2,9.5c-0.3,1.2-1.1,2.2-1.6,3.3c-0.3,0.6-0.6,1.2-0.7,1.9c-0.1,0.3,0.3,0.8,0.5,1
			c0.9,0.3,0.9,0.8,0.5,1.6c-0.5,0.9-0.7,2-1.4,2.7c-1.1,1.1-1.1,1.8,0,2.7c0.2,0.1,0.1,0.6,0,0.9c-0.1,3.8,0,7.6,0.9,11.4
			c0.2,1.1,0.1,2.4,0,3.6c-0.3,2.7-0.3,5.3,0.6,7.9c0.4,1.2,0.5,2.5,0.6,3.8c0,0.2-0.3,0.6-0.6,0.8c-0.2,0.2-0.5,0.1-0.8,0.2
			c-1.1,0.5-2.6,0.6-3.1,2C31.4,172.5,30.7,172.7,30.3,173z M35.4,179.7c-0.7-1.7-1.1-3.6-3.4-3.8C34.3,175.6,35.8,177.3,35.4,179.7
			z M52.7,167.9c0.1-1.5-0.3-2.8,0.5-4.2C53.9,165,53.7,166.8,52.7,167.9z M55.5,79.3c-1-1.6-1-3.4-0.6-5.2c0.1,0,0.2,0,0.4-0.1
			c0.2,1.7,0.5,3.4,0.7,5.1C55.8,79.2,55.7,79.2,55.5,79.3z M56.4,61.8c-0.1,0.3-0.7,0.5-1,0.7l-0.2-0.4c0.2-0.6,0.4-1.3,0.7-1.9
			c0.1-0.2,0.5-0.2,0.8-0.3C56.5,60.6,56.6,61.3,56.4,61.8z M74.4,81.8c-0.5,0.8-1.1,1-1.7,0.7c-0.3-0.1-0.4-0.8-0.4-1.2
			c0-0.4,0.1-0.9,0.2-1.3c0.1,0,0.2,0,0.4,0c0.1,0.6,0.2,1.2,0.3,1.9L74.4,81.8L74.4,81.8z M75.2,63.2l-0.6,0.4
			c-0.4-0.6-0.7-1.2-1.1-1.8c-0.1-0.2-0.2-0.5-0.4-0.6c-1.3-1-1.5-1.5-1.1-3.3L75.2,63.2z M71,53.7c0.4-0.9,0.8-1.7,1.3-2.5
			c0.1,0,0.2,0,0.4,0.1c-0.3,1.7-0.5,3.3-0.8,4.9c0,0.1-0.5,0.3-0.6,0.2c-0.3-0.2-0.6-0.6-0.6-0.9C70.5,54.9,70.7,54.3,71,53.7z
			 M67.9,120.1c0.1,0.1,0.2,0.2,0.3,0.2c-0.1,1.1-0.7,1.7-1.9,2C66.9,121.6,67.4,120.9,67.9,120.1z M68.3,126.7
			c0.1,0.1,0.2,0.1,0.2,0.2c-0.8,0.9-1.5,1.7-2.5,2.8C66.2,128.2,66.8,127.6,68.3,126.7z M64.4,143c0.1,0,0.3,0,0.4,0.1
			c-0.1,1.8-0.2,3.7-0.3,5.5c-0.2,2.7-0.4,5.5-0.6,8.2c0,0.4-0.3,0.9-0.5,1.3c-0.5-0.2-1-0.5-1.5-0.7c0-0.1,0.1-0.3,0.1-0.4
			c0.2,0,0.5-0.1,0.7-0.2c0.3-0.1,0.6-0.3,0.6-0.5s-0.2-0.6-0.5-0.7c-0.6-0.3-1.1-0.5-0.8-1.4c0.1-0.2-0.6-0.7-1.1-1.2
			c0.2-0.3,0.5-0.7,0.6-1.1c0.4-1,0.8-2,1.3-3c0.2-0.5,0.5-0.9,0.6-1.4c0.2-1.1,0.3-2.1,0.5-3.2C64.2,143.8,64.3,143.4,64.4,143z
			 M64.3,161.4c-0.5,0.4-0.8,0.9-1.1,1c-0.4,0-0.7-0.4-1.1-0.7c0.5-0.6,0.9-1.1,1.4-1.7C63.7,160.4,63.9,160.8,64.3,161.4z
			 M63.7,122.8c0.1,0.1,0.3,0.2,0.4,0.3l-2,2.7c-0.1-0.1-0.2-0.2-0.3-0.2C62.4,124.6,63,123.7,63.7,122.8z M62.8,64.5
			c-0.3,1.4-0.9,2.6-2.5,3C61.2,66.4,62,65.4,62.8,64.5z M58.2,174.8c-0.2-0.2-0.5-0.3-0.5-0.5c0-0.6,0.1-1.3,0.1-2
			c0.1,0,0.2,0,0.4,0c0.1,0.6,0.3,1.3,0.3,1.9C58.6,174.5,58.4,174.6,58.2,174.8z M72.9,179.3c0.9,0.2,1.7,0.3,2.5,0.4
			C74.2,180.9,73.2,180.7,72.9,179.3z M78.2,177.1c-0.2,1.1-0.1,2.3-0.2,3.5c-0.8,0.2-1.5,0.1-1.6-0.9c-0.1-0.9-0.6-1.1-1.4-1.2
			c-0.7-0.1-1.4-0.1-2.2-0.1c-2.2-0.1-4.3-0.3-6.3-1.6c-0.9-0.6-2.2-0.8-3.3-1c-2.6-0.5-4-1.6-4.3-3.6c0-0.2-0.1-0.5-0.1-0.7
			c0.3-2.4,0.5-4.8,0.8-7.2c0.2-1.2,0.7-1.5,1.9-1.2c0.1,0,0.2,0,0.2,0.1c2.8,1.3,2.5,0.5,2.7-2c0.3-6.3,0.7-12.5,1-18.8
			c0.2,0,0.4,0,0.5-0.1c0.2,0.6,0.4,1.1,0.6,1.7c0.7,3.2,1.4,6.4,1.9,9.6c0.4,2.8,0.7,5.6,0.9,8.4c0.1,0.9,0.6,1.1,1.3,1
			c2.4-0.6,3.6,0.6,4.7,2.5c1.2,2.1,2.1,4.2,2.7,6.6C78.6,173.9,78.6,175.4,78.2,177.1z M81.2,161.9c-0.2-0.1-0.3-0.1-0.5-0.2
			c-0.2-1.1-0.5-2.2-0.6-3.4c-0.2-1.5-0.3-2.9-1.9-3.5c-0.2-0.1-0.3-0.7-0.1-1c0.2-0.5,0.6-0.9,0.8-1.4c0.1-0.3,0.1-0.8,0-0.9
			c-0.3-0.2-0.8-0.3-1-0.1c-0.7,0.5-1.4,1.1-2.1,1.7l-0.3-0.2c1-1.5,2-3.1,3.1-4.5c1.2-1.5,1.2-1.5-0.7-2.5c0.7-0.9,1.4-1.7,2.1-2.6
			c0.3-0.4,0.7-1,0.7-1.4c-0.1-0.4-0.7-0.7-1.2-1c0.3-0.5,0.8-1.1,1.1-1.8c0.1-0.3,0-0.8,0-1.2c-0.3,0.1-0.8,0-1,0.2
			c-0.6,0.5-1.1,1.1-1.6,1.7c-0.3,0.4-0.6,0.9-0.8,1.4c-0.2-0.2-0.4-0.4-0.6-0.6c0.7-0.9,1.4-1.9,2.1-2.8c0.4-0.5,0.8-0.9,1.1-1.4
			c0.2-0.4,0.1-1.2-0.1-1.3c-0.4-0.2-1.1-0.3-1.5-0.1c-0.6,0.4-1.1,1.1-1.7,1.7c-0.4,0.5-0.8,0.9-1.3,1.4c-0.1-0.1-0.2-0.1-0.3-0.2
			c0.1-0.3,0.3-0.6,0.4-0.8c1.5-1.8,2.9-3.6,4.4-5.4c0.2-0.3,0.1-0.8,0.1-1.2c-0.4,0-1-0.1-1.3,0.1c-0.6,0.6-1.1,1.3-1.7,2
			c-0.1-0.1-0.3-0.3-0.4-0.4c0.2-0.4,0.4-0.8,0.7-1c0.8-0.8,1.1-1.5-0.1-2c0.1-0.9,2-1.2,0.7-2.3c-0.7-0.6-1.5-0.9-2.7-1.6
			c0.8-0.7,1.7-1.4,2.5-2.1c0.3-0.3,0.3-0.8,0.4-1.2c-0.5,0-1.1-0.2-1.5,0c-0.6,0.2-1.1,0.7-1.7,1.1c-0.1-0.1-0.3-0.2-0.4-0.3
			c0.3-0.6,0.5-1.2,0.8-1.8c0.1-0.2,0.3-0.3,0.4-0.4c0.6-0.6,1.7-1.1,1.1-2.1c-0.3-0.5-1.3-0.5-2.1-0.7c0,0,0-0.4,0.2-0.5
			c2-1.5,0-2.9,0.1-4.4c-0.1,0-0.3-0.1-0.4-0.1c-0.7,1.4-1.5,2.9-2.2,4.3c-0.1,0-0.3-0.1-0.4-0.1c0.2-1,0.4-2,0.7-3
			c0.6-1.8,1.4-3.5,2-5.2c0.1-0.4,0-0.9-0.1-1.6c-1.4,1.1-2.1,2.7-4,1.9c0.3-0.4,0.6-0.8,1.1-1.4c-0.6-0.3-1.1-0.6-1.9-1.1
			c0.6-0.4,1.1-0.7,1.6-1s1.1-0.5,0.6-1.1c-0.7-0.9-0.2-1.5,0.4-2.2c0.2-0.2,0.4-0.4,0.6-0.6c0.3-0.4,0.5-0.7,0.7-1.1
			c-0.4-0.2-0.9-0.4-1.3-0.6c-0.1,0-0.2-0.1-0.5-0.1c0.3-0.4,0.6-0.6,0.8-1c0.3-0.6,0.8-1.1-0.1-1.7c-0.2-0.1-0.3-0.9-0.1-1.1
			c0.6-1.1,0.4-1.9-0.4-2.7c-0.6-0.6-0.7-1.3-0.2-2c0.4-0.5,0.6-0.5,1.1,0c1.7,2.3,2,4.9,1.5,7.5c-0.6,3,0,5.7,1.1,8.5
			c1.3,3.6,2.3,7.3,3.2,11c1.3,5.2,2.4,10.4,3.4,15.6c0.4,1.9,0.9,4,0.4,5.7c-0.9,3.3,0,6.2,0.6,9.2c0.6,3.2,1.2,6.5,1.8,9.8
			c0.2,1-0.2,1.5-1.2,1.6C82.4,159.9,81.4,160.4,81.2,161.9z M82.5,171.2v-2.7C83.8,170.3,83.8,170.7,82.5,171.2z M151.3,158.4
			c-0.5,0.4-0.9,0.9-1.4,1.3c-0.1-0.1-0.2-0.2-0.3-0.3c1.1-2.5,3.6-3.6,5.2-5.7c0.3,1.3-0.7,2.9-1.6,3.3
			C152.4,157.3,151.9,157.9,151.3,158.4z M152,124.8c0.1,0.1,0.6,0,0.9-0.1c0.4-0.2,0.7-0.4,1.2-0.5c-0.6,1.1-1.3,2.2-1.9,3.3
			c-1.9-1.5-2.1-3.5-0.6-5.1c0.4-0.4,0.8-0.9,1.1-1.4c0.1,0.1,0.2,0.1,0.3,0.2c-0.3,0.5-0.6,1.1-0.9,1.6c-0.2,0.3-0.5,0.6-0.5,0.9
			C151.6,124.1,151.8,124.6,152,124.8z M155.4,131c-0.6-0.8-1.1-1.4-1.7-2.1C155,128.7,155.7,129.6,155.4,131z M153.8,160
			c-0.4-0.1-0.7-0.5-1.1-0.8c0.4-0.4,0.8-0.8,1.2-1.2c0.3,0.3,0.6,0.7,1,1.3C154.4,159.6,154,160,153.8,160z M158.1,148.5
			c-1.6-0.8-1.6-1-0.3-2c1-0.7,1.9-1.4,3.1-2.3C160.5,146.1,159.1,147.1,158.1,148.5z M162.7,119.5c0.4,1.3,1,2.4,1.3,3.7
			c0.4,2,1.1,3.7,2.4,5.3c1.3,1.6,1.6,3.3,1.2,5.4c-0.5,2.9-1.7,5.4-3.8,7.4c-0.4,0.4-1.1,0.8-1.6,0.7c-0.8-0.2-1.3,0.1-1.8,0.5
			c-1.2,1-2.5,2-3.8,2.9c0.8-1.6,2.2-2.6,3.6-3.6c1.4-1,2.8-1.9,4.3-2.8c-0.4-0.8-0.9-1-1.6-0.6c-0.7,0.4-1.4,0.9-2,1.4
			c-0.8,0.6-1.6,1.2-2.4,1.8c-0.1-0.1-0.2-0.2-0.3-0.3c1-1.1,2-2.2,3-3.2c0.7-0.7,1.5-1.3,2.3-1.9c0.7-0.6,1.4-1.3,1.2-2.7
			c-0.7,0.4-1.3,0.7-1.7,1.1c-2,2-3.9,4-5.8,6c-0.6,0.6-1.5,1.1-2.2,1.6c-0.1-0.1-0.2-0.3-0.4-0.4c3.5-3.6,7-7.1,10.4-10.7
			c0.4-0.4,0.6-1,0.9-1.5c-0.6,0-1.4-0.2-1.8,0.1c-1.7,1.2-3.3,2.5-4.9,3.8c-0.3,0.2-0.6,0.5-0.8,0.8c-0.1-0.1-0.2-0.1-0.3-0.2
			c0.3-0.7,0.6-1.5,1-2.2c1.3-2.1,2.7-4.2,4-6.2c0.2-0.4,0.5-0.7,0.7-1.1c-0.5-0.7-1-0.8-1.5-0.1c-0.7,1-1.4,1.9-2,2.9
			c-0.7,0.9-1.4,1.9-2,2.8c-0.1-0.1-0.2-0.1-0.3-0.2c0.6-1,1.1-2,1.7-3c0.7-1.2,1.5-2.4,2.2-3.7c0.2-0.3,0.2-0.9,0-1.2
			C161.1,120.7,161.1,120.4,162.7,119.5z M156.7,126.8c0.7-0.9,1.4-1.9,2.2-2.8c0.1,0.1,0.2,0.1,0.2,0.2c-0.5,1.1-0.7,2.4-2.1,2.9
			C156.9,126.9,156.8,126.9,156.7,126.8z M159.8,114.2c0.8,1.4,1.6,2.9,2.3,4.1c-0.6,0.5-1.3,0.9-1.8,1.5c-1.5,1.8-2.8,3.6-4.3,5.4
			c-0.3,0.4-0.8,0.6-1.3,0.8c1.2-3,3.3-5.5,5-8.2c-0.7-0.8-1.2-0.7-1.8,0c-0.2,0.3-0.7,0.5-1.1,0.7c-0.1-0.1-0.2-0.2-0.3-0.3
			c0.2-0.3,0.4-0.5,0.6-0.8c0.2-0.2,0.5-0.2,0.6-0.4c0.4-0.6,1.4-1.2,0.7-2.1c-0.5-0.7-1.5-0.6-2.4,0.1c-1.2,1-2.3,2-3.5,2.9
			c-0.3,0.3-0.7,0.4-1,0.7c-0.1-0.1-0.2-0.2-0.3-0.4c1.6-1.6,3.2-3.3,4.9-4.9c0.7-0.6,0.9-1.1,0-1.8c-1.9,1.3-3.2,3.5-5.5,4.1
			c-0.1-0.1-0.2-0.2-0.3-0.3c1.9-1.6,3.7-3.2,5.6-4.8c-0.3-0.6-0.8-0.8-1.4-0.4c-0.7,0.5-1.3,1-2,1.5c-0.8,0.5-1.6,1-2.3,1.6
			c-0.1-0.1-0.2-0.3-0.3-0.4c1-0.8,2-1.6,3-2.4c0.4-0.3,0.9-0.7,1.1-1.2c0.3-0.8-0.4-0.8-0.9-1c-0.1,0-0.3-0.3-0.2-0.4
			c0.2-1.1-0.7-1.2-1.4-1.3c0.8-1.7,2.5-2,3.5-0.4C156.7,108.8,158.2,111.5,159.8,114.2z M144.2,102.1c-0.1-0.1-0.1-0.2-0.2-0.3
			c1.5-1.3,2.9-2.9,4.9-3.5c0.1,0.1,0.1,0.2,0.2,0.4C147.5,99.7,145.8,100.9,144.2,102.1z M148.6,120c-1.7-1.3-2.9-3.4-2.8-5.5
			c1.2,1.6,2.3,2.9,3.2,4.2C149.2,119,148.8,119.6,148.6,120z M148.8,95.1c-0.1-0.1-0.2-0.3-0.3-0.4c1-0.9,1.6-2.1,3-2.5
			c0.1,0.1,0.2,0.2,0.3,0.4C150.8,93.5,149.8,94.3,148.8,95.1z M157.4,100.7c-0.3-0.3-0.5-0.6-0.8-0.9c0.4-0.2,0.8-0.4,1.1-0.6
			c0.1,0.1,0.3,0.3,0.4,0.4C157.9,100,157.6,100.3,157.4,100.7z M158.2,71c0.1,0.1,0.1,0.2,0.2,0.3c-1.5,1-2.9,2.4-4.9,2.3
			c0-0.1-0.1-0.3-0.1-0.4C155,72.5,156.6,71.8,158.2,71z M158.8,73.8c-1.1,2-3.1,2.3-4.6,3.2C155.6,75.8,156.7,74.3,158.8,73.8z
			 M155.3,78.7c0.2-0.1,0.5,0.2,0.7,0.4c0.1,0.1,0,0.6-0.2,0.6c-1.1,0.4-2.2,0.7-3.2,1c-0.1-0.2-0.1-0.3-0.2-0.5
			C153.3,79.7,154.3,79.2,155.3,78.7z M158.2,80.3c0.4-0.1,0.7-0.4,1-0.6c-0.4-0.3-0.7-0.7-1.1-0.9c-0.5-0.2-1-0.2-1.7-0.3
			c0.9-0.8,3.1-0.1,1.8-2.3c0.8-0.5,1.6-1,2.4-1.5c0.3-0.2,0.9-0.2,1.1,0c0.2,0.2,0.3,0.7,0.2,1c-0.4,2.6-0.9,5.1-1.3,7.6
			c-0.1,0.7-0.3,1.5-0.7,2c-1.4,1.9-1.5,4.1-1.7,6.3c-0.1,1.9-0.3,3.9-0.5,5.8c0,0.2-0.2,0.4-0.3,0.6c-0.2,0-0.3,0-0.3-0.1
			c-1.3-1.9-1.3-1.9-3.3-0.8c-0.3,0.1-0.6,0.3-0.9,0.4c-0.2,0.1-0.4,0.1-0.7,0.1c1.2-1.1,2.3-2.1,3.3-3.1c0.5-0.4,0.9-0.9,0.3-1.5
			c-0.5-0.6-1-0.4-1.6,0c-0.3,0.2-0.7,0.2-1.2,0.3c1.2-1.5,2.2-2.7,3.2-3.9c0.6-0.7,0.3-1.6-0.6-1.6c-0.8-0.1-1.6,0.1-2.4,0.2
			c-0.4,0-0.8,0.1-1.2,0.2c0-0.1-0.1-0.2-0.1-0.3c0.7-0.3,1.5-0.6,2.2-1c1.6-0.7,2-1.3,1.9-3.1c0-0.2,0.4-0.6,0.7-0.7
			c0.7-0.2,1.5-0.3,2.2-0.5c0.2,0,0.4-0.1,0.5-0.2c-0.6-1.1-1.2-1.2-2.4-0.9c-1.6,0.5-3.2,1-4.8,1.4c-0.4,0.1-0.9,0.2-1.4,0.2
			l-0.1-0.3C153.4,82.1,155.8,81.3,158.2,80.3z M150.7,74.9c-1.2,2.1-3.1,3.2-5.4,3.7C146.5,76.5,148.6,75.7,150.7,74.9z
			 M145.5,92.4c-0.1,1.7-3,3.6-4.4,3.2C142.5,94.6,143.9,93.6,145.5,92.4z M127,109.4c0.8-0.2,1.7-0.4,2.6-0.4
			c0.3,0,0.5,0.5,0.8,0.8c-0.3,0.1-0.6,0.4-0.9,0.4c-1,0.1-2,0-3.2,0C126.5,110,126.7,109.5,127,109.4z M119.9,133.3
			c-0.2-1.2-0.3-2.2-0.5-3.2C120.8,131.2,120.8,132.1,119.9,133.3z M120.4,138.8c-0.1,0.3-0.4,0.5-0.7,0.7c-0.1,0-0.4-0.2-0.5-0.4
			c0.2-0.3,0.4-0.5,0.6-0.8c0.2-0.5,0.5-1.1,0.5-1.6c0.1-0.6-0.1-1.2-0.2-1.8c0.1-0.1,0.3-0.1,0.4-0.2c0.2,0.2,0.6,0.5,0.5,0.6
			C120.8,136.5,120.6,137.7,120.4,138.8z M126.7,104.5l-2.9,1.6C124.3,104.5,125.1,104.1,126.7,104.5z M125.5,141.9
			c0.2-0.9,0.2-1.8,0.6-2.3c1.3-1.4,0.7-3,0.5-4.5c-0.5-4.5-1.2-8.9-1.7-13.4c0-0.3,0-0.5,0.3-0.9c0.2,0.3,0.6,0.6,0.6,0.9
			c0,3.5,1.4,6.8,2.2,10.1c0.7,3,1.3,6.1,1.8,9.1c0.1,0.7,0,1.4,0,2.3h-2.3v-2.3C126.9,141.3,126.4,141.5,125.5,141.9z M141.5,161.8
			c0-1.4,0.4-1.8,2-1.8C142.7,160.7,142.1,161.3,141.5,161.8z M140,155.2c-0.8,1.2-0.6,1.8,0.8,2.3c0.3,0.1,0.7,0.2,1,0.3
			c0.5,0.3,0.6,0.8,0,1c-1.3,0.5-1.9,1.6-2.6,2.7c-1.1,1.7-1.4,1.8-3.2,0.8c-3.4-1.9-6.9-3.7-10.3-5.6c-1.7-0.9-2-1.6-0.9-3.2
			c1-1.5,1.3-3.1,1.1-4.9c-0.2-2.3,1.2-3.9,3.3-3.7c1.6,0.1,2-0.3,1.7-2c-0.2-1.2-0.3-2.5-0.6-3.7c-0.9-4-2.1-8-2.8-12
			c-0.6-3.1-1.4-6.2-2.4-9.2c-0.9-2.6,0.3-4.6,2.2-6.2c0.5-0.4,1.3-0.4,2-0.5c0.5-0.1,1.1,0.1,1.6,0c2-0.3,4.1-0.7,6.1-1.1
			c0.2,0,0.5-0.1,0.7-0.1c0.8,0,1.3-1,2.2-0.4c1.5,1,3.2,1.9,3.6,3.8c0.7,3.1,2.4,5.5,4,8.1c0.4,0.7,0.5,1.5,0.8,2.3
			c0.1,0.2,0.1,0.5,0.2,0.7c0.8,1.2,1.5,2.5,2.3,3.7c0,0.1,0.1,0.1,0.1,0.2c0.9,0.8,1.4,1.8,1.1,3.1c-0.1,0.4,0.3,1,0.5,1.4
			c0.6,1,0.6,1.9,0,2.9c-1.1,2-1.9,4-3.1,5.9c-1.1,1.7-2.5,3.2-3.7,4.9C144,149.6,141.9,152.3,140,155.2z M149.4,164.2
			c0.7-0.8,1.4-1.6,2.2-2.6C151.6,164.1,152.3,165,149.4,164.2z M198.8,151.2c0.2,0.1,0.4,0.1,0.6,0.2c-0.2,0.6-0.5,1.2-0.7,1.8
			c-0.6,1.5-0.3,2,1.4,2.3c-0.2,0.2-0.3,0.5-0.4,0.6c-0.5,0.2-2-1.1-1.9-1.6C198,153.5,198.4,152.4,198.8,151.2z M196,162.7
			c0.5-0.7,0.6-1.4,0.1-2.2c-0.1-0.2,0.1-0.7,0.2-0.8c0.8-0.6,1.9-1,1.9-2.3c0-0.1,0.2-0.1,0.6-0.3c-0.3,2.6-1.2,4.7-2.9,6.5
			C195.9,163.3,195.9,162.9,196,162.7z M181.9,149.4c0.6,1.5,0.9,3,1.3,4.5c0,0.2-0.2,0.4-0.3,0.6c-0.1-0.1-0.4-0.2-0.4-0.3
			c0.3-2.2-1.4-3.6-2.1-5.3c0-0.1,0-0.2-0.1-0.8C181,148.7,181.7,148.9,181.9,149.4z M184.7,159.5c-0.2-0.1-0.3-0.5-0.3-0.8
			c0-1-0.5-1.5-1.4-1c-0.7,0.3-1.3,0.8-1.9,1.2c-0.2,0.1-0.5,0.3-0.9,0.5c0.2-0.4,0.2-0.6,0.3-0.7c1.6-1.2,2.5-3.5,4.9-3.3
			c0.4,0,0.9,0.3,1,0.6c0.4,1.9,0.7,3.8,0.1,5.8C186.6,160.4,185.6,160,184.7,159.5z M186.4,162.4c0.1-0.1,0.4,0,0.5,0
			c1.3,0.9,1.6,5.1,0.3,6.4c0-1,0.1-2,0-3c-0.1-0.6-0.4-1.2-0.6-1.7c-0.1-0.4-0.4-0.7-0.4-1.1C186.1,162.8,186.2,162.5,186.4,162.4z
			 M187.7,169.7v1.4c-0.5,0-0.9-0.1-1.3-0.1C186.2,169.9,186.7,169.6,187.7,169.7z M196.1,171.3c-1.3-0.3-2.1,0.3-2.9,1.1
			s-1.8,1.6-2.6,2.4c-0.1-0.1-0.2-0.2-0.3-0.2c0.3-0.3,0.6-0.6,0.8-0.9c0.5-0.5,1-0.9,1.4-1.4c0.2-0.2,0.1-0.6,0.1-0.9
			c-0.3,0-0.8-0.1-1,0.1c-0.6,0.4-1.1,0.9-1.7,1.3c-0.9,0.7-1.9,1.4-3,2c0.5-0.8,1-1.4,0.4-2.3c0.4-0.3,0.8-0.6,1.2-0.7
			c0.9-0.3,1.9-0.4,2.8-0.8c0.9-0.4,1.7-0.8,2.8-0.5c0.5,0.2,1.1-0.1,1.7-0.3c1-0.2,1.9-0.4,2.9-0.6
			C198.7,170.7,197.4,171.7,196.1,171.3z M203.2,165.6c-0.8,0.6-1.5,1.3-2.4,2C200.9,166,201.6,165.4,203.2,165.6z M209.2,166.5
			c-1,0.1-2.1,0.1-3.1,0.4c-0.7,0.2-1.4,0.9-2,1.3c-0.4,0.3-0.8,0.6-1.2,0.9c-0.1-0.1-0.2-0.3-0.3-0.4c1-0.8,2.1-1.5,3.1-2.3
			c0.2-0.1,0.4-0.2,0.6-0.4c0.3-0.3,0.6-0.9,0.9-0.9c0.9,0.1,1.8,0.3,2.7,0.6c0.1,0,0.2,0.4,0.2,0.6
			C209.7,166.3,209.5,166.5,209.2,166.5z M218.7,180.7h-3c-0.1-0.1-0.1-0.1-0.2-0.2c0.5-0.4,1.1-1.2,1.6-1.2c0.6,0,1.2,0.7,1.8,1.1
			C218.8,180.5,218.7,180.6,218.7,180.7z M229.6,180.7c-2.2,0-4.4,0-6.5,0c0-0.1-0.1-0.2-0.1-0.3c1.4-0.8,2.9-1.4,4.1-2.5
			c1.1-1,1.8-2.5,2.7-3.8c0.1,0.1,0.3,0.1,0.4,0.2c-0.3,0.6-0.4,1.3-0.8,1.8c-0.7,0.9-0.6,1.7,0.1,2.5c0.3,0.3,0.5,0.7,0.7,1.1
			C230.4,180.2,230.3,180.7,229.6,180.7z M230.8,171.7c-0.1,0-0.2-0.1-0.3-0.1c-0.1-1.5,0-1.9,1.2-2.3
			C231.4,170.1,231.1,170.9,230.8,171.7z M231.7,160.9c-1.5,1.8-3,3.7-4.6,5.5c0,0-0.1,0-0.7,0c1.1-1.4,2-2.6,2.9-3.8
			c0.5-0.7,1-1.4,1.6-2.1c0.1-0.2,0.4-0.2,0.7-0.3C231.7,160.5,231.8,160.8,231.7,160.9z M239.8,157.8c0.4-1.1,0.7-2.1,0.2-3.2
			c-0.1-0.3,0.2-0.9,0.4-1.5c0.4,1.4,0.7,2.4,1.1,3.5c0,0.1,0.1,0.2,0.1,0.3c-0.1,1.5-0.2,3-0.4,4.4c0,0.2-0.4,0.3-0.7,0.5
			c0-0.2-0.1-0.5,0-0.7c0.4-0.9,0.1-1.5-0.5-2.2C239.8,158.7,239.7,158.1,239.8,157.8z M239.6,167.6c0.6,1,0.5,1.7-0.5,2
			c-0.1-0.1-0.2-0.1-0.4-0.2C239,168.8,239.3,168.2,239.6,167.6z M238.2,177.7c0-1.3,1.3-1.9,2.4-1.3
			C239.9,176.7,239,177.2,238.2,177.7z"/>
	</g>
</g>
<g id="Layer_2">
	<g class="st4">
		<g id="Layer_1_1_">
			<path class="st5" d="M79.1,104.3c2.5-12.6-2.1-27.5-16.4-31.8c-4.5-1.4-9.5-0.9-14.1-2c-4.2-1-8.2-3.3-12.6-3.5
				c-6.7-0.3-13.9,0.5-18.3,5.3c0-0.5-0.2,0-0.7,0.4C6.4,81,3.5,95.5,10.8,107.2c3.2,5.2,8.3,8.5,14,11.1c7.2,3.2,15.8,6.5,23.7,6.8
				c7,0.3,14.6-1.8,20.5-5.1C75,116.5,77.8,110.8,79.1,104.3z"/>
			<path class="st6" d="M16.7,72.1c-1-0.3-1.5,1.2-0.5,1.5C17.3,74,17.8,72.4,16.7,72.1z"/>
			<path class="st5" d="M40.2,30.1c-5.9-8.5-8.4-17-5.3-25.6c0-0.1,0-0.2,0-0.3c0.7-0.6-0.7-1.7-1.6-1.1c-12,7.3-11.7,22.6,0.4,32.8
				C34.8,36.7,40.9,31,40.2,30.1z"/>
			<path class="st7" d="M37.9,77c0.2-2.1-0.8-5.7-1-5.9c-2.2-2.1-6.7,1.4-8.7,6.7c-1.9,5.1-0.7,10.3,2.4,9.8
				C33.5,87.1,37.3,81.9,37.9,77z"/>
			<path class="st7" d="M62.2,86.4c0.9-4.6-0.2-11.2-3.1-10.2c-0.1,0-0.1,0.1-0.2,0.1c-2.4-0.1-5,4.5-5.9,8.8c-1,5,0.4,8.8,2.9,9.1
				C58.3,94.5,61.2,91.4,62.2,86.4z"/>
			<path class="st5" d="M77.7,28.5c2.3-1.9,3.9-4.4,3.5-7.5c-0.2-2-1.5-4-3.2-5.2c-1.9-1.4-4.1-1-6.1-1.9c-2.1-0.9-1.2-1.5-1.8-3.3
				c-0.2-0.7-0.6-1.3-1.1-1.9c-1.2-1.4-3.2-2.2-5.1-2.4c-4.6-0.4-7.8,2.8-10.4,6c-4.8-4.2-12.6-3.2-15.1,2.8
				c-2,4.9,1.1,9.8,5.9,11.5c-0.3,5.6,2.8,11.2,8.3,13.9c4,2,9.4,1.9,12.2-1.2c0.8,1.3,2.2,2.3,4,2.7c3.9,0.7,7.9-2.2,9.9-5
				c1.6-2.1,2.5-5.2,0.3-7.4C78.6,29.1,78.1,28.7,77.7,28.5z"/>
			<path class="st5" d="M49,41.5c-1.6-2.1-5.1-2.6-6.9-1.1c-3.3,1.6-6.3,5.1-5.7,8.7c0.7,4.6,5.6,5.9,9.3,3.5
				C49.1,50.4,51.9,45.3,49,41.5z"/>
			<path class="st7" d="M61.8,101.6c-4.9,5.5-12,8.8-19.9,7.6c-7.9-1.2-13-6.1-17.1-12.3c-0.6-0.9-1.9-0.1-1.6,0.8
				c6.1,16.2,30.7,18,40.3,5.2C64.4,101.9,62.7,100.6,61.8,101.6z"/>
			<path class="st7" d="M26.1,95.1c-1.8-0.8-4.2-0.8-5.6,0.6c-0.7,0.8,0.2,2,1.2,1.5c1.2-0.6,2.2-0.9,3.6-0.4
				C26.4,97.3,27.1,95.6,26.1,95.1z"/>
			<path class="st5" d="M69.9,54.7c-3.9,1.4-7.6,1-10.9-1.1c-1-0.7-2.1,0.9-1.2,1.8c3.5,3.8,9.4,4.4,12.7,1.5
				C71.5,56,71.1,54.3,69.9,54.7z"/>
			<path class="st5" d="M24.9,34.3c-9-3.4-16-10.8-18.1-19.8c-0.3-1.1-1-2.9,0-3.8c0.6-0.5,3.2,0,3.9,0.1c2.6,0.2,5.2,0.8,7.6,1.7
				c3.1,1.1,8.5,4.4,8.3,2.9C26.4,14,13,8.9,5.4,9.5c-0.4,0-0.7,0.3-0.7,0.7c0.8,11.2,8.5,21.1,19.6,25.3
				C25.1,35.8,25.7,34.6,24.9,34.3z"/>
			<path class="st5" d="M26.1,31.1c-3.7-3.5-6.8-7.1-9.2-11.3c3.8,1.4,7.3,3.1,10.9,5.1c-0.3-0.5-0.5-1.2-0.6-1.8
				c-3.7-2.1-7.6-3.8-11.6-5.2c-0.5-0.2-1.1,0.4-0.8,0.8c2.6,4.9,6.1,9.6,10.6,13.2C25.9,32.5,26.7,31.7,26.1,31.1z"/>
			<path class="st5" d="M111.4,53.5c-5.2-5-11.9-8.1-18.9-8.9c0,0.1-0.1,0.1-0.2,0.2c0,0.1-0.2,0.3-0.4,0.3
				c-0.2,0.2-0.4,0.5-0.6,0.7c2.8,0.2,5.5,0.8,8.2,1.8c2.5,0.9,4.8,2.1,7,3.6c0.5,0.4,2.9,1.7,3.1,2.4c0.2,1.3-1.5,2.2-2.4,2.9
				c-7.5,5.5-17.7,6.7-26.8,3.5c-0.9-0.3-1.1,1-0.3,1.3c11.2,3.9,23.6,1.2,31.5-6.8C111.7,54.2,111.7,53.7,111.4,53.5z"/>
			<path class="st5" d="M97.3,53.2c-4.4-1.7-8.8-2.9-13.4-3.7c-0.8-0.1-1.1,1.1-0.3,1.2c3.9,0.7,7.7,1.7,11.5,3
				c-4.4,1.7-8.9,2.5-13.7,2.9c-0.8,0.1-0.7,1.2,0.1,1.2c5.6,0,11-1.4,15.9-3.5C97.8,54.2,97.8,53.4,97.3,53.2z"/>
			<path class="st5" d="M76.8,43.7c9.1-2.2,16-6.4,18.9-13.8c0-0.1,0.1-0.2,0.2-0.2c-0.1-0.8,1.5-0.7,1.7,0.1
				c3.8,11.9-5.5,21.8-19.9,21.5C76.5,51.3,75.8,43.9,76.8,43.7z"/>
			<path class="st5" d="M18.5,54.9c1.4-6.7,4.9-12.9,6.7-19.5c0.2-0.6-0.8-0.9-1-0.3c-6.8,12.8-9.6,27.5-8.2,41.8
				c0.1,0.6,1,0.7,1.1,0.1C17.7,69.7,17,62.1,18.5,54.9z"/>
			<path class="st5" d="M80.7,60.7c0-0.7-1.1-0.6-1.1,0.1c-0.7,8.3-2.5,15.5-5.4,23.3c-0.2,0.7,0.7,1.2,1,0.5
				C78.9,77.4,80.9,68.7,80.7,60.7z"/>
			<path class="st5" d="M27.9,46c-1.7-3.4-3.6-4.2-6.9-1.7c-0.6,0.4-4,16.7-3.5,17.6c0.9,1.5,2.5,2.2,4.3,1.6c0.9-0.3,1.5-1.1,2-1.7
				c2.1-2.7,3.5-4.5,7.6-3.2c0.3,0.1,0.7,0,0.8-0.3C35.1,53.6,29.8,49.9,27.9,46z"/>
			<path class="st5" d="M76.8,74.4c0.3-1.2-0.1-2.5,0-3.7c0.1-1.3,1.3-2.5,1.3-3.8c0-2.3-2.5-2.5-4.3-2.5c-2.6-0.1-5.5-2.3-8.1-1.3
				c-1.5,0.5-2.2,1.9-1.7,3.4c0.2,0.6-1.6,0.5-2,1.9c-0.5,1.7,1.4,2.9,2.9,3.4c0.8,0.2,1.7,0.2,2.4,0.6c1.4,0.7,2.1,1.8,3.1,2.9
				c0.6,0.6,1.3,1.2,2.2,1.6C74.8,77.5,76.3,76.2,76.8,74.4z"/>
			<path class="st7" d="M65,104.6c-0.5-2.1-1.8-4-3.7-5.2c-0.9-0.6-1.8,0.7-0.9,1.3c1.5,1,2.6,2.5,3,4.2
				C63.6,105.9,65.2,105.6,65,104.6z"/>
			<path class="st5" d="M15,13.2c-0.9-1-1-2.3-2-2.1c-1.3,0.2-5.8-1.4-7.1-0.6C5,11,5,12.2,5.6,13c0,0,0.3,1.2,0.3,1.2l0,0
				C5,15.9,8.1,20,10.7,19.9c1,0,1.6-0.8,1.5-1.7c-0.1-0.9,0-1.4,0.9-1.8c0.6-0.2,1.2-0.4,1.7-0.9C15.4,15,15.6,14,15,13.2z"/>
			<path class="st5" d="M110.2,53.1c-1.8-1.6-5.5-3.5-7.6-4.7c-0.2-0.1-0.4-0.1-0.6,0c0-0.3-0.1-0.6-0.5-0.7c-2.8-1.1-5,1.6-3.4,3.9
				c0.7,1.1,1.5,1.7,0.9,3.2c-0.3,0.6-0.9,0.9-1.1,1.7c-0.2,1,0.5,2.1,1.5,2.6c1.4,0.8,2.9,0.3,4.3-0.3c1.7-0.8,4.4-1.7,5.6-3.1
				C110.3,54.8,111.2,53.9,110.2,53.1z"/>
			<path id="XMLID_1_" class="st8" d="M277.3,75.4c-0.5-0.9-0.7-1.7-0.4-2.7c0.2-0.8,0.7-1.5,1-2.2c0.5-1.4,0.4-2.9-1-3.9
				c-3.7-2.6-8.3,0.7-12.3,0.8c-1.1,0-2.3-0.1-3.3-0.5c-1-0.3-1.8-0.9-2.8-1.3c-1.8-0.7-3.3,0.3-4.3,1.5c-0.6,0.7-1.2,1.5-2.1,2
				c-0.9,0.4-2,0.5-3,0.7c-1.7,0.3-3.6,1-3.9,2.6c-0.1,0.4,0,0.9,0.2,1.2c-0.1,0.1-0.2,0.2-0.1,0.4c1.2,1.8,2.4,3.7,1.1,5.8
				c-0.9,1.5-2.3,2.7-2.4,4.5c-0.1,1.5,1,2.5,2.6,3c0.8,0.3,1.7,0.4,2.5,0.8c1,0.4,1.7,1,2.3,1.7c1,1.3,1.8,2.8,3.4,3.7
				c1.5,0.9,3.3,0.7,4.7-0.4c1.5-1.2,2-3,3-4.5c0.6-0.8,1.4-1.5,2.5-1.7c1-0.2,2.1,0.2,3.1,0.1c1.9-0.1,2.2-1.5,3-2.7
				c0.9-1.6,3.1-1.6,4.9-1.9c1.5-0.3,3.3-0.9,3.6-2.4C279.8,78.2,278.2,76.8,277.3,75.4z"/>
			<path class="st9" d="M25.2,46.1c0-0.7-0.1-1.5-0.6-2.1c-0.4-0.7-1.6-0.1-1.1,0.5c0.3,0.5,0.4,0.9,0.4,1.5
				C23.9,46.8,25.2,46.9,25.2,46.1z"/>
			<path class="st10" d="M-18,89.8c-1.1,0-1.1,1.7,0,1.7C-16.9,91.5-16.9,89.8-18,89.8z"/>
			<path id="XMLID_2_" class="st8" d="M86.3,103.7c-0.5-0.9-0.7-1.7-0.4-2.7c0.2-0.8,0.7-1.5,1-2.2c0.5-1.4,0.4-2.9-1-3.9
				c-3.7-2.6-8.3,0.7-12.3,0.8c-1.1,0-2.3-0.1-3.3-0.5c-1-0.3-1.8-0.9-2.8-1.3c-1.8-0.7-3.3,0.3-4.3,1.5c-0.6,0.7-1.2,1.5-2.1,2
				c-0.9,0.4-2,0.5-3,0.7c-1.7,0.3-3.6,1-3.9,2.6c-0.1,0.4,0,0.9,0.2,1.2c-0.1,0.1-0.2,0.2-0.1,0.4c1.2,1.8,2.4,3.7,1.1,5.8
				c-0.9,1.5-2.3,2.7-2.4,4.5c-0.1,1.5,1,2.5,2.6,3c0.8,0.3,1.7,0.4,2.5,0.8c1,0.4,1.7,1,2.3,1.7c1,1.3,1.8,2.8,3.4,3.7
				c1.5,0.9,3.3,0.7,4.7-0.4c1.5-1.2,6.3,2,7.3,0.5c0.6-0.8,3.8-2.6,4.8-2.8c1-0.2,3.1-4.1,4.2-4.2c1.9-0.1,1.3-1.3,2-2.5
				c0.9-1.6-3.7-1.5-1.9-1.8c1.5-0.3,3.3-0.9,3.6-2.4C88.7,106.6,87.1,105.2,86.3,103.7z"/>
			<path class="st8" d="M96.5,109c-0.8-2.2-2.8-3.6-5-4.3c-5.3-1.7-14.1-17.2-17.8-20.2C69.5,81,58.6,86.4,60,85.4
				c0.5-0.3-1.5,2.6-2.7,3.8c-1.8,1.9-1.6,4-1.3,6.5c0.1,1.2,0,2.1-0.7,3.1c-0.7,0.9-1.5,1.8-2,2.9c-0.9,2.3-0.1,4.9,1.3,6.8
				c1.5,2.1,3.6,3.5,5.5,5.3c1.9,1.8,3.8,3.8,5.9,5.4c4.1,3.2,9,4.8,14,3c2.6-0.9,5-2.3,7.5-3.6c2.3-1.2,4.9-2.3,7-3.8
				C96.3,113.3,97.3,111.2,96.5,109z"/>
			<path class="st8" d="M290.4,109.3c-0.4-0.6-1.7-1.2-1.9-1.9c-0.2-0.7,1-1.9,1.3-2.5c0.9-2-0.1-4.3-1.7-5.7c-1.7-1.5-4.5-2-6.2,0
				c-1.1,1.3-1,2.8-0.4,4.2c-0.5,0.6-1.1,1-1.9,1.2c-1,0.2-1.8-0.2-2.8-0.2c-1,0-1.8,0.6-2.2,1.5c-0.3,1,0,2,0.4,2.9
				c1.6,3.8,5.2,7,9.3,7.5c2.1,0.3,4.3-0.2,5.6-2C291.1,112.9,291.4,110.9,290.4,109.3z"/>
			<path class="st8" d="M248.3,48.6c-1.4-1.1-3.1-1.9-4.9-2.1c-1-0.1-1.7,0.7-1.7,1.5c-2.8-1.5-6.5,0.2-6.6,3.5
				c-0.1,1.7,1.1,3.1,1,4.8c-0.1,1.6,0.2,2.8,1.5,3.8c2.3,1.7,6.5,2.3,8.4-0.2c0.4-0.6,0.7-1.3,0.8-2.1s0-1.6,0.4-2.3s1.2-0.7,1.8-1
				c0.6-0.3,1.2-0.8,1.4-1.5C251.2,51.1,249.6,49.6,248.3,48.6z"/>
			<path class="st8" d="M265.8,122.5c-0.3-2-1.8-3.4-3.3-4.6c-0.9-0.7-1.8-1.2-1.8-2.4c0-1.3,0.3-2.7,0.3-4c0.1-2.4-0.3-4.9-1.7-6.9
				c-1.3-1.8-3.1-2.8-5.2-3.3c-1.9-0.5-4-0.6-5.4-2.1c-0.4-0.5-0.9-0.5-1.4-0.3c0-0.1,0-0.2-0.1-0.3c-0.6-1.7-2.2-2.6-3.9-2.4
				c-2,0.2-3.3,1.8-4.3,3.4c-0.5,0.8-0.9,1.6-1.7,2.2c-0.6,0.6-1.5,0.9-2.3,1.3c-1.4,0.7-2.9,1.4-3.8,2.8c-1.1,1.8-0.7,4,0.2,5.8
				c1,2,2.9,3.5,3.2,5.8c0.4,2.2-0.3,4.5-0.3,6.8c0,1.9,0.5,3.9,1.4,5.6c1.7,3.3,5,5.8,8.7,6.3c3.7,0.5,7.6-0.8,10.2-3.4
				c1.2-1.2,2-3.5,3.6-4.2c1.7-0.8,3.7-0.1,5.5-1.1C265.5,126.3,266.1,124.3,265.8,122.5z"/>
		</g>
		<g id="Layer_3">
			<path class="st8" d="M107.1,53.5c-7.7-3.2-16.7-3.4-24.9-3.2c-9,0.2-18.1,1.5-26.8,3.9c-2.2,0.6-4.4,1.3-6.5,2
				c-0.7,0.2-0.4,1.3,0.3,1.1c8.3-2.8,16.8-4.6,25.5-5.4c8.3-0.8,17-0.9,25.2,0.7c3.8,0.7,7.6,2,10.9,4.2c3.2,2.1,5.8,5.1,7.7,8.3
				c4.3,7.2,5.4,15.9,5.6,24.1c0.2,8-0.6,16.3-4,23.6c-3,6.7-8.1,12.4-14.1,16.6c-13.4,9.3-30.7,11.4-46.5,10.5
				c-7.9-0.4-16.1-2-22.9-6.4c-5.9-3.8-10.7-10-11.8-17c-0.3-1.7-0.3-3.5-0.1-5.2c0.1-0.8-1.1-0.8-1.2,0c-0.7,7.2,2.6,14.2,7.6,19.3
				c5.6,5.6,13.2,8.6,21,9.8c8.4,1.4,17.2,1.2,25.7,0.2c8.3-1,16.6-3.1,24-7.1c6.5-3.5,12.4-8.4,16.5-14.6c4.6-6.9,6.6-15,7.1-23.2
				C126,80.3,123.2,60.3,107.1,53.5z"/>
			<path class="st8" d="M30.3,129c-0.1-0.7-1.2-0.7-1.1,0c0.6,7.6,0.7,15.1,0.6,22.7c0,0.7,1.1,0.7,1.1,0
				C31.4,144.2,31.1,136.5,30.3,129z"/>
			<path class="st5" d="M125.6,159.4c-2.2,0.2-3.6-0.1-5.1-1.4c-0.7-0.6-4.2,0-3.5,0.7c1.9,1.7,5.9,4,8.8,3.7
				C127,162.3,126.7,159.3,125.6,159.4z"/>
			<path class="st5" d="M134.3,158.1c-1.1,2.2,0.5,5.7-1.8,7.4c-1.4,1-3.4,0.3-4.3-0.7c-1.3-1.5-1-3.5-1-5.3c0-0.9-1.5-1-1.6,0
				c-0.4,3.3,0.4,8.5,5.7,8.1c5.5-0.4,3.6-6.2,4.7-9C136.3,157.6,134.8,157.2,134.3,158.1z"/>
			<path class="st5" d="M141.9,159.6c-2.2,1.1-4.3,1.4-6.6,0.9c-1-0.2-1.5,1-0.6,1.3c2.6,0.9,5.8,0.5,8.1-1
				C143.7,160.3,142.8,159.1,141.9,159.6z"/>
			<path class="st5" d="M149.4,151.1c-0.5-0.9-2.3-0.1-1.7,0.7c1.6,2.5,2.4,5.5,1.6,8.4c-0.7,2.9-3.8,1.3-5.1,0.1
				c-1.1-1-1.7-2.3-2.1-3.6c-0.2-0.8-1.6-0.5-1.5,0.3c0.2,2.1,1.4,3.9,3.2,5.2c1.4,1,3.7,1.9,5.6,0.8c1.8-1,1.9-3.4,2-5
				C151.5,155.6,150.8,153.2,149.4,151.1z"/>
			<path class="st5" d="M155.3,148.4c-0.7,0.7-1.2,1.5-1.9,2.3c-0.7,0.7-1.6,1.3-2.5,1.9c-0.8,0.5-0.9,3.3,0,2.8
				c1.9-1.1,5.2-4.5,5.9-6.4C157,148.2,156,147.7,155.3,148.4z"/>
			<path class="st5" d="M196.5,125.3c-7.3-7.4-9.1-17-6.4-26.1c1.4-4.5,3.3-9.1,3.1-13.8c-0.2-4.5-2.4-8.6-5.2-12.4
				c-2.5-3.3-6.5-8-12-6.1c-0.9,0.3-0.1,1.4,0.8,1.1c5.4-1.9,9.8,5.3,11.7,8.4c2.6,4.2,3.6,8.6,2.7,13.3c-0.9,4.5-2.9,8.8-3.7,13.3
				c-0.7,3.8-0.4,7.7,0.7,11.4c1.3,4.3,3.8,8.3,7.1,11.8C196,127,197.2,126,196.5,125.3z"/>
			<path class="st5" d="M194.8,126.2c-7.3-7.5-10.8-17.3-9.5-26.9c0.7-4.9,3.6-9.7,2.7-14.7c-0.7-3.6-3.8-7-8.4-7.2
				c-1,0-1,1.3,0,1.3c2.8,0.1,4.9,1.9,6,3.9c1.2,2.3,1,4.9,0.4,7.3c-1.1,4.6-2.7,8.8-2.6,13.5c0,8.6,3.7,17.1,10.2,23.7
				C194.3,127.9,195.4,126.9,194.8,126.2z"/>
			<path class="st5" d="M208.8,130.8c-1.6-5.4-7.9-6.4-13.7-6.3c-1,0,1.8,2,0.8,2.1c-2.1,0.1-3.6,1.5-3.5,3.3c0.1,2,2.1,3.5,4,4.5
				c2.6,1.5,4.7,2.9,5.8,5.5c1,2.2,1.2,4.6,1.2,6.9c0,0.8,1.4,1,1.6,0.2C206.5,141.6,210.5,136.5,208.8,130.8z"/>
			<path class="st8" d="M120,106.8c-0.4,0.6-1.6-0.9-1.2-1.4c4.4-6.6,6.1-12.1,6.9-19.6c0.7-6.6,0.7-12-1.4-18.3
				c-1.1-3.1-1.4-7.4-5-9.1c-3.1-1.5-7.4-1.7-10.9-1.4c-17,1.4-40.9,7.8-58.4,4.5c-0.8-0.1-0.2-1.3,0.5-1.2
				c10.5,2,28.7,0.8,38.7-1.6c4.4-1.1,8.8-2.1,13.2-2.9c3.8-0.6,7.7-1.1,11.5-0.7c3.3,0.3,6.5,1.5,8.5,3.8c2.3,2.5,3.3,5.9,4.1,8.9
				C130.4,80.8,128,95,120,106.8z"/>
			<path class="st8" d="M201.3,108.4c-0.2-0.6-2.6-0.7-2.4-0.1c2.3,8.4,2.8,17.1-0.3,25.4c-0.3,0.9-0.8,1.4-1.3,2.3
				c-0.5,1.1,0,1.9-1,2.9c-2,2-5.5,2-5.5-0.6c0-0.9,0.5-1.6,0.5-2.6c0-0.8-0.2-1.6-0.6-2.4c-0.9-1.7-2.6-3.5-4.2-4.7
				c-2-1.6-4.2-2.9-5.5-5c-1.3-2.2-1.4-4.6-0.6-7c0.2-0.7-2.1-1-2.3-0.3c-1.4,4.5,0.6,8.6,4.5,11.7c2,1.6,4.3,3.1,5.7,5.2
				c0.7,1.1,1,2.3,0.8,3.6c-0.1,1-0.4,2,0,3c0.6,1.6,2.6,2.8,4.6,2.6c2.7-0.2,3.8-2,4.8-3.8c2.2-4.4,3.6-9,4.2-13.8
				C203.4,119.3,202.9,113.7,201.3,108.4z"/>
			<path class="st8" d="M267.3,158.9c-0.1,1.3-0.8,2.1-0.5,3.3c-1.8,0.3-2.5,1.3-4.1,0.7c-1.5-0.5,0-1.8,0.4-2.9
				c0.4-1.1,0.7-2,1.2-3.1c0.3-0.6-1.6-1.1-1.7-0.5c-0.1,1.1-1.2,3-2,4.8c-0.4,1-0.7,2.2,0.1,3c1.9,1.9,5.2-0.4,7.6-0.4
				c0.5,0,0.7-0.4,0.6-0.8c-0.4-1.3-0.5-2.7-0.5-4.1C268.4,158.2,267.3,158.2,267.3,158.9z"/>
			<path class="st8" d="M277.1,161.4c-1.1-2.9-0.6-3.5-1.3-5.2c-0.2-0.6-2.2,0.1-2,0.8c0.4,1.3,0.9,2,1.2,3.3
				c0.2,1.1,0.8,2.6,0.3,3.8c-0.6,1.3-3.6,0.4-5,0.4c-1.8,0-2.9,0.8-4.6,0.6c-0.7-0.1-0.9,0.8-0.1,0.9c2.2,0.3,4.6,0.4,6.8,0.3
				c1.5-0.1,3.4,0,4.4-1.1C277.7,164.2,277.5,162.6,277.1,161.4z"/>
			<path class="st8" d="M101.5,125.2c-7.3,2.4-16.3,4.2-24.1,4.4c-7.9,0.2-15.7-1.1-23.3-2.9c-0.7-0.2-1.1,1.9-0.4,2.1
				c15.1,4.1,34.6,2.5,49.3-2.3C103.7,126.4,102.3,125,101.5,125.2z"/>
			<path class="st8" d="M189.7,147c-3-2.1-5.3-4.3-7.2-7.1c-2-2.9-2.9-6.2-3.9-9.4c-0.1-0.5-2.1-0.4-2.1,0.1
				c0.3,3.2,1.9,6.6,3.8,9.4c2,3,4.6,5.7,7.7,7.9C188.6,148.3,190.3,147.4,189.7,147z"/>
			<path class="st5" d="M89.4,143.6c-0.3,5.8-0.7,11.5-0.8,17.3c-0.1,2.6,1.1,3.9,0,7.4c-0.6,1.9-2.4,1.6-4.2,1.7
				c-1.5,0.1-2.9,0.1-4.4,0.2c-1.6,0.1-2.9-0.3-2.9-2c0-1.3,0.2-1.3,0.2-2.6c0-2.3-0.2-4-0.6-6.3c-0.9-5-2.5-10.2-5.2-14.7
				c-0.4-0.8-3-0.1-2.6,0.6c2.4,4.4,4.2,8.9,5.1,13.6c0.5,2.4,0.7,4.9,0.8,7.3c0,1.1,0,2.2,0,3.4c0,0.7,0,1.4,0.4,2.1
				c1,1.4,3.2,1,4.8,0.9c2.6-0.1,5.5-0.1,8.1-0.5c1.9-0.3,2.6-1.3,2.7-2.8c0.2-2.6,0.3-5.2,0.4-7.8c0.3-5.9,0.7-11.7,1-17.6
				C92.1,142.9,89.5,142.7,89.4,143.6z"/>
			<path class="st5" d="M79.1,177.1c-0.2,1.3-0.2,2-0.4,3.3c-2.5-0.2-2.7,0-5.2-0.2c1.1-2.9,1.8-4.8,3.6-7.4
				c0.4-0.7-1.3-1.2-1.8-0.5c-2.3,2.7-3.3,5-4.5,8.2c-0.1,0.4,1,1.8,1.5,1.9c3.1,0.2,4.9,0.4,7.9,0.6c0.5,0,0.7-0.3,0.8-0.7
				c0.2-1.6,0.4-3.2,0.6-4.8C81.7,176.7,79.3,176.3,79.1,177.1z"/>
			<path class="st5" d="M93.3,177.3c-0.8-2.2-1.6-4.5-2.5-6.7c-0.3-0.8-3.1-0.9-2.9-0.1c0.5,1.6,1.7,3.5,2.3,5
				c0.5,1.4,2,3.2,1.5,4.7c-0.6,1.7-2.3,1.1-4,1.1c-2.1,0-5-0.4-7.1-0.4c-1,0-0.8,2.1,0.1,2.2c2.9,0.1,5.8,0.3,8.6,0.2
				c1.5,0,3.3-0.2,4.2-1.3C94.7,180.5,93.8,178.7,93.3,177.3z"/>
			<path class="st5" d="M75.3,167.8c-1.8-0.3-3.7-0.4-4.8-1.9c-1-1.4-0.4-2.7-0.2-4.3c0.4-3.6,0.7-6.9,1-10.6c0.1-0.8-2.2-0.8-2.3,0
				c-0.2,2.3-0.5,4.7-0.7,7c-0.2,2.2-0.7,4.4-0.6,6.6c0.1,3.5,3.2,5.1,7.1,5.2C75.7,169.9,76.2,168,75.3,167.8z"/>
			<path class="st5" d="M71.2,178.4c-1.2-0.5-1.6-0.3-2.9-0.4c-0.7,0-0.7,0.4-1.2,0c-0.7-0.6-0.7-1.5-0.4-2.2c1-2.5,2.3-4.4,4.4-6.3
				c0.6-0.6-1.3-1.5-2-1c-2.8,2.1-5.2,5.4-5.8,8.6c-0.2,1.1,0.1,2.2,1.4,2.8c1.7,0.8,3.7,0.1,5.5,0.5
				C70.9,180.7,71.9,178.7,71.2,178.4z"/>
			<path class="st5" d="M175.1,145c-0.1,5.8,2.2,11.8,2.3,17.6c0,2.6,1.3,3.8,0.3,7.4c-0.5,1.9-2.4,1.7-4.1,1.8
				c-1.5,0.1-2.9,0.2-4.4,0.4c-1.6,0.1-2.9-0.2-3-1.9c-0.1-1.3,0.2-1.3,0.1-2.6c-0.1-2.3-0.4-4-0.9-6.3c-1.1-5-2.9-10.1-5.8-14.5
				c-0.5-0.7-3,0-2.6,0.7c2.5,4.3,4.5,8.7,5.6,13.4c0.6,2.4,0.9,4.8,1.1,7.2c0.1,1.1,0.1,2.2,0.1,3.4c0,0.7,0,1.4,0.5,2.1
				c1,1.4,3.3,0.9,4.9,0.7c2.6-0.2,5.5-0.3,8-0.8c1.9-0.4,2.5-1.4,2.6-2.9c0.1-2.6,0.1-5.2,0.1-7.8c0.1-5.9-1-11.4-0.9-17.3
				C179,144.8,175.2,144.2,175.1,145z"/>
			<path class="st5" d="M168.7,179.2c-0.1,1.4-0.1,2-0.3,3.4c-2.5-0.1-2.7,0.1-5.2,0c1-2.9,1.6-4.9,3.3-7.6c0.4-0.7-1.3-1.1-1.8-0.5
				c-2.2,2.8-3.1,5.1-4.2,8.3c-0.1,0.4,1,1.8,1.5,1.8c3.1,0.1,4.9,0.2,8,0.3c0.5,0,0.7-0.4,0.8-0.7c0.1-1.6,0.3-3.2,0.4-4.8
				C171.2,178.7,168.8,178.4,168.7,179.2z"/>
			<path class="st5" d="M182.8,178.8c-0.9-2.2-1.7-4.4-2.8-6.6c-0.3-0.8-3.2-0.8-2.9,0c0.6,1.5,1.9,3.4,2.5,4.9
				c0.6,1.3,2.1,3.1,1.6,4.6c-0.6,1.7-2.2,1.2-3.9,1.3c-2.1,0-5-0.2-7.1-0.1c-1,0-0.8,2.2,0.2,2.2c2.9,0,5.8,0,8.6-0.1
				c1.5-0.1,3.3-0.3,4.2-1.5C184.3,182,183.4,180.3,182.8,178.8z"/>
			<path class="st5" d="M164.5,170.1c-1.8-0.2-3.7-0.3-4.9-1.7c-1.1-1.3-0.5-2.7-0.4-4.3c0.2-3.7,0.4-7,0.6-10.6
				c0-0.8-2.3-0.7-2.3,0.1c-0.1,2.3-0.3,4.7-0.4,7c-0.1,2.2-0.5,4.4-0.3,6.6c0.3,3.5,3.4,4.9,7.3,4.9
				C164.9,172.2,165.3,170.2,164.5,170.1z"/>
			<path class="st5" d="M160.8,180.9c-1.2-0.4-1.6-0.3-2.9-0.2c-0.7,0-0.7,0.5-1.2,0c-0.7-0.6-0.7-1.5-0.5-2.2
				c0.9-2.6,2.1-4.5,4.1-6.5c0.6-0.6-1.4-1.4-2-0.9c-2.8,2.2-5,5.6-5.4,8.8c-0.1,1.1,0.2,2.2,1.5,2.8c1.7,0.7,3.7-0.1,5.6,0.3
				C160.6,183.1,161.5,181.2,160.8,180.9z"/>
		</g>
		<g id="Layer_4">
			<path class="st5" d="M86.1,107c-0.4-0.3-0.5-0.8-0.5-1.3l0.2-9.1c0.2-4.4,0.2-7.8,0.2-10.2c0-8.4-0.7-14.8-2.2-19.3
				c0.8-0.8,1.9-1.2,3.2-1.2c2.1,0,4,0.3,5.7,0.9c1.7,0.6,3.1,1.4,4.3,2.4c2.2,2.1,3.3,4.4,3.3,7c0,2.7-0.9,5.1-2.7,7.2
				c-1.8,2.1-4.4,3.8-7.8,5l0.2,5.5l0.2,2.9c0,0.6,0.1,1.5,0.1,2.6c0.2,2.4,0.2,4.4,0.2,5.9c0,0.7-0.2,1.2-0.7,1.6
				c-0.4,0.4-1.1,0.6-2.1,0.6C87,107.5,86.5,107.4,86.1,107z M94.4,81.7c1-1.5,1.6-3.1,1.6-4.9v-0.1c0-0.8-0.1-1.9-0.4-3.1
				c-0.2-0.4-0.5-0.9-0.9-1.3c-0.4-0.4-0.7-0.7-0.8-0.7c-0.4-0.3-1.4-0.9-3.1-1.7l-2.2-1c0,1.8,0.2,4.7,0.5,8.5l0.5,8.5
				C91.8,84.5,93.4,83.1,94.4,81.7z"/>
			<path class="st5" d="M106.2,110.8c-0.8,0.4-1.6,0.7-2.5,0.7c-0.6,0-1.1-0.2-1.5-0.7c-0.4-0.5-0.6-1-0.6-1.5
				c0-3.7,0.2-8.7,0.5-14.9c0.3-6.6,0.4-11.5,0.4-14.8v-2.2c-0.3-2.8-0.4-3.1-0.4-4.5c0-4.2,0.9-6.3,2.6-6.3c0.5,0,0.9,0.2,1.3,0.5
				c0.4,0.3,0.5,0.7,0.5,1.2c0,0.5-0.1,1.4-0.2,2.5c-0.1,1.1-0.2,1.9-0.2,2.5c0,3,0,5.7,0.1,8c0,2.3,0.1,5,0.1,8
				c-0.2,0.7-0.4,1.6-0.4,2.8v0.8l-0.1,5.3c-0.1,1.5-0.1,3.3-0.1,5.3c0,3.1,0.8,4.6,2.5,4.6c0.1,0,0.2,0,0.5,0c0.2,0,0.5,0,0.9,0
				c0.4,0,1-0.1,1.7-0.1c2.7,0,4,0.7,4,2c0,0.4-0.2,0.8-0.7,1.1c-0.4,0.3-1,0.5-1.6,0.6C111.1,111.1,108.9,110.8,106.2,110.8z"/>
			<path class="st5" d="M136.2,107.1c-0.6-0.2-1-0.8-1.1-1.6c-0.2-1.3-0.7-3.6-1.7-6.7l-0.5-1.3l-8.3,0c-0.2,1.1-0.4,3.2-0.6,6.4
				c0,2.2-0.4,3.7-1,4.5c-0.3,0.5-0.9,0.7-1.7,0.8c-0.5,0-0.9,0-1.4-0.1c-0.8-0.3-1.2-0.7-1.3-1.2l0.1-0.3l0-0.3
				c2.2-11.8,3.5-23.4,4-34.7c0-0.2,0-0.5,0-0.9s0-1-0.1-1.8c0-1.7,0-3,0-4c0.1-1,0.3-1.8,0.7-2.3l2.8-0.3c0.8-0.1,1.4,0,2,0.2
				c0.6,0.2,0.9,0.6,1,1.1c0.4,3.4,1.6,8.3,3.6,14.8c1.9,6.7,3.1,11.4,3.5,14.1c0,0.3,0.2,0.9,0.7,2c0.4,1,0.6,1.6,0.7,1.9
				c0,0.3,0.5,1.6,1.3,3.9c0.8,2.1,1.2,3.4,1.3,4v0.1c0.1,1-0.2,1.6-1.1,2C137.8,107.4,136.8,107.4,136.2,107.1z M131.4,92.8
				c-0.5-4-1.6-9-3.2-15.1l-1.7-6.8c-1,10.7-1.7,18.8-1.9,24.2c0.9,0.3,3.3,0.4,7.4,0.1C131.7,94.6,131.5,93.7,131.4,92.8z"/>
			<path class="st5" d="M148.6,103.6c-0.6-4.8-1.9-9.6-3.8-14.6s-4.7-10.9-8.3-18c-0.2-0.4-0.5-1-1-1.8c-1.3-2.2-2.1-3.6-2.1-4.2
				c0-0.4,0.1-0.7,0.5-1.1s0.8-0.5,1.4-0.6c0.9-0.1,1.7,0.3,2.6,1.2c0.9,0.9,1.7,2.1,2.6,3.7c0.8,1.6,1.8,3.6,2.9,6
				c1,2.3,2.3,5.8,3.9,10.6l0.8,2.4l1.8,5.4c0.4,1.5,0.8,2.6,1,3.2c0.6-4.7,1.3-11.5,2.1-20.4c0.6-7.6,1-12.8,1.3-15.6l1.9-0.2
				c0.5-0.1,1,0,1.4,0.2c0.4,0.2,0.7,0.5,0.7,0.9c0.2,1.5,0.1,3.1-0.1,4.9c-0.3,1.8-0.7,4-1.4,6.5c-0.5,2.2-0.9,3.8-1,4.9
				s-0.1,2.7-0.1,5c0.2,5.1,0,9.7-0.4,13.8c-0.3,2.5-0.9,4.5-1.8,6c-0.9,1.5-2,2.3-3.3,2.5L148.6,103.6z"/>
			<path class="st5" d="M173,103.2c-0.5-0.3-0.8-0.8-0.8-1.7c0-1.3-0.2-3.4-0.7-6.5l-0.3-1.3l-7.2-0.9c-0.3,1-0.7,3-1.2,5.9
				c-0.3,2.1-0.7,3.5-1.4,4.1c-0.4,0.4-0.9,0.6-1.6,0.6c-0.4,0-0.8-0.1-1.2-0.3c-0.7-0.3-1-0.8-1-1.3l0.1-0.3l0.1-0.2
				c3.2-10.9,5.7-21.7,7.3-32.4c0-0.2,0-0.4,0.1-0.9c0-0.4,0.1-1,0.1-1.7c0.1-1.6,0.3-2.8,0.5-3.8c0.2-0.9,0.4-1.6,0.8-2.1h2.5
				c0.7,0,1.3,0.1,1.7,0.4c0.5,0.3,0.7,0.7,0.7,1.2c0,3.2,0.5,8,1.5,14.4c1,6.6,1.5,11.1,1.5,13.8c0,0.2,0.1,0.9,0.4,2
				c0.2,1,0.4,1.6,0.4,1.9s0.2,1.6,0.7,3.8c0.4,2,0.6,3.4,0.6,4v0.1c0,0.9-0.4,1.5-1.2,1.8C174.4,103.6,173.5,103.4,173,103.2z
				 M170.5,89c0-3.8-0.4-8.7-1.2-14.7l-0.7-6.6c-2.1,10-3.5,17.5-4.3,22.6c0.7,0.4,2.9,0.8,6.4,1C170.5,90.7,170.5,89.9,170.5,89z"
				/>
			<path class="st5" d="M95.8,145.4c-2-2.7-3.9-7.1-5.9-13.3c-0.5-1.7-1-3.3-1.4-4.7c-1.8,2.6-2.7,5.7-2.7,9.4v10
				c0,0.8-0.5,1.2-1.5,1.2c-0.8,0-1.4-0.1-1.9-0.4c-0.5-0.3-0.7-0.7-0.7-1.3v-16.4c0-1.6,0.2-4.5,0.8-8.7c0.5-3.7,0.8-6.6,0.8-8.7
				c0.4-0.7,1.1-1,2.2-1c0.6,0,1.2,0.2,1.7,0.5s0.7,0.7,0.7,1.2v0.2c-0.7,0.8-1,4.1-1,9.8v1.9l2.8-3.9c1.7-2.6,3.3-4.8,4.9-6.6
				c1.4-1.8,2.5-2.7,3.1-2.7c0.8,0,1.5,0.1,2.1,0.4c0.6,0.2,0.9,0.6,0.9,1.1l-1.8,2.2c-3.8,4.4-5.9,6.9-6.4,7.6c0,0.6,0,1.1-0.1,1.6
				l-0.1,1.6c0,1.5,0.9,4.4,2.6,8.7c1.7,4.2,3.2,7,4.4,8.4l1,1c1,0.9,1.4,1.8,1.4,2.5c0,0.4-0.2,0.7-0.6,1c-0.4,0.3-0.9,0.4-1.5,0.4
				C98.4,148.1,97.2,147.2,95.8,145.4z"/>
			<path class="st5" d="M112.5,153.5c-1.1-2-1.9-4-2.4-6.1l-0.5-1.9c-1.5-5.4-2.4-8.5-2.9-9.3h-0.9c0,1.1,0,2.1-0.1,3v3.1
				c0,5.1,0.5,9.1,1.5,11.9l-0.8,1.5h-2.2l-1-0.8l0.1-3.8c0-3.4-0.2-8.6-0.7-15.5c-0.4-7.4-0.6-12.6-0.6-15.5c0-1.8,0.8-2.7,2.5-2.7
				c2.8,0,5.1,0.5,6.8,1.6c1.8,1.1,2.7,2.5,2.7,4.4v4c0,0.6-0.1,1.2-0.4,2c-0.2,0.7-0.5,1.3-0.8,1.8l-1.5,2l-1.2,1.7l0.4,1.4l1.1,4
				c0.7,2.9,1.4,5.3,2.1,7.1c0.7,1.8,1.5,3.5,2.5,5l0.5,0.7c0.5,0.8,0.8,1.4,0.8,1.8c0,0.4-0.1,0.7-0.5,1c-0.3,0.3-0.7,0.4-1.2,0.4
				C114.4,156.3,113.4,155.3,112.5,153.5z M109,130c0.8-1.9,1.2-3.6,1.2-5.2c0-1.2-0.2-2.3-0.6-3.4c-0.2-0.6-0.7-1.1-1.3-1.4
				c-0.6-0.3-1.3-0.5-2.2-0.5l-0.1,0.3l-0.1,0.5l0.1,6.7c0.1,2,0.1,4.1,0.1,6.4C107.2,133,108.2,131.9,109,130z"/>
			<path class="st5" d="M134.5,152.9c-0.6-0.2-0.9-0.7-1.1-1.6c-0.2-1.3-0.8-3.5-1.8-6.5l-0.5-1.3l-7.4,0.2c-0.1,1-0.2,3.1-0.3,6.3
				c0,2.2-0.2,3.7-0.7,4.5c-0.3,0.4-0.7,0.7-1.4,0.8c-0.6,0.1-1.1,0-1.7-0.2c-0.5-0.2-0.8-0.6-0.9-1.1l0.1-0.3l0-0.3
				c1.4-11.7,2.1-23,2-34.1c0-0.2,0-0.5-0.1-0.9s-0.1-1-0.1-1.8c-0.1-1.6-0.1-2.9-0.1-3.9c0-1,0.2-1.7,0.5-2.3l2.5-0.4
				c0.7-0.1,1.3,0,1.8,0.1c0.5,0.2,0.8,0.6,0.9,1.1c0.5,3.3,1.8,8.1,3.9,14.4c2,6.5,3.3,11.1,3.7,13.8c0,0.2,0.3,0.9,0.7,2
				c0.4,0.9,0.6,1.6,0.7,1.9c0,0.3,0.5,1.6,1.3,3.8c0.8,2,1.2,3.3,1.3,3.9v0.1c0.1,0.9-0.1,1.6-0.9,2
				C135.9,153.1,135.1,153.1,134.5,152.9z M129.6,138.8c-0.6-3.9-1.8-8.8-3.6-14.8l-1.8-6.6c-0.4,10.5-0.6,18.5-0.6,23.8
				c0.8,0.3,3,0.3,6.6,0C130,140.6,129.8,139.8,129.6,138.8z"/>
			<path class="st5" d="M141.8,149.5c0-4.5-0.5-9.1-1.5-14c-1-4.8-2.6-10.7-4.7-17.7c-0.1-0.4-0.3-1-0.6-1.8
				c-0.8-2.2-1.2-3.6-1.2-4.2c0-0.3,0.2-0.7,0.5-0.9c0.3-0.3,0.7-0.4,1.1-0.4c0.7,0,1.3,0.5,1.9,1.5c0.6,0.9,1.1,2.2,1.7,3.8
				c0.5,1.6,1.1,3.6,1.7,5.9c0.5,2.2,1.2,5.7,2,10.3l0.4,2.3l0.8,5.2c0.2,1.4,0.3,2.5,0.5,3.1c1-4.3,2.2-10.5,3.8-18.7
				c1.2-6.9,2.1-11.7,2.6-14.2h1.5c0.4,0,0.8,0.1,1.1,0.4c0.3,0.2,0.5,0.5,0.5,0.9c0,1.4-0.2,2.9-0.6,4.6c-0.4,1.6-1,3.6-1.8,5.8
				c-0.6,2-1.1,3.4-1.3,4.4c-0.2,1-0.4,2.5-0.6,4.6c-0.4,4.7-0.9,9-1.7,12.7c-0.5,2.3-1.2,4.1-2,5.3c-0.8,1.3-1.8,1.9-2.8,1.9
				L141.8,149.5z"/>
			<path class="st5" d="M170.3,144.9c-0.6-0.2-1-0.7-1-1.4c0-1.1-0.3-3-0.9-5.7l-0.3-1.2l-8.7-0.8c-0.3,0.8-0.8,2.6-1.5,5.2
				c-0.3,1.8-2.8,5.8-3.5,6.4c-0.4,0.3-1.1,1.7-1.9,1.7c-0.7,0-1.6-0.3-2.2-0.6c-0.6-0.3-1-0.6-1-1l2.6-4.1l0.1-0.2
				c3.6-8.9,6.7-18.6,8.8-28.4c0-0.1,0-0.4,0.1-0.7c0-0.3,0.1-0.9,0.2-1.5c0.2-1.4,0.4-2.5,0.6-3.3s0.5-1.4,1-1.8h3
				c0.8,0,1.5,0.1,2.1,0.4c0.6,0.2,0.9,0.6,0.9,1c0,2.8,0.6,7,1.8,12.7c1.2,5.8,1.7,9.8,1.7,12.1c0,0.2,0.1,0.8,0.4,1.7
				c0.3,0.8,0.4,1.4,0.4,1.7s0.3,1.4,0.9,3.4c0.5,1.8,0.8,2.9,0.8,3.5v0c0,0.8-0.5,1.3-1.4,1.6C172,145.3,171,145.2,170.3,144.9z
				 M167.3,132.5c0-3.4-0.5-7.6-1.4-12.9l-0.9-5.8c-2.5,8.8-4.2,15.4-5.2,19.8c0.9,0.4,3.4,0.7,7.7,0.9
				C167.4,134,167.3,133.3,167.3,132.5z"/>
		</g>
	</g>
</g>
</svg>
