<?xml version="1.0" encoding="utf-8"?>
<!-- Generator: Adobe Illustrator 16.0.0, SVG Export Plug-In . SVG Version: 6.00 Build 0)  -->
<!DOCTYPE svg PUBLIC "-//W3C//DTD SVG 1.1//EN" "http://www.w3.org/Graphics/SVG/1.1/DTD/svg11.dtd">
<svg version="1.1" id="Layer_1" xmlns="http://www.w3.org/2000/svg" xmlns:xlink="http://www.w3.org/1999/xlink" x="0px" y="0px"
	 width="120px" height="80px" viewBox="0 0 120 80" enable-background="new 0 0 120 80" xml:space="preserve">
<title>card_visa</title>
<desc>Created with Sketch.</desc>
<g id="export-badges">
	<g id="production" transform="translate(-1062.000000, -38.000000)">
		<g id="card_visa" transform="translate(1062.000000, 38.000000)">
			<path id="Rectangle-11" fill="#FFFFFE" d="M4,0h112c2.209,0,4,1.791,4,4v72c0,2.209-1.791,4-4,4H4c-2.209,0-4-1.791-4-4V4
				C0,1.791,1.791,0,4,0z"/>
			<g>
				<path fill-rule="evenodd" clip-rule="evenodd" fill="#FD0C15" d="M101.41,36.436c0-1.007,0.795-1.829,1.75-1.829
					c0.98,0,1.75,0.822,1.75,1.829s-0.77,1.828-1.75,1.828C102.205,38.29,101.41,37.469,101.41,36.436L101.41,36.436L101.41,36.436z
					 M103.16,37.866c0.742,0,1.326-0.636,1.326-1.404c0-0.77-0.609-1.404-1.326-1.404c-0.742,0-1.326,0.635-1.326,1.404
					C101.834,37.23,102.418,37.866,103.16,37.866L103.16,37.866L103.16,37.866z M102.922,37.257h-0.371v-1.616h0.662
					c0.133,0,0.291,0,0.398,0.079c0.133,0.08,0.186,0.238,0.186,0.397c0,0.186-0.107,0.345-0.266,0.397l0.291,0.716h-0.396
					l-0.238-0.636h-0.266V37.257L102.922,37.257L102.922,37.257z M102.922,36.356h0.211c0.08,0,0.16,0,0.213-0.027
					c0.053-0.026,0.08-0.105,0.08-0.186c0-0.053-0.027-0.133-0.08-0.159s-0.158-0.026-0.213-0.026h-0.186L102.922,36.356
					L102.922,36.356L102.922,36.356z"/>
				<path fill-rule="evenodd" clip-rule="evenodd" fill="#FD0C15" d="M76.365,24.218l-0.477,3.127
					c-1.033-0.557-1.803-0.769-2.625-0.769c-2.172,0-3.709,2.226-3.709,5.38c0,2.174,1.033,3.498,2.729,3.498
					c0.717,0,1.512-0.238,2.492-0.742l-0.504,3.287c-1.088,0.318-1.775,0.424-2.598,0.424c-3.152,0-5.115-2.385-5.115-6.201
					c0-5.143,2.705-8.746,6.6-8.746c0.504,0,0.955,0.053,1.326,0.158l1.219,0.318C76.02,24.085,76.1,24.111,76.365,24.218
					L76.365,24.218L76.365,24.218z"/>
				<path fill-rule="evenodd" clip-rule="evenodd" fill="#FD0C15" d="M66.639,26.364c-0.078-0.026-0.186-0.026-0.293-0.026
					c-0.953,0-1.51,0.503-2.41,1.907l0.266-1.775h-2.652l-1.8,11.688h2.941c1.061-7.156,1.326-8.376,2.73-8.376
					c0.078,0,0.105,0,0.211,0c0.266-1.404,0.609-2.438,1.113-3.392L66.639,26.364L66.639,26.364L66.639,26.364z"/>
				<path fill-rule="evenodd" clip-rule="evenodd" fill="#FD0C15" d="M49.121,37.999c-0.795,0.265-1.431,0.397-2.094,0.397
					c-1.484,0-2.305-0.901-2.305-2.571c0-0.317,0.026-0.688,0.079-1.06l0.186-1.14l0.132-0.928l1.272-7.977h2.915l-0.344,1.722
					h1.511l-0.424,2.836h-1.484l-0.768,4.877c-0.026,0.212-0.053,0.371-0.053,0.477c0,0.61,0.318,0.875,1.007,0.875
					c0.345,0,0.583-0.026,0.796-0.106L49.121,37.999L49.121,37.999L49.121,37.999z"/>
				<path fill-rule="evenodd" clip-rule="evenodd" fill="#FD0C15" d="M37.565,30.153c0,1.484,0.689,2.492,2.226,3.26
					c1.167,0.584,1.378,0.77,1.378,1.299c0,0.717-0.53,1.061-1.669,1.061c-0.875,0-1.67-0.133-2.625-0.477l-0.397,2.703l0.132,0.026
					l0.53,0.106c0.186,0.026,0.424,0.079,0.769,0.105c0.689,0.053,1.245,0.106,1.617,0.106c3.074,0,4.505-1.246,4.505-3.896
					c0-1.592-0.583-2.545-2.067-3.261c-1.219-0.583-1.352-0.716-1.352-1.272c0-0.636,0.478-0.954,1.431-0.954
					c0.583,0,1.352,0.08,2.094,0.186l0.424-2.703c-0.769-0.133-1.908-0.238-2.571-0.238C38.678,26.206,37.539,27.981,37.565,30.153
					L37.565,30.153L37.565,30.153z"/>
				<path fill-rule="evenodd" clip-rule="evenodd" fill="#FD0C15" d="M99.715,38.132h-2.783l0.133-1.14
					c-0.795,0.901-1.643,1.298-2.703,1.298c-2.146,0-3.551-1.934-3.551-4.85c0-3.896,2.172-7.183,4.77-7.183
					c1.139,0,1.988,0.504,2.809,1.591l0.637-4.108h2.889L99.715,38.132L99.715,38.132L99.715,38.132z M95.395,35.401
					c1.379,0,2.332-1.617,2.332-3.948c0-1.484-0.557-2.306-1.564-2.306c-1.324,0-2.277,1.643-2.277,3.922
					C93.885,34.606,94.389,35.401,95.395,35.401L95.395,35.401L95.395,35.401z"/>
				<path fill-rule="evenodd" clip-rule="evenodd" fill="#FD0C15" d="M58.396,37.894c-1.007,0.317-1.961,0.477-3.021,0.477
					c-3.26,0-4.983-1.803-4.983-5.248c0-4.028,2.173-6.97,5.115-6.97c2.412,0,3.949,1.669,3.949,4.267
					c0,0.848-0.106,1.696-0.37,2.889h-5.832c-0.026,0.186-0.026,0.266-0.026,0.371c0,1.379,0.875,2.067,2.571,2.067
					c1.033,0,1.988-0.238,3.048-0.741L58.396,37.894L58.396,37.894L58.396,37.894z M56.753,30.923
					c0.027-0.238,0.027-0.451,0.027-0.584c0-0.953-0.504-1.51-1.379-1.51c-0.927,0-1.59,0.742-1.855,2.094H56.753L56.753,30.923
					L56.753,30.923z"/>
				<polygon fill-rule="evenodd" clip-rule="evenodd" fill="#FD0C15" points="25.797,38.132 22.882,38.132 24.552,27.079 
					20.789,38.132 18.801,38.132 18.562,27.159 16.786,38.132 14.057,38.132 16.336,23.767 20.55,23.767 20.656,32.672 
					23.518,23.767 28.077,23.767 25.797,38.132 				"/>
				<path fill-rule="evenodd" clip-rule="evenodd" fill="#FD0C15" d="M33.351,32.937c-0.318-0.026-0.451-0.053-0.663-0.053
					c-1.669,0-2.491,0.609-2.491,1.775c0,0.717,0.424,1.193,1.06,1.193C32.424,35.853,33.298,34.659,33.351,32.937L33.351,32.937
					L33.351,32.937z M35.471,38.132h-2.438l0.053-1.22c-0.742,0.981-1.723,1.405-3.074,1.405c-1.59,0-2.677-1.299-2.677-3.181
					c0-2.862,1.908-4.505,5.141-4.505c0.345,0,0.769,0.025,1.193,0.078c0.079-0.396,0.106-0.557,0.106-0.768
					c0-0.77-0.504-1.061-1.882-1.061c-0.822,0-1.776,0.133-2.438,0.344l-0.371,0.133l-0.265,0.08l0.397-2.624
					c1.458-0.45,2.438-0.636,3.499-0.636c2.518,0,3.843,1.192,3.843,3.418c0,0.584-0.053,1.008-0.239,2.333l-0.583,4.161
					l-0.106,0.742l-0.08,0.583l-0.053,0.424L35.471,38.132L35.471,38.132L35.471,38.132z"/>
				<path fill-rule="evenodd" clip-rule="evenodd" fill="#FD0C15" d="M81.428,32.937c-0.293-0.026-0.451-0.053-0.662-0.053
					c-1.67,0-2.52,0.609-2.52,1.775c0,0.717,0.426,1.193,1.061,1.193C80.5,35.853,81.375,34.659,81.428,32.937L81.428,32.937
					L81.428,32.937z M83.547,38.132h-2.438l0.053-1.22c-0.742,0.981-1.723,1.405-3.074,1.405c-1.59,0-2.676-1.299-2.676-3.181
					c0-2.862,1.908-4.505,5.141-4.505c0.318,0,0.77,0.025,1.193,0.078c0.078-0.396,0.105-0.557,0.105-0.768
					c0-0.77-0.504-1.061-1.881-1.061c-0.822,0-1.777,0.133-2.439,0.344l-0.424,0.107l-0.266,0.079l0.398-2.624
					c1.457-0.45,2.438-0.636,3.498-0.636c2.518,0,3.844,1.192,3.844,3.419c0,0.582-0.053,1.007-0.238,2.332l-0.609,4.135
					l-0.08,0.742l-0.08,0.582l-0.053,0.398L83.547,38.132L83.547,38.132L83.547,38.132z"/>
				<path fill-rule="evenodd" clip-rule="evenodd" fill="#FD0C15" d="M91.736,26.364c-0.078-0.026-0.186-0.026-0.291-0.026
					c-0.955,0-1.51,0.503-2.412,1.907l0.266-1.775h-2.65l-1.803,11.688h2.941c1.061-7.156,1.326-8.376,2.73-8.376
					c0.08,0,0.08,0,0.213,0c0.266-1.404,0.635-2.438,1.113-3.392L91.736,26.364L91.736,26.364L91.736,26.364z"/>
				<path fill-rule="evenodd" clip-rule="evenodd" fill="#F3AE12" d="M79.439,49.501c0,2.65-0.82,4.214-2.119,4.214
					c-0.955,0.027-1.512-1.032-1.512-2.597c0-1.854,0.848-3.976,2.174-3.976C79.068,47.143,79.439,48.282,79.439,49.501
					L79.439,49.501L79.439,49.501z M82.328,49.528c0-2.942-1.457-5.248-4.188-5.248c-3.152,0-5.193,2.783-5.193,6.891
					c0,2.942,1.219,5.354,4.186,5.354C80.129,56.524,82.328,54.404,82.328,49.528L82.328,49.528L82.328,49.528z"/>
				<path fill-rule="evenodd" clip-rule="evenodd" fill="#F3AE12" d="M73.873,42.239l-0.449,3.127
					c-0.98-0.556-1.67-0.768-2.438-0.768c-2.041,0-3.473,2.227-3.473,5.38c0,2.173,0.953,3.498,2.543,3.498
					c0.689,0,1.432-0.237,2.334-0.742l-0.479,3.286c-1.008,0.319-1.668,0.424-2.438,0.424c-2.941,0-4.797-2.385-4.797-6.2
					c0-5.143,2.543-8.747,6.176-8.747c0.475,0,0.873,0.053,1.219,0.159l1.111,0.317C73.557,42.081,73.637,42.106,73.873,42.239
					L73.873,42.239L73.873,42.239z"/>
				<path fill-rule="evenodd" clip-rule="evenodd" fill="#F3AE12" d="M55.772,44.359c-0.079-0.026-0.185-0.026-0.292-0.026
					c-0.901,0-1.404,0.504-2.252,1.908l0.265-1.775h-2.464l-1.67,11.688h2.73c0.98-7.155,1.246-8.375,2.544-8.375
					c0.08,0,0.08,0,0.212,0.026c0.238-1.403,0.583-2.438,1.034-3.392L55.772,44.359L55.772,44.359L55.772,44.359z"/>
				<path fill-rule="evenodd" clip-rule="evenodd" fill="#F3AE12" d="M91.498,56.048h-2.596l0.131-1.141
					c-0.742,0.902-1.537,1.3-2.543,1.3c-1.988,0-3.314-1.936-3.314-4.851c0-3.896,2.041-7.183,4.453-7.183
					c1.061,0,1.881,0.504,2.625,1.617l0.609-4.108h2.703L91.498,56.048L91.498,56.048L91.498,56.048z M87.443,53.291
					c1.299,0,2.174-1.616,2.174-3.949c0-1.483-0.504-2.278-1.457-2.278c-1.246,0-2.121,1.617-2.121,3.922
					C86.039,52.522,86.516,53.291,87.443,53.291L87.443,53.291L87.443,53.291z"/>
				<path fill-rule="evenodd" clip-rule="evenodd" fill="#F3AE12" d="M30.118,55.994c-0.928,0.318-1.829,0.478-2.81,0.478
					c-3.048,0-4.638-1.802-4.638-5.247c0-4.003,2.041-6.971,4.77-6.971c2.253,0,3.684,1.643,3.684,4.267
					c0,0.849-0.105,1.696-0.345,2.89h-5.433c-0.027,0.185-0.027,0.265-0.027,0.37c0,1.352,0.822,2.041,2.412,2.041
					c0.98,0,1.855-0.238,2.835-0.742L30.118,55.994L30.118,55.994L30.118,55.994z M28.58,49.024c0-0.239,0.027-0.45,0.027-0.583
					c0-0.954-0.477-1.511-1.299-1.511c-0.875,0-1.484,0.742-1.749,2.094H28.58L28.58,49.024L28.58,49.024z"/>
				<path fill-rule="evenodd" clip-rule="evenodd" fill="#F3AE12" d="M62.662,55.994c-0.926,0.318-1.828,0.478-2.808,0.478
					c-3.074,0-4.665-1.802-4.665-5.247c0-4.003,2.041-6.971,4.77-6.971c2.253,0,3.71,1.643,3.71,4.267
					c0,0.849-0.105,1.696-0.344,2.89h-5.433c-0.026,0.185-0.026,0.265-0.026,0.37c0,1.352,0.822,2.041,2.412,2.041
					c0.979,0,1.854-0.238,2.834-0.742L62.662,55.994L62.662,55.994L62.662,55.994z M61.125,49.024
					c0.027-0.239,0.027-0.45,0.027-0.583c0-0.954-0.477-1.511-1.298-1.511c-0.875,0-1.484,0.742-1.75,2.094H61.125L61.125,49.024
					L61.125,49.024z"/>
				<path fill-rule="evenodd" clip-rule="evenodd" fill="#F3AE12" d="M100.828,55.994c-0.955,0.318-1.855,0.478-2.811,0.478
					c-3.047,0-4.664-1.802-4.664-5.247c0-4.003,2.041-6.971,4.797-6.971c2.254,0,3.684,1.643,3.684,4.267
					c0,0.849-0.105,1.696-0.344,2.89h-5.434c-0.025,0.185-0.025,0.265-0.025,0.37c0,1.352,0.82,2.041,2.412,2.041
					c0.98,0,1.854-0.238,2.834-0.742L100.828,55.994L100.828,55.994L100.828,55.994z M99.291,49.024c0-0.239,0.025-0.45,0.025-0.583
					c0-0.954-0.477-1.511-1.299-1.511c-0.873,0-1.482,0.742-1.748,2.094H99.291L99.291,49.024L99.291,49.024z"/>
				<path fill-rule="evenodd" clip-rule="evenodd" fill="#F3AE12" d="M22.008,44.89c-0.53-0.371-1.272-0.663-2.279-0.663
					c-1.113,0-1.988,0.239-1.988,1.405c0,2.067,4.028,1.299,4.028,5.751c0,4.055-2.65,5.115-5.062,5.115
					c-1.06,0-2.305-0.345-3.207-0.769l0.662-2.969c0.557,0.504,1.644,0.849,2.571,0.849c0.875,0,2.2-0.238,2.2-1.749
					c0-2.359-4.029-1.484-4.029-5.619c0-3.789,2.359-4.903,4.638-4.903c1.272,0,2.491,0.186,3.18,0.663L22.008,44.89L22.008,44.89
					L22.008,44.89z"/>
				<path fill-rule="evenodd" clip-rule="evenodd" fill="#F3AE12" d="M38.122,55.994c-0.557,0.266-1.325,0.451-2.438,0.451
					c-2.385,0-3.869-2.386-3.869-5.301c0-3.816,2.146-6.838,5.3-6.838c0.689,0,1.749,0.292,2.571,0.769l-0.61,2.783
					c-0.583-0.397-1.193-0.637-1.829-0.637c-1.458,0-2.518,1.353-2.518,3.737c0,1.378,0.769,2.518,1.961,2.518
					c0.716,0,1.219-0.159,1.828-0.503L38.122,55.994L38.122,55.994L38.122,55.994z"/>
				<path fill-rule="evenodd" clip-rule="evenodd" fill="#F3AE12" d="M48.352,53.053c-0.133,1.007-0.265,1.987-0.345,3.021h-2.624
					l0.212-1.882h-0.026c-0.822,1.271-1.67,2.147-3.181,2.147c-1.643,0-2.544-1.75-2.544-4.003c0-0.794,0.053-1.219,0.212-2.438
					l0.742-5.406h2.942l-0.795,5.433c-0.08,0.584-0.186,1.167-0.186,1.776c0,0.689,0.318,1.378,1.113,1.324
					c1.193,0,1.908-1.457,2.12-3.18l0.821-5.354h2.836L48.352,53.053L48.352,53.053L48.352,53.053z"/>
				<polygon fill-rule="evenodd" clip-rule="evenodd" fill="#F3AE12" points="103.557,55.941 103.107,55.941 103.107,54.007 
					102.471,54.007 102.471,53.583 104.193,53.583 104.193,54.007 103.557,54.007 103.557,55.941 				"/>
				<polygon fill-rule="evenodd" clip-rule="evenodd" fill="#F3AE12" points="106.5,55.941 106.076,55.941 106.076,53.98 
					106.076,53.98 105.678,55.941 105.254,55.941 104.855,53.98 104.855,53.98 104.855,55.941 104.432,55.941 104.432,53.583 
					105.094,53.583 105.467,55.438 105.492,55.438 105.863,53.583 106.5,53.583 106.5,55.941 				"/>
			</g>
		</g>
	</g>
</g>
</svg>
