<svg xmlns="http://www.w3.org/2000/svg" viewBox="0 0 28 28"><title>gluten-free</title><path d="M15.35,13.16a3.31,3.31,0,0,0,2.38.05A3.11,3.11,0,0,0,19.51,11a.42.42,0,0,0-.23-.48,2.71,2.71,0,0,0-2.51.07,4.09,4.09,0,0,0-1.45,1.56V11l0,0a3.3,3.3,0,0,0,1.16-2.24,3.91,3.91,0,0,0-1.13-2.42.49.49,0,0,0-.75,0A4,4,0,0,0,13.5,8.78,3.35,3.35,0,0,0,14.66,11l0,0v1.18a4.13,4.13,0,0,0-1.47-1.59,2.68,2.68,0,0,0-2.5-.07.4.4,0,0,0-.23.48,3.09,3.09,0,0,0,1.77,2.17,3.34,3.34,0,0,0,2.39-.05l0,0v2.49A4,4,0,0,0,13.22,14a2.63,2.63,0,0,0-2.5-.07.41.41,0,0,0-.23.48,3.09,3.09,0,0,0,1.77,2.17,3.34,3.34,0,0,0,2.39-.05l0,0V19a4,4,0,0,0-1.46-1.6,2.71,2.71,0,0,0-2.51-.07.43.43,0,0,0-.23.49A3.13,3.13,0,0,0,12.27,20,3.46,3.46,0,0,0,14.66,20l0,0V23.5a.31.31,0,0,0,.62,0V20h0a3.43,3.43,0,0,0,2.38.05,3.13,3.13,0,0,0,1.78-2.17.43.43,0,0,0-.23-.49,2.71,2.71,0,0,0-2.51.07A4.11,4.11,0,0,0,15.32,19V16.56h0a3.31,3.31,0,0,0,2.38.05,3.11,3.11,0,0,0,1.78-2.17.42.42,0,0,0-.23-.48,2.68,2.68,0,0,0-2.51.07,4,4,0,0,0-1.45,1.56V13.15Z" transform="translate(-1 -1)"/><path d="M15,1A14,14,0,1,0,29,15,14,14,0,0,0,15,1Zm9.73,20.55c-.24.35-.5.69-.77,1l-3.81-3.81a4.67,4.67,0,0,1-.4.76,3.71,3.71,0,0,1-.69.78l-.33.25,3.6,3.6c-.25.2-.51.4-.77.57a11.66,11.66,0,0,1-13.11,0,11.84,11.84,0,0,1-1.73-1.43,10.85,10.85,0,0,1-1.43-1.74,11.29,11.29,0,0,1-1.09-2,11.76,11.76,0,0,1,0-9.12,11.29,11.29,0,0,1,1.09-2,7.06,7.06,0,0,1,.57-.78L9.7,11.51c0-.08,0-.15-.07-.22a1.33,1.33,0,0,1,.73-1.56,5.64,5.64,0,0,1,.56-.21L7.44,6a12.12,12.12,0,0,1,1-.76,11.74,11.74,0,0,1,2-1.09,11.88,11.88,0,0,1,9.12,0,11.29,11.29,0,0,1,2,1.09,11.57,11.57,0,0,1,3.17,3.17,10.63,10.63,0,0,1,1.08,2,11.76,11.76,0,0,1,0,9.12,10.63,10.63,0,0,1-1.08,2Z" transform="translate(-1 -1)"/></svg>