<svg xmlns="http://www.w3.org/2000/svg" viewBox="0 0 393.64228 96.14514"><title>logo-top-tim</title><path d="M248.86356,75.338l-5.58619,26.28736h7.5578l5.586-26.28736ZM265.35877,99.5221a8.65751,8.65751,0,0,1-8.60912,7.09786H242.22588l-1.90611,9.06923h-13.998l9.59511-45.34612h29.83654a4.46969,4.46969,0,0,1,3.77843,1.57712,4.77655,4.77655,0,0,1,.69059,4.07481ZM191.49106,75.995a6.94092,6.94092,0,0,1,2.46434-4.07481,6.83256,6.83256,0,0,1,4.43619-1.57712H222.576a4.39393,4.39393,0,0,1,3.71321,1.57712,4.7774,4.7774,0,0,1,.69014,4.07481l-4.92876,23.5271a8.99832,8.99832,0,0,1-3.08877,5.15915,8.4502,8.4502,0,0,1-5.52028,1.93871H192.08237a5.72167,5.72167,0,0,1-4.76424-1.93871,5.85663,5.85663,0,0,1-.82195-5.15915Zm14.19508-.657-5.6517,26.28736h7.55781L213.244,75.338ZM188.86223,66.9253h-11.3034l-8.412,39.69466H154.03142l8.41219-39.69466h-11.304l1.18291-5.65147h37.72264Z" transform="translate(-3.35772 -57.39897)" fill="#d41712"/><path d="M386.61007,106.62H372.61216l6.703-31.282h-7.55735l-6.70341,31.282H351.1219l6.70342-31.282h-7.55781l-6.70327,31.282H329.56633L337.321,70.34307h51.39235a4.39232,4.39232,0,0,1,3.71267,1.57712,4.77428,4.77428,0,0,1,.69,4.07481Zm-63.61572,0h-13.998l7.689-36.27689h13.99791Zm8.54314-40.35124h-13.998l1.05149-4.99489h13.998Zm-18.861.65658H301.37266L292.96071,106.62h-15.115l8.41158-39.69466H274.954l1.18292-5.65147h37.72242Z" transform="translate(-3.35772 -57.39897)" fill="#004b9b"/><polygon points="51.222 80.328 64.313 80.432 81.766 31.289 105.409 31.289 112.34 11.488 71.368 11.488 69.098 17.672 73.286 17.613 51.222 80.328" fill="#004b9b" fill-rule="evenodd"/><path d="M53.496,147.21458a87.31185,87.31185,0,0,0,18.53678,1.95949c34.48011,0,62.43181-19.56616,62.43181-43.70241,0-11.81458-6.70056-22.53279-17.5828-30.39826l1.72476-4.92681c13.58841,8.78321,22.10112,21.358,22.10112,35.326,0,26.549-30.74657,48.07153-68.67489,48.07153a92.0224,92.0224,0,0,1-33.91345-6.26186Z" transform="translate(-3.35772 -57.39897)" fill="#004b9b" fill-rule="evenodd"/><path d="M72.03276,57.399a89.47968,89.47968,0,0,1,40.29762,9.14573h-11.891a84.48544,84.48544,0,0,0-28.40663-4.77545c-34.47965,0-62.432,19.566-62.432,43.70241,0,13.89654,9.26743,26.276,23.71022,34.28085l-1.62139,4.62385c-17.168-8.73877-28.33191-22.90774-28.33191-38.90377,0-26.55114,30.747-48.07362,68.675-48.07362" transform="translate(-3.35772 -57.39897)" fill="#d41712" fill-rule="evenodd"/><polygon points="72.584 18.169 32.257 18.733 25.709 37.302 48.731 37.302 31.401 86.733 48.463 86.733 72.584 18.169" fill="#d41712" fill-rule="evenodd"/><path d="M146.95552,120.75439s3.90677-.07209,10.74378-.19935c6.83747-.08321,16.60471-.28487,28.3262-.37866,11.72048-.08607,25.3958-.27684,40.04619-.316,14.65062-.04335,30.27919-.08978,45.90684-.13753,15.62739.04667,31.25534.093,45.90705.13621,14.65063.03415,28.32619.23017,40.04612.31493,11.72133.09156,21.489.29616,28.32511.38,6.83642.12833,10.74319.20042,10.74319.20042s-3.90677.07224-10.74494.20019c-6.83609.08368-16.604.288-28.32505.38021-11.72062.08453-25.39557.2797-40.04622.3147-14.65062.04334-30.27895.08955-45.907.136-15.62715-.04752-31.25487-.09372-45.90658-.1373-14.65065-.03917-28.32621-.23017-40.04636-.31578-11.72064-.09419-21.489-.29546-28.3262-.37913-6.83531-.12664-10.74208-.19888-10.74208-.19888" transform="translate(-3.35772 -57.39897)" fill="#d41712" fill-rule="evenodd"/><polygon points="173.889 73.658 177.377 73.658 179.842 82.194 182.052 73.658 185.308 73.658 184.448 76.984 186.494 82.194 188.936 73.658 192.425 73.658 188.425 86.008 184.796 86.008 182.936 81.543 181.54 86.008 177.842 86.008 173.889 73.658" fill="#004b9b"/><polygon points="193.332 73.658 196.821 73.658 199.286 82.194 201.496 73.658 204.752 73.658 203.891 76.984 205.938 82.194 208.38 73.658 211.869 73.658 207.868 86.008 204.24 86.008 202.379 81.543 200.984 86.008 197.286 86.008 193.332 73.658" fill="#004b9b"/><polygon points="212.775 73.658 216.264 73.658 218.729 82.194 220.939 73.658 224.195 73.658 223.334 76.984 225.381 82.194 227.823 73.658 231.312 73.658 227.312 86.008 223.683 86.008 221.823 81.543 220.427 86.008 216.729 86.008 212.775 73.658" fill="#004b9b"/><path d="M268.81179,141.03478a1.42506,1.42506,0,0,0,.88374-.25575c.48861-.39535.72117-1.55856.72117-3.46528a7.19439,7.19439,0,0,0-.39552-2.81434,1.27078,1.27078,0,0,0-1.20939-.79064,5.45228,5.45228,0,0,0-2.90721.7442v6.11668a8.28406,8.28406,0,0,0,2.90721.46513M265.90458,132.29a6.97825,6.97825,0,0,1,1.721-.95359,5.42457,5.42457,0,0,1,2.09316-.41877,3.6446,3.6446,0,0,1,1.83757.44195,3.08784,3.08784,0,0,1,1.25584,1.30251,9.6715,9.6715,0,0,1,.8605,4.5119c0,2.51194-.3721,4.25617-1.11631,5.20976a3.50364,3.50364,0,0,1-2.90723,1.20964,8.31339,8.31339,0,0,1-1.88375-.23279,9.25724,9.25724,0,0,1-1.86075-.55831v6.88452h-3.233V131.0573h2.67464Zm-12.69879,1.90695a2.43742,2.43742,0,0,0-.39528,1.13972,15.32452,15.32452,0,0,0-.09312,2.00029,13.68072,13.68072,0,0,0,.1163,1.95361,1.988,1.988,0,0,0,.44194,1.0467,1.32633,1.32633,0,0,0,.69761.465,4.44594,4.44594,0,0,0,1.06988.09287c.44194,0,.79086-.02325,1.02366-.04643a1.8306,1.8306,0,0,0,.651-.23241,1.03585,1.03585,0,0,0,.442-.58149,6.749,6.749,0,0,0,.30247-2.27929c0-.95359-.02324-1.65136-.04642-2.09308a6.01046,6.01046,0,0,0-.20962-1.11654,1.00316,1.00316,0,0,0-.4418-.62792,2.91735,2.91735,0,0,0-1.48864-.3721,5.881,5.881,0,0,0-1.37212.11628,1.19692,1.19692,0,0,0-.69777.53482m-3.74429,3.27931a17.27637,17.27637,0,0,1,.186-2.69782,6.3146,6.3146,0,0,1,.58148-1.8371,3.14945,3.14945,0,0,1,1.09282-1.18639,7.19534,7.19534,0,0,1,3.768-.81413c2.11634,0,3.60475.46543,4.419,1.39577.81388.93,1.20939,2.58139,1.20939,4.95393,0,2.39542-.39551,4.0236-1.18614,4.90711-.81414.8839-2.2793,1.3257-4.4423,1.3257-2.11655,0-3.58157-.465-4.4191-1.41857C249.85685,141.19757,249.4615,139.63947,249.4615,137.47623Zm-9.39645-3.95367v-1.81408l2.00028-.67436.53506-3.4425h2.72107v3.4425h2.76743v2.48844h-2.76743v4.95393a4.26238,4.26238,0,0,0,.25581,1.74424,1.46253,1.46253,0,0,0,.79065.698,11.12427,11.12427,0,0,0,1.55849.48815v2.00029h-2.83758c-2.02349,0-3.0235-1.46516-3.0235-4.419v-5.46557Zm-4.95371,9.34955V140.779c0-.39535.186-.58149.55807-.58149h2.00029a.508.508,0,0,1,.5815.58149v2.09308c0,.3487-.1862.53506-.5815.53506h-2.00029a.47964.47964,0,0,1-.39535-.16272.43478.43478,0,0,1-.16272-.37234" transform="translate(-3.35772 -57.39897)" fill="#004b9b"/><path d="M324.72345,137.22041a13.52529,13.52529,0,0,1,.30247-3.13954,4.25311,4.25311,0,0,1,.86026-1.93067,3.16978,3.16978,0,0,1,1.25608-.93034,4.46936,4.46936,0,0,1,1.65112-.27907,18.713,18.713,0,0,1,5.675.72126v2.02346c-1.465-.09333-2.6514-.13969-3.512-.13969-.88375,0-1.4188.02318-1.5815.04636a1.79858,1.79858,0,0,0-.60468.23264,1.07141,1.07141,0,0,0-.46519.58148,8.936,8.936,0,0,0-.32568,2.69783,9.35421,9.35421,0,0,0,.23256,2.53534,1.49352,1.49352,0,0,0,.65142,1,2.757,2.757,0,0,0,1.34887.25558c1.25584,0,2.51192-.04643,3.79118-.16248l.6277-.04667v2.04672a5.86423,5.86423,0,0,1-2.09316.6511c-1,.09311-1.88376.13955-2.62813.13955h-1.1164a3.59482,3.59482,0,0,1-2.88393-1.23244c-.79065-.90716-1.186-2.605-1.186-5.07045m-5.48876,5.6517V140.779c0-.39535.186-.58149.55806-.58149H321.793a.508.508,0,0,1,.58151.58149v2.09308c0,.3487-.18621.53506-.58151.53506h-2.00029a.47938.47938,0,0,1-.39535-.16272.43477.43477,0,0,1-.16271-.37234m-13.2568-7.69842c0-1.11607-.46543-1.67454-1.37211-1.67454a4.09757,4.09757,0,0,0-1.53533.2328,5.98469,5.98469,0,0,0-1.37212.81389v8.86133h-3.25615V131.0573h2.605l.65118,1.32569c.04643-.02317.20939-.13969.465-.32566.256-.18613.51181-.34885.76785-.5118a5.086,5.086,0,0,1,1.09292-.465,5.2711,5.2711,0,0,1,1.51182-.20939q2.40715,0,3.20946,1.6047a7.45227,7.45227,0,0,1,4.44251-1.6047c2.44185,0,3.67469,1.442,3.67469,4.349v8.187h-3.25613v-8.23348c0-.83707-.256-1.37213-.791-1.58151a1.52824,1.52824,0,0,0-.58111-.093,4.541,4.541,0,0,0-3.0235.977l.02318.7208v8.21022h-3.25606ZM293.093,143.40717V131.0573H296.349v12.34987Zm-.11629-14.18736v-2.04672c0-.39536.1859-.60474.558-.60474h2.44225c.34892,0,.51162.20938.51162.60474v2.04672c0,.34884-.1627.53505-.51162.53505h-2.44225a.54665.54665,0,0,1-.39528-.13954A.47968.47968,0,0,1,292.97669,129.21981Zm-9.39621,4.30275v-1.81408l2-.67436.53506-3.4425h2.72124v3.4425h2.76752v2.48844h-2.76752v4.95393a4.26238,4.26238,0,0,0,.25581,1.74424,1.4617,1.4617,0,0,0,.79065.698,11.125,11.125,0,0,0,1.55834.48815v2.00029H288.604c-2.02332,0-3.0235-1.46516-3.0235-4.419v-5.46557Zm-8.1172,4.512v-2.74426h7.30282v2.74426Z" transform="translate(-3.35772 -57.39897)" fill="#004b9b"/><path d="M356.49343,135.17369c0-1.11607-.46536-1.67454-1.37212-1.67454a4.09783,4.09783,0,0,0-1.53532.2328,5.988,5.988,0,0,0-1.37212.81389v8.86133h-3.25613V131.0573h2.605l.65111,1.32569c.04643-.02317.20938-.13969.46519-.32566.25584-.18613.51165-.34885.76762-.5118a5.08834,5.08834,0,0,1,1.09291-.465,5.27212,5.27212,0,0,1,1.51213-.20939q2.40669,0,3.20923,1.6047a7.45194,7.45194,0,0,1,4.44254-1.6047c2.44175,0,3.67458,1.442,3.67458,4.349v8.187H364.122v-8.23348c0-.83707-.256-1.37213-.7911-1.58151a1.52742,1.52742,0,0,0-.581-.093,4.541,4.541,0,0,0-3.02357.977l.02327.7208v8.21022h-3.25615Zm-17.00153-.97677a2.43753,2.43753,0,0,0-.39528,1.13972,15.32452,15.32452,0,0,0-.09312,2.00029,13.64341,13.64341,0,0,0,.11653,1.95361,1.98611,1.98611,0,0,0,.44171,1.0467,1.32633,1.32633,0,0,0,.69761.465,4.4461,4.4461,0,0,0,1.06988.09287c.44217,0,.79089-.02325,1.02368-.04643a1.82925,1.82925,0,0,0,.65095-.23241,1.03591,1.03591,0,0,0,.44194-.58149,6.74886,6.74886,0,0,0,.3025-2.27929c0-.95359-.02327-1.65136-.04645-2.09308a6.01046,6.01046,0,0,0-.20962-1.11654,1.00284,1.00284,0,0,0-.44178-.62792,2.91749,2.91749,0,0,0-1.48866-.3721,5.88253,5.88253,0,0,0-1.37212.11628,1.19692,1.19692,0,0,0-.69777.53482m-3.74429,3.27931a17.27637,17.27637,0,0,1,.186-2.69782,6.32186,6.32186,0,0,1,.58148-1.8371,3.15,3.15,0,0,1,1.09285-1.18639,7.19551,7.19551,0,0,1,3.76822-.81413c2.1161,0,3.60453.46543,4.41881,1.39577.8139.93,1.20942,2.58139,1.20942,4.95393,0,2.39542-.39552,4.0236-1.18617,4.90711-.8139.8839-2.27927,1.3257-4.44206,1.3257-2.11679,0-3.58181-.465-4.41934-1.41857C336.143,141.19757,335.74761,139.63947,335.74761,137.47623Z" transform="translate(-3.35772 -57.39897)" fill="#004b9b"/></svg>