<svg xmlns="http://www.w3.org/2000/svg" viewBox="0 0 24.48 28"><title>vegeterian</title><path d="M15,9.58a.84.84,0,0,1,.84.84v5.39c5.56-5.09,4.44-10.45-.22-14.57a.93.93,0,0,0-1.25,0c-4.67,4.15-5.77,9.5-.22,14.57V10.42A.85.85,0,0,1,15,9.58Z" transform="translate(-2.76 -1)"/><path d="M10.49,18l3.65,3.64c-.15-5.84-3.67-9.32-10.46-8.93a1,1,0,0,0-.89.88c-.32,5.51,2,10.55,9.56,10.48h0c.7,0,1.29-.05,1.71-.09v0L9.29,19.22a.84.84,0,0,1,0-1.19.85.85,0,0,1,1.2,0Z" transform="translate(-2.76 -1)"/><path d="M27.21,13.62a1,1,0,0,0-.89-.88c-6.48-.38-10.07,2.8-10.42,8.31,0,.21,0,.42,0,.62L19.5,18a.85.85,0,0,1,1.2,0,.84.84,0,0,1,0,1.19L15.93,24a0,0,0,0,0,0,0c8.75.88,11.64-4.33,11.27-10.39Z" transform="translate(-2.76 -1)"/><path d="M14.15,24.18v4a.85.85,0,1,0,1.69,0v-4Z" transform="translate(-2.76 -1)"/></svg>