<?xml version="1.0" encoding="utf-8"?>
<!-- Generator: Adobe Illustrator 24.0.2, SVG Export Plug-In . SVG Version: 6.00 Build 0)  -->
<svg version="1.1" id="Layer_1" xmlns="http://www.w3.org/2000/svg" xmlns:xlink="http://www.w3.org/1999/xlink" x="0px" y="0px"
	 viewBox="0 0 217.6 64.8" style="enable-background:new 0 0 217.6 64.8;" xml:space="preserve">
<style type="text/css">
	.st0{clip-path:url(#SVGID_2_);}
	.st1{clip-path:url(#SVGID_4_);}
	.st2{fill:#A7A9AB;}
	.st3{fill:#FFFFFF;}
	.st4{fill:#59C9F4;}
	.st5{clip-path:url(#SVGID_6_);}
	.st6{clip-path:url(#SVGID_8_);}
	.st7{clip-path:url(#SVGID_10_);}
	.st8{clip-path:url(#SVGID_12_);}
	.st9{clip-path:url(#SVGID_14_);}
	.st10{clip-path:url(#SVGID_16_);}
	.st11{clip-path:url(#SVGID_18_);}
	.st12{clip-path:url(#SVGID_20_);}
	.st13{clip-path:url(#SVGID_22_);}
	.st14{clip-path:url(#SVGID_24_);}
	.st15{clip-path:url(#SVGID_26_);}
	.st16{clip-path:url(#SVGID_28_);}
</style>
<g id="surface1">
	<g>
		<defs>
			<rect id="SVGID_1_" y="1" width="217" height="63.8"/>
		</defs>
		<clipPath id="SVGID_2_">
			<use xlink:href="#SVGID_1_"  style="overflow:visible;"/>
		</clipPath>
		<g class="st0">
			<path d="M209.4,64H8.2c-4.1,0-7.4-3.3-7.4-7.4V9c0-4.1,3.3-7.4,7.4-7.4h201.2c4.1,0,7.4,3.3,7.4,7.4v47.7
				C216.8,60.7,213.5,64,209.4,64"/>
		</g>
	</g>
	<g>
		<defs>
			<rect id="SVGID_3_" y="0" width="217.6" height="64.8"/>
		</defs>
		<clipPath id="SVGID_4_">
			<use xlink:href="#SVGID_3_"  style="overflow:visible;"/>
		</clipPath>
		<g class="st1">
			<path class="st2" d="M8.2,2.4C4.6,2.4,1.6,5.3,1.6,9v47.7c0,3.6,2.9,6.6,6.6,6.6h201.2c3.6,0,6.6-2.9,6.6-6.6V9
				c0-3.6-2.9-6.6-6.6-6.6H8.2z M209.4,64.8H8.2c-4.5,0-8.2-3.7-8.2-8.2V9c0-4.5,3.7-8.2,8.2-8.2h201.2c4.5,0,8.2,3.7,8.2,8.2v47.7
				C217.6,61.2,213.9,64.8,209.4,64.8"/>
		</g>
	</g>
	<path class="st3" d="M172.2,49.1h3V29h-3V49.1z M199.2,36.2l-3.4,8.7h-0.1l-3.6-8.7h-3.2l5.4,12.2l-3.1,6.8h3.1l8.2-19H199.2z
		 M182.2,46.8c-1,0-2.4-0.5-2.4-1.7c0-1.6,1.7-2.1,3.2-2.1c1.3,0,1.9,0.3,2.7,0.7C185.5,45.5,183.9,46.8,182.2,46.8 M182.6,35.8
		c-2.2,0-4.4,1-5.4,3.1l2.7,1.1c0.6-1.1,1.6-1.5,2.7-1.5c1.6,0,3.1,0.9,3.2,2.6v0.2c-0.5-0.3-1.7-0.8-3.1-0.8
		c-2.9,0-5.8,1.6-5.8,4.5c0,2.7,2.4,4.4,5,4.4c2,0,3.1-0.9,3.8-2h0.1V49h2.9v-7.7C188.7,37.8,186,35.8,182.6,35.8 M164,38.7h-4.3
		v-6.9h4.3c2.2,0,3.5,1.9,3.5,3.4C167.5,36.8,166.3,38.7,164,38.7 M163.9,29h-7.2v20.1h3v-7.6h4.2c3.3,0,6.6-2.4,6.6-6.2
		S167.3,29,163.9,29 M124.7,46.8c-2.1,0-3.8-1.7-3.8-4.1c0-2.4,1.7-4.2,3.8-4.2c2,0,3.7,1.8,3.7,4.2
		C128.4,45.1,126.8,46.8,124.7,46.8 M128.2,37.3h-0.1c-0.7-0.8-2-1.5-3.6-1.5c-3.4,0-6.6,3-6.6,6.9c0,3.8,3.1,6.8,6.6,6.8
		c1.6,0,2.9-0.7,3.6-1.6h0.1v1c0,2.6-1.4,4-3.7,4c-1.8,0-3-1.3-3.4-2.4l-2.6,1.1c0.8,1.8,2.7,4,6.1,4c3.5,0,6.5-2.1,6.5-7.1V36.2
		h-2.9V37.3z M133.1,49.1h3V29h-3V49.1z M140.5,42.4c-0.1-2.6,2-4,3.6-4c1.2,0,2.2,0.6,2.5,1.4L140.5,42.4z M149.9,40.2
		c-0.6-1.5-2.3-4.4-5.9-4.4c-3.5,0-6.4,2.8-6.4,6.8c0,3.8,2.9,6.8,6.8,6.8c3.1,0,4.9-1.9,5.7-3l-2.3-1.6c-0.8,1.1-1.8,1.9-3.4,1.9
		s-2.6-0.7-3.3-2.1l9.1-3.8L149.9,40.2z M77,37.9v2.9h6.9c-0.2,1.6-0.8,2.8-1.6,3.7c-1,1-2.6,2.1-5.4,2.1c-4.3,0-7.6-3.4-7.6-7.7
		c0-4.3,3.3-7.7,7.6-7.7c2.3,0,4,0.9,5.2,2.1l2-2.1c-1.7-1.7-4-2.9-7.3-2.9c-5.9,0-10.8,4.8-10.8,10.6S71.1,49.5,77,49.5
		c3.2,0,5.5-1,7.4-3c1.9-1.9,2.5-4.6,2.5-6.8c0-0.7-0.1-1.3-0.2-1.8H77z M94.8,46.8c-2.1,0-3.9-1.7-3.9-4.1c0-2.5,1.8-4.1,3.9-4.1
		s3.9,1.7,3.9,4.1C98.7,45.1,96.9,46.8,94.8,46.8 M94.8,35.8c-3.8,0-6.9,2.9-6.9,6.8c0,3.9,3.1,6.8,6.9,6.8s6.9-2.9,6.9-6.8
		C101.7,38.7,98.6,35.8,94.8,35.8 M109.8,46.8c-2.1,0-3.9-1.7-3.9-4.1c0-2.5,1.8-4.1,3.9-4.1c2.1,0,3.9,1.7,3.9,4.1
		C113.6,45.1,111.8,46.8,109.8,46.8 M109.8,35.8c-3.8,0-6.9,2.9-6.9,6.8c0,3.9,3.1,6.8,6.9,6.8c3.8,0,6.9-2.9,6.9-6.8
		C116.6,38.7,113.6,35.8,109.8,35.8"/>
	<path class="st4" d="M17,13c-0.5,0.5-0.7,1.3-0.7,2.3v35.5c0,1,0.3,1.8,0.7,2.3l0.1,0.1L37,33.2v-0.5L17.1,12.9"/>
	<g>
		<defs>
			<rect id="SVGID_5_" x="37" y="26.1" width="16" height="13.8"/>
		</defs>
		<clipPath id="SVGID_6_">
			<use xlink:href="#SVGID_5_"  style="overflow:visible;"/>
		</clipPath>
		<g class="st5">
			<g>
				<defs>
					<path id="SVGID_7_" d="M37,32.8v0.5l6.6,6.6l0.1-0.1l7.9-4.5c2.2-1.3,2.2-3.4,0-4.6l-7.9-4.5l-0.2-0.1L37,32.8z"/>
				</defs>
				<clipPath id="SVGID_8_">
					<use xlink:href="#SVGID_7_"  style="overflow:visible;"/>
				</clipPath>
				<g class="st6">
					<g>
						<defs>
							<path id="SVGID_9_" d="M37,32.8v0.5l6.6,6.6l0.1-0.1l7.9-4.5c2.2-1.3,2.2-3.4,0-4.6l-7.9-4.5l-0.2-0.1L37,32.8z"/>
						</defs>
						<clipPath id="SVGID_10_">
							<use xlink:href="#SVGID_9_"  style="overflow:visible;"/>
						</clipPath>
						<g class="st7">
							<g transform="matrix(0.1,0,0,-0.1,36.9,115.94)">
								
									<image style="overflow:visible;enable-background:new    ;" width="165" height="138" id="image5" xlink:href="11DC40929CFD5868.png"  transform="matrix(0.1 0 0 -0.1 36.9 39.9361)">
								</image>
							</g>
						</g>
					</g>
				</g>
			</g>
		</g>
	</g>
	<g>
		<defs>
			<rect id="SVGID_11_" x="17" y="33" width="27" height="21"/>
		</defs>
		<clipPath id="SVGID_12_">
			<use xlink:href="#SVGID_11_"  style="overflow:visible;"/>
		</clipPath>
		<g class="st8">
			<g>
				<defs>
					<path id="SVGID_13_" d="M17,53c0.7,0.8,2,0.9,3.3,0.1l23.5-13.3L37,33L17,53z"/>
				</defs>
				<clipPath id="SVGID_14_">
					<use xlink:href="#SVGID_13_"  style="overflow:visible;"/>
				</clipPath>
				<g class="st9">
					<g>
						<defs>
							<path id="SVGID_15_" d="M17,53c0.7,0.8,2,0.9,3.3,0.1l23.5-13.3L37,33L17,53z"/>
						</defs>
						<clipPath id="SVGID_16_">
							<use xlink:href="#SVGID_15_"  style="overflow:visible;"/>
						</clipPath>
						<g class="st10">
							<g>
								<defs>
									<path id="SVGID_17_" d="M26.7,23.3L6.6,43.4l23.8,23.8l20.1-20.1L26.7,23.3z M30.4,19.6l-3.7,3.7l23.8,23.8l3.7-3.7
										L30.4,19.6z"/>
								</defs>
								<clipPath id="SVGID_18_">
									<use xlink:href="#SVGID_17_"  style="overflow:visible;"/>
								</clipPath>
								<g class="st11">
									<g transform="matrix(0.1,0,0,-0.1,16.9,129.74)">
										
											<image style="overflow:visible;enable-background:new    ;" width="269" height="207" id="image8" xlink:href="11DC40929CFD5868.png"  transform="matrix(0.1 0 0 -0.1 16.9 53.7361)">
										</image>
									</g>
								</g>
							</g>
						</g>
					</g>
				</g>
			</g>
		</g>
	</g>
	<g>
		<defs>
			<rect id="SVGID_19_" x="17" y="12" width="27" height="21"/>
		</defs>
		<clipPath id="SVGID_20_">
			<use xlink:href="#SVGID_19_"  style="overflow:visible;"/>
		</clipPath>
		<g class="st12">
			<g>
				<defs>
					<path id="SVGID_21_" d="M17,13l20,20l6.8-6.8L20.3,12.9c-0.6-0.4-1.3-0.5-1.8-0.5C17.9,12.3,17.4,12.6,17,13"/>
				</defs>
				<clipPath id="SVGID_22_">
					<use xlink:href="#SVGID_21_"  style="overflow:visible;"/>
				</clipPath>
				<g class="st13">
					<g>
						<defs>
							<path id="SVGID_23_" d="M17,13l20,20l6.8-6.8L20.3,12.9c-0.6-0.4-1.3-0.5-1.8-0.5C17.9,12.3,17.4,12.6,17,13"/>
						</defs>
						<clipPath id="SVGID_24_">
							<use xlink:href="#SVGID_23_"  style="overflow:visible;"/>
						</clipPath>
						<g class="st14">
							<g>
								<defs>
									<path id="SVGID_25_" d="M6.6,22.7l13.2,13.2l23.8-23.8L30.3-1.1L6.6,22.7z M19.8,35.9l10.6,10.6l23.8-23.8L43.6,12.1
										L19.8,35.9z"/>
								</defs>
								<clipPath id="SVGID_26_">
									<use xlink:href="#SVGID_25_"  style="overflow:visible;"/>
								</clipPath>
								<g class="st15">
									<g transform="matrix(0.1,0,0,-0.1,16.9,109.04)">
										
											<image style="overflow:visible;enable-background:new    ;" width="269" height="207" id="image11" xlink:href="11DC40929CFD5868.png"  transform="matrix(0.1 0 0 -0.1 16.9 33.0361)">
										</image>
									</g>
								</g>
							</g>
						</g>
					</g>
				</g>
			</g>
		</g>
	</g>
	<path class="st3" d="M73.9,14.1c-0.6-0.5-1.4-0.9-2.3-0.9c-2,0-3.5,1.6-3.5,3.6c0,2,1.5,3.6,3.5,3.6c1.7,0,2.9-1,3-2.6H72v-1.1h4.1
		c0,3.3-1.8,4.9-4.5,4.9c-2.7,0-4.8-2.2-4.8-4.8c0-2.7,2.1-4.9,4.8-4.9c1.2,0,2.4,0.5,3.2,1.2"/>
	<path class="st3" d="M83.5,12.1v1.2h-4.3v3h3.8v1.2h-3.8v2.9h4.5v1.2h-5.7v-9.5"/>
	<path class="st3" d="M91.8,12.1v1.2h-2.9v8.3h-1.3v-8.3h-2.9v-1.2"/>
	<path class="st3" d="M96.6,21.6h1.3v-9.5h-1.3V21.6z"/>
	<path class="st3" d="M106.6,12.1v1.2h-2.9v8.3h-1.3v-8.3h-2.9v-1.2"/>
	<path class="st3" d="M115.6,20.5c2,0,3.5-1.6,3.5-3.6c0-2-1.5-3.6-3.5-3.6c-2,0-3.5,1.6-3.5,3.6C112.1,18.9,113.6,20.5,115.6,20.5
		 M115.6,12c2.7,0,4.8,2.2,4.8,4.9c0,2.7-2.1,4.8-4.8,4.8c-2.7,0-4.8-2.2-4.8-4.8C110.8,14.2,112.9,12,115.6,12"/>
	<path class="st3" d="M128,21.6l-4.3-7.1v7.1h-1.3v-9.5h1.3l4.3,7.1v-7.1h1.3v9.5"/>
	<path d="M209.4-12.8H8.2c-4.1,0-7.4-3.3-7.4-7.4v-47.7c0-4.1,3.3-7.4,7.4-7.4h201.2c4.1,0,7.4,3.3,7.4,7.4v47.7
		C216.8-16.1,213.5-12.8,209.4-12.8"/>
	<g>
		<defs>
			<rect id="SVGID_27_" y="-76" width="217.6" height="65"/>
		</defs>
		<clipPath id="SVGID_28_">
			<use xlink:href="#SVGID_27_"  style="overflow:visible;"/>
		</clipPath>
		<g class="st16">
			<path class="st2" d="M8.2-74.4c-3.6,0-6.6,2.9-6.6,6.6v47.7c0,3.6,2.9,6.6,6.6,6.6h201.2c3.6,0,6.6-2.9,6.6-6.6v-47.7
				c0-3.6-2.9-6.6-6.6-6.6H8.2z M209.4-12H8.2C3.7-12,0-15.6,0-20.1v-47.7C0-72.3,3.7-76,8.2-76h201.2c4.5,0,8.2,3.7,8.2,8.2v47.7
				C217.6-15.6,213.9-12,209.4-12"/>
		</g>
	</g>
	<path class="st3" d="M75.5-59.2l-0.8-2.6c-0.2-0.6-0.4-1.4-0.5-2h0c-0.2,0.6-0.3,1.3-0.5,2l-0.8,2.6H75.5z M72.4-57.8l-0.9,3h-2
		l3.4-10.5h2.4l3.4,10.5h-2.1l-1-3"/>
	<path class="st3" d="M81.7-62.4l1.2,3.9c0.2,0.7,0.4,1.3,0.5,1.9h0c0.1-0.6,0.3-1.2,0.5-1.9l1.2-3.9h2l-2.9,7.6h-1.9l-2.8-7.6"/>
	<path class="st3" d="M93-58.5c-1.4,0-2.7,0.3-2.7,1.4c0,0.8,0.5,1.1,1.1,1.1c0.8,0,1.3-0.5,1.5-1c0.1-0.1,0.1-0.3,0.1-0.4V-58.5z
		 M94.9-56.6c0,0.7,0,1.4,0.1,1.8h-1.7l-0.1-0.8h-0.1c-0.4,0.6-1.2,1-2.2,1c-1.5,0-2.4-1.1-2.4-2.3c0-1.9,1.7-2.9,4.5-2.9v-0.1
		c0-0.5-0.2-1.3-1.5-1.3c-0.8,0-1.5,0.2-2,0.6L89-61.9c0.6-0.3,1.5-0.7,2.8-0.7c2.4,0,3.1,1.5,3.1,3.2"/>
	<path class="st3" d="M97.6-62.4h1.9v7.6h-1.9V-62.4z M98.5-63.5c-0.6,0-1.1-0.5-1.1-1c0-0.6,0.4-1,1.1-1c0.7,0,1.1,0.5,1.1,1
		C99.6-64,99.2-63.5,98.5-63.5"/>
	<path class="st3" d="M102.3-54.8h1.9v-11.1h-1.9V-54.8z"/>
	<path class="st3" d="M111-58.5c-1.4,0-2.7,0.3-2.7,1.4c0,0.8,0.5,1.1,1.1,1.1c0.8,0,1.3-0.5,1.5-1c0-0.1,0-0.3,0-0.4V-58.5z
		 M112.9-56.6c0,0.7,0,1.4,0.1,1.8h-1.7l-0.1-0.8h0c-0.5,0.6-1.2,1-2.2,1c-1.5,0-2.4-1.1-2.4-2.3c0-1.9,1.7-2.9,4.5-2.9v-0.1
		c0-0.5-0.2-1.3-1.5-1.3c-0.8,0-1.5,0.2-2,0.6l-0.4-1.2c0.6-0.3,1.5-0.7,2.7-0.7c2.4,0,3.1,1.5,3.1,3.2"/>
	<path class="st3" d="M117.5-57.9c0,0.2,0,0.3,0,0.5c0.2,0.8,0.9,1.3,1.7,1.3c1.2,0,1.9-1,1.9-2.5c0-1.3-0.6-2.4-1.9-2.4
		c-0.8,0-1.5,0.6-1.7,1.4c0,0.1-0.1,0.3-0.1,0.5V-57.9z M115.6-65.9h1.9v4.5h0c0.5-0.7,1.3-1.2,2.4-1.2c1.9,0,3.2,1.5,3.2,3.9
		c0,2.7-1.7,4.1-3.4,4.1c-1,0-1.9-0.4-2.4-1.3h0l-0.1,1.1h-1.6c0-0.5,0.1-1.4,0.1-2.1"/>
	<path class="st3" d="M125.4-54.8h1.9v-11.1h-1.9V-54.8z"/>
	<path class="st3" d="M134.8-59.4c0-0.7-0.3-1.9-1.6-1.9c-1.2,0-1.7,1.1-1.8,1.9H134.8z M131.5-58.1c0,1.4,1.1,2,2.3,2
		c0.9,0,1.5-0.1,2.1-0.3l0.3,1.3c-0.7,0.3-1.6,0.5-2.7,0.5c-2.5,0-3.9-1.5-3.9-3.8c0-2.1,1.3-4.1,3.7-4.1c2.5,0,3.3,2,3.3,3.7
		c0,0.4,0,0.6-0.1,0.8"/>
	<path class="st3" d="M146.1-56c1.1,0,1.9-1.1,1.9-2.6c0-1.2-0.5-2.6-1.8-2.6c-1.4,0-1.9,1.3-1.9,2.6C144.2-57.1,145-56,146.1-56
		L146.1-56z M146.1-54.6c-2.1,0-3.8-1.5-3.8-3.9c0-2.5,1.6-4,3.9-4c2.3,0,3.8,1.6,3.8,3.9C150-55.9,148-54.6,146.1-54.6"/>
	<path class="st3" d="M152.2-60.1c0-0.9,0-1.6-0.1-2.3h1.7l0.1,1.1h0c0.3-0.6,1.2-1.3,2.4-1.3c1.3,0,2.7,0.9,2.7,3.3v4.5h-1.9v-4.3
		c0-1.1-0.4-1.9-1.4-1.9c-0.8,0-1.3,0.5-1.5,1.1c-0.1,0.2-0.1,0.4-0.1,0.6v4.5h-1.9"/>
	<path class="st3" d="M168-64.4v1.9h1.8v1.4H168v3.3c0,0.9,0.2,1.4,1,1.4c0.3,0,0.5,0,0.8-0.1l0,1.4c-0.3,0.1-0.8,0.2-1.4,0.2
		c-0.7,0-1.3-0.2-1.7-0.6c-0.4-0.4-0.6-1.1-0.6-2.1V-61H165v-1.4h1.1v-1.4"/>
	<path class="st3" d="M171.9-65.9h1.9v4.5h0c0.2-0.4,0.6-0.7,1-0.9c0.4-0.2,0.8-0.3,1.3-0.3c1.3,0,2.7,0.9,2.7,3.3v4.5h-1.9v-4.3
		c0-1.1-0.4-1.9-1.5-1.9c-0.7,0-1.3,0.5-1.5,1.1c-0.1,0.2-0.1,0.4-0.1,0.6v4.6h-1.9"/>
	<path class="st3" d="M186.2-59.4c0-0.7-0.3-1.9-1.6-1.9c-1.2,0-1.7,1.1-1.8,1.9H186.2z M182.9-58.1c0,1.4,1.1,2,2.3,2
		c0.9,0,1.5-0.1,2.1-0.3l0.3,1.3c-0.7,0.3-1.6,0.5-2.7,0.5c-2.5,0-3.9-1.5-3.9-3.8c0-2.1,1.3-4.1,3.7-4.1c2.5,0,3.3,2,3.3,3.7
		c0,0.4,0,0.6-0.1,0.8"/>
	<path class="st3" d="M48.6-44.6c-0.1-5.2,4.3-7.7,4.5-7.9c-2.4-3.6-6.2-4-7.6-4.1c-3.2-0.3-6.3,1.9-7.9,1.9c-1.7,0-4.1-1.9-6.8-1.8
		c-3.5,0.1-6.7,2.1-8.5,5.2c-3.7,6.3-0.9,15.7,2.6,20.8c1.8,2.5,3.8,5.3,6.5,5.2C34-25.4,35-27,38.1-27c3.1,0,4.1,1.7,6.8,1.6
		c2.8,0,4.6-2.5,6.3-5.1c2-2.9,2.8-5.7,2.9-5.9C54-36.3,48.6-38.4,48.6-44.6"/>
	<path class="st3" d="M43.4-59.9c1.4-1.8,2.4-4.2,2.1-6.6c-2,0.1-4.6,1.4-6.1,3.1c-1.3,1.5-2.5,4-2.2,6.4
		C39.6-56.9,41.9-58.2,43.4-59.9"/>
	<path class="st3" d="M80.2-34.7l-1.8-5.6c-0.2-0.6-0.6-1.9-1.1-4h-0.1c-0.2,0.9-0.6,2.3-1,4l-1.8,5.6H80.2z M86.5-25.7h-3.7l-2-6.3
		h-7L72-25.7h-3.6l6.9-21.4h4.3"/>
	<path class="st3" d="M100.8-33.5c0-1.5-0.3-2.7-1-3.7c-0.7-1-1.7-1.5-3-1.5c-0.8,0-1.6,0.3-2.3,0.8c-0.7,0.6-1.1,1.3-1.4,2.2
		c-0.1,0.4-0.2,0.8-0.2,1v2.6c0,1.1,0.3,2.1,1,2.8c0.7,0.8,1.6,1.2,2.7,1.2c1.3,0,2.3-0.5,3-1.5C100.4-30.6,100.8-31.9,100.8-33.5
		 M104.3-33.6c0,2.6-0.7,4.7-2.1,6.2c-1.3,1.4-2.9,2-4.7,2c-2,0-3.5-0.7-4.4-2.2h-0.1v8.1h-3.4v-16.7c0-1.7,0-3.3-0.1-5.1h3l0.2,2.5
		h0.1c1.1-1.8,2.9-2.8,5.2-2.8c1.8,0,3.3,0.7,4.6,2.2C103.6-37.9,104.3-36,104.3-33.6"/>
	<path class="st3" d="M118.5-33.5c0-1.5-0.3-2.7-1-3.7c-0.7-1-1.7-1.5-3-1.5c-0.8,0-1.6,0.3-2.3,0.8c-0.7,0.6-1.1,1.3-1.3,2.2
		c-0.1,0.4-0.2,0.8-0.2,1v2.6c0,1.1,0.3,2.1,1,2.8c0.7,0.8,1.6,1.2,2.7,1.2c1.3,0,2.3-0.5,3-1.5C118.2-30.6,118.5-31.9,118.5-33.5
		 M122-33.6c0,2.6-0.7,4.7-2.1,6.2c-1.3,1.4-2.9,2-4.7,2c-2,0-3.5-0.7-4.4-2.2h-0.1v8.1h-3.4v-16.7c0-1.7,0-3.3-0.1-5.1h3l0.2,2.5
		h0.1c1.1-1.8,2.9-2.8,5.2-2.8c1.8,0,3.3,0.7,4.6,2.2C121.4-37.9,122-36,122-33.6"/>
	<path class="st3" d="M141.9-31.7c0,1.8-0.6,3.3-1.9,4.5c-1.4,1.2-3.3,1.9-5.8,1.9c-2.3,0-4.2-0.4-5.6-1.3l0.8-2.9
		c1.5,0.9,3.2,1.4,5,1.4c1.3,0,2.3-0.3,3-0.9c0.7-0.6,1.1-1.4,1.1-2.3c0-0.9-0.3-1.6-0.9-2.2s-1.6-1.1-3-1.7
		c-3.8-1.4-5.6-3.5-5.6-6.1c0-1.8,0.7-3.2,2-4.3c1.3-1.1,3.1-1.7,5.2-1.7c2,0,3.6,0.3,4.9,1l-0.9,2.8c-1.2-0.7-2.6-1-4.1-1
		c-1.2,0-2.2,0.3-2.8,0.9c-0.6,0.5-0.9,1.2-0.9,1.9c0,0.8,0.3,1.5,1,2.1c0.6,0.5,1.6,1.1,3.1,1.7c1.8,0.7,3.2,1.6,4.1,2.6
		C141.5-34.5,141.9-33.2,141.9-31.7"/>
	<path class="st3" d="M153.3-38.6h-3.8v7.5c0,1.9,0.7,2.9,2,2.9c0.6,0,1.1-0.1,1.5-0.2l0.1,2.6c-0.7,0.3-1.6,0.4-2.7,0.4
		c-1.4,0-2.4-0.4-3.2-1.2c-0.8-0.8-1.1-2.2-1.1-4.2v-7.8h-2.3v-2.6h2.3V-44l3.4-1v3.8h3.8"/>
	<path class="st3" d="M166.8-33.5c0-1.4-0.3-2.6-0.9-3.7c-0.7-1.2-1.7-1.9-3.1-1.9c-1.4,0-2.4,0.6-3.1,1.9c-0.6,1-0.9,2.3-0.9,3.7
		c0,1.4,0.3,2.6,0.9,3.7c0.7,1.2,1.8,1.9,3.1,1.9c1.3,0,2.3-0.6,3.1-1.9C166.5-30.8,166.8-32,166.8-33.5 M170.4-33.6
		c0,2.4-0.7,4.3-2,5.9c-1.4,1.6-3.3,2.4-5.7,2.4c-2.3,0-4.1-0.8-5.4-2.3c-1.3-1.5-2-3.4-2-5.7c0-2.4,0.7-4.4,2.1-5.9
		c1.4-1.5,3.3-2.3,5.6-2.3c2.3,0,4.1,0.8,5.5,2.3C169.7-37.8,170.4-35.9,170.4-33.6"/>
	<path class="st3" d="M181.5-38.2c-0.3-0.1-0.7-0.1-1.1-0.1c-1.2,0-2.1,0.5-2.8,1.4c-0.6,0.8-0.9,1.8-0.9,3.1v8.1h-3.4l0-10.6
		c0-1.8,0-3.4-0.1-4.9h3l0.1,3h0.1c0.4-1,0.9-1.8,1.7-2.4c0.8-0.6,1.6-0.8,2.5-0.8c0.3,0,0.6,0,0.9,0.1"/>
	<path class="st3" d="M193.6-35.1c0-1-0.2-1.9-0.7-2.6c-0.6-1-1.5-1.4-2.7-1.4c-1.1,0-2,0.5-2.7,1.4c-0.6,0.7-0.9,1.6-1,2.7H193.6z
		 M196.9-34.2c0,0.6,0,1.1-0.1,1.6h-10.3c0,1.5,0.5,2.7,1.5,3.5c0.9,0.7,2,1.1,3.4,1.1c1.5,0,2.9-0.2,4.2-0.7l0.5,2.4
		c-1.5,0.6-3.2,1-5.2,1c-2.4,0-4.3-0.7-5.6-2.1c-1.4-1.4-2.1-3.3-2.1-5.7c0-2.3,0.6-4.3,1.9-5.8c1.3-1.7,3.1-2.5,5.4-2.5
		c2.2,0,3.9,0.8,5.1,2.5C196.4-37.7,196.9-36.1,196.9-34.2"/>
</g>
</svg>
